<?xml version="1.0" encoding="UTF-8"?>
<svg id="Capa_1" data-name="Capa 1" xmlns="http://www.w3.org/2000/svg" viewBox="0 0 400 150">
  <defs>
    <style>
      .cls-1 {
        fill: #76777a;
      }

      .cls-2 {
        fill: #9ea1a2;
      }
    </style>
  </defs>
  <g>
    <path class="cls-1" d="M87.88,81.58c4.54.02,9.09-.02,13.63,0,.02,4.41-.01,8.83,0,13.24h22c1.88,0,4.45-3.08,4.77-4.96.85-4.96-1.96-7.79-6.72-8.27-6-.61-13.82.03-20.04,0-.02-4.54-.02-9.09,0-13.63,6.13.03,13.73.54,19.68.02,5.37-.47,7.98-6.38,4.68-10.55-.42-.52-3.14-2.32-3.52-2.32h-20.83c-.02,4.28.02,8.57,0,12.85-4.54-.02-9.09.01-13.63,0v-26.47h38.35c7.03,0,14.74,7.64,15.39,14.58.85,9.08-2.43,13.5-9.98,17.3-1.65.83.39.84,1.21,1.18,15.2,6.37,13.1,29.46-3.3,33.33-.47.11-2.7.56-2.94.56h-38.74c-.04-8.95.06-17.92,0-26.86"/>
    <path class="cls-1" d="M259.95,108.44c-.2-.2-.01-4.95.27-5.77l23.53-61.15c6.07.04,12.32-.32,18.3.18l23.44,60.96.27,5.77h-14.4l-3.85-11.06c-9.61-.51-19.5-.13-29.2-.19l-3.93,11.25c-1.8-.39-13.9.51-14.4,0ZM303.17,84.69l-10.32-28.81-10.32,28.81h20.63Z"/>
    <path class="cls-1" d="M199.62,87.81c6.55,6.67,17.19,11.05,26.56,8.85,6.69-1.57,10.28-8.47,3.04-12.17-12.67-6.47-36.65-3.24-35.05-25.67,1.49-20.86,30.89-22.19,45.42-14.28,1.18.64,6.37,3.85,6.36,4.93,0,.64-7.02,10.15-7.65,10.27s-3.21-2.19-4.17-2.74c-5.38-3.11-20.38-7.59-24.34-.85-3.45,5.87,2.91,8.05,7.25,9.37,12.41,3.78,30.51,4.79,30.86,22.09.53,26-35.28,26.65-51.3,15.48-.89-.62-4.14-3.03-4.35-3.86-.34-1.34,6.83-9.27,7.36-11.4Z"/>
    <rect class="cls-1" x="160.29" y="41.48" width="14.4" height="66.96"/>
  </g>
  <rect class="cls-2" x="74.25" y="67.95" width="13.63" height="13.63"/>
</svg>