<?xml version="1.0" encoding="UTF-8"?>
<svg id="Capa_1" data-name="Capa 1" xmlns="http://www.w3.org/2000/svg" viewBox="0 0 400 150">
  <defs>
    <style>
      .cls-1 {
        fill: #ed1c24;
      }
    </style>
  </defs>
  <path class="cls-1" d="M105.51,44.31c16.43-.32,30.87,13.28,30.87,30.78,0,16.19-13.41,31.56-32.8,30.56-14.2-.73-29.39-13.18-28.61-32.06.7-17.05,14.96-29.34,30.54-29.28ZM105.93,92.57c11.22-.11,22.33-9.61,21.56-23.37-.59-10.52-10.35-21.34-23.68-20.18-11.21.97-22,11.23-19.46,25.87,1.02,5.87,4.26,10.49,9.17,13.88,3.52,2.43,7.44,3.66,11.74,3.78-.01-.23-.13-.31-.21-.41-1.19-1.35-2.23-2.81-3.18-4.33-.97-1.55-1.9-3.12-2.52-4.85-.52-1.45-.38-2.95-.4-4.45-.03-2.05.83-3.74,2.25-5.14,1.54-1.52,3.46-2,5.55-1.65,2.68.45,4.33,2.17,5.2,4.65.94,2.67.56,5.28-.52,7.83-1.07,2.52-2.65,4.73-4.34,6.86-.38.47-.74.95-1.17,1.51Z"/>
  <g>
    <path class="cls-1" d="M214.15,77.34c.08-2.43.14-4.95,1.03-7.38,1.78-4.82,5.18-7.7,10.24-8.65,2.5-.47,5.01-.72,7.55-.49,2.63.24,5.23.65,7.58,1.95,3.42,1.89,5.49,4.81,6.41,8.58.31,1.28.49,2.58.54,3.89.12,3.02.21,6.03-.81,8.97-1.52,4.35-4.49,7.14-8.88,8.42-2.78.81-5.64.85-8.51.75-2.29-.07-4.47-.68-6.62-1.43-3.62-1.27-5.94-3.83-7.29-7.33-.91-2.36-1.23-4.31-1.23-7.28ZM239.6,77.02c.03-1.56-.1-3.23-.51-4.86-.7-2.76-2.24-4.75-5.11-5.51-1.43-.38-2.9-.39-4.36-.31-3.25.17-5.61,1.96-6.68,5.02-.44,1.27-.63,2.58-.71,3.91-.14,2.34-.08,4.67.55,6.94.81,2.92,2.54,4.94,5.61,5.59,1.33.28,2.69.16,4.03.05,3.09-.25,5.22-1.75,6.3-4.7.71-1.95.88-3.96.88-6.12Z"/>
    <path class="cls-1" d="M201.22,92.56c-3.16-.04-5.76-.05-8.36-.22-1.39-.09-2.65-.62-3.82-1.35-3.43-2.16-5.4-5.36-6.2-9.23-.66-3.21-.66-6.48.17-9.68.76-2.9,2.17-5.47,4.5-7.43,1.85-1.56,3.99-2.43,6.43-2.55,4.82-.24,9.64-.13,14.46-.19.36,0,.43.11.43.45-.02,1.53-.02,3.06,0,4.59,0,.4-.13.49-.5.49-3.72.05-7.44.19-11.16.16-1.75-.01-3.14.72-4.47,1.67-1.21.87-1.58,2.26-1.94,3.61-.1.36-.11.75-.17,1.12-.06.38.04.55.49.55,3.47,0,6.94.05,10.42.07,2.02.02,4.05.04,6.07.02.47,0,.57.16.56.59-.03,1.4-.03,2.79,0,4.19,0,.41-.11.52-.52.52-5.36.02-10.73.06-16.09.1-.95,0-1.01-.2-.87.96.39,3.02,2.12,5.07,4.82,5.69.95.22,1.93.23,2.9.25,3.32.06,6.65.1,9.97.13.48,0,.61.14.6.61-.03,1.46-.03,2.93,0,4.39,0,.39-.11.5-.49.49-2.6-.02-5.2,0-7.24,0Z"/>
    <path class="cls-1" d="M322.38,92.53c-1.1.02-2.2.04-3.29-.16-1.06-.2-1.89-.72-2.49-1.61-.84-1.23-1.42-2.6-1.94-3.97-.32-.84-.76-1.08-1.65-1.07-3.59.02-7.17-.04-10.76-.09-.4,0-.56.12-.71.49-.55,1.35-1.17,2.68-1.85,3.97-.33.63-.75,1.19-1.33,1.63-.64.49-1.35.72-2.15.75-1.46.05-2.93.12-4.39.1-.21,0-.43-.01-.64-.03-.35-.03-.43-.16-.27-.51,3.69-8.41,7.24-16.89,11.08-25.24.43-.93.92-1.82,1.41-2.71.68-1.24,1.74-1.88,3.12-2.05,1.55-.19,3.11-.29,4.67-.12.45.05.73.2.93.65,4.33,9.77,8.61,19.55,12.82,29.36.22.51.18.59-.39.62-.72.03-1.45,0-2.17,0ZM307.68,80.12v-.08c1.35,0,2.7.02,4.04,0,.69-.01.72-.1.46-.71-1.26-2.94-2.52-5.88-3.8-8.81-.1-.23-.13-.62-.4-.61-.24,0-.31.38-.42.61-1.48,3-2.73,6.11-4.06,9.18-.18.41,0,.43.32.43,1.28,0,2.57,0,3.85,0Z"/>
    <path class="cls-1" d="M163.3,83.14c.52-.93.88-1.79,1.24-2.65,2.17-5.07,4.14-10.22,6.3-15.29.49-1.15,1.11-2.12,2.25-2.68.51-.25,1.04-.4,1.61-.42,1.79-.08,3.59-.06,5.38-.07.35,0,.48.05.31.44-4.16,9.11-8.22,18.26-12.5,27.31-.88,1.85-2.25,2.7-4.18,2.86-.98.08-1.97.13-2.96.18-.88.04-.93-.01-1.29-.82-4.28-9.72-8.56-19.44-12.84-29.15-.09-.19-.16-.39-.24-.61.62-.2,1.23-.12,1.84-.16,1.07-.07,2.14-.02,3.21.02,1.74.08,3.01.92,3.75,2.46,1.74,3.63,3.27,7.34,4.86,11.04,1,2.32,1.99,4.65,2.98,6.97.07.16.15.32.27.58Z"/>
    <path class="cls-1" d="M253.2,72.46c0-3.34,0-6.67,0-10.01,0-.42.09-.57.54-.55,1.25.05,2.5-.06,3.75.09,1.45.18,2.62.98,2.73,2.7.26,3.97.17,7.95.27,11.93.05,2.05.07,4.11.07,6.16,0,1.46.76,2.47,1.85,3.28.97.72,2.11.87,3.28.88,3.01.05,6.02.1,9.03.12.48,0,.61.13.59.61-.03,1.48-.02,2.96,0,4.44,0,.33-.08.46-.43.45-3.97-.05-7.93.12-11.89-.13-3.18-.2-5.94-1.32-7.89-4.02-1.04-1.45-1.55-3.06-1.68-4.82-.28-3.71-.18-7.42-.21-11.14Z"/>
    <path class="cls-1" d="M279.88,78.39c0-3.66-.01-7.33,0-10.99,0-1.03.07-2.07.14-3.1.08-1.13.79-1.76,1.8-2.1.96-.32,1.98-.3,2.98-.37.56-.04,1.12-.02,1.68-.05.31-.02.42.1.39.39,0,.06,0,.13,0,.2,0,8.02-.01,16.03-.02,24.05,0,1.25-.06,2.49-.19,3.74-.14,1.3-.6,1.96-2.21,2.29-1.18.24-2.39.09-3.59.11-1.11.02-1.1,0-1.1-1.1,0-4.35,0-8.71,0-13.06.04,0,.08,0,.12,0Z"/>
  </g>
</svg>