<?xml version="1.0" encoding="UTF-8"?>
<svg id="Capa_1" data-name="Capa 1" xmlns="http://www.w3.org/2000/svg" viewBox="0 0 400 150">
  <defs>
    <style>
      .cls-1, .cls-2 {
        fill: #d0d1d3;
      }

      .cls-3, .cls-4 {
        fill: #76777a;
      }

      .cls-5, .cls-6, .cls-2, .cls-7, .cls-4 {
        fill-rule: evenodd;
      }

      .cls-5, .cls-8 {
        fill: #aeaeaf;
      }

      .cls-6 {
        fill: #9ea1a2;
      }

      .cls-7 {
        fill: #d3d3d3;
      }
    </style>
  </defs>
  <g>
    <path class="cls-6" d="M62.72,42.18c-6,5.61-10.2,12.88-12.07,20.88,12.86,13.26,22.54,29.61,27.62,47.87,3.89,1.19,7.94,1.83,12.15,1.83s8.18-.56,12.07-1.75c5.08-18.26,14.76-34.69,27.55-47.94-1.79-7.97-5.94-15.22-11.91-20.8-9.06,2.27-18.36,3.41-27.7,3.41-9.61,0-18.81-1.27-27.71-3.49Z"/>
    <path class="cls-3" d="M90.42,115c-4.32,0-8.63-.65-12.8-1.92l-1.18-.36-.33-1.19c-4.85-17.43-14.21-33.64-27.07-46.9l-.86-.88.28-1.2c1.97-8.47,6.37-16.08,12.72-22.01l.9-.84,1.19.3c9.22,2.3,18.1,3.42,27.16,3.43,9.15,0,18.28-1.13,27.16-3.35l1.19-.3.9.84c6.33,5.91,10.67,13.5,12.57,21.95l.27,1.18-.84.87c-12.8,13.28-22.14,29.53-27,46.98l-.33,1.19-1.18.36c-4.06,1.24-8.22,1.84-12.72,1.84ZM80.1,109.1c3.38.92,6.85,1.39,10.32,1.39s6.98-.43,10.24-1.31c5.03-17.32,14.3-33.46,26.89-46.79-1.72-6.71-5.19-12.76-10.1-17.65-8.85,2.11-17.93,3.18-27.03,3.18h0c-8.9,0-17.99-1.1-27.04-3.26-4.94,4.91-8.46,11-10.25,17.73,12.64,13.32,21.94,29.42,26.96,46.71Z"/>
  </g>
  <g>
    <path class="cls-6" d="M55.57,72.1c0-19.29,15.56-34.85,34.77-34.85s34.85,15.56,34.85,34.85-15.56,34.76-34.85,34.76c-19.21,0-34.77-15.56-34.77-34.76h0Z"/>
    <path class="cls-3" d="M90.34,109.12c-9.89,0-19.19-3.85-26.18-10.84-6.99-6.99-10.84-16.29-10.84-26.18s3.85-19.25,10.84-26.25c6.99-7,16.29-10.85,26.18-10.85s19.25,3.85,26.25,10.85c7,7,10.85,16.32,10.85,26.25s-3.85,19.19-10.85,26.18c-7,6.99-16.32,10.84-26.25,10.84h0ZM90.34,39.51c-17.93,0-32.51,14.62-32.51,32.6,0,8.69,3.38,16.85,9.52,22.99,6.14,6.14,14.3,9.52,22.99,9.52h0c17.97,0,32.59-14.58,32.59-32.51s-14.62-32.6-32.59-32.6Z"/>
  </g>
  <path class="cls-1" d="M90.42,113.92c-4.21,0-8.41-.63-12.49-1.88l-.61-.19-.17-.62c-.61-2.21-1.3-4.4-2.06-6.57-3.73-1.75-7.17-4.15-10.17-7.15-6.79-6.79-10.52-15.81-10.52-25.41,0-1.03.04-2.05.13-3.06-1.52-1.77-3.09-3.5-4.72-5.17l-.44-.46.14-.62c1.92-8.26,6.21-15.68,12.41-21.47l.47-.43.62.15c2.28.57,4.54,1.07,6.78,1.49,5.98-4.19,13.1-6.45,20.56-6.45s14.7,2.28,20.71,6.52c2.28-.42,4.54-.92,6.79-1.48l.62-.15.47.43c6.17,5.76,10.4,13.16,12.25,21.4l.14.61-.44.45c-1.6,1.66-3.15,3.37-4.65,5.12.09,1.03.13,2.07.13,3.11,0,9.61-3.74,18.63-10.53,25.41-2.98,2.98-6.4,5.37-10.12,7.12-.77,2.2-1.47,4.43-2.09,6.68l-.17.62-.61.19c-3.96,1.21-8.02,1.8-12.41,1.8ZM79.23,109.98c3.66,1.06,7.42,1.59,11.19,1.59s7.57-.5,11.11-1.51c.4-1.42.83-2.82,1.29-4.22-3.94,1.45-8.16,2.2-12.49,2.2h0c-4.29,0-8.46-.75-12.37-2.17.45,1.36.87,2.74,1.26,4.12ZM76.97,102.94c4.16,1.81,8.7,2.75,13.37,2.75h0c4.8,0,9.37-1.01,13.51-2.82,4.51-12.53,11.29-24.3,19.95-34.64-1.08-9.45-6.1-17.73-13.37-23.15-6.6,1.16-13.3,1.75-20.01,1.75h0c-6.71,0-13.33-.6-20.04-1.81-7.31,5.43-12.35,13.75-13.42,23.26,8.71,10.35,15.5,22.12,20.01,34.66ZM56.75,71.71c0,.13,0,.26,0,.39,0,8.98,3.49,17.42,9.84,23.76,2.21,2.21,4.67,4.07,7.32,5.56-4.1-10.65-9.9-20.7-17.16-29.71ZM124.02,71.67c-7.21,9-12.99,19.03-17.1,29.67,10.2-5.78,17.1-16.72,17.1-29.23,0-.15,0-.29,0-.44ZM51.94,62.7c1.02,1.06,2.01,2.14,2.98,3.23,1.24-7.29,4.69-13.99,10-19.32.77-.77,1.56-1.5,2.39-2.19-1.41-.29-2.83-.62-4.26-.96-5.46,5.26-9.29,11.89-11.12,19.24ZM113.52,44.5c.79.67,1.56,1.37,2.3,2.12,5.31,5.31,8.75,11.99,10,19.26.95-1.08,1.93-2.14,2.92-3.18-1.76-7.33-5.54-13.92-10.96-19.16-1.42.35-2.84.66-4.26.96ZM73.22,43.14c5.75.91,11.44,1.36,17.2,1.36h0c5.75,0,11.49-.44,17.17-1.31-5.05-3.02-10.95-4.76-17.25-4.76s-12.11,1.72-17.12,4.71Z"/>
  <g>
    <path class="cls-2" d="M78.2,70.83c2.14-.32,4.13.32,5.32,1.98-4.68-2.54-8.89,3.1-13.26-.55-.87-.64-1.51-1.98-1.83-2.7,0,0,3.73,2.86,9.76,1.27Z"/>
    <path class="cls-8" d="M85.47,74.54l-2.23-1.21c-1.99-1.08-3.9-.52-5.92.08-2.39.7-4.87,1.43-7.41-.68-.94-.69-1.59-2-2-2.92l-.93-2.1,1.82,1.4s3.6,2.66,9.26,1.17h.06c2.47-.38,4.61.43,5.88,2.21l1.48,2.06ZM69.88,71c.22.31.47.6.73.79l.03.02c2.07,1.73,4.05,1.15,6.35.47,1.18-.35,2.46-.72,3.78-.73-.74-.22-1.57-.27-2.45-.15-3.79.99-6.71.31-8.44-.41Z"/>
  </g>
  <path class="cls-7" d="M89.55,60.59c-2.46,0-4.76.48-5.64,1.75,0,0-.95.95-1.19,1.75,0,0-6.35-4.29-8.33,5.08,0,0,3.89-2.78,6.03-.95,0,0,1.19,1.51,3.18,2.07,2.78.71,2.46,1.27,2.62,1.9,0,0-.4.87-2.78,2.38-2.38,1.5-3.73.79-5.95.08,0,0-.16,3.25,4.21,3.17,0,0,.71.08,1.59,0,0,0-5.24,2.22-3.25,7.62,0,0,1.83-2.22,3.81-2.7,0,0-5.71,6.43,1.83,12.78,0,0,0-5.79,2.14-7.54,0,0,1.19,4.52.71,7.06,0,0-.08,2.22-.71,3.33,0,0,8.89-.16,6.35-10.88,0,0,3.57,1.19,2.78,6.11,0,0,8.02-4.05,2.78-12.23,0,0,3.02,0,3.97,3.57,0,0,4.21-6.59-2.86-12.86,0,0,2.7-.64,4.13,1.5,0,0-.16-5-4.92-7.46-1.11-.56.63-2.3.16-3.25l-10.64-2.3h0Z"/>
  <path class="cls-8" d="M86.79,98.98l.51-.89c.46-.81.62-2.49.64-3.06v-.09c.32-1.63-.12-4.2-.43-5.67-1.01,1.76-1.25,4.97-1.26,6.25v1.26s-.96-.81-.96-.81c-2.53-2.13-3.9-4.5-4.09-7.06-.14-1.9.41-3.54.99-4.7-.99.72-1.7,1.59-1.71,1.6l-.65.79-.35-.96c-1.34-3.65.36-5.99,1.84-7.24-1.49-.04-2.64-.46-3.42-1.27-1.06-1.09-1-2.46-1-2.52l.04-.76.73.23c.23.07.45.15.67.22,1.81.6,2.9.97,4.8-.24,1.62-1.02,2.26-1.73,2.47-2.01,0-.01,0-.02,0-.04-.05-.32-.1-.66-2.14-1.18-1.97-.55-3.2-1.93-3.45-2.22-1.48-1.19-4.3.32-5.28,1.01l-1.22.87.31-1.47c.7-3.33,2.04-5.41,3.97-6.19,1.87-.76,3.74-.06,4.67.41.35-.61.85-1.14,1.01-1.3,1.16-1.61,3.94-1.95,6.09-1.95v1.17c-2.62,0-4.5.54-5.15,1.49l-.03.04-.04.04c-.24.24-.88.97-1.04,1.5l-.23.76-.66-.45s-2.19-1.44-4.18-.63c-1.29.52-2.27,1.87-2.91,4,1.45-.74,3.85-1.58,5.5-.18l.04.04.04.05s1.11,1.37,2.87,1.87c2.36.6,2.84,1.17,2.99,2.13.01.07.02.14.04.19l.05.2-.08.19c-.08.17-.59,1.11-3,2.63-2.26,1.43-3.74,1.04-5.52.45.1.27.26.56.52.83.61.62,1.6.93,2.93.9h.04s.04,0,.04,0c0,0,.67.07,1.47,0l3.71-.34-3.43,1.46c-.18.08-4.1,1.82-3.21,5.94.76-.74,2.03-1.79,3.4-2.12l1.81-.43-1.24,1.39s-2.15,2.47-1.91,5.7c.14,1.91,1.07,3.72,2.76,5.41.14-1.89.61-5.34,2.31-6.72l.7-.57.23.88c.05.19,1.21,4.63.73,7.28-.01.25-.08,1.49-.39,2.57,1.07-.2,2.84-.76,4.03-2.3,1.36-1.76,1.65-4.37.85-7.74l-.24-1.02,1,.33s3.41,1.19,3.29,5.53c1-.74,2.51-2.13,3.06-4.16.55-2.01.05-4.24-1.47-6.61l-.58-.9h1.07c1.01,0,2.94.59,4.02,2.68.25-.67.52-1.6.59-2.69.19-3.02-1.12-5.79-3.89-8.25l-.84-.75,1.1-.26c.1-.02,1.84-.42,3.39.47-.44-1.57-1.54-3.9-4.32-5.34-1.09-.54-.63-1.72-.35-2.42.15-.38.35-.9.26-1.09l1.05-.52c.33.66.04,1.39-.21,2.04-.11.28-.31.79-.25.92,0,0,.02.01.05.03,5.02,2.59,5.24,7.75,5.24,7.97l.06,2.05-1.14-1.7c-.62-.93-1.53-1.23-2.26-1.31,2.94,3.09,3.43,6.17,3.28,8.3-.18,2.55-1.27,4.28-1.31,4.35l-.72,1.12-.34-1.28c-.46-1.71-1.43-2.49-2.22-2.84,1.15,2.23,1.46,4.37.92,6.36-1,3.64-4.47,5.43-4.62,5.5l-1.02.52.18-1.13c.43-2.66-.54-4.1-1.36-4.83.51,3.12.06,5.6-1.34,7.41-2.14,2.76-5.69,2.85-5.84,2.86l-1.03.02Z"/>
  <path class="cls-2" d="M88.04,70.2c-.56-.4-1.19-.55-1.83-.24,1.75.08,1.99,2.46,3.89,1.99.32-.16.64-.24.95-.48-1.27.56-2.22-.56-3.02-1.27ZM86.22,64.64c0,.08.08.16.08.24,0,.56-.56,1.11-1.11,1.11-.61-.01-1.1-.5-1.11-1.11v-.16c.32.08.79.08,1.51-.08h.63Z"/>
  <path class="cls-8" d="M85.14,67.71c-.18,0-.33-.02-.47-.05-2.08-.39-2.5-2.58-2.44-3.69l.08-1.34.91.99s.69.68,2.2.24l.07-.02c1.82-.3,2.74.25,3.02.47.47.19.82.56.91.66l-.85.75c-.19-.21-.49-.4-.6-.38-.02,0-.1.06-.19.28-.58,1.65-1.79,2.07-2.64,2.07ZM83.47,65c.15.63.52,1.37,1.43,1.54h.02c.12.03,1.27.22,1.8-1.29v-.02c.05-.12.11-.23.16-.32-.3-.03-.69-.03-1.17.05-.96.27-1.7.21-2.24.05Z"/>
  <path class="cls-5" d="M96.77,69.33l-.4,1.27c2.06,2.7,1.91,5,1.35,6.51-.63-2.86-2.46-3.57-2.62-3.57l-1.03-.4.32,1.03c.48,1.98.32,3.65-.4,4.84-.32.56-.71.88-1.19,1.19,1.03-2.7-.48-4.37-.56-4.44l-.87-1.03-.08,1.35c-.08,1.67-.79,2.54-1.43,3.02.25-.89.19-1.84-.16-2.7l-1.03.56c0,.08.71,1.51-.63,2.86l-1.11,1.11,1.59-.08s2.46-.24,3.49-2.7c.08.71-.16,1.75-.95,2.94l-.79,1.19,1.43-.32c.08,0,2.06-.4,3.25-2.3.72-1.11,1.03-2.54.87-4.12.48.63.95,1.75.95,3.49v1.67l1.03-1.27c0-.08,3.89-5.16-1.03-10.08h0Z"/>
  <path class="cls-7" d="M101.93,51.54c-1.11-.16-2.38.71-2.7,1.75-.16.56,0,1.19.24,1.59-.24-.24-.56-.4-.95-.56-1.03-.24-2.14.32-2.38,1.43-.24,1.27.24,2.22,1.19,2.54.4.08.56.16,1.03.08-.79,1.19-1.67,1.91-3.25,1.91s-2.7-1.67-3.49-2.86c0,0,.79.32,1.19.32,1.11,0,1.99-.87,1.99-1.99s-.87-2.06-1.99-2.06c-.4,0-.71.16-1.03.32.4-.4.63-.95.63-1.51,0-1.11-.87-1.99-1.99-1.99s-1.99.87-1.99,1.99c0,.56.24,1.11.63,1.51-.3-.22-.66-.33-1.03-.32-1.11,0-1.99.95-1.99,2.06s.87,1.99,1.99,1.99c.48,0,.87-.08,1.19-.32-.71,1.19-1.9,2.86-3.49,2.86s-2.46-.72-3.18-1.91c.4.08.56,0,.95-.08.95-.32,1.43-1.27,1.27-2.54-.3-1.06-1.39-1.69-2.46-1.43-.4.16-.71.32-.95.56.24-.4.4-1.03.24-1.59-.32-1.03-1.59-1.91-2.7-1.75l4.37,10.71h-.08,14.37l4.37-10.71h0Z"/>
  <path class="cls-5" d="M95.11,64.48s2.86-3.65,7.22-3.18c0,0-1.19,5.4-5.95,6.35l-1.27-3.18h0Z"/>
  <path class="cls-1" d="M96.49,68.23l-.23-1.15c3.36-.67,4.81-3.83,5.3-5.23-3.59,0-5.97,2.96-5.99,2.99l-.92-.72c.12-.16,3.11-3.9,7.75-3.4l.65.07-.14.64c-.05.24-1.33,5.78-6.41,6.8Z"/>
  <path class="cls-2" d="M96.54,64.96s1.59-1.59,3.57-1.9c0,0-.95,2.3-3.25,2.78l-.32-.87Z"/>
  <path class="cls-4" d="M324.99,78.37l9.13-.08-4.84-10.64-4.29,10.72ZM310.23,59v24.13l9.76-24.13h18.65l13.18,32.47h-12.23l-2.3-4.92h-15.63l-1.99,4.92h-21.99v-32.47h12.54ZM230.05,78.37h9.29l-4.92-11.04-4.37,11.04h0ZM225.45,59h18.42l9.92,24.13v-24.13h15.95l13.26,17.47v-17.47h12.07v32.47h-14.69l-14.84-19.29v19.21h-20.72l-2.15-5h-15.95l-2.14,5.08h-12.15l1.27-3.33c-4.13,3.02-7.46,3.97-13.89,3.97-10.08,0-15.24-2.54-19.21-9.29-1.99,6.43-8.1,9.13-20.48,9.13s-20-3.81-20-10.87v-.32h14.21c0,2.94,2.3,4.44,6.75,4.44,2.62,0,5.08-1.67,5.08-3.41,0-2.07-1.75-3.02-5.71-3.1l-5.32-.16c-8.97-.24-13.65-3.57-13.65-9.76,0-7.3,6.35-10.8,19.45-10.8,11.75,0,18.26,3.65,18.26,10.32v.48h-13.81c0-3.41-1.43-4.84-5.24-4.84-3.25,0-5.08,1.19-5.08,3.18s1.83,2.94,4.92,3.02l7.14.16,4.84.4c2.3.16,5.32,1.75,7.22,3.73,1.03-11.51,7.06-16.51,20-16.51,12.07,0,20,5.16,20,12.94v.48h-13.1c-.71-3.73-3.02-5.56-7.06-5.56-5,0-7.54,3.33-7.54,9.92,0,5.08,3.02,8.49,7.62,8.49,3.97,0,6.19-1.83,7.15-5.87h11.43l7.78-19.29h0Z"/>
</svg>