<?xml version="1.0" encoding="UTF-8"?>
<svg id="Capa_1" data-name="Capa 1" xmlns="http://www.w3.org/2000/svg" viewBox="0 0 400 150">
  <defs>
    <style>
      .cls-1 {
        fill: #848585;
      }

      .cls-1, .cls-2 {
        fill-rule: evenodd;
      }

      .cls-2 {
        fill: #b2b1b0;
      }
    </style>
  </defs>
  <g id="Capa_1-2" data-name="Capa_1">
    <g id="_2079604865248" data-name=" 2079604865248">
      <path class="cls-2" d="M183.99,39.74c0,.73-2.03,3.65-2.72,5.03-2.51,5.03-5.23,12.14-5.23,18.22,0,6.46.71,10.07,3.09,15.99,1.01,2.51,2.11,4.94,3.5,7.23,1.42,2.34,4.97,7.74,7.12,9.18l-1.63-6.92c-.71-2.99-2.19-11.8-2.34-15.15-.55-11.8-.89-16.49,3.1-27.7,1.4-3.92,4.25-9.76,6.37-13.3l3.84-6.1c-2.53.67-8.78,6.97-9.94,7.75-.22-.82-3.23-5.01-3.93-5.81l-2.28-2.49c-.69-.78-1.5-2.16-2.54-2.43.62,2.66,1.24,5.41,1.81,8.13l1.36,6.19c.15.73.41,1.42.41,2.17h0Z"/>
      <path class="cls-1" d="M187.57,58.03c1.5.8,2.9,1.51,4.33,2.42,1.39.89,2.59,1.84,3.9,2.86l10.11,10.36c2.04,2.53,3.93,5.29,5.66,8.05l2.62,4.33c0-2.36-.57-4.55-1.01-6.54-.31-1.41-1.56-5.17-1.58-5.98,1.18,0,2.51-.3,3.66-.51,1.32-.25,2.18-.45,3.38-.79,1.23-.35,2-.62,3.17-1,.75-.25,2.49-.69,2.91-1.27l-15.8-3.48c-1.33-.35-.74-.59-2.46-2.91-3.54-4.77-7.28-8.99-12.27-12.38-.93-.63-3.61-2.26-4.65-2.5-.06.67-.4,1.61-.56,2.23l-1.01,4.56c-.12.69-.2,2.1-.42,2.56h0Z"/>
      <path class="cls-1" d="M175.64,109.7c.25,1.06.85,2.42,1.28,3.49l4.09,10.42h-10.93l5.42-13.66s.06-.1.07-.13c.01-.03.05-.09.07-.13h0ZM161.33,134.55h4.57c.07-.79,1.07-2.96,1.37-3.8l1.11-2.86c.21-.45.12-.69.7-.69h12.92c.62,0,.54.31,1.02,1.56l2.36,5.79h4.37c-.1-1.15-4.98-12.32-5.82-14.45-.48-1.21-.93-2.31-1.47-3.5l-3.02-7.32c-.36-.89-1.35-2.84-1.42-3.75h-4.57l-11.36,27.2c-.23.56-.47,1.27-.76,1.82h0Z"/>
      <path class="cls-1" d="M226.92,109.9l5.37,13.71h-10.93c.27-1.17.87-2.3,1.31-3.46.43-1.13,3.59-9.76,4.26-10.25h0ZM212.61,134.55h4.37c.44-.93,2.72-6.58,2.78-7.35h13.91c.26,1.13.95,2.58,1.36,3.61.46,1.15,1.15,2.57,1.42,3.75h4.57c-.06-.73-5.57-13.61-5.99-14.68-.48-1.19-.96-2.4-1.5-3.66l-4.13-9.98c-.47-1.04-.39-.69-4.28-.69-.72,0-1.34,2.19-1.82,3.35l-10.71,25.66h0Z"/>
      <path class="cls-1" d="M192.94,112.68c0,4.15,2.04,6.1,5.36,7.75,1.29.64,2.83,1.31,4.1,2.06,3.41,2.03,3.33,5.78,1.2,7.4-2.64,2.01-6.25,1.33-9.05.22-1.03-.41-.92-.41-1.03,1.01-.07.94-.17,1.6-.17,2.81,2.54.21,1.44.99,7.15.99,8.59,0,11.88-9.3,6.71-14.46-3.34-3.34-8.77-3.7-9.71-7.2-.63-2.31,1.44-4.38,3.8-4.38,5.57,0,4.04.8,6.36.99.21-.92.52-2.8.6-3.78-5.14-2.46-15.3-1.42-15.3,6.56h0Z"/>
      <path class="cls-1" d="M140.27,109.3h8.74v25.24h4.17v-25.24h8.35c.9,0,.6-1.02.6-3.18,0-.46-.14-.6-.6-.6h-21.27v3.78h0Z"/>
      <path class="cls-1" d="M163.12,73.13c-1.92,0-4.57.22-6.36-.2.54,1.49,10.65,4.35,11.53,4.37-.06.76-1.95,4.83-2.41,6.33l-1.76,6.98c1.01-.27,3.85-3.73,4.72-4.62l6.26-6.26c.84-.85.6-1.04,2.14-1.04l-1.99-6.56c-1.61,0-7.63.99-12.12.99h0Z"/>
      <path class="cls-1" d="M187.17,68.76c0,1.11.15,1.28.2,2.19l.34,4.43c.1.75.21,1.55.26,2.13l3.9-1.07c1.37-.45,2.57-.83,3.82-1.34,1.39-.57,5.69-2.72,6.39-3.75-.91-1.36-3.09-3.12-4.22-4.13-.36-.32-.54-.57-.9-.89-.63-.56-1.36-1.09-2.04-1.54-1.33.71-1.6,1.1-3.64,2.12l-4.11,1.85h0Z"/>
      <path class="cls-1" d="M156.56,48.29c1.44,0,3.63.59,5.09.88,1.72.34,3.39.7,5.01,1.15l9.38,2.74c.32-.66.71-1.92.96-2.61.35-.95.61-1.71,1.02-2.55,1.43-2.94,2.26-2.58-7.75-2.58-2.6,0-5.15.46-7.44.91-1.35.27-5.65,1.21-6.28,2.07h0Z"/>
      <path class="cls-1" d="M204.46,58.03l4.97,6.16c.15-.54,2.23-3.14,2.97-4.38.5-.83.92-1.51,1.41-2.37,1.31-2.28,2.64-5.1,3.54-7.59.49-1.35,1.61-4.29,1.61-5.94l-8.8,9.08c-.44.37-.55.37-.99.8l-2.84,2.52c-.44.34-.53.48-.97.82-.55.42-.53.32-.91.88h0Z"/>
    </g>
  </g>
</svg>