<?xml version="1.0" encoding="UTF-8"?>
<svg id="Capa_1" data-name="Capa 1" xmlns="http://www.w3.org/2000/svg" viewBox="0 0 400 150">
  <defs>
    <style>
      .cls-1 {
        fill: #6f6f6e;
      }

      .cls-2 {
        fill: #fff;
      }
    </style>
  </defs>
  <path class="cls-2" d="M241.2,75c0,22.75-18.44,41.2-41.2,41.2s-41.2-18.44-41.2-41.2,18.44-41.2,41.2-41.2,41.2,18.44,41.2,41.2"/>
  <path class="cls-1" d="M171.58,75v-11.71h3.4l.35,1.27h.05c.82-1.03,1.88-1.5,3.23-1.5,1.66,0,2.65.75,3.09,1.9h.09c.84-1.41,2.13-1.9,3.49-1.9,2.44,0,3.4,1.59,3.4,3.7v8.25h-3.75v-7.89c0-.91-.77-1.2-1.38-1.2s-1.5.38-1.55,1.41v7.68h-3.75v-7.89c0-.91-.77-1.2-1.38-1.2s-1.55.4-1.55,1.55v7.54h-3.75Z"/>
  <path class="cls-1" d="M194.31,70.27c.09,1.19.54,1.92,1.69,1.92h4.33v2.48c-1.66.45-3.09.56-4.33.56-4.12,0-5.67-2.34-5.67-6.09s1.8-6.09,6-6.09c3.4,0,4.9,1.9,4.9,3.82,0,1.71-.7,3.4-3.49,3.4h-3.42ZM194.35,68.04h2.01c.73,0,1.1-.42,1.1-.96s-.45-.98-1.24-.98c-1.12,0-1.71.75-1.87,1.94"/>
  <path class="cls-1" d="M212.12,66.08v-2.48c1.66-.33,3.37-.56,4.83-.56,3,0,4.76.73,4.76,3.96v7.99h-3.4l-.35-1.27h-.05c-.84,1.17-1.78,1.5-3.14,1.5-2.2,0-3.37-1.71-3.37-3.73,0-3.04,2.23-3.65,3.89-3.65h2.67v-.68c0-.73-.28-1.08-1.45-1.08h-4.38ZM217.96,70.08h-1.5c-.8,0-1.31.31-1.31,1.15,0,.91.66,1.12,1.29,1.12.58,0,1.52-.35,1.52-1.52v-.75Z"/>
  <path class="cls-1" d="M210.24,66.12v-2.83h-2.65v-3.28h-1.91c-.21,1.78-1.62,3.2-3.41,3.4v2.72h1.57v5.55c0,2.08,1.03,3.56,3.75,3.56,1.05,0,1.71-.21,2.65-.56v-2.48h-1.59c-.75,0-1.05-.33-1.05-.87v-5.2h2.65Z"/>
  <path class="cls-1" d="M223.15,58.6h3.75v12.72c0,.73.23.87,1.52.87v2.93c-4.5.23-5.27-.59-5.27-3.8v-12.72Z"/>
  <path class="cls-1" d="M172.53,94.39h-.95v-16.62h.95v1.54h.05c1.02-1.31,2.09-1.78,3.63-1.78,3.44,0,4.63,2.56,4.63,6.17s-1.52,6.17-5.11,6.17c-1.31,0-1.78-.05-3.21-.24v4.75ZM172.53,88.92h3.21c2.99,0,4.11-2.38,4.11-5.22s-.76-5.3-3.87-5.3c-1.76,0-3.44,1.26-3.44,3.4v7.12Z"/>
  <path class="cls-1" d="M183.64,89.66v-11.87h.95v2.02h.05c.78-1.54,2.42-2.26,3.99-2.26v1.07h-.24c-2.14,0-3.8,1.71-3.8,3.68v7.36h-.95Z"/>
  <path class="cls-1" d="M191.6,84.01c.05,2.73.97,4.94,3.87,4.94h3.68v.59c-1.43.24-2.57.36-3.68.36-3.59,0-4.87-2.57-4.87-6.17s1.52-6.18,5.11-6.18c2.73,0,4.16,1.66,4.16,3.33,0,1.54-.71,3.14-3.44,3.14h-4.82ZM191.63,83.13h4.8c2.02,0,2.49-1.19,2.49-2.26,0-1.19-1.12-2.38-3.21-2.38-2.78,0-3.94,2.07-4.08,4.63"/>
  <path class="cls-1" d="M202.2,89.62v-11.87h.95v1.54h.05c1.02-1.31,2.42-1.78,3.99-1.78,2.38,0,3.8,1.42,3.8,3.56v8.55h-.95v-8.55c0-1.66-1.31-2.68-3.09-2.68s-3.8,1.26-3.8,3.4v7.84h-.95Z"/>
</svg>