<?xml version="1.0" encoding="UTF-8"?>
<svg id="Capa_1" data-name="Capa 1" xmlns="http://www.w3.org/2000/svg" viewBox="0 0 400 150">
  <defs>
    <style>
      .cls-1 {
        fill: #6f6f6e;
      }

      .cls-2 {
        fill: #c6c6c5;
      }
    </style>
  </defs>
  <g>
    <path class="cls-1" d="M162.29,55.88c.65.11,1.85-.22,2.36.07.34.2,3.47,5.67,4.28,6.63.28.33.24.58.81.58.45,0,3.91-7.04,5.2-7.28.59-.11,1.3.06,1.91,0v14.38c0,.67-2.21.55-2.77.52v-9.01c-1.14.36-3.95,6.24-4.34,6.24-.56,0-.53-.25-.81-.58l-3.87-5.66v8.49c0,.67-2.21.55-2.77.52v-14.9Z"/>
    <path class="cls-1" d="M258.63,55.88c.65.11,1.85-.22,2.36.07s4.04,6.5,4.58,7.55l5.19-7.45,2.43-.17v14.38c0,.67-2.21.55-2.77.52v-9.01c-1.21.37-3.95,6.24-4.34,6.24-.56,0-.53-.25-.81-.58l-3.87-5.66v9.01h-2.77v-14.9Z"/>
    <path class="cls-1" d="M324.64,55.88c1.74.38,3.04,3.24,2.87,4.92-.26,2.62-2.54,3.45-2.59,3.9-.09.73,3.29,5.87,3.01,6.07-.87-.12-2.4.28-3.12-.17-.61-.37-2.44-5.14-3.11-5.55-.8-.49-2.81,0-3.82-.17v5.37c0,.67-2.21.55-2.77.52v-14.9c2.72.4,7.02-.54,9.53,0ZM323.61,58.65c-1.67-.28-3.96.2-5.72,0v3.47h5.37c1.29,0,2-3.19.35-3.47Z"/>
    <path class="cls-1" d="M312,55.88c.03.56.15,2.77-.52,2.77h-8.14v2.77h7.97c-.1.31-.21,2.77-.35,2.77h-7.62c.05.69-.28,3.81.52,3.81h8.49v2.77h-11.78v-14.9h11.44Z"/>
    <path class="cls-1" d="M293.63,64.89v-9.01h2.77v14.9c-.49,0-1.02.08-1.49-.07-1.45-.48-5.94-7.81-7.87-8.94v9.01h-2.77v-14.9l2.08.17,7.28,8.83Z"/>
    <path class="cls-1" d="M220.86,64.89v-9.01h2.77v14.38c0,.52-1.52.78-1.92.19l-7.43-8.68v8.49c0,.67-2.21.55-2.77.52v-14.9c.49,0,1.02-.08,1.49.07,1.44.48,6.04,7.75,7.87,8.94Z"/>
    <path class="cls-1" d="M150.42,55.62c11.03-1.9,11.66,14.99,1.95,15.49-9.24.47-9.78-14.14-1.95-15.49ZM151.11,58.39c-4.07.83-4.6,7.63-.6,9.45,6.75,3.06,8.41-11.04.6-9.45Z"/>
    <path class="cls-1" d="M183.78,64.89v5.89h-2.77v-14.9h9.53c1.38,0,2.99,3.22,2.92,4.63-.08,1.77-1.71,4.38-3.62,4.38h-6.06ZM189.5,58.65c-1.65-.29-3.98.21-5.72,0v3.47h5.72c.75,0,1.85-3.14,0-3.47Z"/>
    <path class="cls-1" d="M247.89,70.78c-.8-.09-2.09.25-2.78-.17-.82-.5-1.24-3.55-2.23-3.67-1.21-.14-5.42-.21-6.04.58-1.46,1.87-.29,3.99-4.19,3.25l6.29-14.84c.88-.11,2.15-.36,2.68.5l6.27,14.34ZM242,64.2c-.06-.53-1.76-4.4-2.07-4.16l-1.39,4.16h3.46Z"/>
    <path class="cls-1" d="M337.24,55.94l6.64,14.84c-.73-.15-2.58.25-3.06-.05-.34-.21-1.14-3.4-2.02-3.7-.63-.22-5.82-.14-6.04.16-.42.56-1.24,3.45-1.4,3.55-.44.29-2.36-.1-3.07.05l6.41-14.56c.48-.57,1.82-.39,2.55-.29ZM337.99,64.2l-2.07-4.15-1.74,4.15h3.81Z"/>
    <path class="cls-1" d="M209.42,70.78c-.8-.09-2.09.25-2.78-.17-.6-.36-1.53-3.43-1.78-3.59-.28-.17-6.21-.19-6.48,0-.17.11-1.13,3.49-1.49,3.71-.48.3-2.33-.09-3.06.05l6.64-14.84c.88-.11,2.15-.35,2.69.49l6.27,14.35ZM203.53,64.2c-.06-.53-1.76-4.4-2.07-4.16l-1.74,4.15h3.81Z"/>
    <path class="cls-1" d="M140.51,65.63c.54-.32,2.4.81,2.4,1.5,0,1.11-2.36,2.86-3.34,3.27-7.34,3.02-12.66-4.77-9.22-11.3,2.62-4.97,9.41-4.62,12.54-.28-2.45,3.18-2.78.04-5.1-.44-8.46-1.74-6.64,13.24.84,9.34,1.11-.58,1.76-2.03,1.88-2.1Z"/>
    <rect class="cls-1" x="227.79" y="55.88" width="2.77" height="14.9"/>
    <path class="cls-1" d="M280.12,55.88v14.38c0,.67-2.21.55-2.77.52v-14.9h2.77Z"/>
    <path class="cls-1" d="M221.55,50.69c.26,1.6-1.32,3.52-2.91,3.45-.79-.04-1.6-.77-2.44-.68-.69.08-1.55,1.11-2.62.69.11-1.55,1.24-3.05,2.89-3.01.76.02,1.74.67,2.49.6s.95-1.73,2.59-1.06Z"/>
    <path class="cls-1" d="M233.33,49.65c-.77,1.27-3.71,6.18-5.54,4.84,1.63-2.7,1.46-5.76,5.54-4.84Z"/>
  </g>
  <g>
    <path class="cls-2" d="M73.62,101.17l19.27-24.57c3.62-2.28,10.24,4.27,13.14,6.14l4.62-6.64c-8.15-6.96-16.1-14.31-25.58-19.46l-15.95-7.44,26.51-.35c8.06-.11,14.9.52,15.76,10.22.93,10.43-.6,22.25-.09,32.82-.37,3.07-2.1,6.44-4.85,7.97-.39.22-3.02,1.31-3.19,1.31h-29.63Z"/>
    <path class="cls-2" d="M62.78,51.34c5.29-1.08,12.27,5.31,16.04,8.75,1.84,1.68,5.52,4.92,5.86,7.31.61,4.39-1.07,5.46-3.6,8.46-5.62,6.67-12.05,14.13-18.02,20.45-.41.43-2.25,2.47-2.73,2.4-2.23-1.92-3.42-4.51-3.68-7.43-.72-8.07-.66-23.07-.02-31.19.28-3.52,2.36-7.97,6.15-8.75Z"/>
  </g>
  <g>
    <g>
      <path class="cls-1" d="M178.89,92.54h-1.84l-.73-1.9h-3.35l-.69,1.9h-1.79l3.26-8.38h1.79l3.36,8.38ZM175.78,89.22l-1.15-3.11-1.13,3.11h2.29Z"/>
      <path class="cls-1" d="M183.54,92.54v-8.38h3.56c.9,0,1.55.08,1.95.23.41.15.73.42.97.8.24.39.37.83.37,1.32,0,.63-.18,1.15-.55,1.56-.37.41-.92.67-1.66.77.37.21.67.45.91.7.24.26.56.71.96,1.36l1.02,1.63h-2.02l-1.22-1.82c-.43-.65-.73-1.06-.89-1.23-.16-.17-.33-.29-.51-.35-.18-.06-.46-.09-.85-.09h-.34v3.5h-1.69ZM185.23,87.7h1.25c.81,0,1.32-.03,1.52-.1.2-.07.36-.19.47-.35.11-.17.17-.38.17-.63,0-.28-.08-.51-.23-.68-.15-.17-.36-.28-.64-.33-.14-.02-.55-.03-1.23-.03h-1.32v2.13Z"/>
      <path class="cls-1" d="M199.63,89.46v-1.41h3.65v3.34c-.35.34-.87.64-1.54.91-.67.26-1.35.39-2.04.39-.88,0-1.64-.18-2.29-.55s-1.14-.89-1.47-1.58c-.33-.68-.49-1.43-.49-2.23,0-.87.18-1.65.55-2.33.37-.68.9-1.2,1.61-1.56.54-.28,1.21-.42,2.01-.42,1.04,0,1.85.22,2.44.65.58.44.96,1.04,1.13,1.81l-1.68.31c-.12-.41-.34-.74-.67-.97s-.73-.36-1.22-.36c-.74,0-1.33.23-1.76.7-.44.47-.65,1.16-.65,2.09,0,.99.22,1.74.66,2.24s1.02.75,1.74.75c.35,0,.71-.07,1.07-.21.36-.14.66-.31.92-.51v-1.06h-1.94Z"/>
      <path class="cls-1" d="M208.58,92.54v-8.38h6.21v1.42h-4.52v1.86h4.21v1.41h-4.21v2.28h4.68v1.41h-6.37Z"/>
      <path class="cls-1" d="M220.16,92.54v-8.38h1.65l3.43,5.6v-5.6h1.57v8.38h-1.7l-3.38-5.46v5.46h-1.57Z"/>
      <path class="cls-1" d="M234.22,92.54v-6.96h-2.49v-1.42h6.66v1.42h-2.48v6.96h-1.69Z"/>
      <path class="cls-1" d="M243.22,84.16h1.69v4.54c0,.72.02,1.19.06,1.4.07.34.24.62.52.83.27.21.64.31,1.12.31s.84-.1,1.09-.29c.24-.2.39-.44.44-.72.05-.29.07-.76.07-1.42v-4.64h1.69v4.4c0,1.01-.05,1.72-.14,2.13-.09.42-.26.77-.51,1.05-.25.29-.57.51-.99.68-.41.17-.95.25-1.61.25-.8,0-1.41-.09-1.82-.28-.41-.18-.74-.43-.98-.72-.24-.3-.4-.61-.47-.93-.11-.48-.17-1.19-.17-2.13v-4.47Z"/>
      <path class="cls-1" d="M255.41,92.54v-8.38h2.53l1.52,5.72,1.5-5.72h2.54v8.38h-1.57v-6.6l-1.66,6.6h-1.63l-1.66-6.6v6.6h-1.57Z"/>
      <path class="cls-1" d="M275.5,89.81l1.65-.16c.1.55.3.96.6,1.22.3.26.71.39,1.23.39.54,0,.96-.12,1.23-.35.28-.23.41-.5.41-.81,0-.2-.06-.37-.17-.51-.12-.14-.32-.26-.61-.36-.2-.07-.65-.19-1.35-.37-.91-.22-1.54-.5-1.91-.83-.51-.46-.77-1.02-.77-1.69,0-.43.12-.83.36-1.2.24-.37.59-.65,1.05-.85.46-.19,1-.29,1.65-.29,1.05,0,1.84.23,2.37.69.53.46.81,1.08.84,1.85l-1.69.07c-.07-.43-.23-.74-.47-.93-.24-.19-.6-.28-1.07-.28s-.88.1-1.15.3c-.18.13-.27.3-.27.52,0,.2.08.37.25.51.21.18.73.37,1.55.56s1.43.4,1.83.6.7.49.93.85c.22.36.33.81.33,1.33,0,.48-.13.93-.4,1.35-.27.42-.64.73-1.13.94-.49.2-1.1.31-1.82.31-1.06,0-1.87-.24-2.44-.73-.57-.49-.91-1.2-1.02-2.14Z"/>
      <path class="cls-1" d="M287.35,92.54v-1.61h1.61v1.61h-1.61Z"/>
      <path class="cls-1" d="M301.8,92.54h-1.84l-.73-1.9h-3.35l-.69,1.9h-1.79l3.26-8.38h1.79l3.36,8.38ZM298.69,89.22l-1.15-3.11-1.13,3.11h2.29Z"/>
    </g>
    <rect class="cls-1" x="129.27" y="87.78" width="24.78" height="1.22"/>
    <rect class="cls-1" x="319" y="87.78" width="24.78" height="1.22"/>
  </g>
</svg>