<?xml version="1.0" encoding="UTF-8"?>
<svg id="Capa_1" data-name="Capa 1" xmlns="http://www.w3.org/2000/svg" viewBox="0 0 400 150">
  <defs>
    <style>
      .cls-1 {
        fill: #6f6f6e;
      }
    </style>
  </defs>
  <path class="cls-1" d="M241.61,23.99c.89.55,1.51,2.03,1.5,3.08l-.14,57.41c-.87,2.27-3.43,3.39-5.68,2.33s-7.05-8.93-9.34-11.23c-2.56-2.56-4.21-2.63-6.83-.14-2.94,2.8-5.14,7.38-7.93,10.13-.82.81-1.39-1.17-1.95-1.91-8.14-10.78-17-21.05-25.15-31.83-9.78-8.94-14.18,2.77-19.74,8.6-1.51,1.58-2.74,2.6-5.06,1.74-1.57-.58-2.29-1.77-2.45-3.39-.95-10.11.73-21.7,0-31.97.25-2.2,1.53-3.37,3.74-3.48h76.76c.68.05,1.7.32,2.25.67Z"/>
  <path class="cls-1" d="M193.61,98.64c1.61,3.27,3.68,6.38,5.7,9.44l5.98-9.58c.55-.34,9.38-.21,9.7.17l-.25,27.48h-8.9v-12.92c0-.12-.49-.63-.68-.12l-5.7,8.98-.57.17c-.03-.33-.14-.64-.32-.92-1.52-2.33-3.47-5.93-5.12-7.96-.27-.33-.45-.67-.96-.57v13.34h-8.9v-27.51h10.01Z"/>
  <path class="cls-1" d="M218.35,126.15l-.24-27.33c.23-.77,1.34-.12,2.04-.16,4.88-.28,15-.77,19.23,1.32,6.69,3.29,6.47,13.79-.45,16.46-.03.13-.03.26-.02.4.25,1.74,5.46,7.12,6.12,9.32h-10.57l-4.87-7.78c-.34-.52-2.36-.36-2.36.14v7.64h-8.9ZM227.66,106.14c-.09.14-.42.34-.42.42v4.72s.39.42.42.42h5c2.01,0,3.27-3.17,1.65-4.7-.24-.23-1.44-.85-1.65-.85h-5Z"/>
  <path class="cls-1" d="M180.52,101.45c.34.48-3.77,5.52-4.31,6.36-1.89-1.42-8.02-3.55-9.97-2.2-2.92,2.04,5.93,3.21,6.79,3.45,4.91,1.38,8.95,3.56,8.31,9.42-1.22,11.11-20.18,9.5-26.38,3.63l4.86-5.94c1.72,1.35,4.06,2.5,6.2,2.96,1.33.28,7.2,1.23,5.77-1.6-.47-.93-7.61-2.11-9.23-2.72-3.51-1.32-6.4-3.84-6.18-7.93.59-11.16,17.45-10.39,24.15-5.43Z"/>
</svg>