<?xml version="1.0" encoding="UTF-8"?>
<svg id="Capa_1" data-name="Capa 1" xmlns="http://www.w3.org/2000/svg" viewBox="0 0 400 150">
  <defs>
    <style>
      .cls-1 {
        fill: #76777a;
      }

      .cls-2 {
        fill: #9ea1a2;
      }
    </style>
  </defs>
  <g>
    <path class="cls-1" d="M143.91,37.24c3.87,0,7.74,0,11.61,0,.64,0,1.25.09,1.85.31,1.25.45,2.32,1.15,3.14,2.2.48.61.82,1.28,1.03,2.02.05.17.06.34.06.51,0,3.27-.01,6.55,0,9.82,0,.98-.28,1.85-.81,2.65-.77,1.15-1.79,2.05-2.9,2.85-.28.2-.57.39-.87.57-.14.09-.17.15-.09.3.43.78.86,1.57,1.28,2.35.94,1.75,1.89,3.49,2.83,5.24.49.91.99,1.82,1.48,2.74.03.05.05.1.07.15.06.09.01.11-.07.11-.06,0-.11,0-.17,0-2.99,0-5.98,0-8.97,0-.23,0-.33-.06-.43-.28-.32-.7-.68-1.39-1.03-2.09-.86-1.74-1.72-3.49-2.58-5.23-.49-1-.98-2-1.46-3-.07-.14-.15-.19-.3-.19-2.32,0-4.65,0-6.97,0-.2,0-.24.06-.24.25,0,3.43,0,6.85,0,10.28,0,.21-.06.26-.26.26-2.84,0-5.67,0-8.51,0-.21,0-.27-.05-.27-.26,0-7.5,0-15.01,0-22.51,0-.22.07-.26.27-.26,3.01,0,6.02,0,9.03,0,.2,0,.26.05.25.25,0,1.4,0,2.8,0,4.2,0,.2.06.25.26.25,3.3,0,6.6,0,9.9,0,.4,0,.78-.08,1.11-.34.28-.22.41-.5.41-.85,0-1.17.02-2.34,0-3.52-.01-.48-.27-.89-.52-1.3-.21-.34-.48-.49-.91-.49-6.49.01-12.98,0-19.48,0-.35,0-.31.04-.31-.31,0-2.13,0-4.26,0-6.39,0-.34-.04-.31.32-.31,4.07,0,8.14,0,12.21,0Z"/>
    <path class="cls-1" d="M181.82,37.24c4.17,0,8.34,0,12.51,0,.33,0,.27-.02.27.28,0,2.14,0,4.27,0,6.41q0,.3-.29.3c-6.25,0-12.5,0-18.75-.01-.54,0-.94.19-1.32.53-.58.53-.86,1.18-.86,1.97,0,4.36,0,8.71,0,13.07,0,.78.31,1.41.77,1.99.39.5.91.71,1.56.71,2.87-.01,5.74,0,8.61,0,.15,0,.28-.04.4-.13.56-.42.86-.95.86-1.68-.01-4.79,0-9.59,0-14.38q0-.27.27-.27c2.83,0,5.66,0,8.49,0,.21,0,.26.05.26.26,0,5.35,0,10.71,0,16.06,0,.42-.16.8-.29,1.18-.5,1.43-1.23,2.72-2.32,3.79-.86.84-1.88,1.4-3.04,1.71-.09.02-.19.03-.29.03-6.27,0-12.54,0-18.81,0-.25,0-.46-.11-.66-.21-1.25-.6-2.4-1.36-3.36-2.37-.59-.62-1.06-1.31-1.37-2.11-.05-.12-.07-.25-.07-.38,0-6.85,0-13.71,0-20.56,0-.25.1-.47.18-.7.48-1.35,1.1-2.63,2-3.76.51-.64,1.11-1.18,1.87-1.51.32-.14.65-.22,1.01-.22,4.13,0,8.25,0,12.38,0Z"/>
    <path class="cls-1" d="M264.3,69.05c-.1,0-.18,0-.26,0-2.83,0-5.66,0-8.49,0-.19,0-.28-.05-.36-.24-1.53-4-3.07-7.99-4.6-11.98-.05-.14-.13-.18-.27-.18-3.25,0-6.51,0-9.76,0-.45,0-.64.2-.64.65,0,3.83,0,7.66,0,11.49,0,.21-.04.27-.26.27-2.84,0-5.67,0-8.51,0-.22,0-.26-.06-.26-.27,0-10.42,0-20.85,0-31.27,0-.29-.05-.27.26-.27,2.83,0,5.66,0,8.49,0q.26,0,.26.27c0,3.77,0,7.55,0,11.32q0,.27.27.27c2.65,0,5.3,0,7.95,0,.2,0,.29-.06.35-.25.91-2.93,1.83-5.86,2.75-8.79.28-.88.55-1.77.83-2.65.04-.12.09-.18.23-.18,3.43,0,6.85,0,10.28,0,.05,0,.1,0,.16.01-.2.68-.39,1.35-.58,2.02-.94,3.24-1.89,6.48-2.83,9.72-.26.9-.52,1.79-.79,2.69-.02.08-.03.15,0,.24,1.02,3.24,2.14,6.45,3.22,9.67.59,1.76,1.21,3.52,1.82,5.28.22.63.44,1.25.65,1.88.03.09.06.18.09.3Z"/>
    <path class="cls-1" d="M215.6,37.24c4.09,0,8.17,0,12.26,0,.34,0,.28-.02.28.29,0,2.15,0,4.3,0,6.45q0,.26-.27.26c-6.41,0-12.82,0-19.23,0-1.15,0-1.84.69-2.21,1.53-.04.09-.05.19-.05.28,0,4.55,0,9.1,0,13.65,0,.69.59,1.41,1.35,1.68.54.19,1.1.19,1.66.15.09,0,.18-.02.27-.02,6.08,0,12.15,0,18.23,0,.2,0,.25.05.25.25,0,2.35,0,4.7,0,7.05,0,.19-.06.24-.24.24-8.18,0-16.37,0-24.55,0-.37,0-.68-.18-1-.31-1.25-.51-2.4-1.17-3.34-2.16-.93-.98-1.53-2.11-1.63-3.48-.02-.26.01-.51.01-.76,0-6.35,0-12.71-.01-19.06,0-.74.16-1.41.46-2.07,1-2.18,2.76-3.39,5.05-3.91.19-.04.38-.05.58-.05,4.04,0,8.09,0,12.13,0Z"/>
  </g>
  <g>
    <path class="cls-2" d="M177.61,81.02c3.87,0,7.74,0,11.61,0,.68,0,1.32.1,1.94.34,1.61.62,2.88,1.63,3.66,3.2.29.59.46,1.21.45,1.89-.02,3.14-.01,6.28,0,9.42,0,1.03-.34,1.93-.93,2.76-.98,1.37-2.27,2.39-3.69,3.27-.14.09-.15.16-.08.29.7,1.29,1.4,2.57,2.1,3.86.9,1.67,1.8,3.33,2.71,5,.28.51.55,1.02.83,1.53.08.15.06.18-.11.18-3.04,0-6.09,0-9.13,0-.14,0-.21-.05-.27-.17-1.16-2.36-2.33-4.73-3.49-7.09-.55-1.11-1.09-2.22-1.63-3.34-.07-.14-.15-.19-.3-.19-2.32,0-4.65,0-6.97,0-.22,0-.26.07-.26.27,0,3.4,0,6.8,0,10.21q0,.3-.3.3c-2.81,0-5.62,0-8.42,0q-.28,0-.28-.28c0-7.47,0-14.94,0-22.41q0-.28.28-.28c3,0,5.99,0,8.99,0q.27,0,.27.27c0,1.39,0,2.79,0,4.18,0,.2.05.26.25.26,3.24,0,6.49,0,9.73,0,.38,0,.76-.04,1.1-.23.38-.22.59-.53.59-.97,0-1.16.03-2.33-.01-3.49-.02-.65-.36-1.2-.8-1.67-.12-.13-.29-.14-.46-.14-6.52,0-13.05,0-19.57,0-.06,0-.13,0-.19,0-.15.02-.19-.05-.19-.19,0-2.2,0-4.39,0-6.59,0-.19.1-.19.23-.19,1.93,0,3.87,0,5.8,0,2.18,0,4.35,0,6.53,0Z"/>
    <path class="cls-2" d="M144.08,81.02c4.01,0,8.02,0,12.02,0,.47,0,.86.17,1.26.35,1.2.53,2.3,1.22,3.22,2.17.89.92,1.48,2,1.68,3.29.01.07,0,.14,0,.21,0,6.1,0,12.21,0,18.31,0,.89-.25,1.74-.59,2.57-.78,1.89-2.09,3.3-3.89,4.27-.21.11-.43.21-.65.32-.4.2-.81.28-1.26.28-8,0-16,0-24,0-.36,0-.32.04-.32-.33,0-7.44,0-14.88,0-22.32,0-.36-.04-.32.33-.32,2.97,0,5.94,0,8.9,0q.28,0,.28.28c0,4.92,0,9.84,0,14.76,0,.59.13.76.73.88.28.06.57.09.86.09,3.1,0,6.2,0,9.3,0,.18,0,.31-.04.43-.19.22-.26.45-.53.64-.81.18-.26.26-.54.26-.87,0-5.05,0-10.1,0-15.15,0-.19-.06-.32-.21-.43-.32-.23-.65-.36-1.05-.36-6.72,0-13.44,0-20.16,0q-.3,0-.3-.3c0-2.13,0-4.27,0-6.4,0-.21.05-.27.26-.27,4.09,0,8.18,0,12.27,0Z"/>
    <path class="cls-2" d="M209.69,96.87c0-5.19,0-10.38,0-15.57q0-.28.28-.28c2.63,0,5.27,0,7.9,0q.28,0,.28.28c0,8.06,0,16.12,0,24.17q0,.32.33.32c6.32,0,12.65,0,18.97,0q.3,0,.3.3c0,2.13,0,4.27,0,6.4,0,.21-.05.27-.26.27-9.18,0-18.36,0-27.54,0-.21,0-.26-.05-.26-.26,0-5.21,0-10.42,0-15.63Z"/>
    <path class="cls-2" d="M240.55,96.89c0-5.19,0-10.38,0-15.57q0-.3.3-.3c2.63,0,5.26,0,7.88,0q.28,0,.28.28c0,8.06,0,16.12,0,24.18q0,.32.33.32c6.32,0,12.65,0,18.97,0q.3,0,.3.3c0,2.13,0,4.27,0,6.4,0,.21-.06.26-.27.26-9.18,0-18.36,0-27.54,0-.21,0-.27-.05-.27-.26,0-5.2,0-10.41,0-15.61Z"/>
    <path class="cls-2" d="M206.91,96.91c0,5.19,0,10.38,0,15.57q0,.28-.28.28c-2.81,0-5.63,0-8.44,0q-.28,0-.28-.28c0-10.39,0-20.78,0-31.18q0-.28.28-.28c2.81,0,5.63,0,8.44,0q.28,0,.28.28c0,5.2,0,10.41,0,15.61Z"/>
  </g>
</svg>