<?xml version="1.0" encoding="UTF-8"?>
<svg id="Capa_1" data-name="Capa 1" xmlns="http://www.w3.org/2000/svg" viewBox="0 0 400 150">
  <defs>
    <style>
      .cls-1 {
        fill: #9ea1a2;
      }
    </style>
  </defs>
  <path class="cls-1" d="M221.64,124.18c-1.41-.33-2.87-.32-4.27-.77-2.73-.89-3.79-3.31-2.41-5.61.37-.63.74-.8,1.46-.46,2.5,1.18,5.12,1.67,7.85.88,1.73-.5,2.41-1.46,2.47-3.25.02-.73-.18-.86-.88-.65-2.8.84-5.58.72-8.23-.55-2.81-1.34-4.09-3.78-4.45-6.73-.29-2.39-.24-4.78.77-7.04,1.34-3,3.79-4.59,6.9-5.18,3.55-.68,6.99-.26,10.24,1.41,1.39.72,2.26,1.8,2.25,3.44-.01,5.72.24,11.46-.12,17.17-.21,3.27-2.37,5.23-5.33,6.39-1.37.54-2.83.61-4.23.94h-2ZM226.59,104.62c0-1.12,0-2.24,0-3.36,0-.33.01-.62-.37-.84-2.09-1.19-5.23.02-5.88,2.35-.41,1.48-.37,3,.03,4.48.27,1,.94,1.7,1.92,2.03,1.28.43,2.56.33,3.79-.25.42-.2.52-.52.51-.96-.02-1.15,0-2.3,0-3.45Z"/>
  <path class="cls-1" d="M278.44,109.99c-.33.41-.18.93-.31,1.4-.55,1.96-1.82,3.31-3.66,4-3.76,1.42-7.6,1.41-11.36,0-2.38-.89-3.11-3.44-1.7-5.32.41-.55.79-.69,1.44-.34,1.65.89,3.45,1.27,5.32,1.38.73.04,1.46-.01,2.15-.25.55-.19,1.01-.51,1.03-1.13.03-.65-.38-1.05-.97-1.28-1.14-.43-2.35-.54-3.52-.85-1.68-.44-3.33-.98-4.61-2.21-2.68-2.59-2.07-7.29,1.14-9.27,2.07-1.27,4.34-1.61,6.7-1.59,1.67.01,3.32.19,4.9.81,2.28.89,3.03,3.11,1.73,5.08-.32.49-.6.63-1.24.41-2.12-.72-4.28-1.37-6.57-.86-.26.06-.54.13-.77.26-.85.46-.86,1.38-.01,1.86.72.41,1.55.5,2.34.7,1.5.37,2.99.75,4.38,1.45,1.91.95,3.2,2.36,3.44,4.56.01.11.1.21.15.32v.91Z"/>
  <path class="cls-1" d="M174.86,25.9c4.1-.16,8.07.61,11.95,1.86,4.7,1.51,9.09,3.67,13.33,6.17.56.33.96.38,1.52-.05,5.75-4.37,12.27-6.91,19.4-7.82,4.05-.52,8.06-.21,11.82,1.59,5.07,2.42,7.81,6.57,8.55,12.04.86,6.37-.95,12.19-4.05,17.64-4.2,7.39-9.88,13.39-17.28,17.67-5.48,3.18-11.39,5.01-17.75,5.32-12.38.62-22.74-3.91-31.45-12.47-4.81-4.73-8.57-10.21-10.86-16.59-1.64-4.58-2.41-9.27-1.06-14.07,1.71-6.05,5.92-9.45,11.91-10.83,1.3-.3,2.62-.47,3.97-.45ZM230.18,62.78c-.57.05-.9.05-1.22.1-6.41,1.04-12.84,1.83-19.35,1.42-3.53-.22-6.97-.87-10.18-2.43-2.57-1.26-4.82-2.95-6.28-5.48-2.15-3.72-1.85-7.55-.35-11.37,1.2-3.06,3.05-5.71,5.35-8.05.33-.33.7-.61,0-1-3.52-1.97-7.11-3.79-10.93-5.1-4.97-1.7-10.01-2.77-15.33-1.89-6.12,1.02-10.48,5.89-10.73,12.06-.17,4.23.79,8.2,2.6,11.94,4.61,9.55,11.55,16.83,21.25,21.32,7,3.24,14.33,4.11,21.91,2.68,6.93-1.3,12.97-4.44,18.27-9.03,1.76-1.52,3.4-3.17,5.01-5.17ZM238.8,42.66c0-.55.04-1.09,0-1.63-.42-4.67-2.39-8.43-6.66-10.66-3.51-1.84-7.33-2.04-11.16-1.5-6.05.86-11.63,2.99-16.67,6.5-.7.49-.67.71.02,1.16,4.89,3.17,9.49,6.73,13.93,10.5,4.65,3.94,9.1,8.1,13.38,12.44.57.58.85.54,1.24-.14.58-.99,1.28-1.92,1.83-2.92,2.37-4.28,4.14-8.74,4.1-13.74ZM215.39,63.25c4.21.04,9.06-.38,13.9-1.06.26-.04.62.11.74-.18.12-.3-.24-.45-.42-.63-5.26-5.29-10.73-10.35-16.55-15.02-3.59-2.89-7.3-5.61-11.18-8.1-.35-.23-.64-.51-1.1-.08-2.53,2.36-4.68,4.99-6,8.23-1.16,2.85-1.46,5.75-.06,8.61,1.56,3.18,4.34,4.98,7.5,6.24,4.01,1.6,8.25,1.81,13.16,1.99Z"/>
  <path class="cls-1" d="M154.86,106.39c0-2.09.04-4.18-.01-6.28-.04-1.45.54-2.57,1.73-3.29,4.04-2.46,8.35-3.17,12.74-1.25,1.44.63,2.36.52,3.69-.09,3.26-1.49,6.62-1.37,9.81.3,2.04,1.07,3.14,2.92,3.3,5.22.32,4.66.07,9.33.14,14,0,.37-.05.67-.49.74-1.56.26-3.13.4-4.69.02-1.09-.27-1.69-.99-1.84-2.11-.25-1.87-.09-3.75-.12-5.63-.03-1.82,0-3.64-.01-5.46-.02-1.78-1-2.65-2.78-2.5-.36.03-.71.13-1.06.22-.86.23-1.22.7-1.21,1.68.07,4.24.02,8.49.04,12.73,0,.69-.13,1.03-.9,1.12-1.3.15-2.6.27-3.89.03-1.58-.29-2.22-1.06-2.25-2.71-.05-3.12-.03-6.24-.05-9.37,0-.24,0-.49,0-.73-.05-1.04-.04-2.1-1.19-2.64-1.22-.59-2.4-.42-3.57.17-.48.24-.35.66-.35,1.03,0,4.34-.02,8.67,0,13.01,0,.75-.11,1.16-.99,1.23-1.3.1-2.6.26-3.89-.02-1.51-.33-2.14-1.12-2.16-2.7-.03-2.24,0-4.49,0-6.73,0,0,0,0-.01,0Z"/>
  <path class="cls-1" d="M209.4,106.71c0,1.46-.06,2.91.02,4.36.09,1.82-.81,2.96-2.32,3.76-1.55.82-3.23,1.23-4.95,1.38-3.1.27-6.18.24-9.05-1.24-2.42-1.25-3.51-3.36-3.24-6.26.24-2.57,1.75-4.29,4.38-5.07,1.91-.57,3.88-.62,5.83-.88.51-.07,1.02-.13,1.53-.18.98-.09,1.15-.35.76-1.26-.41-.95-1.29-1.22-2.2-1.38-2.39-.41-4.72-.07-6.97.74-.77.28-1.17.07-1.55-.57-1.16-1.98-.38-4.03,1.83-4.79,1.1-.37,2.23-.57,3.38-.66,2.55-.21,5.08-.2,7.54.65,3.38,1.17,4.99,3.37,5.02,6.95.01,1.49,0,2.97,0,4.46ZM202.56,108.97c0-.42,0-.84,0-1.27,0-.39-.17-.53-.55-.51-1.33.06-2.66.1-3.94.47-1.05.3-1.48.88-1.41,1.71.08.92.79,1.62,1.79,1.74.69.08,1.37.09,2.07.03,2.02-.17,2.04-.16,2.04-2.17Z"/>
  <path class="cls-1" d="M256.55,106.64c0,1.54-.01,3.09,0,4.63.02,1.35-.5,2.39-1.64,3.13-1.37.89-2.88,1.39-4.48,1.64-3.02.46-6.03.48-8.97-.51-4.04-1.37-5.77-5.61-3.75-9.23,1.08-1.92,2.95-2.64,4.96-2.98,2.06-.34,4.14-.55,6.22-.74.75-.07.85-.36.68-.99-.26-.94-1.05-1.48-2.35-1.68-2.36-.37-4.66-.05-6.88.75-.81.29-1.22.07-1.61-.61-1.11-1.97-.35-3.98,1.82-4.73,1.12-.39,2.29-.59,3.46-.69,2.61-.2,5.19-.18,7.71.73,3.1,1.13,4.69,3.22,4.8,6.55.05,1.57,0,3.15,0,4.72,0,0,0,0,.01,0ZM249.71,108.96c0-.39,0-.78,0-1.18.01-.39-.1-.62-.56-.6-1.27.05-2.54.12-3.77.41-1.14.27-1.64.88-1.57,1.78.07.95.8,1.62,1.88,1.74.66.07,1.31.07,1.98.02,1.99-.16,2.04-.2,2.04-2.18Z"/>
  <path class="cls-1" d="M121.57,101.33c0-3.52.01-7.03-.01-10.55,0-.63.14-.9.83-.98,1.24-.15,2.47-.24,3.72-.15,1.74.13,2.51.87,2.7,2.59.06.57.1,1.15.1,1.72,0,5.03.02,10.06-.01,15.09,0,.72.22.94.93.93,2.64-.03,5.28.02,7.91-.03.74-.01,1.09.26,1.33.91.39,1.06.41,2.15.19,3.22-.21,1.02-1.04,1.67-2.11,1.67-4.06.02-8.13.03-12.19-.01-1.67-.02-2.9-1.16-3.24-2.79-.11-.54-.15-1.08-.15-1.63,0-3.33,0-6.67,0-10Z"/>
  <path class="cls-1" d="M150.08,106.35c0,2.76-.02,5.51.01,8.27,0,.75-.12,1.15-.99,1.23-1.18.11-2.36.2-3.53.06-1.69-.2-2.51-1.15-2.52-2.88-.02-4.91-.01-9.81-.02-14.72,0-.33,0-.67,0-1,0-2.13,0-2.14,2.21-2.19.88-.02,1.75-.1,2.62.11,1.53.37,2.17,1.08,2.19,2.67.03,2.82,0,5.63,0,8.45,0,0,0,0,.01,0Z"/>
</svg>