<?xml version="1.0" encoding="UTF-8"?>
<svg id="Capa_1" data-name="Capa 1" xmlns="http://www.w3.org/2000/svg" viewBox="0 0 400 150">
  <defs>
    <style>
      .cls-1 {
        fill: #606060;
      }

      .cls-2 {
        fill: #14457e;
      }
    </style>
  </defs>
  <path class="cls-1" d="M231.65,111.88c.57-.96,1.13-1.92,1.7-2.89,1.09-1.85,2.18-3.69,3.27-5.54.92-1.58,1.82-3.17,2.75-4.75,1.87-3.16,3.75-6.31,5.63-9.47.69-1.17,1.39-2.34,2.06-3.51.21-.36.32-.41.55-.02,1.26,2.17,2.53,4.32,3.8,6.48,1.24,2.1,2.5,4.18,3.74,6.28,1.52,2.58,3.02,5.17,4.53,7.75.77,1.3,1.56,2.59,2.33,3.89,1.28,2.18,2.55,4.37,3.83,6.55.75,1.28,1.52,2.56,2.27,3.85.3.51.26.58-.33.58-2.06,0-4.11-.02-6.17.01-.45,0-.68-.2-.88-.54-1.41-2.43-2.82-4.86-4.22-7.29-.12-.21-.29-.26-.5-.26-5.78,0-11.56,0-17.34,0-.25,0-.41.09-.53.31-.87,1.49-1.74,2.98-2.61,4.47-.58.99-1.16,1.97-1.73,2.96-.14.25-.34.33-.62.33-2.11-.01-4.22,0-6.32,0-.56,0-.58-.04-.3-.52.32-.55.64-1.1.9-1.71-.51.31-1.01.64-1.54.93-2.23,1.22-4.63,1.81-7.16,1.95-2.65.14-5.22-.18-7.67-1.26-2.14-.94-3.97-2.27-5.31-4.21-.05-.07-.1-.14-.21-.13-.11.18-.05.39-.05.59,0,1.31,0,2.62,0,3.93,0,.33-.1.48-.44.45-.1,0-.2,0-.31,0-9.03,0-18.05,0-27.08,0-.46,0-.73-.11-.97-.53-1.36-2.37-2.76-4.72-4.12-7.09-.2-.34-.41-.47-.8-.47-5.66.01-11.32.01-16.98,0-.39,0-.62.12-.81.45-1.24,2.15-2.5,4.29-3.76,6.43-.12.21-.28.45-.35.65-.18.55-.55.54-.99.54-2.04,0-4.08,0-6.12,0-.53,0-.57-.05-.31-.5,1.33-2.27,2.71-4.5,3.98-6.8,1.14-2.05,2.41-4.01,3.56-6.05.84-1.49,1.75-2.94,2.62-4.41.64-1.08,1.24-2.2,1.87-3.28.61-1.03,1.24-2.04,1.87-3.06.54-.89.99-1.82,1.54-2.7,1-1.6,1.98-3.21,2.91-4.86.61-1.08,1.27-2.13,1.86-3.22.16-.29.33-.71.6-.73.25-.02.35.44.5.7,1.03,1.7,2.09,3.39,3.07,5.12.97,1.72,1.98,3.41,2.99,5.11.71,1.2,1.45,2.38,2.13,3.58,1.63,2.88,3.35,5.7,5,8.56,1.37,2.37,2.8,4.71,4.21,7.07.14.24.19.54.45.71.14-.17.08-.34.08-.5,0-9.23,0-18.46,0-27.69,0-.72,0-.72.71-.72,7.5,0,14.99,0,22.49-.01.47,0,.6.14.59.6-.03,1.38-.03,2.75,0,4.13,0,.42-.08.55-.53.54-5.25-.02-10.5-.01-15.76,0-.95,0-.77-.05-.78.8,0,2.02.02,4.05,0,6.07,0,.45.12.57.57.57,5.17-.01,10.33,0,15.5-.02.45,0,.54.14.53.55-.02,1.36-.03,2.72,0,4.08.01.46-.11.6-.58.59-5.08-.02-10.16-.01-15.25-.02q-.77,0-.77.75c0,3.09,0,6.19,0,9.28,0,.42.07.59.55.59,5.3-.02,10.61-.01,15.91-.01.6,0,.6,0,.29-.53-.66-1.13-1.02-2.36-1.23-3.64-.04-.26.03-.35.29-.4,2.06-.33,4.12-.67,6.18-1.01.54-.09.39.31.38.55-.09,1.98.89,3.35,2.49,4.36.86.54,1.79.88,2.79,1.07,2.27.41,4.45.21,6.4-1.13,1.6-1.1,2.53-2.59,2.34-4.61-.12-1.29-.91-2.16-1.92-2.86-1.37-.95-2.93-1.49-4.5-2-2.79-.92-5.62-1.71-8.18-3.21-1.66-.97-3.11-2.18-3.81-4.02-1.04-2.75-.53-5.27,1.37-7.51,1.09-1.29,2.48-2.22,3.99-2.86,1.49-.62,3.07-1.02,4.7-1.2,2.74-.29,5.43-.14,8.04.83,1.94.72,3.62,1.84,4.97,3.41.34.39.66.8.96,1.23.2.29.13.4-.15.52-.52.23-1.04.48-1.56.72-1.07.5-2.14.99-3.2,1.49-.26.12-.46.16-.65-.12-2.28-3.28-6.63-3.42-9.48-2.26-.97.4-1.85.92-2.4,1.86-.58.99-.5,2.01.29,2.82.87.88,1.97,1.4,3.11,1.82,1.53.57,3.11.98,4.67,1.45,2.16.66,4.28,1.45,6.17,2.69,3.04,1.99,4.63,4.78,4.41,8.54ZM247.34,107.81h0c1.8,0,3.6,0,5.4,0,.56,0,.58-.03.3-.52-1.83-3.23-3.66-6.46-5.49-9.7-.18-.33-.27-.3-.44,0-1.83,3.25-3.67,6.5-5.52,9.74-.23.4-.12.48.3.47,1.82-.01,3.63,0,5.45,0ZM163.29,107.81c1.82,0,3.64,0,5.45,0,.29,0,.56,0,.33-.41-1.87-3.29-3.73-6.58-5.6-9.88-.21-.37-.29-.11-.39.06-1.84,3.25-3.68,6.5-5.51,9.75-.26.46-.25.47.31.47,1.8,0,3.6,0,5.4,0Z"/>
  <path class="cls-2" d="M230.92,70.62c-2.26,0-4.52-.01-6.78.01-.46,0-.73-.12-.97-.53-3.06-5.31-6.13-10.61-9.21-15.91-4.27-7.35-8.54-14.71-12.81-22.06-.97-1.67-1.93-3.35-2.91-5.02-.14-.25-.18-.43-.02-.69,2.24-3.84,4.47-7.69,6.69-11.55.22-.38.33-.2.47.05,1.46,2.47,2.93,4.94,4.39,7.4,2.14,3.6,4.29,7.21,6.43,10.81,2.74,4.61,5.47,9.23,8.21,13.84,3.38,5.7,6.76,11.39,10.14,17.08,1.21,2.04,2.42,4.09,3.65,6.13.25.41.11.46-.29.46-2.33-.01-4.66,0-6.99,0Z"/>
  <path class="cls-2" d="M220.45,70.6c-.13.04-.26.05-.39,0,0,0,0,0,0,0-.17.01-.34.04-.5.04-4.13,0-8.26,0-12.39.01-.49,0-.76-.16-1-.58-3.18-5.52-6.37-11.02-9.56-16.53-4.01-6.92-8.03-13.83-12.06-20.73-.22-.38-.24-.66-.01-1.05,2.22-3.78,4.41-7.57,6.61-11.35.32-.55.32-.55.63-.01,4.27,7.35,8.54,14.71,12.81,22.06,3.24,5.58,6.46,11.16,9.7,16.74,2.11,3.64,4.23,7.28,6.33,10.92.07.11.54.4-.05.49-.04,0-.08,0-.12,0Z"/>
  <path class="cls-2" d="M188.25,43.61c.72,1.24,1.41,2.41,2.09,3.59,4.99,8.59,9.98,17.17,14.97,25.76.84,1.44,1.67,2.88,2.5,4.32.19.33.31.7.57,1,.15.18.07.27-.15.27-.15,0-.31,0-.46,0-4.38,0-8.77,0-13.15,0-.37,0-.57-.11-.76-.44-4.06-7.01-8.11-14.02-12.22-21-.49-.83-.49-1.39,0-2.21,2.14-3.57,4.19-7.19,6.28-10.79.08-.15.18-.29.32-.51Z"/>
  <path class="cls-2" d="M179.73,70.63c-2.21,0-4.41,0-6.62,0-.52,0-.55-.02-.27-.49,2-3.45,4-6.9,6-10.34.21-.37.42-.74.64-1.1.28-.47.29-.48.55-.01,1.46,2.52,2.93,5.05,4.39,7.57.74,1.28,1.48,2.55,2.22,3.83.31.53.31.54-.28.54-2.21,0-4.42,0-6.62,0,0,0,0,0,0,.01Z"/>
</svg>