<?xml version="1.0" encoding="UTF-8"?>
<svg id="Capa_1" data-name="Capa 1" xmlns="http://www.w3.org/2000/svg" viewBox="0 0 400 150">
  <defs>
    <style>
      .cls-1, .cls-2 {
        fill: #76777a;
      }

      .cls-3 {
        fill: #9ea1a2;
      }

      .cls-3, .cls-2 {
        fill-rule: evenodd;
      }
    </style>
  </defs>
  <path class="cls-2" d="M95.57,99.78c.4-4.63,2.96-8.15,8-8.15s7.07,3.78,7.33,8.15h-15.34ZM116.97,111.23c-3.36,1.89-7.14,3.51-11.51,3.51-5.59,0-9.49-3.17-9.89-8.76h23.95c0-12.13-3.63-20.96-16.48-20.96-10.77,0-16.08,8.29-16.08,18.33,0,11.39,6.66,17.99,18.1,17.99,4.85,0,8.61-.93,11.91-2.78v-7.33h0Z"/>
  <path class="cls-1" d="M127.67,120.72h9.39v-50.73h-9.39v50.73Z"/>
  <path class="cls-2" d="M153.19,99.78c.4-4.63,2.96-8.15,8-8.15s7.07,3.78,7.33,8.15h-15.34ZM174.59,111.23c-3.36,1.89-7.13,3.51-11.51,3.51-5.59,0-9.49-3.17-9.89-8.76h23.95c0-12.13-3.63-20.96-16.48-20.96-10.77,0-16.08,8.29-16.08,18.33,0,11.39,6.66,17.99,18.1,17.99,4.84,0,8.61-.93,11.91-2.78v-7.33h0Z"/>
  <path class="cls-1" d="M207.84,86.17c-2.86-.82-5.83-1.21-8.81-1.15-10.91,0-16.87,7.95-16.87,17.99,0,10.58,5.76,18.33,17.22,18.33,3.72,0,6.44-.34,9.08-1.15l-.41-7.48c-1.56.67-4.41,1.62-6.98,1.62-6.37,0-9.42-4.91-9.42-11.32s3.59-10.98,9.22-10.98c2.13-.06,4.24.38,6.17,1.28l.8-7.14h0ZM215.34,120.71h9.22v-17.07c0-4.47,1.45-11.58,8.12-11.58,5.92,0,5.99,5.75,5.99,10.02v18.6h9.23v-21.99c0-7.86-3.65-13.68-12.05-13.68-4.82,0-8.74,1.56-11.64,5.55h-.14v-4.74h-8.74v34.88h0Z"/>
  <path class="cls-2" d="M255.42,103.42c0,9.97,6.67,17.93,18.13,17.93s18.19-7.96,18.19-17.93c0-11.45-7.87-18.4-18.19-18.4s-18.13,6.94-18.13,18.4ZM264.86,102.34c0-5.19,2.83-10.31,8.7-10.31s8.76,4.98,8.76,10.31c0,5.8-1.82,12-8.76,12s-8.7-6.27-8.7-12Z"/>
  <path class="cls-1" d="M299.89,120.69h8.86v-12.79c0-5.01,0-14.21,7.21-14.21,1.59,0,3.18.27,3.97.74v-9.13c-.89-.22-1.81-.32-2.73-.27-5.29,0-8.93,5.48-9.33,8.73h-.13v-7.9h-7.86v34.86-.02Z"/>
  <path class="cls-3" d="M76.31,62.02s77.7-42.07,138.2-31.72c60.5,10.35-17.3,49.68,44.14,42.61,38.87-4.47,65.03-21.8,65.03-21.8,0,0-24.23,11.77-55.41,7.43-51.06-7.1-53.29-16.56-100.01-16.56-49.15,0-91.96,20.04-91.96,20.04Z"/>
</svg>