<?xml version="1.0" encoding="UTF-8"?>
<svg id="Capa_1" data-name="Capa 1" xmlns="http://www.w3.org/2000/svg" viewBox="0 0 400 150">
  <defs>
    <style>
      .cls-1 {
        fill: #8bb645;
      }

      .cls-2 {
        fill: #662d91;
      }
    </style>
  </defs>
  <path class="cls-1" d="M98.05,43.54c.39-.13.47-.38.6-.57,3.22-4.71,7.61-7.62,13.24-8.63,2.61-.47,5.25-.45,7.89-.24,2.64.21,5.22.74,7.7,1.67,5,1.86,8.89,5.12,11.89,9.5,2.48,3.62,4.01,7.62,4.88,11.89.8,3.95.99,7.94.82,11.95-.13,3.07-.48,6.12-1.45,9.06-1.16,3.54-3.07,6.65-5.39,9.52-2.37,2.94-5.09,5.49-8.37,7.38-2.92,1.69-6.06,2.74-9.41,3.14-2.96.36-5.93.43-8.91.43-8.76,0-17.52,0-26.28-.01-.05,0-.1,0-.14,0q-.6,0-.61-.58c0-.14,0-.29,0-.43,0-26.46,0-52.92,0-79.38,0-1.11-.15-.99,1-.99,3.86,0,7.73,0,11.59,0,.19,0,.38,0,.58,0,.28-.01.39.11.38.39,0,.19,0,.38,0,.58,0,8.16,0,16.31,0,24.47v.85ZM97.61,76.05h-.01c0,3.57,0,7.15,0,10.72,0,1.08-.09.9.93.91,2.01.03,4.03.03,6.05.02,3.5-.03,7-.04,10.49-.41,3.31-.35,6.47-1.24,9.46-2.73,3.34-1.67,5.53-4.31,6.79-7.81.82-2.3,1.26-4.66,1.38-7.08.21-4.22-.15-8.37-1.68-12.37-.83-2.18-1.89-4.23-3.35-6.06-2.05-2.58-4.61-4.45-7.8-5.37-2.05-.59-4.14-.72-6.27-.54-2.05.17-4.03.58-5.91,1.43-3.68,1.66-6.18,4.46-7.79,8.1-1.56,3.52-2.19,7.24-2.28,11.05-.07,3.38-.02,6.76-.02,10.14Z"/>
  <path class="cls-1" d="M181.54,98.67c-4.62,0-8.71-.56-12.62-2.09-6.83-2.66-11.63-7.47-14.68-14.06-1.51-3.27-2.36-6.73-2.79-10.3-.26-2.1-.36-4.2-.36-6.32,0-9.09,3.04-17,9.27-23.64,3.63-3.87,8.06-6.39,13.22-7.59,5.96-1.38,11.86-1.18,17.63.92,4.31,1.57,7.89,4.21,10.88,7.67,2.94,3.39,5.2,7.18,6.57,11.47.78,2.45,1.24,4.97,1.43,7.54.18,2.33.06,4.65-.17,6.96-.04.37-.16.52-.52.48-.19-.02-.38,0-.58,0-14.4,0-28.8,0-43.2.01-1.09,0-.94-.14-.91.9.1,3.32.74,6.52,2.41,9.45,2.5,4.39,6.22,7.02,11.27,7.66,3.18.4,6.32.25,9.36-.87,2.97-1.1,5.21-3.07,6.82-5.79.54-.91.98-1.85,1.34-2.84.16-.43.39-.57.84-.56,3.86.02,7.73.01,11.59.01.1,0,.19,0,.29,0,.27-.01.4.07.31.38-.16.55-.27,1.12-.42,1.67-1.71,6.15-5.36,10.85-10.7,14.29-3.67,2.36-7.67,3.8-11.99,4.36-1.57.2-3.15.3-4.31.29ZM180.47,60.9h0c4.97,0,9.94,0,14.9,0,.19,0,.38,0,.58,0,.21,0,.3-.11.29-.32,0-.12-.01-.24-.02-.36-.31-2.82-1.05-5.51-2.45-8.01-1.66-2.96-3.99-5.18-7.12-6.52-2.44-1.04-5-1.36-7.61-.97-4.12.61-7.47,2.65-10.12,5.83-2.3,2.76-3.6,5.97-4.1,9.52-.12.83-.13.83.69.83,4.99,0,9.98,0,14.97,0Z"/>
  <path class="cls-1" d="M302.08,61.47c.03.24-.16.42-.27.61-5.24,8.92-12.09,16.37-20.54,22.34-1.49,1.05-3.01,2.05-4.58,2.99-5.76,3.46-11.86,6.17-18.3,8.12-3.6,1.09-7.26,1.97-10.99,2.48-2.14.29-4.29.48-6.44.65-2.09.16-4.17.16-6.25-.01-2.4-.2-4.75-.61-6.98-1.58-2.64-1.15-4.49-3.05-5.47-5.78-.59-1.63-.92-3.32-1.12-5.04-.23-2.01-.25-4.02-.25-6.03,0-11.06,0-22.12,0-33.18,0-1.04.09-.91-.94-.91-2.86,0-5.71,0-8.57,0-.17,0-.34,0-.5,0-.25,0-.34-.12-.34-.36,0-.14,0-.29,0-.43,0-2.88,0-5.76,0-8.64,0-.07,0-.14,0-.22.02-.59.02-.6.6-.6,2.16,0,4.32,0,6.48,0,.94,0,1.87-.01,2.81,0,.33,0,.5-.09.46-.45-.02-.17,0-.34,0-.5,0-5.54,0-11.08,0-16.62,0-.14,0-.29,0-.43,0-.62.01-.63.64-.63,4.15,0,8.3,0,12.45,0,.68,0,.68,0,.68.73,0,5.66,0,11.32,0,16.98,0,1.05-.14.91.91.92,3.53,0,7.05,0,10.58,0,.17,0,.34,0,.5,0,.27-.01.41.09.39.37,0,.05,0,.1,0,.14,0,3.07,0,6.14,0,9.21,0,.5-.02.51-.61.51-3.55,0-7.1,0-10.65,0-.19,0-.38,0-.58,0q-.54.01-.55.57s0,.1,0,.14c0,11.8,0,23.61,0,35.41,0,1.3.08,2.59.41,3.85.64,2.42,2.16,4.02,4.56,4.75,1.83.56,3.72.7,5.62.64,3.24-.1,6.44-.62,9.62-1.24,6.62-1.29,12.98-3.36,19.07-6.26,5.96-2.83,11.48-6.35,16.56-10.56,4.25-3.52,8.11-7.4,11.43-11.82.04-.05.09-.1.13-.15Z"/>
  <path class="cls-1" d="M255.64,88.33c-.77-1.28-1.19-2.65-1.42-4.07-.59-3.51-.42-6.98.73-10.37,1.38-4.05,4.09-6.93,7.92-8.78,2.48-1.2,5.12-1.87,7.8-2.45,2.37-.51,4.78-.76,7.17-1.16,2.7-.46,5.4-.82,8.11-1.16,1.43-.18,2.85-.38,4.25-.71,1.15-.27,2.23-.7,3.2-1.38,1.35-.94,2.16-2.22,2.47-3.83.25-1.32.16-2.63-.19-3.92-.53-1.94-1.77-3.29-3.51-4.25-1.78-.98-3.71-1.38-5.7-1.59-2.01-.21-4.02-.22-6.03,0-1.68.17-3.32.52-4.87,1.19-3.31,1.44-5.17,4.01-5.74,7.54-.15.94-.14.94-1.07.94-3.94,0-7.87,0-11.81,0-.85,0-.83,0-.74-.83.21-2.03.6-4.03,1.32-5.95,1.73-4.66,4.92-7.99,9.29-10.25,2.9-1.5,6.01-2.36,9.22-2.88,3.43-.56,6.87-.69,10.33-.54,4.59.19,9.04,1.06,13.18,3.17,2.49,1.27,4.69,2.9,6.36,5.17,1.65,2.24,2.54,4.76,2.81,7.52.06.64.09,1.29.13,1.94.04.68-.16,1.24-.54,1.8-2.44,3.7-5.66,6.55-9.51,8.71-3.52,1.98-7.3,3.26-11.21,4.18-3.2.75-6.45,1.22-9.71,1.61-4.01.48-7.87,1.47-11.42,3.45-6.04,3.37-9.52,8.53-10.6,15.33-.08.51-.14,1.03-.2,1.54Z"/>
  <path class="cls-1" d="M308.83,62.71c0,.39,0,.76,0,1.14,0,6.57,0,13.14,0,19.71,0,.72.04,1.44.16,2.15.26,1.46,1.04,2.2,2.53,2.27,1,.05,2.01.1,3.01-.09.23-.05.47-.04.69-.06.14.14.09.3.1.43,0,2.76,0,5.52,0,8.27,0,.61,0,.62-.56.8-3.11,1.03-6.29,1.51-9.56,1.29-1.48-.1-2.92-.39-4.28-1.02-2.02-.94-3.39-2.46-4.17-4.53-.21-.55-.36-1.13-.53-1.7-.18-.04-.25.11-.35.2-3.43,3.23-7.52,5.16-12.07,6.2-3.63.83-7.31,1.05-11.01.83-3.11-.18-6.11-.87-8.93-2.25-.19-.09-.38-.2-.57-.3-.03-.02-.05-.07-.09-.15,1.55.2,3.07.3,4.6.36,2.45.1,4.89-.06,7.31-.43,9.81-1.48,17.71-6.34,24.19-13.7,3.59-4.08,6.32-8.66,8.05-13.83.59-1.78,1.01-3.59,1.37-5.43.01-.07,0-.15.11-.18Z"/>
  <g>
    <path class="cls-2" d="M203.62,118.13c0-.38,0-.75,0-1.13,0-.24.11-.34.35-.34.38,0,.77,0,1.15,0,.25,0,.35.11.34.35,0,.12,0,.24,0,.36,0,3.55,0,7.1,0,10.64,0,.61-.09,1.19-.29,1.76-.44,1.24-1.32,2.05-2.53,2.48-1.75.62-3.52.64-5.3.1-.72-.22-1.34-.64-1.9-1.13-.2-.17-.23-.32-.06-.54.24-.3.45-.61.66-.91.09.02.14.01.17.04,1.46,1.49,3.25,1.65,5.13,1.19,1.42-.34,2.2-1.41,2.26-2.88.02-.54,0-1.09,0-1.69-.28.08-.39.27-.53.41-2.38,2.33-6.76,1.7-8.06-1.79-.67-1.8-.68-3.62-.02-5.42,1.36-3.71,5.89-4.18,8.19-1.8.1.1.19.21.29.32.05-.01.11-.03.16-.04ZM203.62,122.33c0-.72-.01-1.44,0-2.15,0-.31-.1-.55-.31-.77-.59-.62-1.3-1.05-2.13-1.27-1.98-.54-3.81.41-4.45,2.36-.42,1.29-.42,2.59.08,3.86.47,1.2,1.34,1.98,2.62,2.2,1.47.24,2.73-.23,3.8-1.27.27-.27.41-.55.4-.95-.03-.67,0-1.34,0-2.01Z"/>
    <path class="cls-2" d="M118.4,118.34c.28-.09.37-.33.54-.49,1.15-1.07,2.47-1.64,4.06-1.41,1.51.22,2.34,1.09,2.52,2.61.03.26.04.53.04.79,0,2.54,0,5.09,0,7.63,0,.63,0,.63-.62.64q-1.19.02-1.19-1.16c0-2.01,0-4.03,0-6.04,0-.38-.02-.77-.07-1.15-.15-1.18-.93-1.84-2.12-1.77-1.14.07-2.05.6-2.8,1.45-.23.26-.23.56-.23.88,0,2.3,0,4.61,0,6.91,0,.17,0,.34,0,.5.02.27-.1.37-.38.39-1.43.11-1.43.12-1.43-1.28,0-2.09,0-4.17,0-6.26,0-.29,0-.57-.06-.86-.24-1.25-1.04-1.86-2.31-1.71-1.06.12-1.88.67-2.58,1.44-.22.24-.22.51-.22.8,0,2.33,0,4.65,0,6.98,0,.17,0,.34,0,.5.02.28-.12.36-.39.38-1.46.12-1.46.12-1.46-1.33,0-3.09,0-6.19,0-9.28,0-.17,0-.34,0-.5,0-.24.09-.36.34-.35.02,0,.05,0,.07,0,.43,0,.95-.13,1.27.06.38.23.09.79.17,1.21.01.06.02.09.12.12.19-.04.29-.24.45-.37.95-.79,2.02-1.3,3.28-1.27,1.38.03,2.44.61,2.98,1.95Z"/>
    <path class="cls-2" d="M130.41,126.61c0,1.68,0,3.31,0,4.94,0,.17,0,.34,0,.5.02.27-.09.4-.37.39-.36-.01-.72,0-1.08,0-.26,0-.41-.08-.39-.37,0-.12,0-.24,0-.36,0-4.77,0-9.54,0-14.31,0-.12,0-.24,0-.36-.02-.27.08-.4.37-.39.36.01.72.02,1.08,0,.33-.02.41.15.4.44-.01.32,0,.65,0,.99.3-.04.39-.24.52-.36,2.67-2.44,6.84-1.47,8.1,1.91.68,1.84.66,3.72-.04,5.56-1.39,3.65-5.89,4.07-8.11,1.74-.11-.11-.2-.26-.47-.33ZM130.41,122.33c0,.58.07,1.16-.02,1.72-.14.92.35,1.44,1,1.9.43.31.91.53,1.42.67,1.82.5,3.53-.27,4.28-1.99.65-1.5.63-3.04-.01-4.54-.43-1-1.18-1.71-2.25-1.96-1.61-.38-2.98.11-4.13,1.27-.21.22-.31.46-.3.77.02.72,0,1.44,0,2.16Z"/>
    <path class="cls-2" d="M254.85,126.53c-.34.31-.56.53-.79.73-2.45,2.03-6.2,1.26-7.57-1.6-1-2.08-1.02-4.24-.08-6.33,1.45-3.24,5.5-3.94,8.02-1.45.1.1.16.23.24.36.26-.23.18-.43.18-.6,0-1.58,0-3.16,0-4.74,0-.54.01-.56.55-.55.4,0,.9-.17,1.18.08.29.26.11.77.11,1.17,0,4.6,0,9.2,0,13.8,0,.75.07.73-.75.74-1.1,0-1.1,0-1.11-1.09,0-.12,0-.23,0-.5ZM254.85,122.37c0-.55-.07-1.11.02-1.65.14-.91-.35-1.44-1-1.9-.43-.31-.91-.53-1.42-.67-1.89-.53-3.67.34-4.38,2.16-.56,1.42-.55,2.86.03,4.27.46,1.11,1.28,1.87,2.47,2.1,1.55.3,2.88-.17,3.99-1.31.23-.24.31-.51.31-.84-.02-.72,0-1.44,0-2.16Z"/>
    <path class="cls-2" d="M147.88,122.98c.05,2.08,1.61,3.73,3.61,3.89,1.54.12,2.88-.33,4.03-1.37.23.03.3.23.4.37.61.8.62.82-.25,1.38-1.97,1.28-4.08,1.5-6.25.68-2.74-1.04-3.75-3.72-3.52-6.14.2-2.03,1.12-3.66,2.93-4.68,2.75-1.55,7.3-.8,8.23,3.91.1.49.15.99.16,1.5,0,.33-.08.5-.44.46-.14-.02-.29,0-.43,0-2.57,0-5.13,0-7.7,0h-.77ZM151.62,121.65c1.08,0,2.15,0,3.23,0,.54,0,.57-.04.5-.58,0-.07-.02-.14-.03-.21-.39-1.85-1.89-2.99-3.85-2.96-1.86.03-3.24,1.38-3.59,3.21-.1.49-.05.54.45.55,1.1,0,2.2,0,3.3,0Z"/>
    <path class="cls-2" d="M308.82,122.24c0-.84.05-1.53-.01-2.22-.08-.94-.77-1.67-1.79-1.92-1.49-.37-2.85-.08-4.06.87-.2.16-.35.39-.61.48-.25-.19-.37-.46-.53-.69-.34-.48-.35-.5.09-.86,2.02-1.66,4.29-1.93,6.68-1.05,1.16.43,1.83,1.36,2.01,2.6.05.33.08.67.08,1,0,2.33,0,4.65,0,6.98,0,.67,0,.68-.66.67-.36,0-.77.13-1.06-.06-.32-.21-.02-.67-.19-1.01-.25-.02-.35.21-.52.32-1.57,1.09-3.27,1.34-5.05.64-1.49-.59-2.32-1.96-2.26-3.59.05-1.59.97-2.83,2.51-3.32,1.73-.54,3.36-.3,4.85.75.13.09.26.2.52.4ZM308.83,124.57c0-.14-.02-.29,0-.43.11-.59-.19-.95-.64-1.25-1.09-.73-2.28-.97-3.55-.63-1.12.3-1.83,1.2-1.84,2.28-.02,1.1.63,2,1.75,2.35,1.1.34,2.17.21,3.2-.32.73-.37,1.25-.87,1.09-1.79-.01-.07,0-.14,0-.21Z"/>
    <path class="cls-2" d="M190.34,122.21c0-.82.04-1.52,0-2.2-.06-.92-.77-1.66-1.8-1.91-1.52-.38-2.9-.05-4.11.94-.17.14-.32.29-.48.43-.28-.11-.36-.38-.51-.59-.44-.62-.44-.64.19-1.12,1.88-1.45,3.98-1.71,6.19-1.02,1.52.47,2.33,1.61,2.37,3.18.06,2.59.02,5.18.03,7.77,0,.3-.09.46-.41.43-.1,0-.19,0-.29,0q-1.11,0-1.18-1.06c-.26-.07-.36.18-.52.29-1.47,1.05-3.08,1.31-4.78.77-1.67-.54-2.66-2.07-2.54-3.76.13-1.79,1.21-3.04,2.98-3.4,1.66-.34,3.19-.06,4.54,1.02.07.06.15.1.34.23ZM190.36,124.64c0-.17-.03-.34,0-.5.11-.58-.18-.95-.63-1.25-1.07-.71-2.23-.95-3.48-.63-1.17.3-1.95,1.26-1.93,2.37.02,1.14.85,2.12,2.04,2.36.94.19,1.86.1,2.73-.3.83-.38,1.48-.9,1.26-1.97,0-.02,0-.05,0-.07Z"/>
    <path class="cls-2" d="M163.62,122.44c.03-.69.09-1.4.3-2.1.85-2.71,3.24-4.18,6.04-3.93,3.5.31,5.37,3.19,5.17,6.42-.06.92-.27,1.8-.71,2.61-1.18,2.13-3.05,3.06-5.43,2.91-3.2-.2-5.29-2.54-5.38-5.91ZM173.22,122.4c.01-.98-.21-1.9-.74-2.74-1.42-2.22-4.66-2.26-6.13-.07-1.06,1.57-1.03,4.01,0,5.59,1.39,2.1,4.69,2.1,6.06,0,.55-.85.8-1.78.8-2.79Z"/>
    <path class="cls-2" d="M107.4,122.33c.02.68-.07,1.31-.25,1.94-.78,2.7-3.12,4.32-5.92,4.1-3.03-.24-5.17-2.44-5.33-5.49-.11-2.04.45-3.84,2.05-5.21,2.63-2.25,8.23-1.77,9.31,3.27.1.47.17.94.14,1.4ZM101.49,126.76c1.66,0,2.76-.68,3.42-1.99.78-1.55.79-3.14.04-4.71-.67-1.39-1.83-2.09-3.35-2.07-1.52.02-2.66.76-3.3,2.15-.67,1.47-.68,2.98,0,4.45.65,1.42,1.78,2.15,3.19,2.16Z"/>
    <path class="cls-2" d="M226.63,122.4c.02.62-.08,1.26-.26,1.88-.78,2.69-3.13,4.31-5.93,4.08-3.06-.26-5.17-2.47-5.33-5.57-.03-.67.02-1.34.17-2,.62-2.72,2.86-4.45,5.7-4.4,2.79.04,4.95,1.83,5.5,4.55.1.47.15.95.14,1.46ZM220.91,126.76c1.48,0,2.57-.69,3.24-2,.64-1.25.73-2.57.34-3.91-.53-1.79-1.88-2.86-3.61-2.87-1.71,0-3.09,1.08-3.62,2.85-.27.92-.29,1.85-.09,2.77.44,1.98,1.85,3.15,3.74,3.15Z"/>
    <path class="cls-2" d="M267.41,126.66c-.55.5-1.11.91-1.74,1.21-1.1.51-2.26.62-3.44.4-1.42-.27-2.31-1.25-2.47-2.71-.04-.31-.05-.62-.05-.93,0-2.47,0-4.94,0-7.41,0-.55.01-.56.55-.55.4,0,.91-.17,1.18.08.27.26.1.78.1,1.18,0,1.99,0,3.98,0,5.97,0,.36.02.72.08,1.07.15.99.76,1.6,1.74,1.74,1.44.21,2.7-.19,3.77-1.18.31-.28.42-.59.42-1.01-.02-2.33,0-4.65,0-6.98,0-.17,0-.34,0-.5-.02-.28.11-.36.38-.38,1.46-.11,1.46-.12,1.46,1.32,0,3.09,0,6.19,0,9.28,0,.17,0,.34,0,.5,0,.23-.08.37-.33.36-.02,0-.05,0-.07,0-.43,0-.94.12-1.27-.06-.4-.22-.09-.79-.18-1.2,0-.04-.04-.07-.11-.19Z"/>
    <path class="cls-2" d="M235.58,118.07c.6-.34,1.06-.72,1.6-1,1.17-.61,2.39-.82,3.69-.57,1.32.25,2.19,1.09,2.46,2.4.08.4.13.8.13,1.21,0,2.47,0,4.94,0,7.41,0,.59,0,.59-.59.6q-1.24.02-1.24-1.18c0-2.06,0-4.12,0-6.18,0-.41-.01-.81-.13-1.21-.24-.82-.78-1.3-1.6-1.46-1.63-.31-2.96.28-4.09,1.43-.23.24-.22.51-.22.8,0,2.3,0,4.6,0,6.9,0,.14-.01.29,0,.43.05.4-.15.47-.51.48-1.3.03-1.3.04-1.3-1.26,0-3.12,0-6.23,0-9.35,0-.17,0-.34,0-.5,0-.23.08-.36.33-.35.38.01.77.01,1.15,0,.26,0,.33.13.33.36,0,.35,0,.7,0,1.05Z"/>
    <path class="cls-2" d="M272.27,125.3c.81.77,1.69,1.27,2.72,1.48.81.17,1.62.18,2.42-.06.35-.1.67-.27.93-.53.82-.79.69-1.91-.3-2.47-.4-.22-.83-.36-1.28-.47-.72-.18-1.44-.36-2.16-.55-.49-.13-.95-.31-1.4-.54-2.05-1.03-1.86-3.57-.52-4.71.74-.63,1.61-.92,2.56-1.01,1.71-.17,3.29.15,4.67,1.25.42.34.42.35.11.8-.17.25-.35.5-.55.79-.92-.91-1.98-1.34-3.19-1.41-.56-.03-1.1.03-1.62.23-.37.14-.68.35-.92.67-.52.7-.37,1.45.38,1.9.52.31,1.11.44,1.69.58.72.18,1.45.32,2.15.57.31.11.63.24.93.38,2.36,1.09,2.21,4.19.29,5.4-.97.61-2.04.79-3.16.79-1.55,0-2.99-.38-4.21-1.39-.46-.38-.46-.38-.13-.85.19-.27.39-.54.6-.84Z"/>
    <path class="cls-2" d="M86.46,122.18c0,.9.1,1.58.38,2.23.96,2.23,3.16,2.68,4.83,2.17.61-.19,1.11-.56,1.52-1.04.16-.18.29-.21.47-.03.22.22.45.44.69.63.27.21.19.37,0,.58-1.03,1.14-2.33,1.64-3.84,1.67-3.82.08-6.18-2.89-5.96-6.48.03-.5.11-1,.26-1.48.91-2.93,3.5-4.27,6.23-3.99,1.24.13,2.31.59,3.18,1.5q.42.44,0,.83s-.03.03-.05.05c-.25.18-.42.53-.73.55-.28.01-.42-.35-.63-.54-1.69-1.44-4.54-.94-5.7,1.01-.47.78-.65,1.64-.65,2.35Z"/>
    <path class="cls-2" d="M287.54,126.33c.15.37.27.68.4.99.12.28.02.46-.23.59-1.11.6-2.24.66-3.36.08-.61-.32-.9-.91-.99-1.59-.05-.35-.05-.72-.05-1.08,0-2.13,0-4.27,0-6.4,0-.67,0-.68-.66-.68-.31,0-.62,0-.93,0-.24,0-.36-.09-.34-.34,0-.02,0-.05,0-.07-.08-1.18-.08-1.17,1.09-1.18.96,0,.85.1.85-.83,0-.6.01-1.2,0-1.8,0-.32.06-.5.43-.47.33.03.67.02,1.01,0,.33-.02.41.13.4.43-.01.74,0,1.49,0,2.23,0,.35.12.47.46.45.5-.02,1.01,0,1.51,0,.32-.01.42.12.41.42-.03,1.45.17,1.13-1.1,1.17-.31,0-.62,0-.93,0-.24,0-.35.12-.34.35,0,.22,0,.43,0,.65,0,1.85,0,3.69,0,5.54,0,.29,0,.58.05.86.14.96.81,1.35,1.72,1.01.2-.07.38-.19.63-.32Z"/>
    <path class="cls-2" d="M155.98,130.53c.6.55,1.22.75,1.93.68.77-.08,1.27-.5,1.49-1.25.11-.37.11-.76.11-1.14,0-3.79,0-7.58,0-11.36,0-.9-.06-.8.82-.79,1.12,0,1-.18,1,.98,0,3.74,0,7.48,0,11.22,0,.58-.03,1.15-.2,1.71-.31,1.03-.96,1.71-2,1.98-1.2.31-2.37.28-3.46-.42-.27-.17-.36-.34-.18-.64.17-.29.3-.59.48-.96Z"/>
    <path class="cls-2" d="M141.73,120.17c0-2.37,0-4.74,0-7.12,0-.84,0-.72.75-.72,1.08,0,1.08,0,1.08,1.04,0,4.65,0,9.3,0,13.94,0,.88.09.81-.82.8-1.13,0-1,.16-1.01-.97,0-2.32,0-4.65,0-6.97Z"/>
    <path class="cls-2" d="M291.4,118.22c.15-.14.32-.3.49-.45.8-.73,1.71-1.22,2.8-1.34.3-.03.47.04.44.37,0,.12,0,.24,0,.36-.02.33.13.73-.08.97-.2.23-.59.04-.89.09-1.09.17-1.98.69-2.71,1.5-.22.24-.19.53-.19.81,0,2.25,0,4.5,0,6.76,0,.17,0,.34,0,.5,0,.2-.08.32-.29.32-.41,0-.81,0-1.22,0-.25,0-.34-.13-.33-.36,0-.14,0-.29,0-.43,0-3.28,0-6.56,0-9.85,0-.14,0-.29,0-.43-.02-.27.09-.4.37-.38.45.03,1-.17,1.33.08.34.25.08.81.14,1.22.01.09-.03.2.14.26Z"/>
    <path class="cls-2" d="M210.31,118.32c.28-.26.47-.43.66-.6.79-.71,1.68-1.18,2.75-1.29.27-.03.41.04.4.33,0,.36-.02.72,0,1.08.02.33-.12.4-.42.38-1.18-.06-2.12.47-2.97,1.23-.34.3-.48.67-.48,1.14.02,2.23,0,4.46,0,6.69,0,.19,0,.38,0,.57,0,.17-.1.27-.27.26-.47-.02-1.03.19-1.4-.09-.3-.23-.11-.76-.11-1.16-.01-3.12,0-6.23,0-9.35,0-.17,0-.34,0-.5,0-.24.09-.36.34-.34.02,0,.05,0,.07,0,.43.02.95-.16,1.26.07.31.23.08.76.12,1.16.01.09.02.19.05.43Z"/>
    <path class="cls-2" d="M315.49,120.24c0,2.33,0,4.65,0,6.98,0,.17-.01.34,0,.5.02.32-.14.41-.43.4-1.68-.03-1.35.22-1.36-1.27-.02-4.58,0-9.16,0-13.74,0-.88-.06-.78.76-.78,1.04,0,1.04,0,1.04,1,0,2.3,0,4.6,0,6.9Z"/>
    <path class="cls-2" d="M230.79,122.38c0,1.72,0,3.45,0,5.17,0,.55-.01.55-.55.57q-1.29.03-1.29-1.27c0-3.11,0-6.23,0-9.34,0-.17,0-.34,0-.5,0-.24.09-.36.34-.34.02,0,.05,0,.07,0q1.43-.1,1.43,1.34c0,1.46,0,2.92,0,4.38Z"/>
    <path class="cls-2" d="M296.74,122.4c0-1.73,0-3.45,0-5.18,0-.55.01-.55.55-.56q1.3-.03,1.3,1.25c0,3.12,0,6.23,0,9.35,0,.17,0,.34,0,.5,0,.24-.09.36-.34.35-.02,0-.05,0-.07,0q-1.44.11-1.44-1.33c0-1.46,0-2.92,0-4.39Z"/>
    <path class="cls-2" d="M161.64,113.85c.02.65-.48,1.18-1.15,1.22-.71.04-1.27-.45-1.3-1.13-.03-.69.48-1.23,1.17-1.26.68-.03,1.25.5,1.27,1.18Z"/>
    <path class="cls-2" d="M229.9,112.67c.69.01,1.21.55,1.19,1.24-.02.66-.53,1.15-1.2,1.15-.7,0-1.25-.53-1.24-1.2,0-.66.57-1.21,1.25-1.2Z"/>
    <path class="cls-2" d="M298.9,113.85c.02.65-.5,1.19-1.16,1.22-.71.03-1.28-.49-1.28-1.17,0-.69.54-1.23,1.23-1.23.66,0,1.2.53,1.21,1.18Z"/>
  </g>
</svg>