<?xml version="1.0" encoding="UTF-8"?>
<svg id="Capa_1" data-name="Capa 1" xmlns="http://www.w3.org/2000/svg" viewBox="0 0 400 150">
  <defs>
    <style>
      .cls-1 {
        fill: #5fa92c;
      }

      .cls-2 {
        fill: #00633a;
      }

      .cls-3 {
        fill: #e1e03f;
      }

      .cls-4 {
        fill: #5ea72b;
      }

      .cls-5 {
        fill: #5ea72c;
      }
    </style>
  </defs>
  <g>
    <path class="cls-2" d="M228.28,60.93c.02,6.18-4.97,11.18-11.16,11.18-6.2,0-11.18-4.97-11.18-11.15,0-6.18,4.99-11.2,11.16-11.2,6.17,0,11.17,4.99,11.19,11.17Z"/>
    <path class="cls-4" d="M200.92,60.94c0,5.58-4.46,10.04-10.05,10.03-5.56,0-10.06-4.52-10.04-10.07.02-5.5,4.53-10,10.03-10.01,5.55-.01,10.05,4.48,10.05,10.05Z"/>
    <path class="cls-4" d="M233.3,60.91c.01-5.56,4.52-10.05,10.08-10.02,5.53.03,10.05,4.6,10,10.12-.04,5.55-4.56,9.99-10.15,9.96-5.52-.03-9.95-4.51-9.93-10.06Z"/>
    <path class="cls-4" d="M207.06,87.18c-.01-5.54,4.51-10.08,10.04-10.08,5.5,0,10,4.46,10.05,9.99.05,5.54-4.44,10.07-10,10.09-5.58.02-10.08-4.44-10.09-10Z"/>
    <path class="cls-5" d="M227.16,34.72c.02,5.5-4.48,10.03-9.98,10.06-5.56.02-10.06-4.42-10.12-9.99-.06-5.52,4.48-10.08,10.02-10.09,5.57,0,10.06,4.47,10.08,10.03Z"/>
    <path class="cls-3" d="M193.91,28.85c4.97,0,8.91,3.94,8.91,8.91,0,4.94-3.99,8.94-8.92,8.93-4.91,0-8.93-4.03-8.92-8.95,0-4.94,3.98-8.9,8.94-8.9Z"/>
    <path class="cls-3" d="M202.82,84.21c-.02,4.92-4.09,8.95-8.98,8.89-4.93-.06-8.88-4.08-8.87-9.01.02-4.89,4.09-8.92,8.99-8.89,4.91.03,8.86,4.06,8.85,9.02Z"/>
    <path class="cls-3" d="M231.4,84.13c0-4.9,3.97-8.91,8.85-8.94,4.93-.03,9,4.03,8.99,8.97,0,4.9-4.07,8.97-8.95,8.93-4.94-.04-8.9-4.02-8.89-8.97Z"/>
    <path class="cls-3" d="M240.38,28.85c4.94.02,8.88,4,8.86,8.97-.02,4.9-4.07,8.89-8.99,8.87-4.92-.02-8.86-4.04-8.85-9,.01-4.94,3.99-8.86,8.98-8.84Z"/>
  </g>
  <g>
    <path class="cls-1" d="M180.32,115.6c0-5.32,4.33-9.63,9.66-9.63,5.36,0,9.71,4.35,9.71,9.7,0,5.28-4.38,9.64-9.69,9.64-5.35,0-9.68-4.33-9.67-9.71ZM185.06,115.59c0,2.75,2.17,4.97,4.9,4.99,2.7.01,4.97-2.24,4.98-4.94,0-2.69-2.26-4.94-4.97-4.94-2.7,0-4.9,2.19-4.91,4.89Z"/>
    <path class="cls-1" d="M233.35,106.32h5.43c.2.35.13.68.14.99,0,3.16,0,6.31,0,9.47,0,.35,0,.7.04,1.04.32,2.42,2.47,3.62,4.73,2.63,1.19-.52,1.7-1.5,1.71-2.75.01-3.45,0-6.9,0-10.35,0-.32,0-.63,0-1.01h5.41c.24.24.17.55.17.83,0,3.34,0,6.69,0,10.03,0,1.38-.21,2.72-.87,3.95-1.15,2.18-3.01,3.37-5.43,3.65-1.97.23-3.96.2-5.91-.21-2.96-.62-4.82-2.77-5.29-5.91-.23-1.57-.12-3.15-.14-4.72-.02-2.51,0-5.02,0-7.63Z"/>
    <path class="cls-1" d="M268.54,111.3c-1.7.1-3.39.2-5,.29-.28-.14-.28-.35-.34-.52-.55-1.54-2.27-2.29-3.8-1.66-.59.24-1,.67-1,1.32,0,.61.43.99.97,1.15,1.23.35,2.48.65,3.72.97.96.25,1.89.56,2.8.95,4.49,1.95,4.08,7.23.98,9.56-1.05.79-2.25,1.24-3.55,1.38-2.24.25-4.49.29-6.67-.42-2.43-.79-3.57-2.66-4.03-5.05-.03-.18-.06-.37.16-.66,1.57-.1,3.24-.21,4.85-.32.31.28.31.59.4.86.58,1.92,2.8,2.87,4.61,1.95.67-.34,1.11-.86,1.13-1.63.02-.78-.41-1.31-1.08-1.65-1.06-.55-2.23-.72-3.37-1.01-1.24-.33-2.46-.72-3.58-1.37-3.34-1.94-3.38-6.33-.09-8.36,1.02-.63,2.16-.93,3.34-1.04,1.95-.19,3.9-.21,5.8.39,2.24.71,3.56,2.39,3.76,4.86Z"/>
    <path class="cls-1" d="M175.41,124.51h-5.63v-13.81h-4.8v-4.36h15.19v4.32h-4.76v13.85Z"/>
    <path class="cls-1" d="M210.24,124.51h-5.62v-13.78h-4.77v-4.38h15.21v4.32h-4.79c-.19,4.65.05,9.23-.02,13.84Z"/>
    <path class="cls-1" d="M231.88,106.33v4.35h-4.82v13.83h-5.58v-13.81h-4.79v-4.37h15.19Z"/>
  </g>
</svg>