<?xml version="1.0" encoding="UTF-8"?>
<svg id="Capa_1" data-name="Capa 1" xmlns="http://www.w3.org/2000/svg" viewBox="0 0 400 150">
  <defs>
    <style>
      .cls-1 {
        fill: #76777a;
      }

      .cls-2 {
        fill: #9ea1a2;
      }
    </style>
  </defs>
  <polygon class="cls-1" points="97.1 29.74 73.94 69.86 93.6 58.51 99.44 68.62 62.27 90.08 44.85 120.26 44.85 120.26 123.24 75 97.1 29.74"/>
  <polygon class="cls-2" points="113.96 93.76 129.25 120.26 149.36 120.26 129.04 85.06 113.96 93.76"/>
  <g>
    <path class="cls-1" d="M243.93,68.46c.12,8.17-6.41,14.88-14.57,15-.18,0-.36,0-.54,0h-10.76v16.75h-6.22v-46.79h17c8.14-.2,14.91,6.24,15.11,14.38,0,.21,0,.41,0,.62M237.81,68.42c.22-4.87-3.54-8.99-8.41-9.21-.2,0-.39-.01-.59,0h-10.74v18.49h10.76c4.89.08,8.92-3.82,9.01-8.71,0-.17,0-.35,0-.52"/>
    <polygon class="cls-1" points="281.43 59.29 267.6 59.29 267.6 100.2 261.45 100.2 261.45 59.29 247.68 59.29 247.68 53.41 281.43 53.41 281.43 59.29"/>
    <rect class="cls-1" x="291.18" y="53.41" width="6.22" height="46.79"/>
    <polygon class="cls-1" points="355.15 100.2 349.01 100.2 349.01 63.65 333.7 89.11 332.89 89.11 317.6 63.72 317.6 100.2 311.38 100.2 311.38 53.41 318.39 53.41 333.3 78.15 348.14 53.41 355.15 53.41 355.15 100.2"/>
    <path class="cls-1" d="M192.93,83.5h-16.53l-6.06,16.71h-6.62l17.45-46.79h7l17.46,46.79h-6.61l-6.09-16.71ZM190.8,77.69l-6.16-16.85-6.1,16.85h12.26Z"/>
  </g>
</svg>