<?xml version="1.0" encoding="UTF-8"?>
<svg id="Capa_1" data-name="Capa 1" xmlns="http://www.w3.org/2000/svg" viewBox="0 0 400 150">
  <defs>
    <style>
      .cls-1 {
        fill: #3f3b60;
      }

      .cls-2 {
        fill: #755aa9;
      }

      .cls-3 {
        fill: #ff595b;
      }

      .cls-4 {
        fill: #3f3b5f;
      }

      .cls-5 {
        fill: #1dc3f7;
      }

      .cls-6 {
        fill: #38d530;
      }
    </style>
  </defs>
  <rect class="cls-4" x="98.24" y="103.23" width="114.87" height="8.96" rx="1.5" ry="1.5"/>
  <rect class="cls-2" x="211.72" y="103.23" width="22.37" height="8.96" rx="1.5" ry="1.5"/>
  <rect class="cls-5" x="233.11" y="103.23" width="21.99" height="8.96" rx="1.5" ry="1.5"/>
  <rect class="cls-6" x="253.78" y="103.23" width="21.99" height="8.96" rx="1.5" ry="1.5"/>
  <rect class="cls-3" x="272.5" y="103.23" width="29.12" height="8.96" rx="1.5" ry="1.5"/>
  <path class="cls-1" d="M169.89,84.74c-.56-.16-.55-1.09-.52-1.56.34-5.89,2.83-12.84,3.31-18.83.09-1.14.17-2.57-.31-3.61-1.28-2.77-5.68-2.07-7.82-.72.25,1.94.21,3.64-.02,5.58-.61,5.05-1.92,13.04-3.2,17.89-.08.28-.29,1.25-.63,1.25h-8.56c-.45,0-.31-1.6-.29-1.96.49-5.99,2.78-12.63,3.29-18.64.28-3.28-.33-5.44-4.06-5.31-.63.02-3.09.42-3.3.89l-4.58,24.75c-.05.06-.42.27-.47.27h-8.56c-.37,0-.38-1.25-.29-1.54,2.01-9.16,2.97-18.84,5.05-27.95.31-1.34.22-1.86,1.5-2.47,4.1-1.93,11.79-3.11,16.14-1.94.96.26,3.89,1.92,4.12,1.93.3,0,2.77-1.18,3.4-1.39,4.21-1.37,8.9-1.66,12.85.61,10.29,5.91,2.6,22.45,1.96,31.54,0,.3-.44,1.21-.67,1.21h-8.35Z"/>
  <path class="cls-1" d="M120.87,37.82c4.94-.11,9.94,1.05,14.1,3.74,1.38.89,2.77,1.41,1.7,3.08-.43.67-4.26,5.7-4.61,5.83-1.1.39-2.25-.8-3.27-1.25-3.68-1.64-11.22-3.82-13.83.45-1.95,3.19-.09,5.02,2.77,6.22,5.94,2.48,15.05,3.75,16.08,11.9,2.19,17.28-19.19,21.89-31.26,14.55-.87-.53-4.11-2.75-4.3-3.61-.23-1.03,4.47-5.79,5.12-7.02.41-.21.83-.16,1.24,0,.58.24,2.22,1.66,3.08,2.14,3.87,2.18,13.09,4.15,15.25-1.16s-7.03-6.52-10.46-8.02c-7.03-3.06-10-8.42-7.96-16.05s8.94-10.63,16.35-10.8Z"/>
  <path class="cls-1" d="M186.08,67.41c4.26-3.44,11.59-3.3,16.71-2.5,2.18-6.73-4.44-6.42-8.98-5.33-.95.23-3.34,1.41-4.03.96-.33-.22-2.54-6.3-2.41-6.76.23-.85,4.51-2.23,5.48-2.47,11.45-2.89,21.4,0,19.74,13.68-.57,4.7-1.77,12.17-2.96,16.68-.3,1.15-.51,1.48-1.62,1.93-5.26,2.17-16.22,3.14-21.16.07-5-3.11-5.64-10.59-2.02-15,.13-.16,1.1-1.13,1.25-1.25ZM201.52,71.39c-2.75-.4-8.1-1.23-9.03,2.32-.52,1.98.45,3.43,2.49,3.7.94.13,5.59.15,5.9-.75l.65-5.28Z"/>
  <path class="cls-1" d="M269.35,83.23c-.31.26-3.43,1.09-4.08,1.25-8.17,1.97-23.26,2.63-22.39-9.65.67-9.45,9.92-10.84,17.64-10.34.81.05,2.65.83,2.82-.11.28-1.54.41-3.58-1.03-4.6-1.77-1.25-6.24-.66-8.33-.17-.95.22-3.19,1.36-3.86.92-.63-.42-1.78-5.1-2.4-6.02-.41-1.21,1.67-1.92,2.62-2.3,9.68-3.93,23.3-2.9,22.82,10.5-.17,4.7-1.97,12.87-2.99,17.69-.13.6-.43,2.5-.83,2.83ZM261.89,71.38c-2.57-.43-8.3-1.12-9.09,2.29-1.11,4.85,5.21,4,8.12,3.36.24-.16,1.17-5.46.97-5.66Z"/>
  <path class="cls-1" d="M229.47,50.35c3.43-.21,7.17.32,10.35,1.64,1.33.55,3.67,1.29,2.82,2.97-.29.57-3.96,5.43-4.29,5.53-.82.25-1.92-.68-2.72-.96-2.27-.8-9.56-2.26-9.65,1.54-.05,2.2,4.61,2.66,6.2,3.16,6.37,2,10.13,5.89,8.04,12.95-2.91,9.84-17.73,10.14-25.26,5.93-1.25-.7-3.58-1.82-2.75-3.45.26-.52,3.46-4.85,3.83-5.15.14-.11.33-.27.5-.31.51-.11,3.23,1.69,4.06,2.02,2.3.93,8.81,1.99,10.01-.93,1.31-3.2-4.25-3.43-6.27-4.07-6.2-1.97-9.65-6.42-7.51-13.05,1.81-5.58,7.23-7.5,12.64-7.83Z"/>
  <path class="cls-1" d="M276.79,82.16c-1.54-1.59-2.81-4.52-2.99-6.72-.33-3.88,1.52-14.46,3.44-17.86,4-7.06,14.21-8.93,21.28-5.81,1.09.48,3.77,1.66,3.15,3.09-.99.88-3.36,4.91-4.28,5.33s-1.66-.41-2.45-.68c-3.22-1.1-7.43-1.31-9.15,2.24-.73,1.51-2.1,8.93-2.18,10.77-.25,5.42,4.6,5.22,8.41,3.81,2.89-1.07,2.58-2.46,4.3,1.02.36.72,1.98,4.28,1.92,4.76-.11.79-2.91,1.86-3.71,2.15-5.37,1.92-13.44,2.3-17.73-2.11Z"/>
  <path class="cls-1" d="M186.08,67.41c-.15.12-1.12,1.1-1.25,1.25.55-.73-.49-.53,0-.94.43-.37.67-.56,1.26-.31Z"/>
</svg>