<?xml version="1.0" encoding="UTF-8"?>
<svg id="Capa_1" data-name="Capa 1" xmlns="http://www.w3.org/2000/svg" viewBox="0 0 400 150">
  <defs>
    <style>
      .cls-1 {
        fill: #6f7271;
      }

      .cls-2 {
        fill: #9ea1a2;
      }
    </style>
  </defs>
  <path class="cls-1" d="M83.51,123.22l2.6-.27c.13.85.49,1.52.94,1.93.49.4,1.12.63,1.93.63.85,0,1.52-.18,1.93-.54.45-.36.67-.81.67-1.25,0-.31-.09-.58-.27-.81s-.49-.4-.94-.58c-.31-.09-1.03-.31-2.15-.58-1.43-.36-2.46-.81-3-1.3-.81-.72-1.21-1.61-1.21-2.69,0-.67.18-1.3.58-1.88.36-.58.94-1.03,1.66-1.34s1.57-.45,2.6-.45c1.66,0,2.91.36,3.76,1.07.85.72,1.3,1.7,1.3,2.91l-2.69.13c-.09-.67-.36-1.16-.72-1.48-.36-.31-.94-.45-1.7-.45s-1.39.18-1.84.49c-.27.22-.45.49-.45.81s.13.58.4.81c.36.27,1.16.58,2.46.9s2.24.63,2.87.94c.63.31,1.12.76,1.48,1.34s.54,1.25.54,2.1c0,.76-.22,1.48-.63,2.15s-1.03,1.16-1.79,1.48-1.75.49-2.87.49c-1.66,0-2.96-.4-3.85-1.16-.9-.81-1.43-1.93-1.61-3.4"/>
  <path class="cls-1" d="M96.59,114.3h2.69v7.17c0,1.12.04,1.88.09,2.19.13.54.4.99.81,1.3.45.31,1.03.49,1.75.49.76,0,1.34-.13,1.7-.45.4-.31.63-.67.67-1.16.09-.45.13-1.21.13-2.24v-7.3h2.69v6.94c0,1.57-.09,2.69-.22,3.36s-.4,1.21-.81,1.66c-.4.45-.9.81-1.57,1.07-.67.27-1.52.4-2.55.4-1.25,0-2.24-.13-2.87-.45-.67-.31-1.16-.67-1.57-1.12-.36-.45-.63-.94-.76-1.48-.18-.76-.27-1.88-.27-3.36v-7.03h.09Z"/>
  <path class="cls-1" d="M110.02,114.3h4.88c1.12,0,1.93.09,2.51.27.76.22,1.43.63,2.02,1.21.54.58.99,1.3,1.25,2.15.27.85.45,1.88.45,3.13,0,1.07-.13,2.02-.4,2.82-.31.94-.81,1.75-1.43,2.33-.45.45-1.07.81-1.88,1.07-.58.18-1.39.27-2.37.27h-5.02v-13.26ZM112.71,116.54v8.78h2.02c.76,0,1.3-.04,1.61-.13.45-.13.81-.31,1.07-.54.27-.27.54-.67.72-1.25s.27-1.39.27-2.42-.09-1.79-.27-2.37c-.18-.54-.45-.99-.76-1.3s-.72-.54-1.25-.63c-.36-.09-1.12-.13-2.19-.13h-1.21Z"/>
  <path class="cls-1" d="M135.41,127.52h-2.91l-1.16-3h-5.28l-1.07,3h-2.82l5.15-13.21h2.82l5.28,13.21ZM130.49,122.32l-1.84-4.93-1.79,4.93h3.63Z"/>
  <polygon class="cls-1" points="136.89 127.52 136.89 114.3 140.88 114.3 143.25 123.31 145.62 114.3 149.66 114.3 149.66 127.52 147.15 127.52 147.15 117.13 144.55 127.52 141.95 127.52 139.35 117.13 139.35 127.52 136.89 127.52"/>
  <polygon class="cls-1" points="152.39 127.52 152.39 114.3 162.19 114.3 162.19 116.54 155.07 116.54 155.07 119.5 161.7 119.5 161.7 121.69 155.07 121.69 155.07 125.28 162.46 125.28 162.46 127.52 152.39 127.52"/>
  <path class="cls-1" d="M164.79,127.52v-13.21h5.64c1.39,0,2.42.13,3.09.36.63.22,1.16.67,1.52,1.25.4.63.58,1.3.58,2.1,0,.99-.31,1.79-.85,2.46-.58.63-1.43,1.07-2.64,1.21.58.31,1.07.72,1.43,1.12s.9,1.12,1.52,2.15l1.61,2.6h-3.18l-1.93-2.87c-.67-1.03-1.16-1.66-1.39-1.93-.27-.27-.54-.45-.81-.54s-.72-.13-1.34-.13h-.54v5.51h-2.73v-.09ZM167.48,119.9h1.97c1.3,0,2.06-.04,2.42-.18.31-.09.58-.31.76-.58s.27-.58.27-.99c0-.45-.13-.81-.36-1.07-.22-.27-.58-.45-.99-.54-.22-.04-.85-.04-1.93-.04h-2.1v3.4h-.04Z"/>
  <rect class="cls-1" x="178.14" y="114.3" width="2.69" height="13.21"/>
  <path class="cls-1" d="M191.93,122.68l2.6.81c-.4,1.43-1.07,2.51-1.97,3.22-.94.72-2.1,1.03-3.49,1.03-1.75,0-3.22-.58-4.34-1.79-1.12-1.21-1.7-2.82-1.7-4.93s.58-3.9,1.7-5.15,2.64-1.84,4.48-1.84c1.61,0,2.91.49,3.94,1.43.58.58,1.07,1.39,1.34,2.42l-2.64.63c-.18-.67-.49-1.21-.99-1.61-.49-.4-1.07-.58-1.79-.58-.99,0-1.79.36-2.37,1.07-.63.72-.94,1.84-.94,3.4,0,1.66.31,2.87.9,3.58.63.72,1.39,1.07,2.33,1.07.72,0,1.3-.22,1.84-.67.54-.45.9-1.16,1.12-2.1"/>
  <path class="cls-1" d="M208.82,127.52h-2.91l-1.16-3h-5.28l-1.07,3h-2.82l5.15-13.21h2.82l5.28,13.21ZM203.89,122.32l-1.84-4.93-1.79,4.93h3.63Z"/>
  <polygon class="cls-1" points="210.34 127.52 210.34 114.3 212.94 114.3 218.35 123.13 218.35 114.3 220.86 114.3 220.86 127.52 218.18 127.52 212.85 118.92 212.85 127.52 210.34 127.52"/>
  <path class="cls-1" d="M235.69,127.52h-2.91l-1.16-3h-5.28l-1.07,3h-2.82l5.15-13.21h2.82l5.28,13.21ZM230.76,122.32l-1.84-4.93-1.79,4.93h3.63Z"/>
  <path class="cls-1" d="M242.36,114.3h4.88c1.12,0,1.93.09,2.51.27.76.22,1.43.63,1.97,1.21.54.58.99,1.3,1.25,2.15.27.85.45,1.88.45,3.13,0,1.07-.13,2.02-.4,2.82-.31.94-.81,1.75-1.43,2.33-.45.45-1.07.81-1.88,1.07-.58.18-1.39.27-2.37.27h-5.02v-13.26h.04ZM245.05,116.54v8.78h2.02c.76,0,1.3-.04,1.61-.13.45-.13.81-.31,1.07-.54.27-.27.54-.67.72-1.25s.27-1.39.27-2.42-.09-1.79-.27-2.37c-.18-.54-.45-.99-.76-1.3s-.76-.54-1.25-.63c-.36-.09-1.12-.13-2.19-.13h-1.21Z"/>
  <polygon class="cls-1" points="255.79 127.52 255.79 114.3 265.6 114.3 265.6 116.54 258.48 116.54 258.48 119.5 265.11 119.5 265.11 121.69 258.48 121.69 258.48 125.28 265.87 125.28 265.87 127.52 255.79 127.52"/>
  <polygon class="cls-1" points="274.11 127.52 274.11 114.3 283.16 114.3 283.16 116.54 276.75 116.54 276.75 119.68 282.31 119.68 282.31 121.92 276.75 121.92 276.75 127.52 274.11 127.52"/>
  <rect class="cls-1" x="285.4" y="114.3" width="2.69" height="13.21"/>
  <path class="cls-1" d="M290.73,114.3h5.28c1.03,0,1.84.04,2.33.13s.99.27,1.39.54c.4.27.76.63,1.03,1.12.27.45.4.99.4,1.57,0,.63-.18,1.21-.49,1.7-.31.54-.81.9-1.34,1.16.81.22,1.43.63,1.84,1.21.45.58.67,1.21.67,1.97,0,.58-.13,1.16-.4,1.75-.27.58-.67,1.03-1.16,1.34-.49.36-1.07.54-1.79.63-.45.04-1.52.09-3.22.09h-4.48v-13.21h-.04ZM293.37,116.5v3.05h1.75c1.03,0,1.7,0,1.93-.04.45-.04.81-.22,1.07-.49s.4-.63.4-1.03-.09-.76-.31-.99c-.22-.27-.58-.4-.99-.45-.27-.04-1.03-.04-2.28-.04h-1.57ZM293.37,121.78v3.54h2.46c.94,0,1.57-.04,1.84-.09.4-.09.72-.27.99-.54.27-.27.36-.67.36-1.12,0-.4-.09-.72-.27-1.03-.18-.27-.49-.49-.85-.58-.36-.13-1.16-.18-2.37-.18h-2.15Z"/>
  <path class="cls-1" d="M304.12,127.52v-13.21h5.6c1.43,0,2.42.13,3.09.36.63.22,1.16.67,1.52,1.25.4.63.58,1.3.58,2.1,0,.99-.31,1.79-.9,2.46-.58.63-1.43,1.07-2.6,1.21.58.31,1.07.72,1.43,1.12s.9,1.12,1.52,2.15l1.61,2.6h-3.18l-1.93-2.87c-.67-1.03-1.16-1.66-1.39-1.93-.27-.27-.54-.45-.81-.54s-.72-.13-1.34-.13h-.54v5.51h-2.69v-.09ZM306.8,119.9h1.97c1.3,0,2.06-.04,2.42-.18.31-.09.58-.31.76-.58s.27-.58.27-.99c0-.45-.13-.81-.36-1.07-.22-.27-.58-.45-.99-.54-.22-.04-.85-.04-1.93-.04h-2.1v3.4h-.04Z"/>
  <path class="cls-1" d="M329.47,127.52h-2.91l-1.16-3h-5.28l-1.07,3h-2.82l5.15-13.21h2.82l5.28,13.21ZM324.54,122.32l-1.84-4.93-1.79,4.93h3.63Z"/>
  <path class="cls-1" d="M330.32,123.22l2.6-.27c.18.85.49,1.52.94,1.93.49.4,1.12.63,1.93.63.85,0,1.52-.18,1.97-.54s.67-.81.67-1.25c0-.31-.09-.58-.27-.81-.18-.22-.49-.4-.94-.58-.31-.09-1.03-.31-2.15-.58-1.43-.36-2.46-.81-3-1.3-.81-.72-1.21-1.61-1.21-2.69,0-.67.18-1.3.58-1.88.36-.58.94-1.03,1.66-1.34.72-.31,1.57-.45,2.6-.45,1.66,0,2.91.36,3.76,1.07.85.72,1.3,1.7,1.3,2.91l-2.69.13c-.09-.67-.36-1.16-.72-1.48s-.94-.45-1.7-.45-1.39.18-1.84.49c-.27.22-.4.49-.4.81s.13.58.4.81c.36.27,1.16.58,2.46.9,1.3.31,2.24.63,2.87.94.63.31,1.12.76,1.48,1.34s.54,1.25.54,2.1c0,.76-.22,1.48-.63,2.15s-1.03,1.16-1.79,1.48-1.75.49-2.87.49c-1.66,0-2.96-.4-3.85-1.16-.99-.81-1.52-1.93-1.7-3.4"/>
  <path class="cls-1" d="M101.29,74.49h50.02v8.06h-66.06v17.47h63.64c10.66,0,20.42-11.2,20.42-21.18,0-10.66-10.75-21.68-20.82-21.68h-48.86v-7.79h75.6v-17.2h-69.91c-10.17-.09-24.45,8.29-24.45,21.36,0,9.63,9.85,21.05,20.42,20.96"/>
  <path class="cls-2" d="M175.23,49.37h61.62v33.63h-43.89v-29.78h-17.69v47.11h58.58c7.48.09,21.18-9.4,21.18-18.85v-30.5c0-9.63-12.58-18.81-20.87-18.81h-58.94v17.2Z"/>
  <path class="cls-1" d="M339.54,32.17h-56.07c-9.54-.09-21.18,8.82-21.18,18.9v6.14h-7.3v17.47h7.3v25.26h17.11v-25.26h60.15v-17.47h-60.28v-7.79h60.32v-17.24h-.04Z"/>
</svg>