<?xml version="1.0" encoding="UTF-8"?>
<svg id="Capa_1" data-name="Capa 1" xmlns="http://www.w3.org/2000/svg" viewBox="0 0 400 150">
  <defs>
    <style>
      .cls-1 {
        fill: #6f6f6e;
      }

      .cls-2 {
        fill: #c6c6c5;
      }
    </style>
  </defs>
  <path class="cls-1" d="M191.96,29.53c-2.7,3.22-4.37,5.34-4.61,5.84l-.37.78-.04,9.91c-.03,8.8-.01,9.93.19,10.09.14.11.31.14.48.06.14-.07,4.47-4.74,9.62-10.38,5.15-5.64,9.96-10.89,10.67-11.67,1.51-1.65,1.64-1.85,1.64-2.62,0-.68.4-.19-4.9-5.99-2.6-2.86-4.11-4.4-4.41-4.51-.06-.02.07-.04.41-.06h-1.21c-.37.1-.61.38-7.47,8.55Z"/>
  <path class="cls-2" d="M143.07,119.06h6.26v-13.52h.93c.81,0,.94.04,1.1.33.16.28,3.62,5.37,6.28,9.21.46.67,1.25,1.84,1.76,2.59l.94,1.39h4.04c3.2,0,4.03-.04,3.93-.19-.06-.09-1.07-1.51-2.25-3.16-2.83-3.94-7.19-9.98-8.14-11.3-.47-.64-.71-1.11-.64-1.21.07-.09,1.08-1.34,2.25-2.79,1.89-2.33,7.84-9.74,8.21-10.21.1-.14-.65-.19-3.71-.19h-3.84l-5.39,7.26-5.38,7.24-.04-7.24-.03-7.26h-6.26"/>
  <path class="cls-1" d="M232.82,106.18c-.24-5.35-1.76-8.11-4.94-8.95-1.84-.47-4.68-.41-6.68.14-.7.2-.94.38-2.16,1.64-.77.77-1.41,1.41-1.45,1.41-.03,0-.23-.53-.44-1.17-.21-.65-.44-1.35-.53-1.58l-.16-.38-2.58.03-2.58.04v31.67h6.19v-10.28l.4.09c2.11.43,4.53.57,6.36.38,3.62-.4,5.65-1.71,7.09-4.57,1.17-2.32,1.62-5.01,1.47-8.47ZM226.25,110.9c-.68,3.32-2.36,4.2-7.37,3.81l-1.37-.1v-12.31l.61-.17c.33-.09.85-.21,1.17-.28.31-.07,1.31-.13,2.22-.14,3.2-.03,4.2.65,4.74,3.3.3,1.44.3,4.45,0,5.89Z"/>
  <path class="cls-1" d="M256.83,103.47c-.2-3.02-1.17-4.88-2.95-5.71-1.48-.68-2.51-.83-5.64-.83s-5.04.21-7.9.9l-1.57.38-.04,2.11-.04,2.11.4-.09c1.69-.36,4.27-.57,6.73-.58,2.55,0,2.83.03,3.44.31.81.37,1.05.8,1.28,2.25.2,1.24.13,1.35-.78,1.35-1.54,0-6.4.87-8.21,1.45-2.01.64-3.07,1.51-3.8,3.06-.46.98-.65,2.79-.47,4.26.34,2.79,1.52,4.26,3.81,4.74,1.61.34,5.59.07,6.66-.44.23-.1.9-.77,1.51-1.47.6-.71,1.17-1.28,1.27-1.28.09,0,.38.7.65,1.54l.48,1.54,2.63-.04,2.62-.04M250.67,112v2.62l-1.02.19c-.57.1-1.91.19-2.96.2-3.02,0-3.49-.37-3.49-2.7,0-1.52.24-2.11.95-2.33.46-.13,2.06-.38,3.1-.48.27-.03,1.15-.07,1.96-.07l1.45-.03v2.62Z"/>
  <path class="cls-1" d="M245.5,73.56c.14-.17.14-.3,0-.54-.1-.19-2.58-3.1-5.51-6.49-2.93-3.39-6.01-6.95-6.83-7.9-.83-.95-2.05-2.36-2.72-3.13-.67-.78-4.34-5.02-8.16-9.45-3.81-4.43-7.13-8.21-7.36-8.44-.61-.57-1.39-.54-2.04.07-1.11,1.05-9.79,10.85-9.92,11.17-.3.8-.06,1.18,3.05,4.84,1.67,1.95,4.43,5.21,6.15,7.23,11,12.97,10.32,12.18,11.16,12.58l.8.37,10.6-.04c9.49-.04,10.62-.07,10.77-.27Z"/>
  <path class="cls-1" d="M180.43,73.03c.19-.43.21-2.58.21-14.82,0-9.61-.04-14.42-.14-14.6-.09-.14-.24-.27-.34-.27s-3.8,4.18-8.23,9.28c-4.41,5.11-8.68,10.03-9.45,10.93-7.32,8.44-8.17,9.47-8.17,9.78,0,.23.11.38.37.47.23.09,4.94.14,12.45.14,13.44,0,12.9.04,13.29-.91Z"/>
  <path class="cls-2" d="M211.39,69.66c-1.61-1.89-3.33-3.93-3.84-4.54-5.38-6.39-8.74-10.23-9.01-10.3-.44-.11-.84-.09-1.17.09-.31.17-9.39,10.15-9.78,10.76-.5.8-.68,1.98-.68,4.48,0,1.84.04,2.49.21,2.8.47.91-.44.85,13.88.85,7.16,0,13.11-.06,13.21-.13.11-.07.17-.23.14-.34-.01-.13-1.35-1.78-2.96-3.67Z"/>
  <path class="cls-1" d="M204.21,114.49c-.54-.26-.93-.8-1.08-1.49-.09-.31-.14-5.95-.14-12.77v-12.2h-6.13l.04,13.62c.06,15.14,0,14.29,1.01,15.78.57.84,1.75,1.52,3.06,1.78,1.15.21,3.9.09,5.58-.26l1.21-.26.04-2.11.04-2.12-.6.1c-1.02.17-2.6.13-3.03-.09Z"/>
  <path class="cls-1" d="M184.7,97.07c-1.38-.24-4.81-.27-6.33-.04-1.18.17-2.85.73-3.84,1.3-2.22,1.24-3.77,3.77-4.34,7.06-.24,1.37-.28,4.85-.07,6.35.61,4.28,2.86,6.65,7.12,7.49,1.52.3,5.64.24,7.27-.11,4.63-1,6.82-3.86,7.39-9.71.19-1.81,0-4.78-.37-6.25-.9-3.47-3.09-5.42-6.82-6.08ZM185.28,111.89c-.63,2.04-2.05,2.85-4.78,2.73-1.2-.04-1.51-.11-2.22-.47-1.54-.78-1.91-1.78-2.01-5.21-.14-4.64.75-6.56,3.27-7.1.91-.2,3.2-.07,3.9.21,1.3.53,1.98,1.88,2.22,4.45.17,1.81,0,4.11-.38,5.38Z"/>
</svg>