<?xml version="1.0" encoding="UTF-8"?>
<svg id="Capa_1" data-name="Capa 1" xmlns="http://www.w3.org/2000/svg" viewBox="0 0 400 150">
  <defs>
    <style>
      .cls-1 {
        fill: #b1b1b1;
      }

      .cls-2 {
        fill: #fff;
      }

      .cls-3 {
        fill: #868686;
      }
    </style>
  </defs>
  <path class="cls-3" d="M123.37,44.46s75.76-25.01,161.45,0c0,0-5.76,24.03-5.27,50.51,0,0-35.06-11.77-67.18-2.21-32.12,9.56-69.88,7.78-83.3.06,0,0,.92-16-5.7-48.36Z"/>
  <path class="cls-1" d="M128.89,95.21s32,16,77.35,1.96c42.12-13.03,72.7.8,72.7.8,0,0-32.18-6.62-66.93,7.17-34.75,13.79-71.53,10.3-83.12-9.93Z"/>
  <path class="cls-1" d="M204.4,110.54s9.19-1.59,16.92-4.78c7.72-3.19,27.21-10.91,57.74-1.59,0,0-25.38-1.47-35.43,3.68-10.05,5.15-26.11,9.69-39.23,2.7Z"/>
  <g>
    <polygon class="cls-2" points="139.06 50.34 139.06 81.6 160.03 81.6 160.03 74.98 149.24 74.98 149.24 50.37 139.06 50.34"/>
    <polygon class="cls-2" points="199.04 50.34 199.04 81.65 209.38 81.65 209.38 50.3 199.04 50.34"/>
    <path class="cls-2" d="M211.91,50.62h8.64s1.62-.09,2.42,1.93c.8,2.02,7.54,17.71,7.54,17.71l8.89-19.86h6.62l-12.38,31.26h-8.64l-13.09-31.05Z"/>
    <polygon class="cls-2" points="248.96 50.44 248.96 81.6 269.19 81.6 269.19 74.89 258.89 74.89 258.89 68.73 269.1 68.73 269.1 62.39 258.89 62.39 258.89 56.6 269.1 56.6 269.1 50.34 248.96 50.44"/>
    <path class="cls-2" d="M183.44,50.34h-8.12l-5.46,15.32c-.49-.37-.89-.43-.89-.43-3.92-1.04-7.36,1.75-8.09,5.24-.74,3.49,1.29,1.65,1.29,1.65,2.57-1.65,5.03-.77,5.03-.77l-4.6,10.24h6.62l4.17-9.07h9.5l4.05,9.13h9.5l-12.99-31.32ZM174.92,67.66l2.39-7.26,3.37,7.23-5.76.03Z"/>
  </g>
</svg>