<?xml version="1.0" encoding="UTF-8"?>
<svg id="Capa_1" data-name="Capa 1" xmlns="http://www.w3.org/2000/svg" viewBox="0 0 400 150">
  <defs>
    <style>
      .cls-1 {
        fill: #0074ff;
      }
    </style>
  </defs>
  <path class="cls-1" d="M195.09,80.02c.17-.15.4-.24.6-.33,18.68-.19,37.4-.04,56.09-.08.93.08,1.12-.51.78-1.29-4.29-6.01-8.11-12.36-12.38-18.38-.9-1.27-1.3-2.5-2.59-.75-3.03,4.08-5.7,8.72-8.64,12.91-1.07,1.52-1.75,3.1-3.82,3.28-1.46.13-5.49.2-6.85-.01-1.23-.19-1.46-1.59-.75-2.47l17.06-25.28c1.74-2.53,5.41-2.76,7.59-.63l23.16,34.26c1.74,3.01-.19,6.85-3.61,7.34h-70c-.89-.1-1.41-1.03-1.12-1.87l4.47-6.68Z"/>
  <path class="cls-1" d="M174.59,58.47c-.39-.31-.9-.16-1.21.18l-17.71,26.35c-1.24,1.88-3.49,3.37-5.77,3.57-5.08.45-10.8-.34-15.95,0-2.47-.27-3.9-2.84-2.85-5.1,3.48-4.63,6.37-10.22,9.91-14.75.39-.5.61-.78,1.28-.84,1.4-.13,5.16-.18,6.49,0,1.23.17,1.35,1.38.83,2.34-1.53,2.82-4.1,5.64-5.74,8.46-.12.17-.23.62-.13.78.12.19,3.2.19,3.66.14.58-.06,1.07-.36,1.5-.74l21.48-31.71c1.37-1.52,3.42-2,5.36-1.36,2.61.86,4.54,5.52,6.2,7.62.07.47.08.96-.2,1.37l-4.14,6.07c-1.6,1.04-2.27-1.79-3.02-2.38Z"/>
  <path class="cls-1" d="M212.66,29.61c4.08,5.5,8.47,11.88,12.14,17.69,2.91,4.61.92,6.14-1.6,9.94-1.62,2.44-3.3,4.95-4.96,7.37-1.11,1.62-1.67,3.35-3.94,3.53-2.8.22-5.89-.18-8.73,0-1.66-.41-1.53-1.85-.76-3.07,2.64-4.19,5.95-8.3,8.6-12.51.67-1.06.81-1.38.15-2.5-1.46-2.45-3.41-4.8-4.93-7.24-.59-.62-1.21.46-1.55.91-1.46,1.97-2.74,4.26-4.14,6.33-8.22,12.16-16.5,24.46-24.76,36.51-.86,1.25-.81,2.1-2.62,2.24-2.29.18-6.59.21-8.85,0-1.08-.1-1.72-.83-1.54-1.93.07-.47.78-1.47,1.07-1.92,2.73-4.27,5.76-8.42,8.57-12.6,8.58-12.76,17.21-25.59,25.85-38.29,1.24-1.82,3.19-5.52,4.99-6.59,1.94-1.15,5.03-.65,6.44,1.13.25.31.38.74.56.99ZM210.66,28.12c-.12-.09-.1-.35-.37-.44-2.07-.66-4.16-.44-5.62,1.3s-3.07,4.42-4.37,6.36c-3.32,4.95-6.64,10.04-9.92,14.84-.57.84-.96,1.13-1.34,2.09-.02.04-.34.22-.41.33-1.57,2.54-3.37,5.14-4.98,7.54-2.01,3-4.26,6.09-6.16,9.13-.5.81-1.15,1.56-1.73,2.42-1.4,2.1-2.73,4.19-4.15,6.32-.82,1.23-1.99,3.13-2.85,4.13-.79.92-1.79,2.53-2.49,3.61-.65,1.01-1.13,2.41.56,2.55,2.3.19,6.16.16,8.48,0,1.08-.07,1.34-.27,1.98-1.13.3-.41.64-1.29.88-1.62.1-.13.35-.08.41-.15.08-.09.87-1.5,1.1-1.84,2.34-3.43,4.7-7.2,7.1-10.71,1.63-2.4,3.38-4.62,4.94-7.14.14-.23.19-.62.34-.78.16-.18.46-.16.57-.3.12-.17.12-.64.31-.9,1.18-1.6,2.14-3.16,3.15-4.79.15-.24.94-1.06,1.26-1.54,2.98-4.54,6.04-8.94,9.04-13.37.9-1.33,1.52-2.96,3.11-1,.55.68,1.06,1.8,1.57,2.55,1,1.47,1.89,2.77,2.84,4.32.07.12.35.21.46.47.2.44.15,1.25-.08,1.68-.11.2-.36.32-.48.51-.48.75-.74,1.33-1.26,1.98-1.02,1.29-1.99,3.06-2.99,4.48-.4.56-.38.73-.67,1.2-.61,1-1.82,2.31-2.49,3.36-.35.54-.88,1.29-1.17,1.82-.09.17-.59,1.3-.56,1.41.04.13.26.15.32.24.09.13.05.3.24.45.17.13.64.24.86.26,1.8.2,6.29.19,8.1,0,.79-.08,1.86-.76,2.36-1.38,1.57-1.97,2.85-4.69,4.32-6.64,1.22-1.61,1.99-3.13,3.09-4.72.1-.15.61-.48.75-.68.97-1.32,1.31-3.07.84-4.67-.13-.45-.84-1.7-1.12-2.06-1.26-1.58-2.39-3.45-3.56-5.1-2.02-2.85-3.75-5.73-5.75-8.7-1.33-1.96-2.67-4.41-4.45-5.71Z"/>
  <path class="cls-1" d="M239.7,113.98c.7.1,1.29.64,1.4,1.34.18,1.05.18,2.32-.72,3.02,1.36.34,1.22,3.05.56,3.87-.27.34-1.09.74-1.5.74h-8.03v-8.97h8.28ZM233.29,117.59h5.67c.42,0,.42-1.74.12-1.74h-5.79v1.74ZM233.29,119.21c.06.37-.14,1.64.12,1.81.35.24,4.83-.03,5.62,0,.81-.26.47-1.81.18-1.81h-5.92Z"/>
  <path class="cls-1" d="M146.41,99.03c.37.1,2.86,6.08,3.3,6.85.78-.63,3.04-6.85,3.42-6.85h1.87s.19.17.19.19v9.03h-1.87v-4.55s-.12-.49-.25-.43l-2.3,4.86c-.22.2-1.83.2-2,0l-2.43-4.86v4.98h-1.87v-9.22c.52.09,1.48-.13,1.93,0Z"/>
  <path class="cls-1" d="M227.06,108.25h-1.74l-.13-5.11-2.67,5.11c-.46-.09-1.43.15-1.75-.13l-2.3-4.98s-.25.16-.25.19v4.92h-1.74v-9.22h1.93c.38,0,2.73,6.16,3.36,6.85.65-.68,2.98-6.85,3.36-6.85h1.87c.14,0,.18.3.19.43.21,1.82.13,5.71,0,7.61-.03.39-.19.77-.13,1.18Z"/>
  <path class="cls-1" d="M257.58,108.25l.02-9.07c2.13-.03,4.27-.03,6.4-.01.77,0,1.41-.16,2.26.09,1.71.5,1.71,3.72,1.09,5.01-.46.97-1.28.77-2.03,1.09-.14.06-.19-.02-.15.21l2.86,2.68h-2.8c-.19,0-2.39-2.22-2.8-2.56-.13-.11-.11-.3-.13-.3h-2.74v2.86h-1.99ZM259.57,103.64h5.67c.59,0,.59-2.49,0-2.49h-5.67v2.49Z"/>
  <path class="cls-1" d="M158.88,122.27c-.18.25-.65.53-.94.61-1.15.34-6.43.32-7.58-.02-1.38-.42-1.45-1.7-1.52-2.96-.07-1.18-.13-4.31.5-5.24.33-.49,1.11-.76,1.68-.81,1.57-.14,4.8-.15,6.36,0,.72.07,1.42.44,1.75,1.12.45.94.41,4.52.31,5.67-.05.59-.2,1.16-.55,1.63ZM151.3,115.87c-.3.14-.43.33-.47.65-.1.75-.09,2.98,0,3.75.06.55.26.75.81.81,1.12.13,3.72.11,4.87,0,.5-.05.86-.13.93-.68s.07-3.79-.06-4.18c-.03-.1-.1-.25-.19-.31-.56-.33-4.92.11-5.89-.03Z"/>
  <path class="cls-1" d="M263.18,113.85v1.99h-6.85c.04.27-.13,1.74.19,1.74h6.41v1.74h-6.6s0,1.62,0,1.62h6.85v1.93s-.17.19-.19.19h-8.53c.01-.32-.11-.61-.13-.93-.03-.56.14-1.06.13-1.5-.03-2.04-.37-4.32-.13-6.36.01-.13.06-.43.19-.43h8.66Z"/>
  <path class="cls-1" d="M195.92,113.85v1.99h-6.73v1.74h6.6c-.04.27.13,1.74-.19,1.74h-6.41v1.62h6.73v2.12h-8.72v-9.22h8.72Z"/>
  <path class="cls-1" d="M174.25,122.94v-8.97l7.89-.08c1.15.1,2,.24,2.39,1.45.33,1.03.32,5.29-.05,6.3-.22.6-1.05,1.3-1.69,1.3h-8.53ZM182.28,115.84h-6.17l.12,5.23h5.92c.54,0,.65-.75.69-1.18.05-.58.07-3.39-.14-3.73-.06-.1-.32-.3-.42-.32Z"/>
  <path class="cls-1" d="M141.33,99.82c.32.34.49.93.54,1.39.12,1.2.11,3.66,0,4.86-.16,1.84-1.35,2.07-2.93,2.17-1.27.09-3.09.08-4.36,0-1.65-.1-2.85-.27-3.04-2.19-.1-.97-.11-5.02.22-5.76.14-.31.79-.9,1.12-1,1.03-.31,5.46-.27,6.7-.16.58.05,1.36.24,1.76.67ZM133.55,106.1c.18.17.99.26,1.27.28,1.1.08,2.9.09,4,0,.55-.05,1.1-.06,1.18-.68.06-.44.04-4.08-.07-4.3-.11-.24-.5-.35-.74-.38-1.11-.13-3.73-.11-4.87,0-.35.03-.67.05-.84.41s-.15,3.43-.1,4.02c.02.19.02.52.16.65Z"/>
  <path class="cls-1" d="M189.2,105.13v-5.92c0-.28,1.99-.28,1.99,0v9.03h-1.93c-2.03-2.06-3.94-4.25-6.04-6.23v6.23h-1.99v-9.03s.17-.19.19-.19h1.87c1.99,2.01,3.81,4.2,5.92,6.1Z"/>
  <path class="cls-1" d="M255.21,99.16v1.87h-6.66c-.28,0-.28,1.87,0,1.87h6.41v1.62h-6.6v1.74h6.66s.19.17.19.19v1.81h-8.72v-9.09h8.72Z"/>
  <path class="cls-1" d="M236.09,99.03l5.85,6.1.19-6.1c.29.04,1.87-.13,1.87.19v9.03h-1.93c-2.01-2.07-3.93-4.25-6.04-6.23v6.23h-1.87v-9.22h1.93Z"/>
  <path class="cls-1" d="M207.38,113.98c-.14.39-.05,1.71-.45,1.85-1.99.19-4.26-.19-6.21.02-1.04.11-.8,1.56-.32,1.69.96.26,2.94-.02,4.06.05,1.4.08,2.98.23,3.17,1.94.1.87.06,2.33-.7,2.91-.15.11-1.22.52-1.35.52h-7.1s-.15-.13-.16-.18c-.05-.3.23-1.26.09-1.69h6.66c.65,0,.98-1.35.35-1.72-1.07-.62-4.73.35-6.35-.5-1.17-.61-1.22-3.37-.5-4.22.14-.17,1.1-.66,1.27-.66h7.54Z"/>
  <path class="cls-1" d="M163.98,113.98l5.73,6.1c.58.06.19-.19.19-.31v-5.79h1.87v8.97h-1.81l-5.54-5.79-.75-.56v6.35h-1.74v-8.97h2.06Z"/>
  <path class="cls-1" d="M159.55,105.26l-.12,2.99h-1.74v-9.09h7.54c.38,0,1.24.45,1.48.76.6.77.63,3.54.17,4.38-.19.35-1.06.96-1.4.96h-5.92ZM159.62,101.02c-.04.06-.19.15-.19.19v2.24s.17.19.19.19h5.11c.86,0,.7-2.62.12-2.62h-5.23Z"/>
  <path class="cls-1" d="M121.22,106.22c.44.25,1.1.02,1.52.03,1.29,0,3.02.17,4.22.09.58-.04.85-.61,1.01-.59.21.03,1.14.87,1.16,1.09.03.37-.74,1.01-1.05,1.14-.96.42-5.13.36-6.33.27-.9-.07-2.03-.26-2.41-1.21-.4-1-.38-4.29-.28-5.46.11-1.32.65-2.27,2.06-2.43s4.75-.15,6.1,0c.56.06,1.97.71,1.79,1.41-.05.18-.88.96-1.04,1.21-.27-.44-.58-.68-1.12-.75-1.14-.14-3.69-.1-4.87,0-.75.06-.97.15-1.05.94-.09.84-.09,2.65,0,3.5.02.2.13.68.29.77Z"/>
  <path class="cls-1" d="M146.19,122.28c-.35.35-1.14.63-1.63.67-1.24.11-5.75.14-6.74-.25-.45-.18-.79-.42-.99-.88-.45-1-.46-5.54-.1-6.58.3-.85.97-1.2,1.84-1.27,1.46-.13,4.94-.17,6.36,0,.59.07,1.72.74,1.54,1.41-.02.08-.97,1.08-1.04,1.08-.1,0-.48-.64-.75-.62l-5.91.06c-.21.16-.32.38-.37.63-.12.71-.08,2.71-.01,3.48.05.64.11.97.81,1.06,1.01.12,4.39.14,5.35,0,.46-.07.79-.64.99-.61.07.01,1.04.98,1.06,1.07.02.13-.29.64-.4.75Z"/>
  <path class="cls-1" d="M179.36,108.25h-1.93c-.3,0-.94-1.83-1.17-2.04-.28-.26-4.66.04-5.42-.09-.18.28-1,2.12-1.14,2.12h-2.06c1.43-3.03,3.25-5.87,4.8-8.84.22-.4,1.89-.33,2.11-.13l4.79,8.97ZM175.37,104.64c-.33-1.23-1.29-2.28-1.75-3.49-.07-.05-.29.25-.35.33-.31.45-1.28,2.19-1.45,2.66-.06.17-.1.31-.07.49h3.61Z"/>
  <path class="cls-1" d="M217.84,122.94l4.92-8.98,1.91.03,4.75,8.95h-1.93c-.31,0-.94-1.96-1.39-2.09-.11-.03-.23-.02-.34-.03-.61-.06-4.41-.07-4.77.09-.32.14-.9,2.04-1.21,2.04h-1.93ZM225.44,119.33l-1.81-3.36c-.19,0-1.67,2.92-1.81,3.36h3.61Z"/>
  <path class="cls-1" d="M197.67,108.25l4.79-8.97c.32-.29,1.41-.04,1.87-.13l4.91,9.1h-1.93c-.14,0-.95-1.9-1.27-2.1-1.56.11-3.46-.21-4.97-.03-.76.09-1,2.12-1.61,2.12h-1.81ZM205.26,104.64c.03-.18,0-.32-.07-.49-.31-.87-1.31-2.11-1.74-2.99-.63,1.11-1.45,2.26-1.81,3.48h3.61Z"/>
  <path class="cls-1" d="M280.99,108.25h-1.93c-.29,0-.92-1.82-1.17-2.04-.3-.27-4.65.04-5.42-.09-.13.28-1.01,2.13-1.13,2.13h-2.06l4.75-8.76c.15-.51,1.94-.41,2.16-.21l4.79,8.97ZM277.01,104.64c-.31-1.24-1.26-2.3-1.75-3.49-.08-.05-.29.25-.35.33-.28.41-1.29,2.24-1.45,2.66-.06.17-.1.31-.07.49h3.61Z"/>
  <path class="cls-1" d="M217.97,113.85v1.99h-3.24v7.04s-.17.19-.19.19h-1.81v-6.79s-.28-.44-.31-.44h-2.93v-1.99h8.47Z"/>
  <polygon class="cls-1" points="245.62 113.98 245.62 121.08 252.34 121.08 252.34 122.94 243.87 122.94 243.87 113.98 245.62 113.98"/>
  <path class="cls-1" d="M193.68,108.25v-9.09h1.81c.14,0,.18.3.19.43.3,2.53-.24,5.64,0,8.23.03.13-.09.43-.19.43h-1.81Z"/>
  <path class="cls-1" d="M231.54,99.16v8.91c0,.31-1.57.2-1.87.06v-8.97h1.87Z"/>
  <path class="cls-1" d="M197.17,96.41c-.04.31.12,1.01-.12,1.19l-3.99.93v-.98c.62.02,3.87-1.37,4.11-1.13Z"/>
  <path class="cls-1" d="M188.45,96.79c.01.7-.05,1.1-.77,1.28-1.28.33-2.21-1.1-3.34.09-.09-.81,0-1.28.87-1.44.82-.16,1.36.43,2.06.45.56.02.68-.37,1.18-.38Z"/>
  <path class="cls-1" d="M210.66,28.12c1.78,1.3,3.12,3.74,4.45,5.71,2,2.96,3.74,5.84,5.75,8.7,1.17,1.65,2.3,3.52,3.56,5.1.28.35.99,1.6,1.12,2.06.47,1.6.13,3.35-.84,4.67-.15.2-.65.53-.75.68-1.1,1.6-1.87,3.12-3.09,4.72-1.48,1.95-2.75,4.67-4.32,6.64-.5.62-1.57,1.3-2.36,1.38-1.81.19-6.3.2-8.1,0-.22-.02-.7-.13-.86-.26-.19-.14-.14-.32-.24-.45-.07-.09-.28-.11-.32-.24-.03-.11.47-1.24.56-1.41.3-.53.82-1.28,1.17-1.82.67-1.05,1.88-2.36,2.49-3.36.29-.47.27-.63.67-1.2,1-1.42,1.97-3.19,2.99-4.48.52-.65.78-1.23,1.26-1.98.12-.19.38-.31.48-.51.23-.43.28-1.24.08-1.68-.12-.26-.39-.35-.46-.47-.95-1.55-1.83-2.85-2.84-4.32-.51-.74-1.02-1.87-1.57-2.55-1.59-1.96-2.21-.33-3.11,1-3,4.43-6.07,8.83-9.04,13.37-.32.49-1.11,1.3-1.26,1.54-1.01,1.63-1.97,3.19-3.15,4.79-.19.26-.18.73-.31.9-.11.15-.41.13-.57.3-.15.16-.2.55-.34.78-1.56,2.52-3.3,4.75-4.94,7.14-2.39,3.51-4.75,7.28-7.1,10.71-.23.33-1.02,1.74-1.1,1.84-.06.07-.32.01-.41.15-.23.32-.57,1.2-.88,1.62-.64.87-.9,1.06-1.98,1.13-2.32.16-6.18.19-8.48,0-1.69-.14-1.21-1.55-.56-2.55.7-1.08,1.7-2.69,2.49-3.61.86-1,2.03-2.9,2.85-4.13,1.42-2.13,2.75-4.22,4.15-6.32.57-.85,1.22-1.61,1.73-2.42,1.9-3.04,4.15-6.13,6.16-9.13,1.61-2.4,3.41-5,4.98-7.54.07-.11.39-.29.41-.33.38-.96.77-1.26,1.34-2.09,3.27-4.8,6.59-9.89,9.92-14.84,1.3-1.94,2.88-4.59,4.37-6.36s3.55-1.96,5.62-1.3c.27.09.26.35.37.44Z"/>
</svg>