<?xml version="1.0" encoding="UTF-8"?>
<svg id="Capa_1" data-name="Capa 1" xmlns="http://www.w3.org/2000/svg" viewBox="0 0 400 150">
  <defs>
    <style>
      .cls-1 {
        fill: #76777a;
      }

      .cls-2 {
        fill: #9ea1a2;
      }
    </style>
  </defs>
  <path class="cls-2" d="M181.06,96.72c5.42,0,11.86-1.08,17.01-3.89v-10.42c-6.03,2.61-10.01,2.96-14.67,2.96-6.18,0-9.72-2.46-10.83-7.2h-12.56c1.32,11.86,10.16,18.56,21.05,18.56"/>
  <path class="cls-1" d="M138.64,53.28c-5.62,0-9.72,2.4-13.03,5.56-.82-2.81-2.81-4.6-6.38-4.6h-7.05v23.92h13.96v-10.48c2.05-1.73,4.54-3.02,7.35-3.02,3.48,0,5.77,1.7,5.77,6.18v24.94h14.05v-26.11c0-10.57-5.83-16.39-14.67-16.39"/>
  <path class="cls-2" d="M112.18,78.16h13.96v17.62h-13.96v-17.62ZM275.15,84.05v11.71h12.68v-17.62h-12.68v5.91Z"/>
  <path class="cls-1" d="M269.38,53.28c12.21,0,18.44,7.52,18.44,18.5v6.38h-20.23c-4.6,0-6.5,1.99-6.5,4.19,0,2.75,1.79,4.24,5.01,4.24,1.7,0,5.42-.47,9.05-2.55v7.05c-3.07,2.81-7,5.27-12.53,5.27-7.82,0-13.58-5.21-13.58-13.38s6.65-12.62,17.07-12.62h9.05c-.26-4.3-3.16-6.09-9.19-6.09-4.6,0-9.05.67-14.11,3.02v-10.42c5.15-2.17,10.57-3.6,17.54-3.6M247.6,54.24h-15.49l-6.91,10.63-3.22-4.8c-2.46-3.69-4.19-5.83-9.19-5.83h-11.71l15.28,20.23,3.54,4.68,12.56,16.63h16.6l-16.1-21.46,14.64-20.08Z"/>
  <polygon class="cls-2" points="200.32 95.78 216.13 95.78 223.95 84.54 219.91 79.16 216.33 74.44 200.32 95.78"/>
  <path class="cls-1" d="M172.63,70.2c.82-5.27,4.39-6.79,7.87-6.79,3.69,0,6.09,2.25,6.38,6.79h-14.26ZM180.36,53.28c-10.89,0-20.55,7.82-20.55,21.78,0,1.02.06,2.05.2,3.07h39.4v-2.66c0-15.46-8.43-22.19-19.06-22.19"/>
</svg>