<?xml version="1.0" encoding="UTF-8"?>
<svg id="Capa_1" data-name="Capa 1" xmlns="http://www.w3.org/2000/svg" viewBox="0 0 400 150">
  <defs>
    <style>
      .cls-1 {
        fill: #00a7d3;
      }

      .cls-2 {
        fill: #006bac;
      }
    </style>
  </defs>
  <g>
    <path class="cls-2" d="M171.79,52.52h-6.24c-.25,0-.51.25-.51.51v25.34c0,.25.25.51.51.51h6.24c.25,0,.51-.25.51-.51v-25.47c0-.25-.25-.38-.51-.38Z"/>
    <path class="cls-2" d="M199.55,70.35v-8.92c0-5.99-3.95-9.04-11.72-9.04s-3.06.25-4.84.76c-1.91.51-3.57,1.4-4.84,2.29v.51l3.06,3.69c0,.13.25.13.38.13,2.04-1.27,4.33-1.91,6.5-1.91,4.08,0,4.46,1.91,4.46,3.44v1.53h-4.97c-3.57,0-6.37,1.02-8.41,2.93-1.53,1.53-2.42,3.18-2.42,5.09s1.02,4.58,2.93,6.11c1.91,1.4,4.58,2.17,7.64,2.17,4.97,0,8.41-1.15,10.32-3.57,1.27-1.53,1.91-3.18,1.91-5.22ZM192.55,70.61c0,1.27-.51,3.06-4.46,3.06s-2.29-.25-3.06-.64c-.76-.51-1.27-1.15-1.27-2.04s.51-2.8,4.46-2.8h4.33v2.42Z"/>
    <path class="cls-2" d="M239.42,54.81c-1.78-1.53-3.95-2.42-6.37-2.42s-6.5.76-9.3,2.17h-.25c-1.78-1.53-3.95-2.29-6.5-2.29s-5.09.51-7.26,1.27c0,.13-1.02.38-1.15.51-1.4.64-3.18,1.53-4.08,2.17v22.03s0,.25.38.25h6.24s.38,0,.38-.25v-18.98h0c1.15-.76,2.55-1.15,4.2-1.15s2.29.38,3.06,1.15,1.15,1.91,1.15,3.31v15.92s0,.25.38.25h6.24s.38,0,.38-.25v-19.1h0c1.27-.76,2.67-1.15,4.33-1.15s2.29.38,3.06,1.15,1.15,1.91,1.15,3.31v15.92s0,.25.38.25h6.24c.13,0,.38,0,.38-.25v-16.94c-.13-2.8-1.15-5.09-3.18-6.88h.13Z"/>
    <path class="cls-2" d="M269.6,65.77c0-2.55-.25-4.58-.76-6.11-.38-1.4-1.27-2.67-2.29-3.82-2.17-2.29-5.09-3.31-8.53-3.31s-6.37,1.15-8.53,3.31c-1.15,1.15-1.91,2.42-2.29,3.82-.51,1.4-.76,3.44-.76,6.11s.25,4.71.64,6.11c.51,1.4,1.27,2.67,2.42,3.82,2.17,2.29,5.09,3.31,8.53,3.31s6.37-1.15,8.53-3.31c1.15-1.15,1.91-2.42,2.42-3.82.38-1.53.64-3.57.64-6.11h0ZM258.01,73.66c-3.18,0-4.71-2.55-4.71-8.02s1.53-7.9,4.71-7.9,4.58,2.55,4.58,8.02-1.4,7.9-4.58,7.9Z"/>
    <path class="cls-2" d="M293.29,54.81c-1.78-1.53-3.95-2.42-6.37-2.42s-5.6.51-8.02,1.53c-2.04.89-3.69,1.78-4.84,2.55-.13,0-.13.13-.13.25v21.65s.13.25.38.25h6.24c.13,0,.38,0,.38-.25v-19.1h.13c1.15-.76,2.55-1.15,4.2-1.15s2.29.38,3.06,1.15c.76.76,1.15,1.91,1.15,3.31v15.92s.13.25.38.25h6.24c.13,0,.38,0,.38-.25v-16.81c0-2.8-1.15-5.09-3.18-6.88h0Z"/>
    <path class="cls-2" d="M172.3,46.03c0,2.04-1.66,3.69-3.69,3.69s-3.69-1.66-3.69-3.69,1.66-3.69,3.69-3.69,3.69,1.66,3.69,3.69Z"/>
    <path class="cls-2" d="M323.73,42.71h-6.24c-.13,0-.38.13-.38.25v10.32s-1.78-.89-4.71-.89-6.75,1.66-8.66,4.33c-1.66,2.29-2.55,5.09-2.55,8.92s.89,6.88,2.8,9.17c2.17,2.8,5.6,4.2,10.06,4.2s5.86-1.02,8.15-2.8c.76-.64,1.27-1.02,1.66-1.4q.13,0,.13-.25v-31.46c0-.25,0-.38-.25-.38ZM317.11,60.04v5.48h0v6.24h0c-.38.25-.64.38-1.02.51-.64.25-1.27.38-2.04.38h-.51c-4.58-.38-5.6-4.97-5.6-7.13h0v-.25c0-1.02.25-2.67,1.02-4.08.25-.38.38-.76.64-1.02.89-1.02,2.17-1.91,3.95-2.04,1.4-.13,2.55.25,3.57.89v1.02h0Z"/>
    <path class="cls-2" d="M158.93,42.71h-6.24s-.38.13-.38.25v10.32s-1.78-.89-4.71-.89-6.75,1.66-8.66,4.33c-1.66,2.29-2.55,5.09-2.55,8.92s.89,6.88,2.8,9.17c2.17,2.8,5.6,4.2,10.06,4.2s5.86-1.02,8.28-2.8c.76-.64,1.27-1.02,1.66-1.4v-31.71c0-.25-.25-.38-.38-.38h.13ZM152.3,60.04v5.48h0v6.24h0c-.38.25-.64.38-1.02.51-.64.25-1.27.38-2.04.38h-.51c-4.58-.38-5.6-4.97-5.6-7.13h0v-.25c0-1.02.25-2.67,1.02-4.08.25-.38.38-.76.64-1.02.89-1.02,2.17-1.91,3.95-2.04,1.4-.13,2.55.25,3.57.89,0,0,0,1.02,0,1.02Z"/>
  </g>
  <path class="cls-1" d="M124.41,59.53l-20.63-24.71c-1.53-1.78-3.82-2.8-6.24-2.8h-19.1c-1.27,0-2.29,1.02-2.29,2.29v9.04c0,1.27,1.02,2.29,2.29,2.29h15.54l14.77,17.58c.76.89.89,1.78.25,2.67l-32.22,33.88c-.38.38-.76,1.15-.76,1.91v14.14c0,1.02.64,1.78,1.53,2.17h.89c.64,0,1.27-.25,1.66-.76l44.07-46.87c2.93-2.93,3.06-7.64.25-10.83Z"/>
</svg>