<?xml version="1.0" encoding="UTF-8"?>
<svg id="Capa_1" data-name="Capa 1" xmlns="http://www.w3.org/2000/svg" viewBox="0 0 400 150">
  <defs>
    <style>
      .cls-1 {
        fill: #fff;
      }

      .cls-2 {
        fill: #00ae4d;
      }

      .cls-3 {
        fill: #ea0029;
      }
    </style>
  </defs>
  <path class="cls-3" d="M120.38,44.37s75.98-25.08,161.92,0c0,0-5.78,24.1-5.29,50.65,0,0-35.16-11.8-67.37-2.21-32.21,9.59-70.08,7.81-83.54.06,0,0,.92-16.04-5.72-48.5Z"/>
  <path class="cls-2" d="M125.92,95.27s32.09,16.04,77.58,1.97c42.24-13.07,72.91.8,72.91.8,0,0-32.27-6.64-67.13,7.19-34.86,13.83-71.74,10.33-83.36-9.96Z"/>
  <path class="cls-2" d="M201.65,110.64s9.22-1.6,16.97-4.79c7.75-3.2,27.29-10.94,57.91-1.6,0,0-25.45-1.48-35.53,3.69-10.08,5.16-26.19,9.71-39.34,2.71Z"/>
  <g>
    <polygon class="cls-1" points="136.12 50.28 136.12 81.63 157.15 81.63 157.15 74.99 146.33 74.99 146.33 50.31 136.12 50.28"/>
    <polygon class="cls-1" points="196.27 50.28 196.27 81.67 206.65 81.67 206.65 50.23 196.27 50.28"/>
    <path class="cls-1" d="M209.18,50.55h8.67s1.63-.09,2.43,1.94c.8,2.03,7.56,17.77,7.56,17.77l8.91-19.92h6.64l-12.42,31.35h-8.67l-13.12-31.14Z"/>
    <polygon class="cls-1" points="246.34 50.37 246.34 81.63 266.63 81.63 266.63 74.9 256.3 74.9 256.3 68.72 266.54 68.72 266.54 62.36 256.3 62.36 256.3 56.55 266.54 56.55 266.54 50.28 246.34 50.37"/>
    <path class="cls-1" d="M180.63,50.28h-8.14l-5.47,15.37c-.49-.37-.89-.43-.89-.43-3.93-1.04-7.38,1.75-8.11,5.26-.74,3.5,1.29,1.66,1.29,1.66,2.58-1.66,5.04-.77,5.04-.77l-4.61,10.27h6.64l4.18-9.1h9.53l4.06,9.16h9.53l-13.03-31.41ZM172.08,67.64l2.4-7.28,3.38,7.25-5.78.03Z"/>
  </g>
</svg>