<?xml version="1.0" encoding="UTF-8"?>
<svg id="Capa_1" data-name="Capa 1" xmlns="http://www.w3.org/2000/svg" viewBox="0 0 400 150">
  <defs>
    <style>
      .cls-1, .cls-2 {
        fill-rule: evenodd;
      }

      .cls-2 {
        fill: #e3032c;
      }
    </style>
  </defs>
  <polygon class="cls-2" points="214.41 63.27 205.27 79.35 214.41 79.35 214.41 63.27"/>
  <path class="cls-1" d="M185.45,69.33h-8.14l-5.41,9.75h6.9l-.68,2.08c-1.73,5.1-7.19,8.98-11.54,8.98-8.16,0-14.01-6.29-14.01-14.68,0-7.8,4.87-14.43,13.71-14.43.32,0,.65.01.96.03h13.74c-2.98-5.32-4.07-7.21-7.05-12.46-3.07,0-4.88-.1-8.33-.1-14.88,0-26.63,12.43-26.63,27.11s11.75,27.11,26.66,27.11c14.02,0,23.69-10.09,26.22-21.85-4.05-7.33-6.4-11.56-6.4-11.56"/>
  <path class="cls-1" d="M245.63,64.32c0-2.25,1.35-3.04,3-3.04h9.54l-7.09-12.67h-4.32c-8.18,0-15.68,6.09-15.68,14.84s14.48,16.61,14.48,21.54c0,3.35-2.1,4.56-5.1,4.56h-8.85l5.91,10.6,1.28,2.32h6.83c7.8,0,15.4-7.09,15.4-15.61.01-12.29-15.4-18.12-15.4-22.54"/>
  <path class="cls-2" d="M231.61,89.54h-5.66v12.27h-11.53v-12.27h-18.16l7.12,12.77s4.62,8.59,17.31,8.59c17.31,0,22.73-.08,22.73-.08l-4.62-8.35-1.28-2.32-5.93-10.6Z"/>
  <path class="cls-2" d="M207.13,54.97c3.22-5.88-.27-10.71-.27-10.71,0,0-3.08-5.15-12.67-5.15h-25.53l23.18,41.85s12.06-20.1,15.29-25.98"/>
</svg>