<?xml version="1.0" encoding="UTF-8"?>
<svg id="Capa_1" data-name="Capa 1" xmlns="http://www.w3.org/2000/svg" viewBox="0 0 400 150">
  <defs>
    <style>
      .cls-1 {
        fill: #fff;
      }

      .cls-2 {
        fill: #3c3c3b;
      }

      .cls-3 {
        fill: #afafaf;
      }
    </style>
  </defs>
  <rect class="cls-3" x="24.26" y="27.39" width="256.86" height="85.63"/>
  <rect class="cls-2" x="281.11" y="27.39" width="85.61" height="85.63"/>
  <path class="cls-1" d="M308.04,84.48c1.62-1.34,1.9-3.01,1.9-4.5v-6.27h-8.8v8.51c0,1.21-.99,2.2-2.2,2.2s-2.14-.99-2.14-2.2v-24.1c0-1.23.91-2.21,2.14-2.21s2.2.98,2.2,2.21v8.55h8.78v-8.88c0-4.9-3.21-8.95-11.07-8.95-8.04,0-11.09,4.06-11.09,8.97v25.16c0,4.86,3.87,8.55,8.83,8.55h2.72l8.72-7.04Z"/>
  <polygon class="cls-1" points="342.7 85.48 342.7 57.82 336.62 57.82 336.62 49.67 358.58 49.67 358.58 57.82 352.49 57.82 352.49 91.48 349.89 91.48 342.7 85.48"/>
  <path class="cls-1" d="M331.35,49.72h-12.25l-7.14,31.88,13.28-10.67,13.86,11.56-7.76-32.77ZM322.88,68.88l2.36-12.05,2.36,12.05h-4.72Z"/>
  <polygon class="cls-3" points="347.44 91.56 302.32 91.56 325.21 73.41 347.44 91.56"/>
  <path class="cls-2" d="M200.28,60.33h-5.36l-.19.53-3.61,9.68-3.41-9.67-.2-.55h-6.93l.46,1.15,6.85,16.63.02.04v.02c.27.5.24,1.24-.09,1.8-.23.42-.73.94-1.72,1.01-.81.06-1.19-.03-1.27-.06l-1.28-.65.03,1.36v3.54s-.02.62-.02.62l.6.18c.94.26,2.13.44,3.12.44,3.36,0,4.91-2.94,6.59-6.76l7.19-18.18.44-1.14h-1.23Z"/>
  <path class="cls-2" d="M123.81,74.08h-14.03c0,2.83,1.83,5.43,5.9,5.43,2.47,0,4.95-.91,6.72-1.88l.13,5.44c-2.32.88-5.07,1.38-7.53,1.38-8.36,0-12.07-5.07-12.07-12.34,0-6.4,3.75-12.21,10.56-12.21,2.14,0,10.32,0,10.32,12.43v1.74ZM117.23,70.14c0-3.01-.78-5.85-3.74-5.85-3.71,0-3.71,4.58-3.71,5.85h7.46Z"/>
  <path class="cls-2" d="M126.71,65.25c0-2.29-.05-3.74-.18-4.98h6.58c.04,1.42.14,2.88.18,4.29h.1c1.46-2.56,2.46-4.65,6.63-4.65h1.06v6.67c-.78-.18-1.42-.28-2.43-.28-4.2,0-4.7,3.66-4.7,7.14v10.64h-7.22v-18.83Z"/>
  <path class="cls-2" d="M143.99,65.25c0-2.29-.05-3.74-.18-4.98h6.58c.04,1.42.14,2.88.18,4.29h.09c1.47-2.56,2.47-4.65,6.64-4.65h1.05v6.67c-.77-.18-1.41-.28-2.42-.28-4.2,0-4.7,3.66-4.7,7.14v10.64h-7.22v-18.83Z"/>
  <path class="cls-2" d="M180.26,74.08h-14.03c0,2.83,1.83,5.43,5.9,5.43,2.47,0,4.93-.91,6.71-1.88l.14,5.44c-2.33.88-5.07,1.38-7.54,1.38-8.36,0-12.07-5.07-12.07-12.34,0-6.4,3.75-12.21,10.56-12.21,2.15,0,10.32,0,10.32,12.43v1.74ZM173.68,70.14c0-3.01-.77-5.85-3.74-5.85-3.7,0-3.7,4.58-3.7,5.85h7.45Z"/>
  <path class="cls-2" d="M203.65,65.25c0-2.29-.05-3.74-.18-4.98h6.57c.05,1.42.15,2.88.19,4.29h.09c1.46-2.56,2.47-4.65,6.63-4.65h1.06v6.67c-.78-.18-1.42-.28-2.42-.28-4.2,0-4.7,3.66-4.7,7.14v10.64h-7.23v-18.83Z"/>
  <path class="cls-2" d="M230,59.9c7.31,0,11.19,5.08,11.19,12.2s-3.88,12.34-11.19,12.34-11.21-5.12-11.21-12.34,3.89-12.2,11.21-12.2M230,79.52c2.52,0,3.7-2.74,3.7-7.41s-1.18-7.26-3.7-7.26-3.71,2.61-3.71,7.26,1.19,7.41,3.71,7.41"/>
  <path class="cls-2" d="M258.24,66.26c-1.93-.79-3.7-1.28-5.81-1.28-1.88,0-2.69.91-2.69,1.73,0,1.47,1.05,1.97,4.98,3.43,2.47.92,4.98,2.47,4.98,6.95,0,5.3-3.98,7.35-8.78,7.35-2.11,0-5.3-.23-7.81-1.13l.19-5.59c1.73,1.06,3.93,1.65,5.94,1.65,3.37,0,3.61-1.19,3.61-2.25s-1.88-1.51-4.98-2.79c-2.52-1.05-4.98-3.06-4.98-7.32,0-2.56,1.83-7.13,8.92-7.13,2.97,0,5.45.55,6.62.96l-.18,5.4Z"/>
  <polygon class="cls-2" points="100.57 51.35 78.75 51.35 78.75 65.1 67.07 65.1 67.07 74.07 78.75 74.07 78.75 85.61 88.5 85.61 88.5 74.07 100.57 74.07 100.57 65.1 88.5 65.1 88.5 60.33 100.57 60.33 100.57 51.35"/>
  <path class="cls-2" d="M187.28,132.16c-2.14,0-3.26-1.39-3.26-3.77v-5.02h1.3v4.98c0,1.63.68,2.51,1.98,2.51s2-.84,2-2.42v-5.07h1.3v5.05c0,2.42-1.18,3.74-3.33,3.74"/>
  <path class="cls-2" d="M198.75,132.02l-3.45-5.43-.65-1.06c0,.32.01,1.52.01,2.01v4.49h-1.26v-8.66h1.33l3.29,5.28c.22.36.59,1.01.72,1.22,0-.33-.01-1.56-.01-2.04v-4.46h1.26v8.66h-1.23Z"/>
  <path class="cls-2" d="M206.75,126.81c-.22-.62-.56-1.62-.65-1.99-.1.37-.41,1.36-.64,2l-.69,1.98h2.67l-.69-1.99ZM208.57,132.02l-.74-2.06h-3.46l-.72,2.06h-1.35l3.12-8.66h1.37l3.15,8.66h-1.38Z"/>
  <polygon class="cls-2" points="216.23 132.02 216.23 123.36 221.81 123.36 221.81 124.62 217.53 124.62 217.53 126.76 220.01 126.76 220.01 128.03 217.53 128.03 217.53 130.76 221.99 130.76 221.99 132.02 216.23 132.02"/>
  <path class="cls-2" d="M230.93,132.02v-4.58c0-.52,0-1.27.03-1.53-.11.25-.35.87-.56,1.37l-2.1,4.87-2.08-4.87c-.22-.5-.47-1.11-.56-1.37,0,.25.02,1.01.02,1.53v4.58h-1.23v-8.66h1.33l1.95,4.61c.21.49.48,1.13.59,1.49.12-.36.37-.99.58-1.49l1.9-4.61h1.38v8.66h-1.27Z"/>
  <path class="cls-2" d="M238.67,124.59h-2.33v2.97h2.33c.99,0,1.48-.56,1.48-1.49s-.58-1.48-1.48-1.48M238.6,128.79h-2.26v3.23h-1.27v-8.65h3.62c1.6,0,2.79.91,2.79,2.71s-1.19,2.72-2.87,2.72"/>
  <path class="cls-2" d="M247.55,124.59h-2.52v2.78h2.52c.87,0,1.47-.44,1.47-1.39s-.6-1.4-1.47-1.4M248.43,128.48l1.77,3.54h-1.5l-1.72-3.43h-1.95v3.43h-1.28v-8.66h3.8c1.51,0,2.79.8,2.79,2.58,0,1.38-.73,2.24-1.91,2.53"/>
  <polygon class="cls-2" points="252.96 132.02 252.96 123.36 258.53 123.36 258.53 124.62 254.26 124.62 254.26 126.76 256.75 126.76 256.75 128.03 254.26 128.03 254.26 130.76 258.72 130.76 258.72 132.02 252.96 132.02"/>
  <path class="cls-2" d="M263.59,132.16c-1.26,0-2.35-.55-3.08-1.4l.92-.9c.58.63,1.44,1.03,2.26,1.03,1.21,0,1.79-.42,1.79-1.26,0-.67-.51-1-1.96-1.43-1.83-.55-2.7-1.01-2.7-2.55s1.26-2.41,2.85-2.41c1.17,0,2.07.44,2.83,1.17l-.92.92c-.54-.55-1.16-.83-2.01-.83-1.02,0-1.45.49-1.45,1.07,0,.61.4.91,1.89,1.35,1.71.52,2.78,1.06,2.78,2.61s-.99,2.62-3.21,2.62"/>
  <path class="cls-2" d="M272.95,126.81c-.22-.62-.56-1.62-.66-1.99-.1.37-.41,1.36-.63,2l-.69,1.98h2.67l-.69-1.99ZM274.76,132.02l-.74-2.06h-3.45l-.72,2.06h-1.35l3.12-8.66h1.37l3.16,8.66h-1.38Z"/>
  <polygon class="cls-2" points="283.72 124.64 283.72 126.89 286.21 126.89 286.21 128.17 283.72 128.17 283.72 132.02 282.43 132.02 282.43 123.36 288 123.36 288 124.64 283.72 124.64"/>
  <polygon class="cls-2" points="290.24 132.02 290.24 123.36 295.82 123.36 295.82 124.62 291.54 124.62 291.54 126.76 294.03 126.76 294.03 128.03 291.54 128.03 291.54 130.76 296 130.76 296 132.02 290.24 132.02"/>
  <path class="cls-2" d="M302.26,124.59h-2.52v2.78h2.52c.87,0,1.47-.44,1.47-1.39s-.59-1.4-1.47-1.4M303.14,128.48l1.77,3.54h-1.5l-1.72-3.43h-1.95v3.43h-1.28v-8.66h3.79c1.51,0,2.79.8,2.79,2.58,0,1.38-.73,2.24-1.9,2.53"/>
  <path class="cls-2" d="M311.46,124.59h-2.52v2.78h2.52c.87,0,1.48-.44,1.48-1.39s-.6-1.4-1.48-1.4M312.34,128.48l1.77,3.54h-1.5l-1.72-3.43h-1.95v3.43h-1.27v-8.66h3.79c1.51,0,2.79.8,2.79,2.58,0,1.38-.74,2.24-1.91,2.53"/>
  <polygon class="cls-2" points="316.87 132.02 316.87 123.36 322.44 123.36 322.44 124.62 318.16 124.62 318.16 126.76 320.65 126.76 320.65 128.03 318.16 128.03 318.16 130.76 322.63 130.76 322.63 132.02 316.87 132.02"/>
  <path class="cls-2" d="M328.62,128.59v3.43h-1.3v-3.43l-3.1-5.23h1.52l1.35,2.39c.3.53.74,1.4.89,1.72.15-.32.58-1.15.89-1.71l1.36-2.4h1.5l-3.11,5.23Z"/>
  <path class="cls-2" d="M336.55,132.16c-2.24,0-3.66-1.84-3.66-4.46s1.42-4.47,3.66-4.47c1.41,0,2.35.57,2.95,1.62l-1.16.72c-.44-.71-.9-1.04-1.79-1.04-1.51,0-2.33,1.22-2.33,3.17s.81,3.16,2.33,3.16c.91,0,1.46-.37,1.9-1.08l1.08.72c-.62,1.06-1.67,1.66-2.98,1.66"/>
  <path class="cls-2" d="M344.98,124.53c-1.51,0-2.34,1.22-2.34,3.17s.83,3.16,2.34,3.16,2.35-1.22,2.35-3.16-.83-3.17-2.35-3.17M344.98,132.16c-2.24,0-3.66-1.84-3.66-4.46s1.42-4.47,3.66-4.47,3.67,1.84,3.67,4.47-1.42,4.46-3.67,4.46"/>
  <path class="cls-2" d="M354.91,124.59h-2.52v2.78h2.52c.86,0,1.47-.44,1.47-1.39s-.59-1.4-1.47-1.4M355.79,128.48l1.77,3.54h-1.5l-1.72-3.43h-1.95v3.43h-1.27v-8.66h3.79c1.5,0,2.79.8,2.79,2.58,0,1.38-.74,2.24-1.91,2.53"/>
  <path class="cls-2" d="M363.92,124.59h-2.33v2.97h2.33c.99,0,1.48-.56,1.48-1.49s-.58-1.48-1.48-1.48M363.85,128.79h-2.26v3.23h-1.27v-8.65h3.62c1.6,0,2.79.91,2.79,2.71s-1.18,2.72-2.87,2.72"/>
  <path class="cls-1" d="M360.29,52.26c0-1.44,1.17-2.59,2.63-2.59s2.61,1.15,2.61,2.59-1.17,2.61-2.61,2.61-2.63-1.16-2.63-2.61M365.08,52.26c0-1.18-.96-2.14-2.15-2.14s-2.17.96-2.17,2.14.97,2.16,2.17,2.16,2.15-.97,2.15-2.16M362.37,52.44v1.32h-.48v-3.06h.99c.57,0,1.15.15,1.15.85,0,.35-.22.63-.63.71h0c.43.09.49.28.53.62l.18.89h-.61l-.1-.55-.18-.65-.45-.12h-.4ZM362.88,51.96c.45-.02.56-.2.56-.44,0-.22-.1-.34-.5-.34h-.57v.79h.51Z"/>
</svg>