<?xml version="1.0" encoding="UTF-8"?>
<svg id="Capa_1" data-name="Capa 1" xmlns="http://www.w3.org/2000/svg" viewBox="0 0 400 150">
  <defs>
    <style>
      .cls-1 {
        fill: #6c6;
      }

      .cls-2 {
        fill: #339;
      }
    </style>
  </defs>
  <path class="cls-2" d="M88.24,33.6c5.4-5.02,7.88-11.24,8.25-18.4.06-1.26.04-2.52.07-3.78.02-.7.1-1.37.85-1.7.68-.29,1.23.02,1.73.43,2.14,1.75,3.64,4.01,4.99,6.36,3.67,6.4,5.57,13.37,6.52,20.63.31,2.35.55,4.72.64,7.08.09,2.4-1.03,4.5-2.11,6.55-2.04,3.87-4.72,7.32-7.28,10.84-3.71,5.09-7.38,10.2-9.75,16.1-3.11,7.76-2.8,15.31,1.19,22.68.13.25.24.51.36.76-.46.43-.86.16-1.25.04-9.02-2.82-15.75-8.4-19.81-16.95-2.09-4.4-2.58-9.15-2.16-14.04.71-8.35,3.86-15.83,7.84-23.04,2.89-5.24,3.89-10.78,2.98-16.69-.1-.64-.36-1.39.37-1.86.67-.44,1.31-.1,1.92.21,2.04,1.06,3.6,2.59,4.65,4.76Z"/>
  <path class="cls-2" d="M111.92,54.56c.76,3.66,1.64,7.21,3.5,10.44,3.13,5.42,7.8,8.49,14.01,9.09,1.44.14,1.84.53,1.66,2.02-1.68,14.1-13.89,25.61-28.02,26.32-1.04.05-1.78-.22-2.51-1.04-5.95-6.67-6.33-14.1-3.14-22.06,2.16-5.39,5.39-10.16,8.58-14.95,2.12-3.18,4.31-6.31,5.93-9.83Z"/>
  <path class="cls-1" d="M185.9,64.15c6.18-4.96,9.6-4.89,14.05.25,1.57-1.87,3.49-3.17,5.91-3.65,5.56-1.11,9.69,2.14,9.82,7.9.11,4.79.04,9.59.02,14.39,0,1.73-.83,2.54-2.6,2.64-.97.05-1.94.04-2.91.01-2.03-.07-2.81-.83-2.82-2.86-.03-3.88,0-7.75-.01-11.63,0-1.11.12-2.41-1.17-2.86-1.34-.46-2.55.05-3.53,1.11-1.42,1.54-1.63,3.48-1.7,5.42-.1,2.66-.01,5.33-.03,7.99-.02,1.98-.75,2.75-2.69,2.83-.97.04-1.94.04-2.91,0-1.92-.09-2.7-.88-2.72-2.83-.03-3.83,0-7.66-.02-11.48,0-1.19.17-2.54-1.3-3.09-1.17-.44-2.89.31-3.78,1.59-.89,1.27-1.2,2.74-1.21,4.27-.01,2.62,0,5.23-.01,7.85-.02,2.96-.77,3.7-3.69,3.72-4.52.03-4.82-.27-4.82-4.87,0-5.28,0-10.56,0-15.84,0-1.3-.17-2.89,1.25-3.47,1.85-.76,3.9-.8,5.78.07.93.43.9,1.53,1.09,2.55Z"/>
  <path class="cls-2" d="M270.3,74.43c0,2.76-.09,5.53.02,8.28.3,7.29-4.11,11.62-10.74,12.68-3.29.53-6.57.21-9.74-.9-1.8-.63-2.27-1.56-1.76-3.35.13-.46.3-.92.48-1.37.78-1.94,1.61-2.34,3.62-1.73,2.27.69,4.56.94,6.86.24,2.1-.63,3.3-2.63,2.99-4.73-.1-.67-.29-.82-.91-.41-4.52,2.98-10.03,2.15-13.47-2.02-3.83-4.63-3.62-13.11.43-17.33,3.63-3.78,9.65-4.3,13.87-1.2.3.22.63.65.9.05.68-1.49,1.99-1.5,3.32-1.52.53,0,1.07-.03,1.6.02,1.81.14,2.51.86,2.52,2.68.02,3.54,0,7.07,0,10.61ZM262.26,72.29c-.11-1.57-.4-3.48-2.54-4.39-2.47-1.05-5.1-.12-6.03,2.11-1.21,2.9.01,6.7,2.46,7.67,3.36,1.34,6.11-.91,6.1-5.4Z"/>
  <path class="cls-2" d="M296.64,76.34c0,2.18.02,4.36,0,6.54-.02,1.94-.78,2.72-2.73,2.81-.87.04-1.74.01-2.61-.04-1.07-.07-1.9-.61-2.11-1.68-.22-1.1-.53-.87-1.14-.3-2.63,2.47-5.7,3.18-9.12,2.06-2.83-.92-4.55-2.93-4.97-5.87-.43-3,.62-5.42,3.25-7.07,2.8-1.75,5.93-2.22,9.15-2.46.64-.05,1.78.52,1.91-.66.12-1.09-.71-1.78-1.7-2.09-1.7-.53-3.35-.15-4.97.42-.68.24-1.36.54-2.06.66-1.51.27-2.42-.6-3.29-3.01-.48-1.32-.14-2.49,1.11-3.09,4.01-1.92,8.19-2.66,12.54-1.41,4.23,1.21,6.68,4.53,6.74,8.92.03,2.08,0,4.17,0,6.25ZM287.26,75.16c-1.61.03-3.24.42-4.01.96-.85.59-1.41,1.34-1.06,2.44.34,1.09,1.19,1.43,2.25,1.41,1.74-.03,3.44-1.48,3.9-3.32.26-1.04.11-1.75-1.08-1.49Z"/>
  <path class="cls-1" d="M234.14,82.87c-1.83,1.94-3.77,3.08-6.19,3.35-5.57.62-9.95-4.04-8.61-9.29.76-2.99,3.07-4.47,5.78-5.42,2.35-.82,4.79-1.17,7.27-1.2.4,0,.95.17,1.12-.4.15-.49-.01-.96-.34-1.35-.7-.84-1.64-1.15-2.7-1.19-1.59-.07-3.04.49-4.5,1.02-2.3.84-3.21.33-4.31-2.39-.74-1.82-.27-2.93,1.7-3.78,3.84-1.64,7.8-2.23,11.89-1.03,4.07,1.19,6.6,4.43,6.67,8.67.07,4.36.04,8.72.01,13.08-.01,1.85-.79,2.63-2.64,2.76-.39.03-.78,0-1.16.03-1.96.13-3.65-.17-3.98-2.85ZM232.15,75.19c-1.32.04-2.59.29-3.72,1-.86.54-1.24,1.37-.97,2.36.28,1.04,1.1,1.38,2.11,1.39,1.75.02,3.42-1.26,3.93-3.06.45-1.55.29-1.74-1.35-1.7Z"/>
  <path class="cls-2" d="M310.98,60.6c2.35.05,4.62.45,6.73,1.51,1.49.75,1.83,1.62,1.29,3.21-1.02,3.06-2.04,3.55-5.13,2.43-1.24-.45-2.5-.75-3.83-.63-.72.07-1.4.26-1.52,1.07-.11.76.52,1.12,1.1,1.35,2.06.83,4.26,1.26,6.26,2.28,2.51,1.28,3.92,3.27,3.97,6.1.05,2.82-1.1,5.05-3.51,6.6-1.99,1.29-4.22,1.68-6.51,1.7-2.8.02-5.46-.66-7.91-2.07-1.65-.95-1.96-2.12-1.01-3.76,1.52-2.63,2.23-2.87,5.03-1.7,1.25.52,2.51,1.04,3.91.98.87-.04,1.9.08,2.16-1.01.27-1.16-.77-1.42-1.57-1.71-1.45-.53-2.94-.96-4.38-1.52-4.94-1.92-6.83-6.75-4.27-10.86,1.25-2.01,3.21-3.03,5.44-3.57,1.22-.3,2.47-.47,3.74-.42Z"/>
  <path class="cls-1" d="M148.97,66.89c0-4.4-.01-8.08,0-11.76.01-2.77.68-3.43,3.43-3.43.82,0,1.65-.02,2.47.01,1.58.07,2.26.71,2.44,2.29.35,3.09.13,6.19.16,9.28.04,4.31.04,8.62,0,12.93-.01,1.33.3,2.28,1.77,2.52.23.04.51.14.64.31,1.26,1.65.73,3.54.51,5.3-.17,1.37-1.5,1.59-2.73,1.61-5.21.09-7.98-2.28-8.51-7.45-.42-4.1-.06-8.22-.17-11.61Z"/>
  <path class="cls-2" d="M116.84,51.67c.05-4.38.59-7.99,2.07-11.43.43-.99.96-1.9,1.8-2.6.35-.3.76-.46,1.21-.3.5.18.59.65.54,1.08-.55,4.4,1.25,8.13,3.34,11.78,2.56,4.47,4.78,9.08,5.42,14.29.13,1.05.21,2.12.24,3.18.04,2.07.02,2.08-2.05,1.63-6.69-1.43-11.21-6.49-12.2-13.67-.21-1.54-.41-3.07-.37-3.97Z"/>
  <path class="cls-1" d="M164.63,73.22c0-3-.01-6.01,0-9.01.01-2.25.81-3.06,3.07-3.11,1.02-.02,2.04,0,3.05.08,1.45.12,2.2,1.01,2.2,2.41.03,6.54.04,13.09,0,19.63-.01,1.63-.81,2.37-2.45,2.46-1.01.06-2.04.05-3.05.02-2.02-.07-2.79-.84-2.81-2.88-.03-3.2,0-6.4,0-9.6Z"/>
  <path class="cls-2" d="M302.07,113.01c.65-.56,1.18-1.05,1.9-1.28,1.88-.61,3.55.36,3.68,2.28.11,1.74.02,3.49.05,5.23.01.64-.29.86-.88.86-.66,0-.79-.42-.78-.97,0-1.36.02-2.71-.01-4.07-.02-.84-.11-1.75-1.18-1.9-.95-.13-1.65.37-2.12,1.21-.41.75-.36,1.59-.55,2.37-.26,1.11.97,3.2-.81,3.18-1.65-.02-.46-2.12-.77-3.25-.15-.54,0-1.16-.04-1.74-.05-.8-.16-1.63-1.14-1.77-.88-.13-1.6.27-2.05,1.07-.36.64-.59,1.32-.57,2.07.02.97-.01,1.94,0,2.91.01.6-.24.91-.86.89-.57-.02-.92-.28-.92-.88,0-2.18-.04-4.36.01-6.54.02-.84,1.03-1.28,1.51-.62.49.67.71.43,1.2.13,1.75-1.07,2.88-.84,4.34.83Z"/>
  <path class="cls-2" d="M205.27,117.58c0,1.55,0,3.09,0,4.64,0,.65-.1,1.17-.92,1.14-.73-.02-.86-.49-.84-1.09,0-.14,0-.29,0-.43-.02-1.96-.02-1.94-1.82-1.61-.51.09-1.08.12-1.58-.01-1.49-.39-2.35-1.41-2.68-2.92-.42-1.93-.18-3.71,1.42-4.99,1.18-.95,2.58-1.04,3.93-.25.41.24.59.3,1.07-.02.86-.57,1.43-.22,1.41.91-.03,1.54,0,3.09,0,4.64ZM198.99,115.88c-.02,1.68.96,2.92,2.31,2.93,1.31,0,2.29-1.17,2.31-2.79.03-1.64-1.01-2.97-2.32-2.95-1.28.01-2.29,1.24-2.31,2.82Z"/>
  <path class="cls-1" d="M168.68,58.24c-.14,0-.29,0-.43,0-3.08-.05-4.39-1.97-3.37-4.92.38-1.11,1.2-1.72,2.31-1.59,1.81.21,4.05-.96,5.31,1.16.72,1.22.5,2.72.04,4.08-.24.7-.81,1.07-1.55,1.13-.77.07-1.54.11-2.31.17,0-.01,0-.02,0-.04Z"/>
  <path class="cls-2" d="M316.77,116.78c0,.82,0,1.64,0,2.46-.01.98-.82,1.13-1.24.67-.67-.75-1.02-.27-1.54.02-1.07.58-2.15.51-3.16-.12-.88-.54-1.13-1.39-1.03-2.38.11-1.04.78-1.62,1.66-2.01.81-.36,1.68-.41,2.54-.48.37-.03.84.05.95-.44.12-.53-.14-.92-.6-1.2-.85-.51-1.68-.26-2.5.07-.48.2-.95.36-1.22-.25-.31-.69.21-.96.73-1.15,2.46-.89,5.72-.56,5.41,3.52-.03.43,0,.87,0,1.3ZM314.19,116.07c-1.69.05-2.82.73-2.71,1.64.11.86.72,1.22,1.54,1.2,1.01-.02,2.08-1.27,2.04-2.28-.03-.72-.53-.52-.87-.56Z"/>
  <path class="cls-2" d="M221.93,111.58c2.07.01,3.46,1.34,3.61,3.4.06.87-.26,1.25-1.15,1.23-1.3-.03-2.61.01-3.92-.01-.9-.02-.95.42-.66,1.1.58,1.35,2.25,1.87,3.84,1.18.5-.22,1.06-.77,1.45.08.39.87-.39,1.07-.93,1.32-1.7.8-3.86.46-5.14-.77-1.19-1.14-1.61-3.34-.96-5,.63-1.6,2.07-2.55,3.86-2.54ZM221.65,114.98c.24,0,.49.04.72,0,.46-.09,1.2.31,1.3-.44.09-.73-.41-1.25-1.11-1.48-.56-.19-1.13-.15-1.67.13-.58.3-1.18.75-1.09,1.37.12.83.95.27,1.44.42.13.04.29,0,.43,0Z"/>
  <path class="cls-2" d="M179.8,120.3c-2.53-.02-4.43-1.9-4.42-4.4,0-2.54,1.96-4.37,4.62-4.33,2.52.04,4.45,2,4.39,4.45-.07,2.45-2.05,4.3-4.58,4.28ZM177.12,116c.03,1.64,1.26,2.85,2.84,2.8,1.47-.04,2.66-1.32,2.67-2.87.01-1.59-1.26-2.9-2.81-2.88-1.58.02-2.73,1.28-2.71,2.95Z"/>
  <path class="cls-2" d="M168.3,116.8c0,.82.02,1.64,0,2.46-.04.94-.78,1.15-1.25.63-.6-.66-.89-.32-1.38-.03-1.1.66-2.23.61-3.28-.07-.82-.54-1.25-1.36-1.07-2.36.24-1.3,1.18-1.95,2.38-2.24.65-.16,1.34-.16,2.01-.26.31-.05.74.06.87-.35.16-.47-.11-.86-.45-1.14-.83-.67-1.72-.46-2.6-.11-.5.2-1.02.5-1.33-.24-.35-.85.39-.98.89-1.18,3.15-1.25,5.21.18,5.21,3.57,0,.43,0,.87,0,1.3ZM165.69,116.06c-1.62.04-2.73.72-2.63,1.67.08.81.63,1.16,1.4,1.18,1.03.03,2.13-1.09,2.18-2.15.04-.76-.45-.72-.95-.71Z"/>
  <path class="cls-2" d="M277.44,115.9c0-2.57,1.79-4.31,4.42-4.3,2.62,0,4.46,1.78,4.46,4.3,0,2.61-1.87,4.42-4.52,4.39-2.58-.03-4.36-1.82-4.35-4.39ZM281.84,113.06c-1.49.02-2.84,1.43-2.8,2.93.04,1.53,1.4,2.85,2.91,2.81,1.51-.04,2.65-1.27,2.66-2.85,0-1.64-1.21-2.91-2.77-2.9Z"/>
  <path class="cls-2" d="M251.42,116.84c0,.78,0,1.55,0,2.33,0,.34.03.73-.37.86-.37.12-.9.18-1.04-.22-.29-.83-.57-.4-.95-.12-1.09.79-2.26.85-3.41.19-1.62-.94-1.66-3.04-.13-4.1.96-.66,2.07-.76,3.19-.84.36-.02.88.05.95-.44.07-.48-.14-.93-.61-1.22-.86-.52-1.7-.23-2.51.08-.57.22-1.06.32-1.29-.38-.22-.67.39-.82.8-1.01,3-1.38,5.36.12,5.37,3.4,0,.48,0,.97,0,1.45ZM247.57,118.93c1.03.03,2.06-1.02,2.19-2.14.07-.66-.29-.71-.77-.73-1.51-.07-2.72.58-2.76,1.51-.04.92.51,1.28,1.34,1.36Z"/>
  <path class="cls-2" d="M254.18,115.91c0-1.07,0-2.13,0-3.2,0-.32-.08-.73.37-.84.37-.09.91-.23,1.07.15.42,1.01.83.35,1.28.09,2.5-1.44,4.74-.23,4.8,2.61.03,1.4,0,2.81.02,4.21.01.65-.02,1.17-.88,1.15-.76-.02-.81-.5-.81-1.09.02-1.31.03-2.62,0-3.92-.02-.72-.04-1.53-.92-1.8-.9-.28-1.72-.06-2.39.64-.8.84-.92,1.89-.95,2.97-.02.77-.02,1.55,0,2.32.01.6-.22.9-.85.87-.56-.02-.76-.32-.75-.84,0-1.11,0-2.23,0-3.34Z"/>
  <path class="cls-2" d="M215.44,115.97c0,1.06,0,2.13,0,3.19,0,.4-.03.81-.53.9-.38.06-.84.13-1.01-.33-.31-.84-.66-.36-1.05-.09-1.13.77-2.35.94-3.57.33-1.23-.62-1.3-1.82-1.29-3.01,0-1.26-.02-2.52.01-3.78.02-.55-.31-1.35.76-1.37,1.17-.02.82.84.84,1.44.04,1.11-.02,2.23.02,3.34.03.87.04,1.86,1.16,2.07,1.2.23,2.08-.37,2.58-1.43.63-1.32.39-2.76.44-4.15.01-.37-.14-.8.18-1.1.27-.26.64-.17.97-.12.44.07.46.43.46.78,0,1.11,0,2.23,0,3.34Z"/>
  <path class="cls-2" d="M156.57,111.58c.8-.08,1.53.17,2.23.51.51.24.95.58.59,1.24-.33.6-.76.34-1.24.15-2.29-.93-4.25.16-4.3,2.36-.04,2.13,2.05,3.55,4.02,2.72.4-.17.77-.4,1.19-.51.31-.08.54.17.64.47.16.52-.17.79-.55,1.06-1.39.99-3.76.98-5.21-.04-1.51-1.06-2.15-2.88-1.68-4.75.46-1.81,1.95-3.05,3.86-3.2.14-.01.29,0,.43,0Z"/>
  <path class="cls-2" d="M267.2,111.58c.57-.08,1.17.13,1.75.38.47.2.89.48.61,1.1-.24.52-.68.47-1.11.3-.5-.2-.99-.4-1.54-.35-.51.05-.99.21-1.11.76-.13.57.24.9.72,1.11.66.29,1.34.55,2,.85.98.45,1.48,1.19,1.4,2.3-.08,1.13-.77,1.78-1.74,2.09-1.25.4-2.49.24-3.63-.43-.45-.27-.82-.58-.46-1.16.29-.48.71-.44,1.13-.19.64.37,1.31.61,2.07.49.48-.07.82-.32.96-.77.16-.53-.22-.81-.61-1.02-.47-.25-.97-.44-1.46-.64-1.64-.67-2.32-1.6-2.07-2.87.23-1.2,1.38-1.95,3.1-1.95Z"/>
  <path class="cls-2" d="M272.6,116.62c0-.68,0-1.35,0-2.03,0-.19-.03-.39,0-.58.16-.88-1.63-.84-.95-1.76.4-.53.95-.84,1.07-1.63.2-1.3,1.37-2.17,2.68-2.21.48-.02.88.09.99.62.11.55-.22.79-.7.92-.37.1-.78.12-1.04.45-.28.35-.5.75-.35,1.2.14.43.57.27.88.28.51.02,1.05.01,1.01.71-.03.62-.52.76-1.06.7-.87-.1-.9.42-.89,1.07.02,1.55,0,3.1.01,4.64,0,.57,0,1.08-.77,1.1-.86.03-.9-.52-.88-1.15.02-.77,0-1.55,0-2.32Z"/>
  <path class="cls-2" d="M235.63,120.19c-1.47-.08-2.62-1.26-2.74-2.88-.07-.87,0-1.74-.03-2.61-.01-.6.16-1.22-.67-1.56-.5-.2-.64-.98-.06-1.12,1.01-.24.84-.89.84-1.54,0-.54.09-.98.77-.98.69,0,.96.38.9,1.02-.08.86-.02,1.57,1.16,1.37.48-.08.72.19.7.67-.01.46-.23.78-.71.71-1.19-.17-1.21.54-1.16,1.39.04.63.04,1.26,0,1.89-.07,1.04.23,1.81,1.35,2.07.55.12.88.42.69,1.03-.16.52-.59.58-1.05.54Z"/>
  <path class="cls-2" d="M240.56,112.91c.64-.51,1.05-1.01,1.72-1.12.44-.07.94-.2,1.06.38.1.49.19,1.07-.63,1.18-1.69.23-2.09,1.53-2.22,2.94-.08.96-.03,1.93-.02,2.9,0,.61-.28.89-.87.89-.6,0-.9-.3-.9-.89,0-2.17,0-4.35,0-6.52,0-.49.18-.81.74-.88.78-.1.98.41,1.13,1.11Z"/>
  <path class="cls-2" d="M290.36,112.96c.73-.52,1.21-1.09,1.97-1.21.5-.08.88.01.97.57.07.45.01.92-.55,1-2.07.32-2.33,1.89-2.43,3.54-.05.77-.02,1.54,0,2.31,0,.55-.12.93-.79.93-.62,0-.9-.32-.91-.88-.02-2.17-.01-4.34,0-6.51,0-.54.19-.88.85-.92.81-.04.77.53.9,1.16Z"/>
  <path class="cls-2" d="M171.01,113.77c0-1.4.02-2.8,0-4.2-.01-.62.14-1.03.86-1.04.71,0,.9.39.9,1.02-.01,2.46,0,4.92,0,7.39,0,.74-.06,1.45.82,1.8.46.18.41.64.28,1-.16.44-.57.49-.97.43-1.17-.18-1.8-.9-1.83-2.07-.04-1.45,0-2.9,0-4.34,0,0-.02,0-.03,0Z"/>
  <path class="cls-2" d="M186.65,116c0-1.06-.01-2.12,0-3.18,0-.36-.12-.84.41-.94.41-.07.96-.22,1.13.32.28.86.61.46.98.11.33-.31.72-.47,1.15-.56.43-.09.8,0,.92.45.11.43.11.99-.42,1.08-2.42.39-2.46,2.23-2.54,4.04-.03.63,0,1.25,0,1.88,0,.72-.52.86-1.06.89-.67.04-.58-.5-.58-.92-.01-1.06,0-2.12,0-3.18Z"/>
</svg>