<?xml version="1.0" encoding="UTF-8"?>
<svg id="Capa_1" data-name="Capa 1" xmlns="http://www.w3.org/2000/svg" viewBox="0 0 400 150">
  <defs>
    <style>
      .cls-1 {
        fill: #76777a;
      }

      .cls-2 {
        fill: #674d27;
      }

      .cls-3 {
        fill: #f3e4bd;
      }

      .cls-4 {
        fill: #838280;
      }

      .cls-5 {
        fill: none;
      }

      .cls-6 {
        fill: #9ea1a2;
      }

      .cls-7 {
        fill: #ccc;
      }

      .cls-8 {
        fill: #e9b458;
      }

      .cls-9 {
        fill: #e3e7e8;
      }
    </style>
  </defs>
  <g>
    <path class="cls-1" d="M204.57,63.24c.01-.09-.02-.19.08-.26.74,0,1.47,0,2.21,0,.06,0,.13,0,.17-.06.11.09.03.21.05.32-.84.04-1.67.02-2.51,0Z"/>
    <path class="cls-1" d="M197.98,63.01c0,.07,0,.15,0,.22-.47.04-.95.04-1.42,0,0-.07,0-.15,0-.22.47-.06.95-.05,1.42,0Z"/>
    <path class="cls-3" d="M172.28,31.04c.15,0,.3-.03.44.05-.23.11-.32.1-.44-.05Z"/>
    <path class="cls-4" d="M195.53,31.31c-.07.06-.13.04-.19-.01.07-.04.13-.03.19.01Z"/>
    <path class="cls-4" d="M192.71,31.05c-.08.04-.15.04-.22-.02.08-.04.15-.02.22.02Z"/>
    <path class="cls-4" d="M212.3,35.01c.05-.04.1-.04.15.02-.06.05-.1.05-.15-.02Z"/>
    <path class="cls-4" d="M211.61,34.95c.03-.05.09-.03.13-.04,0,.02,0,.04,0,.06-.05.03-.1.05-.13-.02Z"/>
    <path class="cls-4" d="M184.03,32.2s.09-.03.13.01c-.05.03-.09.03-.13-.01Z"/>
    <path class="cls-4" d="M158.93,42.44c-.07.04-.12.02-.17-.03.07-.03.12-.02.17.03Z"/>
    <path class="cls-4" d="M158.02,42.41c-.04.06-.1.08-.17.05.04-.07.1-.08.17-.05Z"/>
    <path class="cls-2" d="M211.74,34.97s0-.04,0-.06c.08-.07.11-.04.12.05-.04,0-.08,0-.12,0Z"/>
    <path class="cls-4" d="M171.81,31.03s.04-.06.08-.04c-.03.01-.05.03-.08.04Z"/>
    <path class="cls-4" d="M221.3,45.86s-.03.06-.08.05c.03-.02.05-.03.08-.05Z"/>
    <path class="cls-3" d="M186.16,43.9s-.06-.01-.05-.05c.02.02.03.04.05.05Z"/>
    <path class="cls-4" d="M247.96,43.34c-.13-.04-.26,0-.38-.01-.43,0-.43,0-.43-.42,0-.35,0-.71,0-1.06,0-.68,0-1.35,0-2.03,0-.36,0-.36.38-.36.15,0,.3.04.45-.02,0,.33.01.67.02,1,0,.87,0,1.74,0,2.61,0,.1-.01.19-.02.29Z"/>
    <path class="cls-7" d="M223.69,58.72c-.04-.22-.12-.44-.2-.65,0,0,.02-.02.02-.02h-.03s-.03-.07-.04-.1c0,0,.01-.02.01-.02,0-.01-.02-.02-.03-.03-.04-.09-.08-.18-.12-.27,0,0,0-.03,0-.03l-.02-.02c-.04-.09-.08-.19-.12-.28,0,0,.01-.02.01-.02h-.02c-1.07-2.14-2.73-3.58-5.02-4.25-.34-.1-.69-.17-1.05-.18-.02-.03-.04-.03-.06,0-1.06-.14-2.09-.02-3.1.3-.81.26-1.52.67-2.22,1.15-.07.05-.14.09-.21.14-.02-.02-.04-.06-.06-.07q-.41-.15-.41-.59c0-.44,0-.88,0-1.32,0-.48,0-.97,0-1.45,0-.16,0-.34-.23-.35,0-.02-.01-.04-.01-.06-.03-.44-.03-.43-.48-.43-.8,0-1.59,0-2.39,0-.1,0-.19,0-.29,0-.1,0-.16.05-.15.16,0,.09,0,.17,0,.26,0,2.51,0,5.02,0,7.52,0,.32,0,.32-.32.32-.8,0-1.59,0-2.39,0-.14,0-.31-.05-.41.12-.13-.01-.16.06-.18.17-.1.71-.1,1.41-.01,2.12.05.42-.12.67-.54.68-.09,0-.18.02-.26,0-.4-.1-.81-.04-1.22-.06-.1,0-.19,0-.29-.01-.51-.08-1.02-.06-1.54,0-.37.04-.75.06-1.12-.03-.15-.04-.19-.11-.18-.25,0-.14,0-.28,0-.42,0-.63,0-1.25,0-1.88,0-.16,0-.32-.22-.31-.11-.17-.28-.12-.44-.13-.78,0-1.57,0-2.35,0-.31,0-.3,0-.3-.3,0-2.53,0-5.06,0-7.58,0-.06,0-.13,0-.19,0-.13-.08-.19-.2-.19-.23,0-.45,0-.68,0-.69,0-1.38,0-2.06,0-.05,0-.11,0-.16,0-.16,0-.24.08-.23.24,0,.08,0,.17-.02.26-.22.03-.19.2-.19.35,0,.97.02,1.95-.06,2.92-.01.14-.02.27-.16.32-.11.05-.2-.04-.28-.11-.16-.15-.37-.22-.57-.29-.08-.03-.17-.04-.23.05-.09-.01-.15-.07-.23-.11-1.27-.74-2.65-1.06-4.11-.98-1.59.08-3.01.66-4.26,1.64-1.69,1.33-2.66,3.09-3.01,5.2-.05.04-.06.08-.02.13-.1.51-.06,1.03-.08,1.55-.45.08-.91.19-1.37.12-.45-.07-.9-.04-1.35-.05-.02,0-.04,0-.06,0-.27,0-.4-.15-.34-.41.04-.19.04-.38.04-.58,0-4.07,0-8.14,0-12.21,0-.26-.06-.54.19-.74.02-.01,0-.06,0-.09.24,0,.47-.02.71-.02,12.4,0,24.8,0,37.2,0,.18,0,.37,0,.55,0,0,.03.02.05.05.05,0,.53.01,1.06.01,1.58,0,.35,0,.36.36.36,2.19,0,4.39,0,6.58,0,.31,0,.32-.02.32-.33,0-.46,0-.93,0-1.39,0-.28,0-.29.29-.29,2.28,0,4.56,0,6.84,0,.17,0,.34,0,.52,0,.13,0,.2.06.2.19,0,.03,0,.06,0,.1,0,4.46,0,8.92,0,13.38,0,.06,0,.13-.01.19-.1,0-.15.07-.22.12-.16.11-.35.18-.55.12-.18-.05-.36-.05-.54-.05-1.31,0-2.63,0-3.94,0-.2,0-.39.02-.49-.21-.02-.05-.09-.05-.15-.05-.06-.25-.02-.51-.04-.76-.02-.22-.04-.44-.08-.66,0,0,.02-.01.01-.02,0-.01-.01-.02-.02-.04-.03-.29-.09-.57-.17-.85,0,0,.01-.02.01-.02,0-.02-.02-.03-.02-.04Z"/>
    <path class="cls-7" d="M175.49,60.66c0,.21.01.43.01.64,0,.86,0,1.72-.01,2.58,0,.31-.01.32-.3.32-5.85-.07-11.7-.02-17.55-.03-.1,0-.19,0-.29-.01,0-.16-.14-.18-.24-.23-.16-.08-.24-.19-.29-.38-.06-.23,0-.42.02-.63.03-.48-.07-.94-.07-1.41,0-3.67,0-7.34,0-11.02,0-.59.01-1.18,0-1.78-.02-.59.1-1.17,0-1.76-.05-.27.04-.52.13-.78,1.05,0,2.11-.01,3.16-.01,4.85,0,9.69,0,14.54,0,.13,0,.26,0,.39.01,0,.06,0,.14.04.18.16.14.16.32.15.5-.01.44,0,.87,0,1.31-.01,3.88,0,7.76,0,11.64,0,.2.03.39.08.57.03.12.07.26.24.27ZM162.46,51.91c.09,0,.17.02.26.02,2.13,0,4.26,0,6.38,0,.15,0,.3-.01.45-.02.15-.09.15-.13,0-.23-.09,0-.17-.01-.26-.02-2.03,0-4.06,0-6.09,0-.25,0-.49-.03-.74.02-.16.09-.16.12,0,.23ZM166.01,56.19h0c-1.1,0-2.19,0-3.29,0-.12,0-.33-.07-.32.14,0,.18.2.12.31.12,2.18,0,4.37,0,6.55,0,.08,0,.15,0,.23,0,.08,0,.15-.03.16-.13,0-.1-.07-.12-.15-.13-.09,0-.17,0-.26,0-1.08,0-2.15,0-3.23,0ZM166.01,53.92c-1.07,0-2.13,0-3.2,0-.09,0-.17,0-.26,0-.08,0-.16,0-.17.11-.01.12.08.14.17.15.03,0,.06,0,.1,0,2.22,0,4.44,0,6.65,0,.13,0,.34.04.33-.15,0-.17-.21-.1-.32-.1-1.1,0-2.2,0-3.29,0ZM166.01,58.67h0c1.07,0,2.15,0,3.22,0,.09,0,.17,0,.26,0,.07,0,.13-.02.14-.1,0-.08-.06-.11-.12-.12-.06,0-.13,0-.19,0-2.2,0-4.41,0-6.61,0-.11,0-.32-.07-.31.12,0,.17.21.1.32.1,1.1,0,2.19,0,3.29,0Z"/>
    <path class="cls-7" d="M231.7,46.18c.77-.04,1.55-.01,2.32-.02,4.09,0,8.19,0,12.28,0,.09,0,.17,0,.26.01.2.53.13,1.08.13,1.62,0,4.73,0,9.47,0,14.2,0,.11,0,.22,0,.32,0,.11.07.15.17.14.06.56.06.54-.49.54-1.54,0-3.07,0-4.61,0-3.35,0-6.71,0-10.06,0-.09,0-.17-.01-.26-.02,0-5.38,0-10.77,0-16.15,0-.19,0-.37.2-.47.06-.03.06-.11.06-.18Z"/>
    <path class="cls-7" d="M221.57,45.52c0-.53-.01-1.05-.01-1.58,0-2.77,0-5.54,0-8.32,0-.09,0-.17.01-.26,3.14-.13,6.27-.04,9.41-.06,0,.15.01.3.01.45,0,3.22,0,6.45,0,9.67,0,.05,0,.11,0,.16-.32.07-.63,0-.95,0-2.22,0-4.44,0-6.66,0-.09,0-.17-.01-.26,0-.52.09-1.03.12-1.54-.07Z"/>
    <path class="cls-7" d="M246.29,45.85c-.14,0-.28.01-.42.01-4.33,0-8.65,0-12.98,0q-.43,0-.29-.41c.64-1.86,1.28-3.73,1.92-5.59.14-.4.15-.41.57-.41,3.5.04,6.99,0,10.49.02.3,0,.6-.06.9,0,.01.05.01.11.04.15.15.23.16.48.16.74,0,.71.01,1.42,0,2.13,0,.32.04.64,0,.96-.04.27-.05.53-.05.8,0,.31,0,.62,0,.94,0,.18-.03.34-.22.43-.1.04-.11.12-.11.21Z"/>
    <path class="cls-6" d="M181.58,31.7c-1.75-.18-3.51-.35-5.26-.53-1.21-.13-2.42-.21-3.63-.34-1.27-.13-2.54-.28-3.81-.42-.77-.08-1.54-.15-2.31-.22-.16-.02-.32-.04-.48-.05-.11-.01-.17-.07-.18-.19,0-.29-.02-.58-.03-.87,0-.14.06-.2.19-.19.26,0,.51.02.77.06.03.07.07.07.11,0,.88.08,1.75.17,2.63.25.85.08,1.69.13,2.54.22.84.09,1.69.13,2.54.23.77.09,1.54.14,2.31.21.97.09,1.95.2,2.92.3.78.08,1.56.14,2.34.21.95.08,1.9.17,2.86.25.59.05,1.18.08,1.77.15.63.07,1.26.09,1.89.18.61.08,1.22.1,1.83.16.73.07,1.45.15,2.18.22.73.07,1.45.14,2.18.21,1.06.09,2.12.17,3.18.28.95.1,1.91.16,2.86.25,1.38.13,2.76.25,4.14.4,1.12.12,2.24.23,3.37.32,1.27.1,2.55.21,3.82.33.21.02.43.05.64.06.14,0,.21.08.21.23,0,.4,0,.8,0,1.2,0,.17-.08.21-.22.19-.39-.03-.77-.06-1.16-.1-.82-.09-1.65-.17-2.47-.24-.6-.05-1.2-.13-1.79-.2-.6-.06-1.2-.12-1.8-.18-1.02-.1-2.03-.21-3.05-.31-.81-.08-1.63-.14-2.44-.22-.72-.07-1.43-.14-2.15-.21-.61-.06-1.22-.11-1.83-.17-.68-.07-1.37-.14-2.05-.22-.93-.1-1.86-.2-2.79-.29-.76-.08-1.52-.16-2.28-.22-.63-.05-1.26-.13-1.89-.18-.73-.05-1.45-.14-2.18-.21-.77-.08-1.54-.16-2.31-.23-.33-.03-.66-.06-1-.08-.05-.11-.11-.13-.19-.03Z"/>
    <path class="cls-4" d="M216.27,68.74c-2.56-.05-4.6-1.1-6.08-3.21-.29-.41-.54-.83-.76-1.27-.09-.17-.2-.31-.36-.4-.54-.33-1.09-.65-1.63-.98-.31-.19-.63-.38-.92-.59-.6-.44-.61-1.22-.04-1.68.77-.62,1.53-1.25,2.31-1.87.18-.14.3-.3.37-.51.34-1.03.88-1.94,1.61-2.74.8-.87,1.73-1.55,2.84-1.95.75-.28,1.52-.44,2.33-.46,2.01-.06,3.76.57,5.24,1.93,1.41,1.28,2.2,2.89,2.46,4.75.23,1.61,0,3.17-.71,4.65-.63,1.3-1.53,2.34-2.71,3.14-.93.63-1.96,1.02-3.09,1.14-.29.03-.58.08-.87.06ZM210.18,60.88c0,.31.02.62.06.93.11.8.35,1.55.74,2.25.4.72.91,1.35,1.55,1.89,1.41,1.19,3.04,1.62,4.84,1.33,1.29-.21,2.39-.81,3.3-1.76,1.48-1.53,2.09-3.36,1.84-5.46-.23-1.94-1.17-3.49-2.78-4.61-1.4-.97-2.96-1.26-4.61-.92-1.22.26-2.26.87-3.12,1.78-1.21,1.28-1.82,2.8-1.83,4.55Z"/>
    <path class="cls-4" d="M179.44,60.96c-.02-1.97.59-3.73,1.86-5.24,1.22-1.45,2.77-2.34,4.66-2.57,2.57-.32,4.73.5,6.48,2.39.71.77,1.23,1.66,1.55,2.66.08.24.22.41.41.56.72.57,1.43,1.14,2.14,1.72.31.25.56.53.55.97,0,.34-.13.61-.39.81-.45.35-.96.61-1.45.9-.35.21-.7.43-1.05.63-.25.15-.42.36-.54.62-.39.83-.93,1.55-1.57,2.2-1.14,1.14-2.51,1.85-4.11,2.06-2.4.31-4.5-.38-6.21-2.1-1.25-1.26-2-2.78-2.26-4.55-.05-.35-.07-.71-.06-1.06ZM180.55,60.57c0,1.09.19,2.14.55,2.96.54,1.25,1.4,2.22,2.52,2.95.78.51,1.65.76,2.58.86.88.09,1.72-.01,2.54-.3,1.33-.48,2.38-1.33,3.15-2.51,1.05-1.6,1.31-3.35.9-5.2-.23-1.05-.72-1.99-1.44-2.78-1.34-1.47-2.98-2.25-5.01-2.12-1.12.07-2.13.45-3.02,1.1-1.82,1.31-2.69,3.14-2.76,5.04Z"/>
    <path class="cls-7" d="M195.01,46.17c1.71,0,3.42,0,5.13,0,5.27,0,10.55,0,15.82,0,4.91,0,9.82,0,14.72,0,.3,0,.31,0,.3.3-.02.65.09.57-.57.57-18.04,0-36.08,0-54.12-.01-.59,0-.52.11-.53-.53,0-.34,0-.33.34-.33,5.02,0,10.03,0,15.05,0,.63,0,1.27,0,1.9,0,.65.03,1.29.03,1.94,0Z"/>
    <path class="cls-7" d="M160.16,45.52c-.04-.39-.01-.77-.03-1.16,0-.14.06-.2.19-.19.08,0,.15,0,.23,0,5.18,0,10.36,0,15.54,0,.02,0,.04,0,.06,0,0,.34,0,.69,0,1.03,0,.42-.03.44-.44.44-2.7,0-5.4,0-8.1,0-.36,0-.73.04-1.09-.06-.07-.02-.16-.02-.22,0-.21.07-.43.05-.64.05-1.46,0-2.93,0-4.39,0-.37,0-.76.11-1.11-.13Z"/>
    <path class="cls-7" d="M218.97,36.3c.31-.01.31-.01.31.28,0,2.15-.01,4.3-.02,6.45,0,.83,0,1.66-.01,2.48-.07,0-.15,0-.22.05-.13.11-.29.11-.43.07-.39-.09-.79-.04-1.19-.05-.39-.01-.44-.06-.44-.46,0-2.11,0-4.22,0-6.33,0-.17.09-.34.05-.51-.1-.45-.02-.9-.05-1.35-.01-.22.11-.34.3-.41.29-.11.6-.1.89-.03.26.06.49-.04.73-.05.08,0,.08-.09.08-.15Z"/>
    <path class="cls-7" d="M196.37,45.46c-.02-.22-.02-.43,0-.65.23-.19.23-.3-.01-.45-.02-.1-.01-.17.11-.18.06,0,.13,0,.19,0,4.14,0,8.28,0,12.42,0,.05,0,.11,0,.16,0,.12,0,.18.04.18.17,0,.46,0,.93,0,1.39,0,.12-.05.18-.18.17-.07,0-.15,0-.22-.03,0-.07-.02-.13-.1-.14-.16-.02-.31-.08-.48-.07-.79.04-1.58-.03-2.37,0-1,.03-2,.01-3,0-.46,0-.92.05-1.38-.06-.08-.02-.18-.02-.26,0-.22.07-.45.05-.67.05-1.13,0-2.26,0-3.39,0-.35,0-.71.06-1.01-.19Z"/>
    <path class="cls-7" d="M192.63,55.23c0-1.35,0-2.69,0-4.04,0-.18,0-.37,0-.55,0-.17.05-.26.24-.26.78,0,1.57,0,2.35,0,.16,0,.24.06.24.23,0,.19,0,.39,0,.58,0,2.17,0,4.35,0,6.52,0,.1,0,.19-.01.29-.1-.01-.15.04-.21.11-.23.26-.31.26-.57.02-.22-.2-.37-.43-.46-.72-.06-.2-.1-.42-.22-.6-.29-.45-.6-.88-.9-1.33-.11-.17-.25-.26-.45-.27Z"/>
    <path class="cls-7" d="M191.32,44.62c.02.11.02.22,0,.32-.12.01-.15.11-.18.2-.03.13-.11.21-.22.26-.24.09-.47.19-.74.19-4.12,0-8.23,0-12.35,0-.21,0-.4-.06-.6-.09-.14-.02-.25-.11-.3-.26-.17-.43.07-.81.54-.81.53,0,1.05-.01,1.58,0,.21,0,.4-.08.6-.08.1,0,.11-.08.11-.16.28-.03.56-.03.85,0,0,.15.09.17.21.17.29.01.57-.02.86.05.13.03.34.02.35-.22.56-.03,1.12-.03,1.68,0,0,.15.1.17.22.17.66.01,1.33-.05,1.99.06.06.01.13,0,.19-.01.38-.08.76-.08,1.15,0,.22.04.45.01.67-.05.09-.03.11-.09.11-.17.35-.03.69-.03,1.04,0,0,.1.04.17.15.17.22,0,.45,0,.67,0,.11,0,.15-.07.15-.17.39-.02.77-.03,1.16,0-.03.07-.22.02-.15.15.06.11.1.27.28.28Z"/>
    <path class="cls-7" d="M156.13,65.62c-.22.02-.44.03-.66,0-.01-.02-.03-.03-.05-.04-.09-.1-.06-.22-.06-.34,0-5.96,0-11.91,0-17.87,0-.32,0-.65,0-.97,0-.17.06-.24.22-.23.15,0,.3,0,.45,0,.17,0,.23.08.22.24,0,.29-.01.58-.01.87,0,5.55,0,11.09,0,16.64,0,.44.01.88,0,1.32,0,.11.04.24-.06.34-.02.01-.04.03-.06.04Z"/>
    <path class="cls-7" d="M155.08,55.61c0,.2.01.41.01.61,0,1.52,0,3.03,0,4.55,0,.33,0,.34-.34.33-.9,0-1.8.02-2.7-.02,0-.1,0-.19-.07-.27-.11-.13-.12-.29-.12-.46,0-1.43,0-2.87,0-4.3,0-.32.09-.42.4-.37.24.04.47,0,.69,0,.71.02,1.41-.08,2.12-.08Z"/>
    <path class="cls-7" d="M207.73,53.09c0-.82-.02-1.64-.03-2.45,0-.24.01-.25.27-.25.74,0,1.48,0,2.23,0,.26,0,.3.04.3.29,0,.1.01.19-.03.29-.07,0-.13.02-.14.1-.03.16-.08.31-.07.47.03.74-.06,1.48.06,2.22.06.37-.08.73-.02,1.11.03.16.01.41-.14.57-.15.16-.18.36-.15.57-.4.62-.74,1.26-1.03,1.94-.17-.02-.28.03-.37.18-.09.16-.25.16-.4.12-.11-.02-.19-.11-.2-.22,0-.24-.08-.46-.08-.7,0-1.33.05-2.66-.06-3.99,0-.1.03-.23-.13-.25Z"/>
    <path class="cls-4" d="M224.83,34.8c-.61,0-1.23,0-1.84,0-.26,0-.27-.01-.27-.27,0-.94,0-1.87,0-2.81,0-.27.02-.29.3-.29,1.19,0,2.39,0,3.58,0,.71,0,1.33.63,1.36,1.34,0,.19.02.39.03.58.04.69-.6,1.41-1.29,1.44-.31.01-.62,0-.94,0-.31,0-.62,0-.94,0h0Z"/>
    <path class="cls-9" d="M177.97,34.09c-1.35-.07-2.6-.75-3.47-2.12-.08-.13-.16-.26-.23-.39-.05-.1-.18-.21-.11-.32.05-.08.2-.02.31,0,.42.04.83.09,1.25.13,1.83.18,3.66.37,5.49.55.14.01.28.01.42.03.09,0,.21-.04.25.08.03.09-.05.16-.1.23-.27.35-.57.67-.92.94-.78.6-1.66.89-2.9.89Z"/>
    <path class="cls-7" d="M230.99,55.19c0,2.5,0,5,0,7.5,0,.3,0,.3-.3.31q-.53.02-.53-.52c0-4.75,0-9.5,0-14.25,0-.24,0-.47,0-.71,0-.15.06-.22.21-.21.74.02.62-.07.62.58,0,2.43,0,4.87,0,7.3h0Z"/>
    <path class="cls-9" d="M169.75,30.78c.36.04.72.07,1.08.11.07.06.14.07.21.02.59.04.59.03.4.62-.23.72-.67,1.28-1.31,1.66-1.38.82-3.14.28-3.89-1.16-.22-.43-.35-.88-.37-1.36,0-.23,0-.24.23-.22.72.06,1.43.13,2.15.2.04.05.08.05.13,0,.41.04.82.08,1.23.12.04.05.08.05.13,0Z"/>
    <path class="cls-7" d="M218.46,47.31c1.03,0,2.06,0,3.1,0,.27,0,.28,0,.28.26,0,.4,0,.8,0,1.19,0,.29-.01.29-.29.29-1.9,0-3.81-.01-5.71-.02-.16,0-.32,0-.48.01-.25,0-.3-.02-.3-.29,0-.39,0-.78,0-1.16,0-.28,0-.29.29-.29,1.04,0,2.09,0,3.13,0h0Z"/>
    <path class="cls-7" d="M209.68,45.65c0-.41-.01-.82-.02-1.23,0-.25,0-.25.25-.26.67,0,1.33,0,2,0,1.41,0,2.82,0,4.23,0,.31,0,.33.01.32.33,0,.19.02.39-.03.58-.18-.01-.16.12-.18.24-.06.3-.21.41-.49.38-.38-.04-.75-.13-1.14-.04-.15.03-.32,0-.48-.03-.24-.05-.49-.05-.73.01-.18.05-.37.06-.54.02-.24-.06-.47-.06-.7-.05-.46.02-.91.08-1.38.06-.37-.01-.74.03-1.12,0Z"/>
    <path class="cls-9" d="M197.98,63.01c-.47-.05-.95-.06-1.42,0-.14-.02-.3.02-.44-.04.06-.18.23-.22.37-.28.58-.29.89-.72.84-1.39-.02-.35-.19-.63-.46-.86-.3-.25-.59-.5-.9-.73-.21-.16-.33-.33-.27-.6,0-.02,0-.04,0-.06q.01-.4.39-.4c.72,0,1.44,0,2.16,0,.26,0,.27,0,.27.27,0,1.23.01,2.45.02,3.68,0,.41,0,.41-.41.4-.05,0-.11,0-.16,0Z"/>
    <path class="cls-9" d="M214.32,41.98c-.6,0-1.21,0-1.81,0-.06,0-.14.03-.17-.05-.03-.08.05-.11.09-.15.63-.62,1.27-1.23,1.9-1.84.6-.58,1.21-1.17,1.81-1.75.02-.02.04-.05.07-.07.06-.04.11-.13.19-.08.06.04.02.12.02.18-.03,1.15-.02,2.31-.01,3.46,0,.29,0,.29-.29.29-.6,0-1.21,0-1.81,0Z"/>
    <path class="cls-9" d="M207.03,62.92c-.04.07-.11.06-.17.06-.74,0-1.47,0-2.21,0-.05-.19-.02-.39-.02-.58,0-1.15,0-2.3,0-3.46,0-.29,0-.3.3-.3.74,0,1.48,0,2.23,0,.31,0,.28,0,.31.3.04.37-.08.63-.39.84-.29.2-.55.44-.82.68-.67.59-.59,1.62.17,2.1.2.13.41.24.61.36Z"/>
    <path class="cls-7" d="M214.16,43.9c-.63,0-1.27,0-1.9,0-.35,0-.37-.02-.37-.36,0-.37,0-.73,0-1.1,0-.16.05-.22.2-.21.34.01.69.02,1.03.02,1,0,2-.01,3-.02.33,0,.34,0,.34.34,0,.36,0,.71,0,1.07,0,.24-.02.25-.26.26-.68,0-1.36,0-2.03,0h0Z"/>
    <path class="cls-7" d="M157.03,43.65c.21-.77.94-1.06,1.5-1,.79.09,1.32.65,1.35,1.43.02.54,0,1.07,0,1.61,0,.06,0,.13-.08.16,0-.05-.02-.12-.08-.12-.19-.02-.37-.09-.57-.08-.54.04-1.08-.04-1.62,0-.33.02-.37-.04-.37-.36,0-.46,0-.92,0-1.38,0-.1.03-.23-.13-.25Z"/>
    <path class="cls-7" d="M218.58,34.83c-1.14.03-2.28.03-3.42,0,0-.08-.01-.17-.11-.17-.33.02-.63-.11-.95-.14-.28-.02-.49-.24-.48-.49,0-.3.2-.48.51-.48.73,0,1.46,0,2.2,0,.28,0,.55.01.83-.05.31-.08.61.08.93.05.19-.02.36.04.54.07.3.05.34.29.39.53.05.22-.08.34-.24.44-.09.06-.19.1-.19.23Z"/>
    <path class="cls-9" d="M168.04,43.92c-.53,0-1.05,0-1.58,0-.29,0-.31-.01-.31-.31,0-.34,0-.69,0-1.03,0-.29.02-.31.31-.31.8,0,1.59,0,2.39,0,.26,0,.52,0,.77-.01.25,0,.27,0,.27.24,0,.41,0,.82,0,1.23,0,.16-.06.2-.21.2-.55,0-1.1,0-1.65,0Z"/>
    <path class="cls-9" d="M202.3,43.91c-.52,0-1.03,0-1.55,0-.3,0-.31,0-.3-.31.02-.35,0-.69,0-1.03,0-.3.01-.31.31-.3.88,0,1.76,0,2.65,0,.18,0,.37-.01.55-.02.15,0,.22.06.22.21,0,.41,0,.82,0,1.23,0,.16-.07.22-.24.22-.55,0-1.1,0-1.65,0Z"/>
    <path class="cls-9" d="M183.96,43.92c-.53,0-1.05,0-1.58,0-.26,0-.27,0-.26-.24.02-.39.01-.77,0-1.16,0-.24.01-.25.26-.25,1.05,0,2.11,0,3.16,0,.28,0,.29.02.29.29,0,.37,0,.73,0,1.1,0,.26,0,.26-.27.26-.54,0-1.08,0-1.61,0h0Z"/>
    <path class="cls-7" d="M176.28,47.33s0,.08,0,.09c-.24.2-.19.48-.19.74,0,4.07,0,8.14,0,12.21,0,.19,0,.38-.04.58-.06.26.08.4.34.41.02,0,.04,0,.06,0,.45.02.9-.02,1.35.05.46.07.92-.04,1.37-.12.02.09.03.17,0,.26-.02.02-.03.04-.05.05-.45.04-.9.01-1.35.02-.56,0-1.12,0-1.68,0-.31,0-.31,0-.31-.29,0-4.24,0-8.49,0-12.73,0-.32,0-.65,0-.97,0-.35,0-.35.34-.33.05,0,.11.01.16.02Z"/>
    <path class="cls-7" d="M179.76,44.19c0,.08-.02.16-.11.16-.21,0-.4.08-.6.08-.53-.01-1.05-.01-1.58,0-.48,0-.72.38-.54.81.06.15.17.24.3.26.2.03.39.09.6.09,4.12,0,8.23,0,12.35,0,.27,0,.5-.1.74-.19.12-.04.19-.13.22-.26.02-.09.06-.19.18-.2,0,.25,0,.5.02.74,0,.17-.07.23-.23.22-.26-.01-.52-.02-.77-.02-4.19,0-8.37,0-12.56,0-.28,0-.56.01-.84.02-.29,0-.32-.02-.32-.3,0-.4,0-.8,0-1.2,0-.16.05-.23.22-.23.98.01,1.96.01,2.94.02Z"/>
    <path class="cls-7" d="M156.9,46.17c-.08.25-.17.5-.13.78.1.59-.02,1.17,0,1.76.02.59,0,1.18,0,1.78,0,3.67,0,7.34,0,11.02,0,.47.1.94.07,1.41-.01.21-.08.41-.02.63.05.19.13.3.29.38.1.05.24.07.24.23-.2.05-.41.04-.61.04-.15,0-.22-.07-.22-.21,0-.16,0-.32,0-.48,0-5.47,0-10.95,0-16.42,0-.22,0-.43,0-.65,0-.28,0-.29.29-.29.03,0,.06.01.1.02Z"/>
    <path class="cls-7" d="M175.49,60.66c-.16-.01-.21-.15-.24-.27-.05-.19-.08-.38-.08-.57,0-3.88,0-7.76,0-11.64,0-.44-.02-.87,0-1.31,0-.18.01-.37-.15-.5-.05-.04-.04-.12-.04-.18.02,0,.04-.01.06-.01.46-.02.46-.02.46.44,0,4.46,0,8.92,0,13.37,0,.23-.01.45-.02.68Z"/>
    <path class="cls-4" d="M222.47,32.75c0,.58,0,1.16,0,1.74,0,.31,0,.32-.29.32-.76,0-.61.05-.62-.61,0-1.06,0-2.13,0-3.19,0-.35,0-.36.36-.35.64.01.54-.07.55.55,0,.52,0,1.03,0,1.55,0,0,0,0,0,0Z"/>
    <path class="cls-7" d="M160.16,45.52c.35.24.73.13,1.11.13,1.46,0,2.93,0,4.39,0,.21,0,.43.02.64-.05.07-.02.15-.02.22,0,.36.1.73.06,1.09.06,2.7,0,5.4,0,8.1,0,.41,0,.43-.03.44-.44,0-.34,0-.69,0-1.03.12-.03.22,0,.22.15.01.46-.02.93.01,1.39.01.21-.14.2-.29.19-1.3-.03-2.6-.03-3.9-.03-3.72,0-7.44,0-11.16,0-.18,0-.37.01-.55.01-.34,0-.36-.02-.32-.37Z"/>
    <path class="cls-7" d="M218.58,34.83c0-.13.1-.18.19-.23.17-.1.29-.23.24-.44-.05-.23-.09-.47-.39-.53-.18-.03-.35-.09-.54-.07-.31.03-.62-.13-.93-.05-.28.07-.55.05-.83.05-.73,0-1.46,0-2.2,0-.31,0-.51.18-.51.48,0,.26.2.47.48.49.32.02.62.16.95.14.09,0,.11.08.11.17-.56,0-1.12.04-1.68,0,0-.02-.02-.03-.04-.03-.05-.47,0-.94-.02-1.42,0-.18.12-.18.24-.18.61,0,1.23,0,1.84,0,1.14,0,2.28,0,3.42,0,.36,0,.37,0,.37.35,0,.36,0,.71,0,1.07,0,.16-.06.24-.23.23-.16-.01-.32-.02-.48-.02Z"/>
    <path class="cls-7" d="M217.42,35.12c.53,0,1.05,0,1.58,0,.24,0,.26.02.28.25.06.63.04.65-.58.65-.92,0-1.85,0-2.77,0-.36,0-.36,0-.36-.36,0-.55-.1-.54.53-.54.44,0,.88,0,1.32,0,0,0,0,0,0,0Z"/>
    <path class="cls-7" d="M218.97,36.3c0,.07,0,.15-.08.15-.24.01-.47.11-.73.05-.29-.07-.6-.07-.89.03-.19.07-.31.19-.3.41.03.45-.05.9.05,1.35.04.17-.05.33-.05.51,0,2.11,0,4.22,0,6.33,0,.4.05.45.44.46.4.01.79-.04,1.19.05.14.03.3.04.43-.07.06-.05.14-.05.22-.05.05.37.04.39-.3.37-.64-.02-1.29-.02-1.93-.01-.25,0-.27-.02-.27-.24,0-2.59,0-5.19-.01-7.78,0-.45.01-.9.01-1.36,0-.16.06-.23.23-.23.67.01,1.33.02,2,.02Z"/>
    <path class="cls-7" d="M231.7,46.18c0,.06,0,.14-.06.18-.2.1-.2.28-.2.47,0,5.38,0,10.77,0,16.15-.11.03-.19,0-.2-.13,0-.14,0-.28,0-.42,0-5.3,0-10.6,0-15.9,0-.02,0-.04,0-.06q0-.3.3-.3c.05,0,.11.01.16.02Z"/>
    <path class="cls-7" d="M246.85,62.47c-.1,0-.17-.03-.17-.14,0-.11,0-.22,0-.32,0-4.73,0-9.47,0-14.2,0-.54.07-1.09-.13-1.62.32-.02.32-.02.32.3,0,2.23,0,4.46,0,6.69,0,3.03,0,6.05,0,9.08,0,.08,0,.15-.01.23Z"/>
    <path class="cls-7" d="M196.37,45.46c.3.25.66.19,1.01.19,1.13,0,2.26,0,3.39,0,.22,0,.45.02.67-.05.08-.03.17-.02.26,0,.46.11.92.05,1.38.06,1,0,2,.02,3,0,.79-.02,1.58.04,2.37,0,.17,0,.32.05.48.07.08.01.09.08.1.14-.17.05-.34,0-.51.01-3.87,0-7.74,0-11.6,0-.05,0-.11,0-.16,0q-.42.02-.38-.42Z"/>
    <path class="cls-7" d="M198.79,58.53c.23,0,.22.16.22.31,0,.63,0,1.25,0,1.88,0,.14,0,.28,0,.42,0,.14.03.21.18.25.37.09.75.07,1.12.03.51-.05,1.02-.08,1.54,0,.09.02.19,0,.29.01.41.02.82-.04,1.22.06.08.02.17,0,.26,0,.43-.01.6-.26.54-.68-.09-.7-.09-1.41.01-2.12.02-.12.05-.18.18-.17,0,.96,0,1.92.02,2.88,0,.17-.04.24-.23.24-1.68,0-3.36,0-5.04,0-.3,0-.32-.01-.31-.27.02-.95.01-1.9,0-2.84Z"/>
    <path class="cls-7" d="M221.57,45.52c.51.19,1.02.16,1.54.07.08-.01.17,0,.26,0,2.22,0,4.44,0,6.66,0,.32,0,.63.07.95,0,0,.09,0,.17.01.26-.03.02-.05.04-.08.05-.56-.04-1.12-.03-1.68-.03-2.44,0-4.89,0-7.33,0q-.36,0-.34-.36Z"/>
    <path class="cls-7" d="M155.08,55.61c-.71,0-1.41.09-2.12.08-.23,0-.46.04-.69,0-.31-.05-.4.05-.4.37,0,1.43,0,2.87,0,4.3,0,.17.01.32.12.46.07.08.07.18.07.27-.42.03-.43.03-.43-.37,0-1.67,0-3.34,0-5.01,0-.26.02-.27.27-.27.98,0,1.96,0,2.94,0,.12,0,.29-.05.25.18Z"/>
    <path class="cls-7" d="M230.98,35.31c-3.14.03-6.27-.06-9.41.06,0-.26,0-.27.29-.27,1.5,0,3.01,0,4.51,0,1.44,0,2.88,0,4.32,0,.13,0,.3-.04.28.19Z"/>
    <path class="cls-7" d="M207.73,53.09c.16.02.12.15.13.25.11,1.33.06,2.66.06,3.99,0,.24.07.46.08.7,0,.12.09.2.2.22.15.03.31.03.4-.12.09-.16.2-.21.37-.18-.03.26-.17.46-.37.61-.2.15-.38.31-.58.47-.08.06-.16.2-.26.16-.11-.05-.05-.19-.05-.29,0-.44,0-.88,0-1.32,0-1.4,0-2.79,0-4.19,0-.1,0-.19.01-.29Z"/>
    <path class="cls-7" d="M224,61.11c.05,0,.12,0,.15.05.1.22.29.21.49.21,1.31,0,2.63,0,3.94,0,.18,0,.36,0,.54.05.19.06.38,0,.55-.12.07-.05.12-.12.22-.12q.04.46-.41.46c-1.7,0-3.4,0-5.09,0-.13,0-.26-.01-.39-.02-.01-.02-.03-.04-.04-.06,0-.15-.01-.31.04-.46Z"/>
    <path class="cls-7" d="M209.68,45.65c.37.03.74,0,1.12,0,.46.01.92-.04,1.38-.06.23-.01.47,0,.7.05.17.04.36.03.54-.02.24-.06.49-.06.73-.01.16.03.33.07.48.03.39-.09.76,0,1.14.04.28.03.42-.08.49-.38.02-.11,0-.25.18-.24,0,.18.02.36.03.55,0,.25-.03.28-.27.28-1.94-.05-3.88-.01-5.82-.02-.16,0-.32,0-.48.01-.16,0-.24-.07-.2-.24Z"/>
    <path class="cls-7" d="M192.63,55.23c.2,0,.34.1.45.27.29.45.6.88.9,1.33.12.18.16.4.22.6.09.29.24.52.46.72.27.24.35.24.57-.02.06-.07.11-.12.21-.11,0,.36.01.71.01,1.07,0,.16-.05.18-.17.08-.29-.24-.58-.48-.87-.72-.12-.1-.18-.24-.23-.38-.31-.93-.79-1.76-1.43-2.51-.08-.09-.16-.18-.13-.32Z"/>
    <path class="cls-7" d="M246.29,45.85c0-.09.01-.17.11-.21.19-.08.22-.24.22-.43,0-.31,0-.62,0-.94,0-.27,0-.53.05-.8.05-.31,0-.64,0-.96.02-.71,0-1.42,0-2.13,0-.26,0-.51-.16-.74-.03-.04-.03-.1-.04-.15.37-.07.39-.06.39.31,0,1.91,0,3.83,0,5.74,0,.31,0,.32-.32.31-.09,0-.17,0-.26-.01Z"/>
    <path class="cls-7" d="M190.87,53.87c.06-.09.15-.08.23-.05.2.07.41.13.57.29.08.07.17.16.28.11.14-.06.14-.19.16-.32.08-.97.06-1.94.06-2.92,0-.15-.04-.32.19-.35,0,.63.01,1.27.02,1.9,0,.72,0,1.44.01,2.16,0,.05,0,.11,0,.16,0,.05.01.11-.05.14-.06.03-.1-.02-.13-.06-.14-.17-.3-.31-.47-.44-.28-.21-.57-.42-.86-.63Z"/>
    <path class="cls-7" d="M210.79,50.63c.24,0,.23.19.23.35,0,.48,0,.97,0,1.45,0,.44,0,.88,0,1.32q0,.44.41.59s.04.05.06.07c-.2.19-.4.37-.6.56-.04,0-.08,0-.12,0,0-1.39,0-2.78,0-4.18,0-.05,0-.11.01-.16Z"/>
    <path class="cls-7" d="M157.03,43.65c.16.03.12.15.13.25,0,.46,0,.92,0,1.38,0,.32.04.39.37.36.54-.04,1.08.04,1.62,0,.2-.01.38.06.57.08.06,0,.07.07.08.12-.07.04-.15.03-.22.03-.78,0-1.57,0-2.35,0-.3,0-.31-.02-.31-.31,0-.58.02-1.16.03-1.74,0,0,.02,0,.02-.01,0-.01,0-.03-.01-.04.02-.04.04-.09.07-.13Z"/>
    <path class="cls-7" d="M210,56.01c-.03-.21,0-.41.15-.57.15-.17.17-.41.14-.57-.06-.38.09-.74.02-1.11-.12-.74-.03-1.48-.06-2.22,0-.17.04-.32.07-.47.02-.08.07-.1.14-.1,0,.82,0,1.63,0,2.45,0,.57-.02,1.14.04,1.71.02.16-.02.29-.13.41-.14.15-.26.31-.39.47Z"/>
    <path class="cls-7" d="M188.03,44.19c0,.08-.02.14-.11.17-.22.06-.44.1-.67.05-.38-.07-.76-.08-1.15,0-.06.01-.13.02-.19.01-.66-.11-1.33-.05-1.99-.06-.12,0-.22-.02-.22-.17.84-.03,1.68-.03,2.52,0,.02.02.04.02.06,0,.58-.03,1.16-.03,1.75,0Z"/>
    <path class="cls-7" d="M182.02,44.19c0,.24-.22.25-.35.22-.29-.06-.57-.04-.86-.05-.12,0-.21-.02-.21-.17.47-.03.94-.02,1.41,0Z"/>
    <path class="cls-1" d="M195.01,46.17c-.65.03-1.29.03-1.94,0,.05-.06.11-.06.17-.06.53,0,1.06,0,1.59,0,.06,0,.13,0,.17.06Z"/>
    <path class="cls-7" d="M190.03,44.19c0,.1-.04.17-.15.17-.22,0-.45,0-.67,0-.11,0-.15-.07-.15-.17.32-.02.64-.02.96,0Z"/>
    <path class="cls-7" d="M191.32,44.62c-.18,0-.22-.17-.28-.28-.07-.13.11-.08.15-.15.09-.01.14.03.14.12,0,.1,0,.21,0,.31Z"/>
    <path class="cls-7" d="M196.36,44.36c.24.15.24.26.01.45-.02-.15-.03-.3-.01-.45Z"/>
    <path class="cls-4" d="M171.05,30.91c-.08.05-.15.04-.21-.02.07-.03.15-.03.21.02Z"/>
    <path class="cls-2" d="M181.58,31.7c.08-.1.14-.08.19.03-.07.02-.14.03-.19-.03Z"/>
    <path class="cls-2" d="M179.25,59.75s-.04-.09.02-.13c.06.05.04.09-.02.13Z"/>
    <path class="cls-4" d="M168.4,30.65s-.09.04-.13,0c.05-.04.09-.03.13,0Z"/>
    <path class="cls-4" d="M169.75,30.78s-.09.04-.13,0c.05-.04.09-.03.13,0Z"/>
    <path class="cls-2" d="M166.97,28.96c-.04.07-.08.06-.11,0,.04-.05.08-.05.11,0Z"/>
    <path class="cls-4" d="M210.78,54.97s.08,0,.12,0c-.04.05-.09.1-.12,0Z"/>
    <path class="cls-2" d="M156.97,43.78s0,.03.01.04c0,0-.01,0-.02.01,0-.02,0-.04,0-.05Z"/>
    <path class="cls-2" d="M223.69,58.72s.02.03.02.04c0,0,0,.02-.01.02,0-.01-.01-.03-.02-.04,0,0,0-.02,0-.02Z"/>
    <polygon class="cls-2" points="223.48 58.04 223.51 58.04 223.49 58.06 223.48 58.04"/>
    <path class="cls-2" d="M223.42,57.89s.02.02.03.03c0,0,0,.01-.01.02-.02-.01-.02-.03-.02-.05Z"/>
    <path class="cls-2" d="M223.87,59.63s.02.02.02.04c0,0,0,.01-.01.02-.01-.02-.01-.03,0-.05Z"/>
    <path class="cls-2" d="M223.29,57.57l.02.02s0,.03,0,.03c-.01-.01-.02-.03-.01-.05Z"/>
    <polygon class="cls-2" points="223.16 57.26 223.18 57.27 223.17 57.29 223.16 57.26"/>
    <path class="cls-8" d="M179.12,61.62s.03-.04.05-.05c0,.04,0,.06-.05.05Z"/>
    <path class="cls-4" d="M223.96,61.57s.03.04.04.06c-.04,0-.05-.02-.04-.06Z"/>
    <path class="cls-8" d="M213.44,34.79s.03.02.04.03c-.03,0-.04,0-.04-.03Z"/>
    <path class="cls-2" d="M217.03,52.83s.04-.03.06,0c0,0-.03,0-.03,0h-.03Z"/>
    <path class="cls-2" d="M214.78,47.38s-.05-.02-.05-.05c.02.02.03.03.05.05Z"/>
    <path class="cls-2" d="M230.91,45.9s.05-.04.08-.05c0,.04-.03.06-.08.05Z"/>
    <path class="cls-8" d="M186.28,44.19s-.04.02-.06,0c.02-.01.04-.01.06,0Z"/>
    <path class="cls-8" d="M155.43,65.58s.04.02.05.04c-.03.01-.05,0-.05-.04Z"/>
    <path class="cls-8" d="M156.13,65.62s.04-.03.06-.04c0,.04-.02.05-.06.04Z"/>
    <path class="cls-1" d="M166.01,56.19c1.08,0,2.15,0,3.23,0,.09,0,.17,0,.26,0,.08,0,.15.03.15.13,0,.1-.08.12-.16.13-.07,0-.15,0-.23,0-2.18,0-4.37,0-6.55,0-.12,0-.31.07-.31-.12,0-.21.2-.14.32-.14,1.1,0,2.19,0,3.29,0h0Z"/>
    <path class="cls-1" d="M166.01,53.92c1.1,0,2.2,0,3.29,0,.12,0,.32-.07.32.1,0,.19-.2.15-.33.15-2.22,0-4.44,0-6.65,0-.03,0-.06,0-.1,0-.09,0-.18-.03-.17-.15,0-.1.1-.1.17-.11.09,0,.17,0,.26,0,1.07,0,2.13,0,3.2,0Z"/>
    <path class="cls-1" d="M162.46,51.69c.25-.04.49-.02.74-.02,2.03,0,4.06,0,6.09,0,.09,0,.17,0,.26.02,0,.08,0,.15,0,.23-.15,0-.3.02-.45.02-2.13,0-4.26,0-6.38,0-.09,0-.17-.01-.26-.02,0-.08,0-.15,0-.23Z"/>
    <path class="cls-1" d="M166.01,58.67c-1.1,0-2.19,0-3.29,0-.12,0-.31.07-.32-.1,0-.19.2-.12.31-.12,2.2,0,4.41,0,6.61,0,.06,0,.13,0,.19,0,.07,0,.13.03.12.12,0,.08-.07.1-.14.1-.09,0-.17,0-.26,0-1.07,0-2.15,0-3.22,0h0Z"/>
    <path d="M169.55,51.91c0-.08,0-.15,0-.23.16.1.16.13,0,.23Z"/>
    <path d="M162.46,51.69c0,.08,0,.15,0,.23-.16-.1-.15-.13,0-.23Z"/>
    <path class="cls-1" d="M210.18,60.88c.01-1.76.62-3.28,1.83-4.55.86-.91,1.9-1.53,3.12-1.78,1.66-.35,3.21-.05,4.61.92,1.61,1.11,2.55,2.67,2.78,4.61.25,2.1-.36,3.93-1.84,5.46-.92.95-2.02,1.55-3.3,1.76-1.8.29-3.43-.14-4.84-1.33-.63-.53-1.15-1.16-1.55-1.89-.39-.7-.63-1.46-.74-2.25-.04-.31-.06-.62-.06-.93ZM210.45,61.19c.01.74.24,1.62.62,2.46,1.13,2.48,3.86,3.89,6.42,3.34,2.03-.43,3.45-1.64,4.29-3.52.48-1.06.62-2.18.48-3.35-.18-1.5-.8-2.8-1.9-3.83-1.34-1.26-2.94-1.79-4.77-1.53-2.19.31-3.68,1.57-4.6,3.53-.4.85-.54,1.77-.55,2.89Z"/>
    <path class="cls-4" d="M180.55,60.57c.08-1.9.94-3.73,2.76-5.04.9-.64,1.9-1.03,3.02-1.1,2.03-.13,3.67.65,5.01,2.12.72.79,1.21,1.73,1.44,2.78.41,1.85.15,3.59-.9,5.2-.78,1.18-1.82,2.03-3.15,2.51-.82.29-1.66.39-2.54.3-.93-.1-1.8-.35-2.58-.86-1.12-.73-1.98-1.71-2.52-2.95-.36-.82-.55-1.87-.55-2.96ZM180.84,61.15c.05,1.67.69,3.32,2.18,4.55,1.73,1.43,3.67,1.8,5.8,1.03.89-.33,1.68-.84,2.29-1.57,1.5-1.8,1.95-3.85,1.31-6.11-.38-1.34-1.15-2.43-2.28-3.24-1.23-.89-2.6-1.23-4.12-1.04-1.18.15-2.22.61-3.09,1.4-1.4,1.27-2.08,2.87-2.09,4.99Z"/>
    <path class="cls-6" d="M210.45,61.19c.01-1.13.16-2.05.55-2.89.92-1.96,2.41-3.22,4.6-3.53,1.83-.26,3.43.28,4.77,1.53,1.1,1.03,1.71,2.33,1.9,3.83.14,1.16,0,2.28-.48,3.35-.84,1.88-2.26,3.09-4.29,3.52-2.57.55-5.29-.86-6.42-3.34-.38-.84-.61-1.72-.62-2.46ZM218.03,60.88c.07-1.02-1.01-2.12-2.29-1.58-.87.37-1.26,1.44-.86,2.31.45.98,1.47,1.27,2.32.79.58-.32.86-.85.84-1.53ZM215.61,64.08c-.44-.06-.98.4-.97,1.02.01.59.43,1.03,1.01,1.03.47,0,.92-.5.93-1.02,0-.58-.42-1.03-.97-1.03ZM221.37,60c0-.58-.42-1.03-.96-1.03-.53,0-.97.45-.98.99-.01.56.42,1.02.97,1.03.52,0,.97-.45.97-.99ZM212.19,58.26c0,.6.4,1.05.94,1.05.52,0,.97-.47.97-1.01,0-.57-.42-1.01-.98-1.02-.53,0-.93.42-.93.98Z"/>
    <path class="cls-6" d="M180.84,61.15c.01-2.12.69-3.72,2.09-4.99.88-.79,1.91-1.26,3.09-1.4,1.52-.19,2.89.16,4.12,1.04,1.13.81,1.9,1.9,2.28,3.24.64,2.26.19,4.31-1.31,6.11-.61.73-1.4,1.25-2.29,1.57-2.13.78-4.07.4-5.8-1.03-1.49-1.23-2.12-2.88-2.18-4.55ZM186.75,62.61c.94.06,1.64-.78,1.68-1.67.04-.89-.76-1.77-1.63-1.78-.86-.02-1.69.72-1.68,1.71,0,1,.68,1.73,1.63,1.74ZM186.59,65.09c-.01.59.36,1,.92,1.02.7.03.99-.55,1.01-.99.02-.56-.42-1.03-.96-1.04-.57,0-.95.39-.97,1.01ZM190.96,58.3c.06-.58-.42-1.03-.95-1.04-.52-.01-.92.46-.96,1.01-.04.51.47,1.05.96,1.05.44,0,1.01-.45.94-1.02ZM181.81,59.96c-.07.66.5,1.02.91,1.03.53.01.98-.43.99-.98,0-.59-.39-1.03-.95-1.04-.56,0-.94.39-.95.99Z"/>
    <path class="cls-1" d="M218.03,60.88c.02.68-.26,1.21-.84,1.53-.85.47-1.87.19-2.32-.79-.4-.87,0-1.95.86-2.31,1.28-.55,2.36.56,2.29,1.58ZM216.41,62.35c.75,0,1.39-.67,1.39-1.45,0-.79-.63-1.46-1.38-1.46-.98,0-1.43.81-1.44,1.47,0,.69.61,1.49,1.43,1.45Z"/>
    <path class="cls-1" d="M215.61,64.08c.55,0,.97.45.97,1.03,0,.52-.46,1.03-.93,1.02-.58,0-1-.44-1.01-1.03-.02-.62.53-1.08.97-1.02ZM214.9,65.11c0,.39.33.74.7.74.38,0,.72-.33.73-.72,0-.4-.33-.77-.71-.77-.4,0-.72.33-.72.75Z"/>
    <path class="cls-1" d="M221.37,60c0,.55-.45,1-.97.99-.55,0-.98-.47-.97-1.03.01-.55.45-.99.98-.99.54,0,.97.46.96,1.03ZM219.69,59.99c0,.42.32.73.73.73.38,0,.69-.34.69-.74,0-.41-.34-.76-.72-.75-.39,0-.71.35-.7.77Z"/>
    <path class="cls-1" d="M212.19,58.26c0-.56.4-.98.93-.98.56,0,.99.44.98,1.02,0,.54-.46,1.01-.97,1.01-.54,0-.95-.45-.94-1.05ZM213.12,59.04c.39,0,.73-.33.74-.74.01-.39-.34-.76-.72-.76-.37,0-.71.34-.73.72-.02.38.34.77.71.78Z"/>
    <path class="cls-1" d="M186.75,62.61c-.95,0-1.62-.74-1.63-1.74,0-.99.82-1.73,1.68-1.71.87.02,1.67.89,1.63,1.78-.04.89-.74,1.73-1.68,1.67ZM188.16,60.88c0-.77-.65-1.45-1.4-1.45-.77,0-1.38.66-1.4,1.47-.02.72.59,1.46,1.41,1.47.75.01,1.39-.69,1.39-1.49Z"/>
    <path class="cls-1" d="M186.59,65.09c.02-.62.39-1.02.97-1.01.54,0,.99.48.96,1.04-.02.44-.3,1.01-1.01.99-.56-.02-.94-.43-.92-1.02ZM188.27,65.11c0-.38-.33-.75-.7-.75-.39,0-.75.34-.75.73,0,.38.33.74.7.75.39.01.74-.33.75-.73Z"/>
    <path class="cls-1" d="M190.96,58.3c.06.57-.51,1.01-.94,1.02-.5,0-1-.53-.96-1.05.04-.55.44-1.03.96-1.01.53.01,1.01.46.95,1.04ZM190.1,59.03s.05,0,.07-.01c.15-.04.27-.12.37-.24.28-.32.25-.77-.08-1.06-.3-.27-.69-.24-.97.06-.18.2-.22.43-.18.69,0,.02,0,.04.01.05.15.34.39.53.77.51Z"/>
    <path class="cls-1" d="M181.81,59.96c0-.6.39-.99.95-.99.56,0,.96.45.95,1.04,0,.55-.46.99-.99.98-.41-.01-.98-.37-.91-1.03ZM182.75,60.73c.41,0,.73-.33.73-.74,0-.4-.35-.76-.73-.76-.37,0-.71.35-.72.74,0,.39.34.76.72.76Z"/>
    <path class="cls-4" d="M216.41,62.35c-.82.04-1.44-.75-1.43-1.45,0-.66.46-1.47,1.44-1.47.75,0,1.38.68,1.38,1.46,0,.78-.64,1.45-1.39,1.45Z"/>
    <path class="cls-7" d="M214.9,65.11c0-.42.32-.75.72-.75.38,0,.72.37.71.77,0,.38-.35.72-.73.72-.37,0-.7-.35-.7-.74Z"/>
    <path class="cls-7" d="M219.69,59.99c0-.42.31-.76.7-.77.38,0,.72.35.72.75,0,.4-.31.74-.69.74-.41,0-.73-.31-.73-.73Z"/>
    <path class="cls-7" d="M213.12,59.04c-.37,0-.73-.4-.71-.78.02-.39.36-.73.73-.72.38,0,.74.37.72.76-.01.41-.35.75-.74.74Z"/>
    <path class="cls-4" d="M188.16,60.88c0,.8-.64,1.5-1.39,1.49-.82-.01-1.43-.75-1.41-1.47.02-.81.63-1.47,1.4-1.47.75,0,1.39.67,1.4,1.45Z"/>
    <path class="cls-7" d="M188.27,65.11c0,.4-.35.75-.75.73-.37-.01-.71-.37-.7-.75,0-.39.37-.74.75-.73.37,0,.7.37.7.75Z"/>
    <path class="cls-7" d="M189.32,58.47c-.04-.26,0-.49.18-.69.28-.3.67-.33.97-.06.33.29.36.74.08,1.06-.1.12-.23.2-.37.24-.03-.02-.05-.01-.07.01-.38.02-.63-.17-.77-.51,0,0,.01-.02.01-.02,0-.01-.02-.02-.03-.03Z"/>
    <path class="cls-4" d="M190.1,59.03s.04-.04.07-.01c-.02,0-.05,0-.07.01Z"/>
    <path class="cls-2" d="M189.32,58.47s.02.02.03.03c0,0,0,.01-.01.02-.02-.01-.02-.03-.01-.05Z"/>
    <path class="cls-7" d="M182.75,60.73c-.38,0-.73-.37-.72-.76,0-.39.35-.73.72-.74.38,0,.73.36.73.76,0,.42-.32.75-.73.74Z"/>
    <g>
      <path class="cls-5" d="M212.26,43.9c.63,0,1.27,0,1.9,0h0c.68,0,1.36,0,2.03,0,.24,0,.26-.02.26-.26,0-.36,0-.71,0-1.07,0-.33-.01-.35-.34-.34-1,0-2,.02-3,.02-.34,0-.69-.01-1.03-.02-.15,0-.21.06-.2.21,0,.37,0,.73,0,1.1,0,.34.02.36.37.36Z"/>
      <path class="cls-5" d="M209.88,45.89c.16,0,.32-.01.48-.01,1.94,0,3.88-.03,5.82.02.25,0,.28-.02.27-.28,0-.18-.02-.36-.03-.55.05-.19.02-.39.03-.58.01-.31,0-.33-.32-.33-1.41,0-2.82,0-4.23,0-.67,0-1.33,0-2,0-.24,0-.25,0-.25.26,0,.41.01.82.02,1.23-.05.17.03.24.2.24Z"/>
      <path class="cls-5" d="M212.51,41.98c.6,0,1.21,0,1.81,0,.6,0,1.21,0,1.81,0,.28,0,.29,0,.29-.29,0-1.15-.01-2.31.01-3.46,0-.06.04-.14-.02-.18-.08-.05-.13.04-.19.08-.03.02-.05.04-.07.07-.6.58-1.21,1.17-1.81,1.75-.63.61-1.27,1.23-1.9,1.84-.04.04-.13.07-.09.15.03.07.11.04.17.05Z"/>
      <path class="cls-5" d="M176.93,45.89c.28,0,.56-.02.84-.02,4.19,0,8.37,0,12.56,0,.26,0,.52,0,.77.02.16,0,.24-.04.23-.22-.01-.25-.01-.49-.02-.74.02-.11.03-.22,0-.32,0-.1.01-.21,0-.31,0-.09-.05-.13-.14-.12-.39-.03-.77-.02-1.16,0-.32-.02-.64-.02-.96,0-.35-.03-.69-.03-1.04,0-.58-.02-1.16-.03-1.75,0-.02-.01-.04-.01-.06,0-.84-.02-1.68-.02-2.52,0-.56-.03-1.12-.03-1.69,0-.47-.01-.94-.03-1.41,0-.28-.03-.56-.03-.85,0-.98,0-1.96-.01-2.94-.02-.17,0-.22.07-.22.23,0,.4,0,.8,0,1.2,0,.27.04.3.32.3Z"/>
      <path class="cls-5" d="M166.46,43.92c.53,0,1.05,0,1.58,0,.55,0,1.1,0,1.65,0,.15,0,.21-.04.21-.2,0-.41,0-.82,0-1.23,0-.24-.02-.25-.27-.24-.26,0-.52,0-.77.01-.8,0-1.59,0-2.39,0-.3,0-.31.02-.31.31,0,.34,0,.69,0,1.03,0,.3.02.31.31.31Z"/>
      <path class="cls-5" d="M182.38,43.92c.53,0,1.05,0,1.58,0h0c.54,0,1.08,0,1.61,0,.27,0,.27,0,.27-.26,0-.37,0-.73,0-1.1,0-.27-.02-.29-.29-.29-1.05,0-2.11,0-3.16,0-.25,0-.26.01-.26.25,0,.39.01.77,0,1.16-.01.24,0,.24.26.24Z"/>
      <path class="cls-5" d="M219.28,35.37c-.02-.23-.04-.25-.28-.25-.53,0-1.05,0-1.58,0h0c-.44,0-.88,0-1.32,0-.63,0-.53-.01-.53.54,0,.36,0,.36.36.36.92,0,1.85,0,2.77,0,.62,0,.63-.01.58-.65Z"/>
      <path class="cls-5" d="M196.75,45.88c.05,0,.11,0,.16,0,3.87,0,7.74,0,11.6,0,.17,0,.34.04.51-.01.07.03.15.02.22.03.13,0,.18-.05.18-.17,0-.46,0-.93,0-1.39,0-.12-.07-.17-.18-.17-.05,0-.11,0-.16,0-4.14,0-8.28,0-12.42,0-.06,0-.13,0-.19,0-.12.01-.13.09-.11.18-.02.15,0,.3.01.45-.02.21-.02.43,0,.65q-.04.44.38.42Z"/>
      <path class="cls-5" d="M200.75,43.91c.52,0,1.03,0,1.55,0,.55,0,1.1,0,1.65,0,.17,0,.24-.06.24-.22,0-.41,0-.82,0-1.23,0-.15-.07-.22-.22-.21-.18,0-.37.02-.55.02-.88,0-1.76,0-2.65,0-.3,0-.31,0-.31.3,0,.34.02.69,0,1.03-.01.3,0,.31.3.31Z"/>
      <path class="cls-5" d="M219.28,36.58c0-.3,0-.3-.31-.28-.67,0-1.33-.01-2-.02-.17,0-.23.06-.23.23,0,.45-.02.9-.01,1.36,0,2.59,0,5.19.01,7.78,0,.22.02.24.27.24.65,0,1.29-.01,1.93.01.34.01.35,0,.3-.37,0-.83.01-1.66.01-2.48,0-2.15.01-4.3.02-6.45Z"/>
      <path class="cls-5" d="M221.57,35.37c0,.09-.01.17-.01.26,0,2.77,0,5.54,0,8.32,0,.53,0,1.05.01,1.58q-.02.36.34.36c2.44,0,4.89,0,7.33,0,.56,0,1.12-.02,1.68.03.04,0,.07-.01.08-.05,0-.09,0-.17-.01-.26,0-.05,0-.11,0-.16,0-3.22,0-6.45,0-9.67,0-.15,0-.3-.01-.45.02-.24-.15-.19-.28-.19-1.44,0-2.88,0-4.32,0-1.5,0-3.01,0-4.51,0-.29,0-.29,0-.29.27Z"/>
      <path class="cls-5" d="M223,34.8c.61,0,1.23,0,1.84,0h0c.31,0,.62,0,.94,0,.31,0,.62,0,.94,0,.69-.03,1.33-.75,1.29-1.44-.01-.19-.02-.39-.03-.58-.03-.71-.65-1.34-1.36-1.34-1.19-.01-2.39,0-3.58,0-.28,0-.3.02-.3.29,0,.94,0,1.87,0,2.81,0,.26,0,.27.27.27Z"/>
      <path class="cls-5" d="M156.24,63.91c0-5.55,0-11.09,0-16.64,0-.29,0-.58.01-.87,0-.15-.05-.25-.22-.24-.15,0-.3,0-.45,0-.17,0-.23.07-.22.23.01.32,0,.65,0,.97,0,5.96,0,11.91,0,17.87,0,.12-.02.24.06.34,0,.03.01.05.05.04.22.04.44.03.66,0,.04,0,.06,0,.06-.04.1-.1.06-.22.06-.34,0-.44,0-.88,0-1.32Z"/>
      <path class="cls-5" d="M154.84,55.43c-.98,0-1.96,0-2.94,0-.26,0-.27.01-.27.27,0,1.67,0,3.34,0,5.01,0,.4,0,.4.43.37.9.04,1.8.01,2.7.02.33,0,.33,0,.34-.33,0-1.52,0-3.03,0-4.55,0-.2,0-.41-.01-.61.04-.23-.13-.18-.25-.18Z"/>
      <path class="cls-5" d="M181.64,31.95c-.14-.01-.28-.01-.42-.03-1.83-.18-3.66-.36-5.49-.55-.42-.04-.83-.09-1.25-.13-.11-.01-.26-.07-.31,0-.07.1.06.21.11.32.07.13.15.26.23.39.86,1.37,2.12,2.06,3.47,2.12,1.24,0,2.12-.29,2.9-.89.35-.27.65-.59.92-.94.05-.07.13-.14.1-.23-.04-.12-.17-.07-.25-.08Z"/>
      <path class="cls-5" d="M219.06,34.85c.17.01.23-.06.23-.23,0-.35,0-.71,0-1.07,0-.35,0-.35-.37-.35-1.14,0-2.28,0-3.42,0-.61,0-1.23,0-1.84,0-.12,0-.25,0-.24.18.02.47-.02.95.02,1.42,0,.03,0,.04.04.03.56.05,1.12.01,1.68,0,1.14.02,2.28.02,3.42,0,.16,0,.32.01.48.02Z"/>
      <path class="cls-5" d="M212.96,33.18c-.22,0-.43-.04-.64-.06-1.27-.12-2.55-.23-3.82-.33-1.12-.09-2.25-.2-3.37-.32-1.38-.15-2.76-.27-4.14-.4-.95-.09-1.91-.15-2.86-.25-1.06-.11-2.12-.18-3.18-.28-.73-.06-1.46-.14-2.18-.21-.73-.07-1.45-.15-2.18-.22-.61-.06-1.22-.08-1.83-.16-.63-.08-1.26-.11-1.89-.18-.59-.06-1.18-.09-1.77-.15-.95-.08-1.91-.17-2.86-.25-.78-.07-1.56-.13-2.34-.21-.97-.09-1.94-.2-2.92-.3-.77-.07-1.54-.12-2.31-.21-.84-.1-1.69-.14-2.54-.23-.84-.09-1.69-.14-2.54-.22-.88-.08-1.75-.17-2.63-.25-.04-.06-.07-.06-.11,0-.26-.04-.51-.05-.77-.06-.14,0-.2.06-.19.19.01.29.02.58.03.87,0,.12.06.18.18.19.16.02.32.04.48.05.77.07,1.54.14,2.31.22,1.27.13,2.54.29,3.81.42,1.21.12,2.42.21,3.62.34,1.75.19,3.5.36,5.26.53.06.06.12.05.19.03.33.03.66.05,1,.08.77.08,1.54.16,2.31.23.73.07,1.45.16,2.18.21.63.04,1.26.12,1.89.18.76.07,1.52.15,2.28.22.93.09,1.86.19,2.79.29.68.07,1.37.15,2.05.22.61.06,1.22.11,1.83.17.72.07,1.43.15,2.15.21.81.08,1.63.14,2.44.22,1.02.1,2.03.21,3.04.31.6.06,1.2.12,1.8.18.6.06,1.2.15,1.79.2.82.07,1.65.14,2.47.23.38.04.77.07,1.16.1.14.01.22-.03.22-.19,0-.4,0-.8,0-1.2,0-.15-.06-.22-.21-.23Z"/>
      <path class="cls-5" d="M171.05,30.91c-.07-.05-.14-.05-.21-.02-.36-.04-.72-.08-1.08-.11-.04-.04-.08-.05-.13,0-.41-.04-.82-.08-1.23-.12-.04-.04-.08-.05-.13,0-.72-.07-1.43-.14-2.15-.2-.23-.02-.24,0-.23.22.02.48.14.93.37,1.36.75,1.45,2.5,1.98,3.89,1.16.64-.38,1.08-.94,1.31-1.66.19-.58.2-.58-.4-.62Z"/>
      <path class="cls-5" d="M222.18,34.8c.29,0,.29,0,.29-.32v-1.74h0c0-.52,0-1.03,0-1.55,0-.62.09-.54-.55-.55-.36,0-.36,0-.36.35,0,1.06,0,2.13,0,3.19,0,.66-.15.61.62.61Z"/>
      <path class="cls-5" d="M246.87,62.24c0-3.03,0-6.05,0-9.08,0-2.23,0-4.46,0-6.69,0-.32,0-.32-.32-.3-.09,0-.17-.01-.26-.01-4.09,0-8.19,0-12.28,0-.77,0-1.55-.03-2.32.02-.05,0-.11-.01-.16-.02q-.3,0-.3.3v.06c0,5.3,0,10.6,0,15.9,0,.14,0,.28,0,.42,0,.13.08.16.2.13.09,0,.17.02.26.02,3.35,0,6.71,0,10.06,0,1.54,0,3.07,0,4.61,0,.54,0,.54.02.49-.54,0-.08.01-.15.01-.23Z"/>
      <path class="cls-5" d="M229.71,47.31c-.17,0-.34,0-.52,0-2.28,0-4.56,0-6.84,0-.28,0-.29,0-.29.29,0,.46,0,.93,0,1.39,0,.32-.02.33-.32.33-2.19,0-4.39,0-6.58,0-.35,0-.36-.02-.36-.36,0-.53,0-1.06-.01-1.58-.02-.02-.04-.03-.05-.05-.18,0-.37,0-.55,0-12.4,0-24.8,0-37.2,0-.24,0-.47.01-.71.02-.05,0-.11-.02-.16-.02-.33-.01-.34-.01-.34.33,0,.32,0,.65,0,.97,0,4.24,0,8.49,0,12.73,0,.29,0,.29.31.29.56,0,1.12,0,1.68,0,.45,0,.9.03,1.35-.02.04,0,.06-.01.05-.05.03-.09.02-.17,0-.26.02-.52-.02-1.04.08-1.55.06-.04.07-.08.02-.13.35-2.11,1.32-3.87,3.01-5.2,1.25-.99,2.67-1.56,4.26-1.64,1.46-.08,2.84.24,4.11.98.07.04.14.1.23.11.29.21.57.41.86.63.17.13.33.27.47.44.03.04.07.09.13.06.06-.03.04-.09.05-.14,0-.05,0-.11,0-.16,0-.72,0-1.44-.01-2.16,0-.63-.01-1.27-.02-1.9,0-.09.02-.17.02-.26-.01-.17.07-.24.23-.24.05,0,.11,0,.16,0,.69,0,1.38,0,2.06,0,.23,0,.45,0,.68,0,.13,0,.2.06.2.19,0,.06,0,.13,0,.19,0,2.53,0,5.06,0,7.58,0,.3,0,.3.3.3.78,0,1.57,0,2.35,0,.09,0,.19,0,.27.01v-.16h5.74v.26c.1-.14.25-.1.39-.1.8,0,1.59,0,2.39,0,.32,0,.32,0,.32-.32,0-2.51,0-5.02,0-7.52,0-.09,0-.17,0-.26,0-.11.06-.16.15-.16.1,0,.19,0,.29,0,.79,0,1.59,0,2.39,0,.46,0,.45,0,.48.43,0,.02,0,.04.01.06,0,.05-.01.11-.01.16,0,1.39,0,2.78,0,4.18.03.11.08.06.12,0,.2-.19.4-.37.6-.56.07-.05.14-.09.21-.14.69-.47,1.41-.89,2.22-1.15,1.01-.32,2.05-.44,3.1-.3h.03s.03,0,.03,0c.36.01.71.08,1.05.18,2.29.68,3.95,2.12,5.02,4.24v.03c.05.09.09.19.13.28,0,.02,0,.03.01.05.04.09.08.18.12.27,0,.02,0,.04.02.05.01.03.03.07.04.1v.02c.09.21.17.43.21.65,0,0,0,.02,0,.02,0,.02.01.03.02.04.08.28.14.56.17.85,0,.02,0,.04,0,.05.04.22.06.44.08.66.02.25-.01.51.04.76-.06.15-.04.31-.04.46-.01.03,0,.05.04.06.13,0,.26.02.39.02,1.7,0,3.4,0,5.09,0q.46,0,.41-.46c0-.06.01-.13.01-.19,0-4.46,0-8.92,0-13.38,0-.03,0-.06,0-.1,0-.14-.06-.2-.2-.19Z"/>
      <path class="cls-5" d="M215.35,49.06c.16,0,.32-.01.48-.01,1.9,0,3.81.01,5.71.02.28,0,.28,0,.29-.29,0-.4,0-.8,0-1.19,0-.26,0-.26-.28-.26-1.03,0-2.06,0-3.1,0h0c-1.04,0-2.09,0-3.13,0-.28,0-.29,0-.29.29,0,.39,0,.78,0,1.16,0,.27.05.3.3.29Z"/>
      <path class="cls-5" d="M157.23,45.88c.78,0,1.57,0,2.35,0,.07,0,.15.01.22-.03.08-.03.08-.1.08-.16,0-.54.02-1.07,0-1.61-.03-.78-.56-1.34-1.35-1.43-.56-.06-1.29.23-1.5,1-.02.04-.04.09-.07.13-.01.02-.02.03,0,.05-.01.58-.03,1.16-.03,1.74,0,.29.01.31.31.31Z"/>
      <path class="cls-5" d="M232.9,45.86c4.33,0,8.65,0,12.98,0,.14,0,.28,0,.42-.01.09,0,.17.01.26.01.32,0,.32,0,.32-.31,0-1.91,0-3.83,0-5.74,0-.37-.02-.38-.39-.31-.3-.06-.6,0-.9,0-3.5-.01-6.99.02-10.49-.02-.42,0-.44,0-.57.41-.64,1.86-1.28,3.73-1.92,5.59q-.14.41.29.41Z"/>
      <path class="cls-5" d="M230.99,46.47c0-.3,0-.3-.3-.3-4.91,0-9.82,0-14.72,0-5.27,0-10.55,0-15.82,0-1.71,0-3.42,0-5.13,0-.05-.05-.11-.06-.17-.06h-1.59c-.06,0-.13,0-.17.06-.63,0-1.27,0-1.9,0-5.02,0-10.03,0-15.05,0-.34,0-.35,0-.34.33.01.64-.06.53.53.53,18.04,0,36.08,0,54.12.01.66,0,.55.08.57-.57Z"/>
      <path class="cls-5" d="M230.37,47.31c-.15,0-.21.06-.21.21,0,.24,0,.47,0,.71,0,4.75,0,9.5,0,14.25q0,.54.53.52c.3-.01.3-.01.3-.31v-7.5h0c0-2.43,0-4.87,0-7.3,0-.65.12-.56-.62-.58Z"/>
      <path class="cls-5" d="M176.38,45.71c-.03-.46,0-.93-.01-1.39,0-.15-.1-.17-.22-.15-.02,0-.04,0-.06,0-5.18,0-10.36,0-15.54,0-.08,0-.15,0-.23,0-.13,0-.2.05-.19.19.02.39-.01.77.03,1.16-.04.35-.02.38.32.37.18,0,.37-.01.55-.01,3.72,0,7.44,0,11.16,0,1.3,0,2.6,0,3.9.03.15,0,.3.01.29-.19Z"/>
      <path class="cls-5" d="M195.46,51.19c0-.19,0-.39,0-.58,0-.17-.08-.23-.24-.23-.78,0-1.57,0-2.35,0-.19,0-.25.08-.24.26,0,.18,0,.37,0,.55v4.04c-.03.13.05.23.13.32.64.74,1.12,1.58,1.43,2.51.05.14.11.28.23.38.29.24.58.49.87.72.12.1.17.07.17-.08,0-.36,0-.71-.01-1.07,0-.1.01-.19.01-.29,0-2.17,0-4.35,0-6.52Z"/>
      <path class="cls-5" d="M198.79,61.38c0,.26.01.27.31.27,1.68,0,3.36,0,5.04,0,.2,0,.24-.07.23-.24,0-.91-.01-1.81-.02-2.72h-5.56c0,.9.02,1.79,0,2.69Z"/>
      <path class="cls-5" d="M175.05,46.17s-.04,0-.06.01c-.13,0-.26-.01-.39-.01-4.85,0-9.69,0-14.54,0-1.05,0-2.11,0-3.16.01-.03,0-.06-.02-.1-.02-.28,0-.29,0-.29.29,0,.22,0,.43,0,.65,0,5.47,0,10.95,0,16.42,0,.16,0,.32,0,.48,0,.14.08.22.22.21.2,0,.41,0,.61-.04.1,0,.19.01.29.01,5.85,0,11.7-.04,17.55.03.29,0,.3-.01.3-.32,0-.86,0-1.72.01-2.58,0-.21,0-.43-.01-.64,0-.23.02-.45.02-.68,0-4.46,0-8.92,0-13.37,0-.46,0-.46-.46-.44Z"/>
      <path class="cls-5" d="M193.98,58.2c-.33-1-.85-1.89-1.55-2.66-1.75-1.9-3.91-2.71-6.48-2.39-1.89.23-3.44,1.12-4.66,2.57-1.27,1.51-1.88,3.27-1.86,5.24,0,.36.01.71.06,1.06.26,1.76,1,3.29,2.26,4.55,1.72,1.72,3.81,2.41,6.21,2.1,1.6-.21,2.97-.92,4.11-2.06.64-.65,1.18-1.37,1.57-2.2.12-.26.29-.47.54-.62.35-.21.7-.42,1.05-.63.49-.29,1-.55,1.45-.9.26-.2.38-.47.39-.81,0-.44-.25-.72-.55-.97-.71-.58-1.42-1.15-2.14-1.72-.19-.15-.33-.32-.41-.56Z"/>
      <path class="cls-5" d="M207.72,57.57c0,.44,0,.88,0,1.32,0,.1-.06.25.05.29.1.04.18-.09.26-.16.19-.15.38-.32.58-.47.21-.16.34-.35.37-.61.29-.67.63-1.32,1.03-1.94.13-.16.25-.32.39-.47.11-.12.14-.26.13-.41-.06-.57-.04-1.14-.04-1.71,0-.82,0-1.63,0-2.45.05-.09.03-.19.03-.29,0-.26-.04-.29-.3-.29-.74,0-1.48,0-2.23,0-.25,0-.27,0-.27.25,0,.82.02,1.64.03,2.45,0,.1-.01.19-.01.29,0,1.4,0,2.79,0,4.19Z"/>
      <path class="cls-5" d="M221.18,55c-1.49-1.35-3.24-1.98-5.24-1.93-.8.02-1.58.18-2.33.46-1.11.41-2.05,1.08-2.84,1.95-.73.8-1.27,1.71-1.61,2.73-.07.21-.19.37-.37.51-.77.62-1.54,1.24-2.31,1.87-.57.47-.56,1.25.04,1.68.3.21.61.4.92.59.54.33,1.09.65,1.63.98.16.1.27.23.36.4.22.44.47.87.76,1.27,1.48,2.11,3.52,3.15,6.08,3.21.29.02.58-.03.87-.06,1.13-.12,2.16-.5,3.09-1.14,1.18-.8,2.08-1.85,2.71-3.14.72-1.48.95-3.04.71-4.65-.27-1.85-1.06-3.47-2.46-4.75Z"/>
      <path class="cls-1" d="M247.52,39.45c.15,0,.3.04.45-.02,0-.14.02-.26-.19-.23-.08.01-.17-.01-.25-.02-.74.04-1.48,0-2.22,0-3.51,0-7.02,0-10.52,0-.3,0-.31,0-.41.3-.4,1.2-.8,2.41-1.21,3.61-.27.82-.56,1.63-.83,2.44q-.12.36-.49.36s-.04,0-.06,0c-.54,0-.53,0-.53-.54,0-3.36,0-6.72,0-10.08,0-.06,0-.13,0-.19,0-.16-.06-.23-.23-.23-.37,0-.73,0-1.1,0-.74,0-1.48,0-2.23,0-.06,0-.14.03-.18-.03-.05-.08.05-.11.09-.14.83-.63.76-2.11.36-2.73-.39-.59-.94-.81-1.62-.81-1.1,0-2.19,0-3.29,0q-.32,0-.32-.31c0-.09,0-.17,0-.26,0-.15-.05-.21-.2-.21-.31,0-.62,0-.94,0-.25,0-.25,0-.25.25,0,.53-.01,1.06-.01,1.58,0,3.76.02,7.52.02,11.28,0,.79.02,1.57-.03,2.36,0,.05-.03.06-.08.05-.5,0-.99,0-1.48,0-.24,0-.25-.02-.25-.26,0-.16,0-.32,0-.48,0-3.91,0-7.82,0-11.73,0-.51.07-.48-.49-.48-1.64,0-3.27-.02-4.91,0-.97.02-1.93-.1-2.9-.18-1.53-.13-3.06-.29-4.59-.43-1.12-.1-2.25-.2-3.38-.3-1.25-.11-2.51-.23-3.76-.35-1.32-.12-2.63-.25-3.95-.37-.07.06-.13.04-.19-.01-.88-.08-1.75-.16-2.62-.24-.08.04-.15.04-.22-.02-.79-.07-1.59-.14-2.38-.22-1.61-.15-3.21-.3-4.82-.45-1.18-.11-2.36-.21-3.53-.32-1.11-.1-2.23-.21-3.34-.31-.85-.08-1.69-.14-2.54-.22-1.22-.11-2.44-.24-3.66-.35-1.06-.1-2.12-.22-3.18-.3-1.04-.08-2.08-.19-3.12-.28-.27-.02-.28-.01-.28.28,0,.55.03,1.1.02,1.65-.01.55.12,1.07.36,1.56.91,1.85,3.3,2.34,4.83.84.54-.53.83-1.17.96-1.89.01-.05.04-.06.08-.04.13.02.26.04.38.06.15,0,.3-.03.44.05.29.01.58.03.87.05.2.02.3.11.37.29.2.48.47.92.83,1.3,1.31,1.41,2.89,1.94,4.76,1.4,1.07-.31,1.91-.97,2.52-1.9.11-.17.22-.21.42-.19.51.07,1.03.1,1.54.15.05-.03.09-.03.13.01.65.07,1.3.13,1.96.2.95.1,1.9.19,2.85.29.76.08,1.52.15,2.28.23,1.05.1,2.1.2,3.14.3.69.07,1.39.14,2.08.21.99.1,1.99.2,2.98.3,1.18.12,2.35.24,3.53.36,1,.1,2.01.19,3.02.29.67.07,1.35.15,2.02.21,1.2.1,2.4.23,3.59.36.03-.05.09-.03.13-.04.08-.07.11-.04.12.05.15.02.29.03.44.05.05-.04.1-.04.15.02.57.06,1.14.11,1.71.09.32,0,.65,0,.97,0,.19,0,.25.07.24.25-.01.23,0,.45,0,.68,0,.19.07.25.25.24.23,0,.45,0,.68,0,.14,0,.19.06.19.19,0,.22-.03.44,0,.65.05.34-.09.57-.33.79-.56.52-1.11,1.05-1.66,1.58-.81.78-1.62,1.57-2.43,2.36-.05.04-.09.11-.15.12-.23.06-.24.23-.23.42,0,.43,0,.86,0,1.29,0,.16-.05.25-.23.23-.05,0-.11,0-.16,0-2.18,0-4.37,0-6.55,0-.33,0-.34,0-.34-.34,0-.41.03-.82.04-1.23,0-.3-.02-.32-.31-.32-1.22,0-2.43,0-3.65,0-.25,0-.27.02-.28.28,0,.44,0,.88,0,1.33,0,.28,0,.28-.28.28-1.18,0-2.37,0-3.55,0-.26,0-.27,0-.27.27,0,.5,0,.99,0,1.49,0,.18-.05.24-.24.24-.54-.02-1.08-.01-1.61-.02-.81,0-1.61,0-2.42,0-.25,0-.25-.01-.25-.26,0-.43,0-.86,0-1.29,0-.42,0-.43-.42-.43-1.55,0-3.1,0-4.65,0-.12,0-.24-.01-.35-.02-.04,0-.06-.01-.05-.05,0-.06-.01-.13-.01-.19,0-.46,0-.93,0-1.39,0-.18-.06-.25-.24-.25-.28,0-.56,0-.84,0-.94,0-1.87,0-2.81,0-.33,0-.33,0-.33.34,0,.44,0,.88,0,1.32,0,.18-.06.26-.24.24-.04,0-.09,0-.13,0-1.74,0-3.48,0-5.23,0-1.96,0-3.92,0-5.87,0-.28,0-.28,0-.28-.29,0-.45,0-.9,0-1.36,0-.16-.03-.25-.23-.26-1.23-.02-2.45-.02-3.68,0-.31,0-.31.02-.31.34,0,.44.03.88,0,1.32,0,.17-.06.26-.25.24-.05,0-.11,0-.16,0-1.58,0-3.16,0-4.74,0-.21,0-.47.09-.63-.05-.15-.13-.13-.4-.19-.6-.15-.17-.3-.34-.41-.54-.09-.03-.17-.07-.21-.16-.14-.04-.28-.09-.42-.13-.07.04-.12.02-.17-.03-.25-.05-.49-.04-.74,0-.04.06-.1.08-.17.05-.1.03-.2.05-.3.08-.05.09-.16.07-.22.14,0,.05-.04.08-.09.07-.03.06-.08.11-.14.14,0,.06-.03.08-.08.09-.03.06-.04.14-.12.15-.13.39-.24.78-.23,1.2.02.43,0,.86.01,1.29,0,.27,0,.29-.29.29-.34,0-.69,0-1.03-.01-.18,0-.25.06-.24.24,0,.43,0,.86,0,1.29,0,2.48,0,4.96,0,7.44,0,.29,0,.29-.31.29-.92,0-1.83,0-2.74,0-.14,0-.28,0-.42,0-.12,0-.19.04-.18.16,0,.05,0,.11,0,.16,0,1.78,0,3.56,0,5.34q0,.52.51.52c.95,0,1.89,0,2.84,0,.3,0,.3,0,.3.3,0,1.1,0,2.2,0,3.3,0,.22-.01.43,0,.65,0,.25.01.25.25.26.26,0,.52.01.77,0,.34,0,.35-.02.35-.37,0-.28,0-.56-.01-.84,0-.13.05-.18.17-.18.2,0,.41,0,.61,0,5.13,0,10.27,0,15.4,0,.92,0,1.83,0,2.74,0,.35,0,.36-.01.36-.37,0-.64,0-1.27,0-1.91,0-.24,0-.25.25-.25.98,0,1.96,0,2.94,0,.29,0,.29,0,.34.3.21,1.24.63,2.39,1.38,3.41,1.58,2.17,3.67,3.36,6.38,3.36,1.33,0,2.56-.39,3.71-1.06,1.41-.84,2.45-2.02,3.14-3.51.08-.17.19-.3.36-.4.28-.16.56-.32.82-.51.31-.22.64-.33,1.03-.28.15.02.3,0,.45,0v-.22c-.14-.02-.3.02-.44-.04.06-.18.23-.22.37-.28.58-.28.89-.72.84-1.39-.02-.35-.19-.63-.46-.86-.3-.25-.59-.5-.9-.73-.21-.16-.33-.33-.27-.6,0-.02,0-.04,0-.06q.01-.4.39-.4c.72,0,1.44,0,2.16,0,.26,0,.27,0,.27.27,0,1.23.01,2.45.02,3.68,0,.41,0,.41-.41.4-.05,0-.11,0-.16,0,0,.07,0,.15,0,.22.19,0,.39,0,.58.02.16,0,.21-.07.21-.21,0-.29,0-.58,0-.87,0-.24.01-.25.25-.25,1.71.03,3.42.03,5.12,0,.22,0,.23,0,.23.23,0,.29,0,.58,0,.87,0,.13.02.24.19.22.01-.09-.02-.19.08-.26-.05-.19-.02-.39-.02-.58,0-1.15,0-2.3,0-3.46,0-.29,0-.3.3-.3.74,0,1.48,0,2.23,0,.31,0,.28,0,.31.3.04.37-.08.63-.39.84-.29.2-.55.44-.82.68-.67.59-.59,1.62.17,2.1.2.13.41.24.61.36.1.09.03.21.05.32.31-.01.59.03.86.21.27.19.56.36.85.52.23.13.39.31.51.56.59,1.24,1.43,2.28,2.56,3.06,1.6,1.11,3.36,1.64,5.31,1.35,2.67-.4,4.6-1.86,5.87-4.22.44-.81.71-1.68.83-2.6.02-.17.07-.22.24-.2.21.02.43.01.65.01,1.64,0,3.27,0,4.91,0,.25,0,.25,0,.26.25,0,.29.02.58.01.87,0,.17.07.22.23.22.68,0,1.36,0,2.03,0,4.82,0,9.64,0,14.47,0,.44,0,.45,0,.45-.45,0-6.22,0-12.44,0-18.66,0-.63,0-.63.63-.57.01,0,.02,0,.03,0,.17,0,.2-.11.18-.25-.13-.04-.26,0-.38-.01-.43,0-.43,0-.43-.42,0-.35,0-.71,0-1.06,0-.68,0-1.35,0-2.03,0-.36,0-.36.38-.36ZM155.09,60.77c0,.33,0,.34-.34.33-.9,0-1.8.02-2.7-.02-.42.03-.43.03-.43-.37,0-1.67,0-3.34,0-5.01,0-.26.02-.27.27-.27.98,0,1.96,0,2.94,0,.12,0,.29-.05.25.18,0,.2.01.41.01.61,0,1.52,0,3.03,0,4.55ZM156.19,65.57s-.02.05-.06.04c-.22.02-.44.03-.66,0-.03.01-.05,0-.05-.04-.09-.1-.06-.22-.06-.34,0-5.96,0-11.91,0-17.87,0-.32,0-.65,0-.97,0-.17.06-.24.22-.23.15,0,.3,0,.45,0,.17,0,.23.08.22.24,0,.29-.01.58-.01.87,0,5.55,0,11.09,0,16.64,0,.44,0,.88,0,1.32,0,.11.04.24-.06.34ZM222.73,31.71c0-.27.02-.29.3-.29,1.19,0,2.39,0,3.58,0,.71,0,1.33.63,1.36,1.34,0,.19.02.39.03.58.04.69-.6,1.41-1.29,1.44-.31.01-.62,0-.94,0-.31,0-.62,0-.94,0h0c-.61,0-1.23,0-1.84,0-.26,0-.27-.01-.27-.27,0-.94,0-1.87,0-2.81ZM226.37,35.11c1.44,0,2.88,0,4.32,0,.13,0,.3-.04.28.19,0,.15.01.3.01.45,0,3.22,0,6.45,0,9.67,0,.05,0,.11,0,.16,0,.09,0,.17.01.26,0,.04-.03.06-.08.05-.56-.04-1.12-.03-1.68-.03-2.44,0-4.89,0-7.33,0q-.36,0-.34-.36c0-.53-.01-1.05-.01-1.58,0-2.77,0-5.54,0-8.32,0-.09,0-.17.01-.26,0-.26,0-.27.29-.27,1.5,0,3.01,0,4.51,0ZM221.56,31c0-.35,0-.36.36-.35.64.01.54-.07.55.55,0,.52,0,1.03,0,1.55h0v1.74c0,.31,0,.32-.29.32-.76,0-.61.05-.62-.61,0-1.06,0-2.13,0-3.19ZM171.44,31.53c-.23.72-.67,1.28-1.31,1.66-1.38.82-3.14.28-3.89-1.16-.22-.43-.35-.88-.37-1.36,0-.23,0-.24.23-.22.72.06,1.43.13,2.15.2.05-.04.09-.03.13,0,.41.04.82.08,1.23.12.05-.04.09-.03.13,0,.36.04.72.07,1.08.11.07-.03.15-.03.21.02.59.04.59.03.4.62ZM181.79,32.26c-.27.35-.57.67-.92.94-.78.6-1.66.89-2.9.89-1.35-.07-2.6-.75-3.47-2.12-.08-.13-.16-.26-.23-.39-.05-.1-.18-.21-.11-.32.05-.08.2-.02.31,0,.42.04.83.09,1.25.13,1.83.18,3.66.36,5.49.55.14.01.28.01.42.03.09,0,.21-.04.25.08.03.09-.05.16-.1.23ZM212.95,34.79c-.39-.03-.77-.06-1.16-.1-.82-.09-1.65-.17-2.47-.23-.6-.05-1.2-.13-1.79-.2-.6-.06-1.2-.12-1.8-.18-1.01-.1-2.03-.21-3.04-.31-.81-.08-1.63-.14-2.44-.22-.72-.07-1.43-.15-2.15-.21-.61-.06-1.22-.11-1.83-.17-.68-.07-1.37-.14-2.05-.22-.93-.1-1.86-.2-2.79-.29-.76-.08-1.52-.16-2.28-.22-.63-.05-1.26-.13-1.89-.18-.73-.05-1.46-.14-2.18-.21-.77-.08-1.54-.16-2.31-.23-.33-.03-.66-.06-1-.08-.07.02-.14.03-.19-.03-1.75-.18-3.51-.35-5.26-.53-1.21-.13-2.42-.21-3.62-.34-1.27-.13-2.54-.28-3.81-.42-.77-.08-1.54-.15-2.31-.22-.16-.02-.32-.04-.48-.05-.11-.01-.17-.07-.18-.19,0-.29-.02-.58-.03-.87,0-.14.06-.2.19-.19.26,0,.52.02.77.06.04-.05.08-.05.11,0,.88.08,1.75.17,2.63.25.85.08,1.69.13,2.54.22.84.09,1.69.13,2.54.23.77.09,1.54.14,2.31.21.97.09,1.94.2,2.92.3.78.08,1.56.14,2.34.21.95.08,1.9.17,2.86.25.59.05,1.18.08,1.77.15.63.07,1.26.09,1.89.18.61.08,1.22.1,1.83.16.73.07,1.45.15,2.18.22.73.07,1.45.14,2.18.21,1.06.09,2.12.17,3.18.28.95.1,1.91.16,2.86.25,1.38.13,2.76.25,4.14.4,1.12.12,2.25.23,3.37.32,1.27.1,2.55.21,3.82.33.21.02.43.05.64.06.14,0,.21.08.21.23,0,.4,0,.8,0,1.2,0,.17-.08.21-.22.19ZM215.15,34.84c-.56,0-1.12.04-1.68,0-.03,0-.04,0-.04-.03-.05-.47,0-.94-.02-1.42,0-.18.12-.18.24-.18.61,0,1.23,0,1.84,0,1.14,0,2.28,0,3.42,0,.36,0,.37,0,.37.35,0,.35,0,.71,0,1.07,0,.16-.06.24-.23.23-.16-.01-.32-.02-.48-.02-1.14.03-2.28.03-3.42,0ZM215.93,36.02c-.36,0-.36,0-.36-.36,0-.55-.1-.54.53-.54.44,0,.88,0,1.32,0h0c.53,0,1.05,0,1.58,0,.24,0,.26.02.28.25.06.63.04.65-.58.65-.92,0-1.85,0-2.77,0ZM218.94,45.89c-.65-.02-1.29-.02-1.93-.01-.25,0-.27-.02-.27-.24,0-2.59,0-5.19-.01-7.78,0-.45.01-.9.01-1.36,0-.16.06-.23.23-.23.67.01,1.33.02,2,.02.31-.01.31-.01.31.28,0,2.15-.01,4.3-.02,6.45,0,.83,0,1.66-.01,2.48.05.37.04.39-.3.37ZM212.43,41.79c.63-.62,1.27-1.23,1.9-1.84.6-.58,1.21-1.17,1.81-1.75.02-.02.04-.05.07-.07.06-.04.11-.13.19-.08.06.04.02.12.02.18-.03,1.15-.02,2.31-.01,3.46,0,.29,0,.29-.29.29-.6,0-1.21,0-1.81,0-.6,0-1.21,0-1.81,0-.06,0-.14.03-.17-.05-.03-.08.05-.11.09-.15ZM212.08,42.24c.34.01.69.02,1.03.02,1,0,2-.01,3-.02.33,0,.34,0,.34.34,0,.36,0,.71,0,1.07,0,.24-.02.25-.26.26-.68,0-1.36,0-2.03,0h0c-.64,0-1.27,0-1.9,0-.35,0-.37-.02-.37-.36,0-.37,0-.73,0-1.1,0-.16.05-.22.2-.21ZM209.91,44.17c.67,0,1.33,0,2,0,1.41,0,2.82,0,4.23,0,.31,0,.33.01.32.33,0,.19.02.39-.03.58,0,.18.02.36.03.55,0,.25-.03.28-.27.28-1.94-.05-3.88-.01-5.82-.02-.16,0-.32,0-.48.01-.16,0-.24-.07-.2-.24,0-.41-.01-.82-.02-1.23,0-.25,0-.25.25-.26ZM200.76,42.26c.88,0,1.76,0,2.65,0,.18,0,.37-.01.55-.02.15,0,.22.06.22.21,0,.41,0,.82,0,1.23,0,.16-.07.22-.24.22-.55,0-1.1,0-1.65,0-.52,0-1.03,0-1.55,0-.3,0-.31,0-.3-.31.02-.35,0-.69,0-1.03,0-.3.01-.31.31-.3ZM196.36,44.36c-.02-.1-.01-.17.11-.18.06,0,.13,0,.19,0,4.14,0,8.28,0,12.42,0,.05,0,.11,0,.16,0,.12,0,.18.04.18.17,0,.46,0,.93,0,1.39,0,.12-.05.18-.18.17-.07,0-.15,0-.22-.03-.17.05-.34.01-.51.01-3.87,0-7.74,0-11.6,0-.05,0-.11,0-.16,0q-.42.02-.38-.42c-.02-.22-.02-.43,0-.65-.02-.15-.03-.3-.01-.45ZM182.12,43.68c.02-.39.01-.77,0-1.16,0-.24.01-.25.26-.25,1.05,0,2.11,0,3.16,0,.28,0,.29.02.29.29,0,.37,0,.73,0,1.1,0,.26,0,.26-.27.26-.54,0-1.08,0-1.61,0h0c-.53,0-1.05,0-1.58,0-.26,0-.27,0-.26-.24ZM176.83,44.17c.98.01,1.96.01,2.94.02.28-.03.56-.03.85,0,.47-.03.94-.02,1.41,0,.56-.03,1.12-.03,1.69,0,.84-.03,1.68-.03,2.52,0,.02-.01.04-.01.06,0,.58-.03,1.16-.03,1.75,0,.35-.03.69-.03,1.04,0,.32-.02.64-.02.96,0,.39-.02.77-.03,1.16,0,.09-.01.14.03.14.12,0,.1,0,.21,0,.31.02.11.02.22,0,.32,0,.25,0,.5.02.74,0,.17-.07.23-.23.22-.26-.01-.52-.02-.77-.02-4.19,0-8.37,0-12.56,0-.28,0-.56.01-.84.02-.29,0-.32-.02-.32-.3,0-.4,0-.8,0-1.2,0-.16.05-.23.22-.23ZM166.15,42.58c0-.29.02-.31.31-.31.8,0,1.59,0,2.39,0,.26,0,.52,0,.77-.01.25,0,.27,0,.27.24,0,.41,0,.82,0,1.23,0,.16-.06.2-.21.2-.55,0-1.1,0-1.65,0-.53,0-1.05,0-1.58,0-.29,0-.31-.01-.31-.31,0-.34,0-.69,0-1.03ZM156.96,43.83s0-.04,0-.05c.02-.04.04-.09.07-.13.21-.77.94-1.06,1.5-1,.79.09,1.32.65,1.35,1.43.02.54,0,1.07,0,1.61,0,.06,0,.13-.08.16-.07.04-.15.03-.22.03-.78,0-1.57,0-2.35,0-.3,0-.31-.02-.31-.31,0-.58.02-1.16.03-1.74ZM175.51,59.98c0,.23-.01.45-.02.68,0,.21.01.43.01.64,0,.86,0,1.72-.01,2.58,0,.31-.01.32-.3.32-5.85-.07-11.7-.02-17.55-.03-.1,0-.19,0-.29-.01-.2.05-.41.04-.61.04-.15,0-.22-.07-.22-.21,0-.16,0-.32,0-.48,0-5.47,0-10.95,0-16.42,0-.22,0-.43,0-.65,0-.28,0-.29.29-.29.03,0,.06.01.1.02,1.05,0,2.11-.01,3.16-.01,4.85,0,9.69,0,14.54,0,.13,0,.26,0,.39.01.02,0,.04-.01.06-.01.46-.02.46-.02.46.44,0,4.46,0,8.92,0,13.37ZM172.19,45.88c-3.72,0-7.44,0-11.16,0-.18,0-.37.01-.55.01-.34,0-.36-.02-.32-.37-.04-.39-.01-.77-.03-1.16,0-.14.06-.2.19-.19.08,0,.15,0,.23,0,5.18,0,10.36,0,15.54,0,.02,0,.04,0,.06,0,.12-.03.22,0,.22.15.01.46-.02.93.01,1.39.01.21-.14.2-.29.19-1.3-.03-2.6-.03-3.9-.03ZM196.54,60.47c.31.25.56.53.55.97,0,.34-.12.61-.39.81-.45.35-.96.61-1.45.9-.35.21-.7.43-1.05.63-.25.15-.42.36-.54.62-.39.83-.93,1.55-1.57,2.2-1.14,1.14-2.51,1.85-4.11,2.06-2.4.31-4.5-.38-6.21-2.1-1.25-1.26-2-2.78-2.26-4.55-.05-.35-.06-.71-.06-1.06-.02-1.97.59-3.73,1.86-5.24,1.22-1.45,2.77-2.34,4.66-2.57,2.56-.32,4.73.5,6.48,2.39.71.77,1.23,1.66,1.55,2.66.08.24.22.41.41.56.72.57,1.43,1.14,2.14,1.72ZM195.46,59.07c0,.16-.05.18-.17.08-.29-.24-.58-.48-.87-.72-.12-.1-.18-.24-.23-.38-.31-.93-.79-1.76-1.43-2.51-.08-.09-.16-.18-.13-.32v-4.04c0-.18,0-.37,0-.55,0-.17.05-.26.24-.26.78,0,1.57,0,2.35,0,.16,0,.24.06.24.23,0,.19,0,.39,0,.58,0,2.17,0,4.35,0,6.52,0,.1,0,.19-.01.29,0,.36.01.71.01,1.07ZM222.93,64.4c-.63,1.3-1.53,2.34-2.71,3.14-.93.63-1.96,1.02-3.09,1.14-.29.03-.58.08-.87.06-2.56-.05-4.6-1.1-6.08-3.21-.29-.41-.54-.83-.76-1.27-.09-.17-.2-.31-.36-.4-.54-.33-1.09-.65-1.63-.98-.31-.19-.63-.38-.92-.59-.6-.44-.61-1.22-.04-1.68.77-.62,1.53-1.25,2.31-1.87.18-.14.3-.3.37-.51.34-1.03.88-1.94,1.61-2.73.8-.87,1.73-1.55,2.84-1.95.75-.28,1.52-.44,2.33-.46,2.01-.06,3.76.57,5.24,1.93,1.41,1.28,2.2,2.89,2.46,4.75.23,1.61,0,3.17-.71,4.65ZM207.7,50.64c0-.24.01-.25.27-.25.74,0,1.48,0,2.23,0,.26,0,.3.04.3.29,0,.1.01.19-.03.29,0,.82,0,1.63,0,2.45,0,.57-.02,1.14.04,1.71.02.16-.02.29-.13.41-.14.15-.26.31-.39.47-.4.62-.74,1.26-1.03,1.94-.03.26-.17.46-.37.61-.2.15-.38.31-.58.47-.08.06-.16.2-.26.16-.11-.05-.05-.19-.05-.29,0-.44,0-.88,0-1.32,0-1.4,0-2.79,0-4.19,0-.1,0-.19.01-.29,0-.82-.02-1.64-.03-2.45ZM229.91,47.6c0,4.46,0,8.92,0,13.38,0,.06,0,.13-.01.19q.04.46-.41.46c-1.7,0-3.4,0-5.09,0-.13,0-.26-.01-.39-.02-.04,0-.05-.02-.04-.06,0-.15-.01-.31.04-.46-.06-.25-.02-.51-.04-.76-.02-.22-.04-.44-.08-.66-.01-.02-.01-.03,0-.05-.03-.29-.09-.57-.17-.85,0-.01-.01-.03-.02-.04,0,0,0-.02,0-.02-.04-.22-.12-.44-.2-.65v-.02s-.04-.07-.05-.1c-.02-.01-.02-.03-.02-.05-.04-.09-.08-.18-.12-.27-.01-.01-.02-.03-.01-.05-.04-.09-.08-.19-.12-.28v-.03c-1.08-2.13-2.74-3.57-5.03-4.24-.34-.1-.69-.17-1.05-.18h-.03s-.03,0-.03,0c-1.06-.14-2.09-.02-3.1.3-.81.26-1.52.67-2.22,1.15-.07.05-.14.09-.21.14-.2.19-.4.37-.6.56-.04.05-.09.1-.12,0,0-1.39,0-2.78,0-4.18,0-.05,0-.11.01-.16,0-.02-.01-.04-.01-.06-.03-.44-.03-.43-.48-.43-.8,0-1.59,0-2.39,0-.1,0-.19,0-.29,0-.1,0-.16.05-.15.16,0,.09,0,.17,0,.26,0,2.51,0,5.02,0,7.52,0,.32,0,.32-.32.32-.8,0-1.59,0-2.39,0-.14,0-.29-.03-.39.1v.18h-.02c0,.91,0,1.81.02,2.72,0,.17-.04.24-.23.24-1.68,0-3.36,0-5.04,0-.3,0-.32-.01-.31-.27.02-.9.01-1.79,0-2.69h-.16v-.27c-.09-.02-.18-.01-.27-.01-.78,0-1.57,0-2.35,0-.31,0-.3,0-.3-.3,0-2.53,0-5.06,0-7.58,0-.06,0-.13,0-.19,0-.13-.08-.19-.2-.19-.23,0-.45,0-.68,0-.69,0-1.38,0-2.06,0-.05,0-.11,0-.16,0-.16,0-.24.08-.23.24,0,.08,0,.17-.02.26,0,.63.01,1.27.02,1.9,0,.72,0,1.44.01,2.16,0,.05,0,.11,0,.16,0,.05.01.11-.05.14-.06.03-.1-.03-.13-.06-.14-.17-.3-.31-.47-.44-.28-.21-.57-.42-.86-.63-.09-.01-.15-.07-.23-.11-1.27-.74-2.65-1.06-4.11-.98-1.59.08-3.01.66-4.26,1.64-1.69,1.33-2.66,3.09-3.01,5.2.06.05.04.09-.02.13-.1.51-.06,1.03-.08,1.55.02.09.03.17,0,.26,0,.04,0,.06-.05.05-.45.04-.9.01-1.35.02-.56,0-1.12,0-1.68,0-.31,0-.31,0-.31-.29,0-4.24,0-8.49,0-12.73,0-.32,0-.65,0-.97,0-.35,0-.35.34-.33.05,0,.11.01.16.02.24,0,.47-.02.71-.02,12.4,0,24.8,0,37.2,0,.18,0,.37,0,.55,0,.02.02.03.03.05.05,0,.53.01,1.06.01,1.58,0,.35,0,.36.36.36,2.2,0,4.39,0,6.58,0,.31,0,.32-.02.32-.33,0-.46,0-.93,0-1.39,0-.28,0-.29.29-.29,2.28,0,4.56,0,6.84,0,.17,0,.34,0,.52,0,.13,0,.2.06.2.19,0,.03,0,.06,0,.1ZM215.04,47.61c0-.28,0-.29.29-.29,1.04,0,2.09,0,3.13,0h0c1.03,0,2.06,0,3.1,0,.27,0,.28,0,.28.26,0,.4,0,.8,0,1.19,0,.29-.01.29-.29.29-1.9,0-3.81-.01-5.71-.02-.16,0-.32,0-.48.01-.25,0-.3-.02-.3-.29,0-.39,0-.78,0-1.16ZM176.31,47.02c-.59,0-.52.11-.53-.53,0-.34,0-.33.34-.33,5.02,0,10.03,0,15.05,0,.64,0,1.27,0,1.9,0,.05-.06.11-.06.17-.06h1.59c.06,0,.13,0,.17.06,1.71,0,3.42,0,5.13,0,5.27,0,10.55,0,15.82,0,4.91,0,9.82,0,14.72,0,.3,0,.31,0,.3.3-.02.65.09.57-.57.57-18.04,0-36.08,0-54.12-.01ZM230.99,55.19h0v7.5c0,.3,0,.3-.3.31q-.53.02-.53-.52c0-4.75,0-9.5,0-14.25,0-.24,0-.47,0-.71,0-.15.06-.22.21-.21.74.02.62-.07.62.58,0,2.43,0,4.87,0,7.3ZM232.61,45.46c.64-1.86,1.28-3.73,1.92-5.59.14-.4.15-.41.57-.41,3.5.04,6.99,0,10.49.02.3,0,.6-.06.9,0,.37-.07.39-.06.39.31,0,1.91,0,3.83,0,5.74,0,.31,0,.32-.32.31-.09,0-.17,0-.26-.01-.14,0-.28.01-.42.01-4.33,0-8.65,0-12.98,0q-.43,0-.29-.41ZM246.37,63c-1.54,0-3.07,0-4.61,0-3.35,0-6.71,0-10.06,0-.09,0-.17-.01-.26-.02-.11.03-.19,0-.2-.13,0-.14,0-.28,0-.42,0-5.3,0-10.6,0-15.9v-.06q0-.3.3-.3c.05,0,.11.01.16.02.77-.04,1.55-.01,2.32-.02,4.09,0,8.19,0,12.28,0,.09,0,.17,0,.26.01.32-.02.32-.02.32.3,0,2.23,0,4.46,0,6.69,0,3.03,0,6.05,0,9.08,0,.08,0,.15-.01.23.06.56.06.54-.49.54Z"/>
      <path class="cls-7" d="M198.63,58.26v.16c.06.02.12.04.16.11,0,.05,0,.1,0,.16h5.56c0-.05,0-.11,0-.16,0,0,.01-.01.02-.02v-.26h-5.74Z"/>
      <path class="cls-7" d="M204.36,58.69h.02v-.18s-.01,0-.02.02c0,.05,0,.11,0,.16Z"/>
      <path class="cls-1" d="M198.63,58.42v.27h.16c0-.05,0-.1,0-.16-.05-.07-.1-.1-.16-.11Z"/>
    </g>
  </g>
  <g>
    <path class="cls-6" d="M228.93,95.62v25.76h-8.28v-34.24h13.34c1.68,6.85,3.37,13.71,5.06,20.59.16-.07.16-.2.19-.32.26-1.08.51-2.16.78-3.24.23-.96.48-1.92.72-2.88.26-1.08.48-2.17.78-3.24.27-.97.44-1.97.72-2.93.39-1.35.65-2.73,1.01-4.09.24-.9.5-1.79.66-2.71.06-.34.18-.66.25-.99.03-.17.12-.21.27-.21.37,0,.73,0,1.1,0,3.83,0,7.65,0,11.48,0,.17,0,.34-.02.5.03.06.34.05,34-.01,34.26h-8.22v-25.86c-.15.04-.15.15-.17.24-.45,1.83-.9,3.66-1.34,5.49-.75,3.08-1.5,6.17-2.25,9.25-.62,2.54-1.25,5.08-1.88,7.62-.24.97-.47,1.94-.7,2.92-.05.23-.12.37-.42.37-2.28-.01-4.57-.01-6.85,0-.25,0-.37-.05-.43-.34-.8-3.57-1.71-7.11-2.59-10.66-.35-1.43-.65-2.86-1.04-4.28-.27-.97-.45-1.96-.72-2.93-.43-1.55-.74-3.12-1.15-4.67-.24-.91-.44-1.84-.67-2.76-.01-.05-.04-.1-.05-.15-.02,0-.05,0-.07,0Z"/>
    <path class="cls-6" d="M188.19,95.72c-.22.86-.43,1.73-.65,2.59-1.06,4.31-2.11,8.61-3.17,12.92-.6,2.46-1.21,4.91-1.81,7.37-.21.85-.42,1.69-.61,2.54-.04.17-.09.27-.29.27-2.39,0-4.79,0-7.18,0-.02,0-.04-.01-.11-.03-2.09-8.57-4.19-17.16-6.28-25.75-.02,0-.03,0-.05,0v25.77h-8.28v-34.23c.1-.08.22-.05.34-.05,4.19,0,8.39,0,12.58-.01.25,0,.4.04.46.32.41,1.73.83,3.45,1.25,5.18.79,3.23,1.59,6.46,2.39,9.68.43,1.73.85,3.46,1.28,5.2.02.08.03.17.16.31,1.63-6.93,3.36-13.77,5.05-20.65h13.27v34.25h-8.25v-25.65s-.07,0-.11-.01Z"/>
    <path class="cls-6" d="M142.46,87.13h10.1v34.26h-10.1v-34.26Z"/>
    <path class="cls-6" d="M213.54,87.14v34.21c-.08.08-.16.06-.23.06-3.14,0-6.27,0-9.41,0-.49,0-.5,0-.5-.51,0-10.57,0-21.14,0-31.72,0-.67,0-1.33,0-2.04h10.13Z"/>
  </g>
  <path class="cls-1" d="M167.17,83.19h-2.82c-1.17-1.92-2.37-3.89-3.58-5.86-.04.01-.09.02-.13.03v5.81h-2.81v-11.01h2.78c1.19,1.96,2.4,3.93,3.61,5.91.05,0,.1-.01.14-.02v-5.88h2.81v11.02Z"/>
  <path class="cls-1" d="M214.76,83.2h-3.04v-10.97s.03-.06.07-.06c2.04,0,4.09-.07,6.13.05,2.19.13,2.87,2.01,2.59,3.67-.18,1.1-.8,1.88-1.86,2.29-.1.04-.21.05-.25.18,1.72,1.15,1.97,3.17,2.99,4.84h-3.46c-.54-1.14-1.09-2.3-1.66-3.45-.29-.6-.66-1.13-1.52-1v4.45ZM214.77,76.63c.72.06,1.36.07,1.99-.11.53-.15.77-.54.76-1.06,0-.51-.2-.91-.77-1.03-.66-.15-1.31-.1-1.98-.06v2.26Z"/>
  <path class="cls-1" d="M169.41,72.13c1.94.08,3.86-.18,5.75.15,1.62.28,2.51,1.42,2.94,2.93.44,1.54.45,3.11.11,4.67-.45,2.06-1.84,3.2-4.1,3.33-1.54.09-3.1.02-4.69.02v-11.09ZM172.42,80.72c.29,0,.52,0,.76,0,1.54-.03,2.01-.49,2.17-2.03.07-.67.06-1.33-.01-1.99-.18-1.65-1.25-2.39-2.91-1.94v5.96Z"/>
  <path class="cls-1" d="M180.1,72.17h2.87c.17.23.1.48.1.71,0,1.98,0,3.97,0,5.95.01,1.45.86,2.22,2.14,1.98.86-.16,1.35-.83,1.35-1.93,0-1.98,0-3.97,0-5.95,0-.23,0-.47,0-.75h2.88c.11.07.1.21.1.34,0,2.26.01,4.53-.02,6.79-.02,1.09-.4,2.06-1.14,2.88-.49.54-1.09.9-1.81,1.05-1.2.25-2.41.21-3.59-.05-1.36-.31-2.18-1.26-2.59-2.55-.21-.65-.29-1.34-.29-2.04.02-1.92,0-3.84,0-5.76,0-.21,0-.42,0-.67Z"/>
  <path class="cls-1" d="M199.69,75.19c-.97.13-1.86.19-2.81.17-.18-.88-.68-1.43-1.64-1.36-.49.04-.9.23-.96.77-.06.51.3.73.71.85.84.26,1.7.46,2.53.76,1.96.7,2.75,1.97,2.47,3.91-.24,1.65-1.63,2.91-3.44,3.05-.79.06-1.59.09-2.38-.08-1.9-.39-2.93-1.6-3.05-3.69.92-.07,1.85-.14,2.78-.21.1.32.17.58.27.84.35.89,1.21,1.28,2.1.98.47-.16.76-.49.81-.98.05-.48-.19-.85-.6-1.05-.38-.19-.79-.32-1.21-.44-.79-.22-1.57-.44-2.29-.86-1.2-.69-1.68-1.75-1.51-3.1.15-1.23.85-2.08,2-2.47,1.4-.48,2.85-.48,4.24.01,1.31.46,1.81,1.54,1.96,2.89Z"/>
  <path class="cls-1" d="M246.63,75.19c-.91.15-1.83.18-2.8.18-.17-.9-.68-1.42-1.64-1.36-.49.03-.89.23-.95.78-.06.51.29.72.71.85.84.25,1.7.46,2.53.76,1.97.71,2.78,2.05,2.46,3.97-.29,1.71-1.73,2.92-3.61,3.01-.71.03-1.42.06-2.12-.07-1.96-.39-2.98-1.57-3.12-3.71.92-.07,1.85-.14,2.73-.21.24.25.19.54.29.78.35.9,1.24,1.34,2.14,1.04.44-.15.73-.44.8-.92.07-.48-.14-.84-.53-1.09-.38-.25-.82-.36-1.26-.47-.73-.19-1.45-.4-2.12-.76-1.29-.7-1.84-1.73-1.68-3.19.13-1.2,1.03-2.24,2.32-2.57,1.18-.3,2.39-.3,3.58,0,1.39.35,2.13,1.35,2.3,3.01Z"/>
  <path class="cls-1" d="M230.51,72.16h3.36c1.22,3.66,2.43,7.32,3.66,11.03h-3.1c-.3-.53-.3-1.18-.58-1.78h-3.43c-.17.59-.34,1.18-.52,1.79h-3.07c1.23-3.69,2.45-7.35,3.68-11.04ZM232.22,75.23c-.05,0-.1,0-.15,0-.33,1.23-.66,2.46-1.01,3.74h2.16c-.34-1.28-.67-2.51-1-3.74Z"/>
  <path class="cls-1" d="M210.17,72.19v2.65h-3.11v8.35h-3.02v-8.3h-3.09v-2.69h9.22Z"/>
  <path class="cls-1" d="M222.55,83.2v-11.01h2.95v11.01h-2.95Z"/>
  <path class="cls-1" d="M155.45,83.2h-2.93v-11.04h2.93v11.04Z"/>
</svg>