<?xml version="1.0" encoding="UTF-8"?>
<svg id="Capa_1" data-name="Capa 1" xmlns="http://www.w3.org/2000/svg" viewBox="0 0 400 150">
  <defs>
    <style>
      .cls-1 {
        fill: #415a24;
      }

      .cls-2 {
        fill: #635a1a;
      }

      .cls-3 {
        fill: #b09970;
      }

      .cls-4 {
        fill: #3c3c3b;
      }
    </style>
  </defs>
  <path class="cls-2" d="M159.66,107.4c-.81,0-1.57,0-2.34,0-1.05,0-2.09-.03-3.14.01-.46.02-.67-.16-.85-.57-.9-2.02-1.83-4.03-2.84-6-.38-.74-.78-1.46-1.2-2.18-.61-1.06-1.46-1.94-2.37-2.75-1.11-1-2.48-1.39-3.92-1.55-1.57-.18-3.14-.27-4.73-.25-1.35.02-2.69,0-4.04,0-.58,0-.6.02-.6.56.03,4.07.12,8.13.35,12.19.03.53.03.54-.48.54-1.62,0-3.25,0-4.87,0-.55,0-.56-.01-.52-.59.27-3.65.35-7.31.42-10.97.04-2.47-.03-4.94-.01-7.41.02-1.96-.03-3.92-.08-5.87-.05-1.91-.2-3.82-.32-5.74-.04-.63-.03-.66.59-.67,1.92-.01,3.84,0,5.77-.02,2.43-.03,4.87-.14,7.3-.1,2.03.03,4.05.14,6.06.48,1.74.29,3.39.86,4.88,1.84,1.89,1.24,2.76,3.01,2.69,5.26-.08,2.54-1.18,4.53-3.2,6.04-1.23.91-2.59,1.57-4.03,2.05-.22.07-.6.06-.58.37.02.25.37.22.59.28,2.46.7,4.3,2.2,5.67,4.32,1.34,2.08,2.51,4.26,3.67,6.44.64,1.2,1.26,2.41,1.89,3.63.09.18.24.35.24.66ZM133.57,86.31c0,1.73,0,2.96,0,4.2,0,.59,0,.6.61.6,1.6,0,3.2.02,4.8,0,2.56-.04,5.05-.38,7.45-1.36,1.19-.49,2.13-1.22,2.85-2.28,1.21-1.77.88-4.6-.72-6.03-.61-.54-1.3-.97-2.05-1.28-1.19-.49-2.45-.74-3.72-.9-1.85-.23-3.71-.13-5.57-.13-1.07,0-2.13.08-3.2.15-.62.04-.64.09-.62.69.08,2.27.2,4.55.17,6.33Z"/>
  <path class="cls-2" d="M81.98,107.39c-.02-.41.18-.7.32-1,.94-1.99,2.01-3.9,3.07-5.82,3.34-6.06,6.87-12.02,10.14-18.12.67-1.26,1.32-2.53,1.96-3.8.36-.72.72-1.45.93-2.24.08-.31.25-.39.55-.39,2.18,0,4.36,0,6.54,0,.27,0,.42.07.51.35.61,1.89,1.55,3.64,2.45,5.4,3.34,6.49,7.02,12.81,10.39,19.29.92,1.77,1.86,3.55,2.61,5.4.11.27.25.54.24.83-.1.11-.21.09-.32.09-1.97,0-3.93,0-5.9,0-.24,0-.44.02-.51-.32-.33-1.55-.95-3-1.58-4.44-.72-1.66-1.5-3.29-2.23-4.95-.17-.39-.4-.52-.83-.52-5.79.01-11.58.01-17.36,0-.38,0-.63.09-.8.46-1.16,2.49-2.32,4.98-3.26,7.56-.22.6-.43,1.2-.49,1.85-.02.21-.08.36-.34.36-2.03,0-4.05,0-6.09,0ZM93.83,94.1c.22.13.46.07.69.07,4.7,0,9.4,0,14.09,0,.15,0,.3,0,.45,0,.34-.03.36-.07.23-.39-.07-.16-.15-.31-.23-.46-1.11-2.11-2.24-4.21-3.34-6.33-1.3-2.54-2.69-5.03-3.75-7.68-.02-.06-.04-.13-.08-.17-.12-.16-.25-.15-.36,0-.07.1-.11.23-.17.34-.33.69-.63,1.4-.98,2.08-2.03,3.98-4.17,7.91-6.3,11.84-.12.22-.31.41-.26.7Z"/>
  <path class="cls-2" d="M202.17,107.33c-.15.11-.33.07-.5.07-1.86,0-3.72,0-5.57,0-.56,0-.56,0-.67-.51-.35-1.48-.94-2.87-1.55-4.25-.73-1.66-1.5-3.29-2.23-4.95-.17-.39-.4-.52-.83-.52-5.79.01-11.58.01-17.36,0-.39,0-.63.09-.8.46-1.16,2.49-2.32,4.98-3.26,7.56-.22.6-.43,1.2-.49,1.85-.02.22-.08.36-.34.36-2.02,0-4.05,0-6.09,0-.01-.41.18-.7.32-1,.94-1.98,2.01-3.9,3.07-5.82,3.34-6.06,6.87-12.02,10.14-18.12.67-1.26,1.32-2.53,1.96-3.8.36-.72.71-1.46.93-2.24.07-.25.18-.39.48-.39,2.2.01,4.4,0,6.6,0,.23,0,.42.03.49.29.44,1.52,1.19,2.92,1.9,4.32,1.85,3.67,3.82,7.27,5.81,10.87,2.32,4.22,4.64,8.43,6.77,12.75.39.78.75,1.58,1.07,2.39.08.21.2.43.15.67ZM189.86,94.08c.01-.27-.15-.47-.26-.69-.66-1.24-1.33-2.48-1.98-3.72-1.33-2.55-2.69-5.08-3.93-7.67-.43-.9-.9-1.79-1.23-2.73-.04-.12-.09-.25-.26-.23-.12,0-.18.11-.23.2-.04.08-.06.16-.1.23-.33.71-.65,1.44-1.01,2.14-2.05,4-4.19,7.95-6.34,11.89-.36.65-.34.68.41.68,4.76,0,9.52,0,14.29,0,.21,0,.43.06.63-.09Z"/>
  <path class="cls-2" d="M257.17,107.4c-4.08,0-8.16,0-12.24,0-.72,0-.7,0-.66-.7.09-1.68.13-3.36.24-5.04.16-2.49.04-4.98.17-7.47.03-.49-.02-.98-.02-1.47-.02-3.13,0-6.26-.07-9.39-.04-2.21-.15-4.42-.32-6.63,0-.13-.02-.25-.02-.38,0-.18.1-.27.27-.28.15,0,.3,0,.45,0,7.58,0,15.17,0,22.75,0,.11,0,.21,0,.32,0,.39.03.43.06.41.47-.05.89-.1,1.78-.17,2.68-.03.4-.09.45-.53.46-.64.01-1.27-.13-1.92-.1-.62.02-1.24,0-1.86-.01-4.55-.13-9.1-.15-13.65-.14-.09,0-.17,0-.26,0-.55,0-.59.04-.56.58.14,2.93.18,5.87.18,8.81,0,.02,0,.04,0,.06q.01.7.71.7c2.09,0,4.19.07,6.28-.01,2.45-.09,4.91-.06,7.36-.21,1.03-.06.9-.11.91.85,0,.75-.02,1.49,0,2.24,0,.34-.12.43-.45.42-2.16-.05-4.31-.1-6.47-.12-2.63-.02-5.25-.02-7.88-.02-.43,0-.46.02-.46.49,0,1.47-.02,2.94.02,4.41.05,1.89.14,3.79.21,5.68,0,.17.02.34.02.51,0,.24.13.34.37.34.15,0,.3,0,.45,0,2.37,0,4.75.08,7.11-.02,2.65-.11,5.3-.01,7.94-.18,1.3-.08,2.61-.03,3.91-.1.47-.03.54.05.53.49-.02.92-.06,1.83-.08,2.75,0,.27-.12.38-.39.37-.17-.01-.34,0-.51,0-4.04,0-8.08,0-12.11,0Z"/>
  <path class="cls-2" d="M204.96,76.03c.85,0,1.71,0,2.56,0,.23,0,.41.04.47.31.33,1.6,1.03,3.06,1.68,4.54,1.73,3.91,3.73,7.7,5.63,11.54,1.35,2.73,2.72,5.45,3.81,8.29.2.52.39,1.03.51,1.58.02.12.06.28.21.29.16.01.19-.13.22-.26.64-2.52,1.83-4.81,2.97-7.12,1.48-3,3.06-5.95,4.58-8.92,1.3-2.54,2.56-5.1,3.59-7.76.25-.66.5-1.32.6-2.01.05-.33.18-.48.53-.48,1.62.01,3.25,0,4.87,0,.39,0,.43.06.33.47-.14.56-.36,1.09-.59,1.62-1.18,2.67-2.63,5.21-4.06,7.75-2.5,4.43-5.19,8.76-7.65,13.21-1.04,1.88-2.09,3.76-2.97,5.73-.33.74-.67,1.48-.84,2.27-.05.24-.15.32-.38.32-1.17,0-2.35,0-3.52,0-.16,0-.27-.02-.32-.22-.4-1.67-1.2-3.18-1.95-4.71-1.88-3.82-3.96-7.54-6.02-11.27-2.05-3.71-4.1-7.42-5.91-11.25-.38-.81-.74-1.63-1.05-2.47-.11-.3-.21-.6-.28-.91-.1-.45-.05-.52.42-.53.85,0,1.71,0,2.56,0Z"/>
  <path class="cls-2" d="M70.54,107.9c-2.29.02-4.49-.04-6.67-.4-3.97-.66-7.64-1.99-10.68-4.7-2.32-2.07-3.97-4.56-4.57-7.65-.83-4.31.09-8.21,2.85-11.63,2.79-3.47,6.43-5.67,10.7-6.86,2.17-.6,4.38-.92,6.62-1.07,2.05-.13,4.1-.07,6.14.15.64.07,1.27.17,1.9.27.42.07.44.1.35.49-.2.93-.53,1.84-.68,2.79-.04.25-.23.27-.44.24-.38-.06-.76-.13-1.13-.2-3.31-.58-6.62-.65-9.94-.07-2.29.4-4.41,1.23-6.25,2.64-2.6,1.98-4.21,4.59-4.65,7.87-.32,2.43,0,4.75,1.15,6.94,1.21,2.29,3.06,3.97,5.24,5.31,2.12,1.31,4.48,1.97,6.93,2.34,2.79.42,5.57.36,8.36-.06,1.06-.16,2.11-.32,3.15-.53.1-.02.21-.03.32-.04.2-.02.27.09.25.27-.11.93-.23,1.86-.33,2.79-.04.34-.31.39-.55.44-.82.16-1.64.3-2.46.42-1.89.27-3.79.29-5.6.27Z"/>
  <path class="cls-2" d="M283.89,90.07c.07,3.07-.06,6.13-.12,9.19-.02,1.32-.13,2.64-.19,3.95,0,.13-.02.26-.02.38,0,.45.02.48.45.5.11,0,.21,0,.32,0,2.67,0,5.34.07,8.01,0,2.71-.08,5.42-.05,8.13-.13.94-.03,1.88-.06,2.82-.08.52,0,.52-.01.49.46-.05.85-.08,1.7-.14,2.55-.03.49-.05.49-.52.51-.11,0-.21,0-.32,0-7.88,0-15.76,0-23.64,0-.82,0-.84.16-.78-.82.1-1.68.16-3.36.22-5.04.17-4.6.1-9.19.12-13.79.02-3.47-.18-6.94-.28-10.4,0-.3-.05-.59-.08-.89-.04-.31.1-.43.4-.42.49,0,.98,0,1.47,0,1.17,0,2.35,0,3.52,0,.49,0,.5.01.47.51-.17,3.02-.26,6.04-.3,9.06-.02,1.49-.04,2.98-.03,4.47Z"/>
  <path class="cls-2" d="M311.06,91.44c0-3.08.04-5.98-.06-8.87-.07-2-.21-3.99-.33-5.99-.03-.51-.02-.55.5-.55,1.64,0,3.29,0,4.93,0,.56,0,.58.02.54.59-.19,3.19-.27,6.38-.34,9.57-.06,2.49-.09,4.98-.05,7.47.06,3.47.07,6.94.25,10.4.05.93.1,1.87.15,2.8.02.49,0,.53-.47.53-1.71,0-3.42,0-5.12,0-.42,0-.43-.02-.41-.44.1-2.04.22-4.08.32-6.12.03-.57.03-1.15.04-1.72.06-2.62.05-5.23.04-7.66Z"/>
  <path class="cls-4" d="M246.93,116.31c-.13.03-.12.15-.14.25-.6,4.17-1.56,8.28-2.32,12.42-.05.3-.15.46-.49.44-.32-.02-.64,0-.96,0-.37-.01-.4-.04-.33-.42.18-.96.36-1.92.55-2.88.76-3.77,1.52-7.55,2.28-11.32.02-.1.07-.21.07-.31,0-.37.22-.45.55-.43.51.02,1.02,0,1.54.01.48,0,.49.01.58.47.28,1.57.56,3.14.83,4.71.4,2.28.8,4.57,1.2,6.85.23.02.26-.19.32-.33,1.92-3.78,4.13-7.4,6.18-11.11.06-.11.14-.22.19-.33.09-.19.23-.29.45-.29.75,0,1.49,0,2.18,0,.18.16.12.29.09.41-.97,4.82-1.94,9.63-2.91,14.45-.1.51-.1.53-.6.51-.39-.02-.91.2-1.15-.12-.2-.27.08-.73.16-1.1.68-3.38,1.31-6.76,2.09-10.12.13-.57.37-1.13.38-1.74-.12.02-.16.1-.2.17-1.88,3.8-4.15,7.39-6.24,11.07-.29.52-.62,1.02-.89,1.55-.18.36-.48.29-.77.29-.31,0-.29-.27-.33-.46-.57-3.05-1.13-6.11-1.68-9.16-.2-1.11-.36-2.23-.54-3.34,0-.05,0-.13-.1-.13Z"/>
  <path class="cls-4" d="M174.61,116.32c-.14.04-.18.14-.23.23-1.86,3.74-4.09,7.28-6.15,10.9-.31.54-.62,1.07-.93,1.6-.2.35-.37.41-.79.36-.34-.04-.3-.32-.34-.53-.52-2.8-1.04-5.6-1.55-8.41-.24-1.32-.43-2.64-.65-3.97-.01-.07.01-.17-.1-.2-.14.03-.13.15-.14.25-.6,4.17-1.56,8.28-2.32,12.42-.05.3-.15.46-.49.44-.32-.02-.64,0-.96,0-.37-.01-.4-.04-.33-.42.18-.96.36-1.92.55-2.88.76-3.77,1.52-7.55,2.28-11.32.02-.1.07-.21.07-.31,0-.37.22-.45.55-.44.51.02,1.02,0,1.54.01.49,0,.49.01.58.47.28,1.57.56,3.14.83,4.71.4,2.28.8,4.57,1.2,6.85.23.02.25-.19.32-.33,1.92-3.78,4.13-7.4,6.18-11.11.06-.11.14-.22.19-.33.09-.19.23-.29.45-.29.75,0,1.49,0,2.18,0,.18.16.12.29.09.4-.97,4.82-1.94,9.63-2.91,14.45-.1.51-.1.53-.6.51-.39-.02-.91.2-1.15-.12-.2-.27.08-.73.15-1.1.68-3.38,1.31-6.76,2.09-10.12.13-.57.37-1.13.38-1.74Z"/>
  <path class="cls-4" d="M276.75,126.64c.23-.71.24-1.31.34-1.89.57-3.27,1.28-6.51,1.92-9.76.19-.95.2-.95,1.15-.94.02,0,.04,0,.06,0,.74,0,.73,0,.58.74-.92,4.59-1.84,9.17-2.75,13.76-.17.85-.17.85-1.03.85-.13,0-.26-.01-.38,0-.3.03-.46-.11-.58-.38-1.7-3.97-3.62-7.84-5.22-11.86-.04-.1-.07-.2-.2-.27-.22.34-.17.74-.22,1.1-.39,2.67-1.01,5.3-1.52,7.96-.19,1-.42,2-.59,3-.06.34-.18.48-.54.46-.4-.02-.81,0-1.19,0-.14-.2-.07-.37-.04-.53.94-4.73,1.88-9.47,2.83-14.2.13-.63.14-.58.77-.65.78-.09,1.13.21,1.44.93,1.36,3.17,2.8,6.3,4.2,9.45.31.7.6,1.4.96,2.24Z"/>
  <path class="cls-4" d="M207.27,116.92c-.1.63-.18,1.25-.29,1.88-.58,3.42-1.35,6.8-1.99,10.21-.05.27-.14.42-.45.41-.44-.02-.89,0-1.38,0,.16-.92.3-1.75.46-2.59.81-4.04,1.63-8.09,2.44-12.13.02-.1.06-.21.07-.31.02-.23.13-.32.37-.34,1.27-.13,1.29-.12,1.8,1.03,1.4,3.13,2.8,6.25,4.19,9.38.3.68.58,1.37.88,2.08.17-.1.18-.24.2-.37.52-3.75,1.41-7.44,2.12-11.15.18-.96.2-.96,1.2-.96.75,0,.75,0,.6.73-.92,4.59-1.83,9.18-2.76,13.76-.2,1,.04.85-1.02.87-.11,0-.22-.01-.32,0-.35.05-.53-.11-.68-.43-1.58-3.56-3.17-7.11-4.75-10.67-.21-.46-.38-.94-.57-1.41-.04,0-.09.02-.13.02Z"/>
  <path class="cls-4" d="M157.96,119.51c-.07,2.45-.66,4.76-2.04,6.81-1.15,1.72-2.7,2.9-4.78,3.25-1.08.18-2.17.14-3.23-.19-1.9-.59-3.07-1.91-3.35-3.82-.53-3.6.35-6.88,2.82-9.6,1.82-2.01,4.19-2.63,6.84-2,2.04.49,3.19,1.87,3.61,3.88.11.54.18,1.09.14,1.65ZM146.21,123.9c.02.31.03.74.09,1.16.23,1.61,1.26,2.71,2.69,2.92,1.98.29,3.64-.31,4.88-1.87,1.84-2.32,2.51-4.99,2.12-7.9-.18-1.37-.97-2.36-2.37-2.7-1.41-.34-2.76-.15-3.96.71-.7.5-1.3,1.1-1.76,1.83-1.11,1.75-1.64,3.68-1.69,5.85Z"/>
  <path class="cls-4" d="M304.21,129.36c-.63.07-1.29.21-1.8-.04-.41-.2-.51-.85-.74-1.3-.78-1.51-1.55-3.03-2.3-4.56-.16-.33-.35-.49-.73-.46-.47.03-.94,0-1.41,0-.54,0-.55,0-.66.55-.23,1.13-.45,2.25-.67,3.38-.14.69-.28,1.37-.4,2.07-.05.29-.17.41-.46.39-.42-.03-.97.18-1.24-.09-.29-.29.03-.8.11-1.2.88-4.49,1.77-8.97,2.67-13.45.13-.63.13-.63.78-.63,1.26,0,2.52,0,3.78.02.86,0,1.7.15,2.49.51,1.43.65,2.2,1.99,2.08,3.56-.16,2.09-1.27,3.46-3.2,4.22-.38.15-.77.24-1.16.36-.4.13-.42.14-.23.53.45.89.92,1.78,1.38,2.66.49.94.98,1.89,1.47,2.83.09.18.22.36.25.64ZM300.06,115.65s0-.01,0-.02c-.47,0-.94,0-1.41,0-.5.01-.51.02-.62.53-.32,1.61-.64,3.21-.97,4.82-.06.28.02.4.3.4,1.2,0,2.39.04,3.57-.2.68-.14,1.29-.42,1.83-.87.93-.78,1.18-1.8.99-2.94-.09-.57-.43-1.02-.96-1.29-.42-.22-.87-.35-1.35-.37-.47-.02-.94-.04-1.41-.06Z"/>
  <path class="cls-4" d="M188.04,129.41c.18-.35.3-.57.42-.79,2.46-4.6,4.91-9.2,7.37-13.8.09-.17.19-.33.27-.51.09-.2.24-.26.45-.28,1.14-.09,1.15-.09,1.36,1.01.9,4.7,1.79,9.4,2.68,14.1.01.06,0,.13,0,.21-.48.11-.97.03-1.46.05-.27.01-.3-.18-.33-.38-.15-.79-.3-1.59-.45-2.38-.09-.5-.21-1-.28-1.5-.04-.29-.16-.41-.45-.41-1.6.01-3.2.02-4.8,0-.33,0-.49.16-.63.43-.66,1.27-1.34,2.52-1.98,3.79-.17.35-.37.46-.74.44-.44-.02-.89,0-1.44,0ZM193.28,123.11c1.47,0,2.81,0,4.15,0,.32,0,.23-.23.2-.41-.26-1.47-.52-2.93-.78-4.4-.08-.47-.09-.95-.33-1.56-.95,2.24-2.11,4.21-3.23,6.37Z"/>
  <path class="cls-4" d="M235.47,129.41c-.48,0-.92,0-1.37,0-.26,0-.38-.09-.43-.35-.14-.84-.31-1.67-.47-2.51-.09-.48-.2-.96-.27-1.44-.04-.31-.21-.37-.48-.37-1.58,0-3.16.02-4.74,0-.36,0-.53.16-.68.46-.65,1.27-1.34,2.52-1.98,3.79-.16.32-.34.44-.69.42-.45-.03-.89,0-1.32,0-.14-.2,0-.31.07-.43,2.55-4.79,5.11-9.57,7.68-14.36.11-.21.15-.53.46-.56.4-.04.81-.08,1.21.02.18.05.18.27.21.43.25,1.32.5,2.63.75,3.95.68,3.57,1.36,7.14,2.04,10.71,0,.04,0,.08,0,.23ZM228.21,123c.1.06.13.1.17.1,1.28,0,2.56,0,3.84.02.32,0,.33-.15.29-.4-.23-1.23-.45-2.47-.67-3.7-.12-.7-.24-1.4-.36-2.11-.05-.01-.1-.02-.15-.03-.93,2.1-2.07,4.1-3.13,6.12Z"/>
  <path class="cls-4" d="M318.3,129.35c-.52.1-1.01.04-1.5.05-.22,0-.27-.15-.31-.33-.15-.82-.31-1.63-.46-2.44-.09-.48-.21-.96-.27-1.44-.04-.35-.2-.46-.54-.45-1.13.02-2.26,0-3.39.01-.41,0-.81.02-1.22,0-.36-.02-.58.11-.76.44-.65,1.27-1.33,2.52-1.98,3.79-.16.31-.32.45-.68.43-.46-.03-.92,0-1.38,0-.04-.26.09-.38.17-.53,2.51-4.69,5.01-9.39,7.53-14.08.49-.91.21-.75,1.31-.77.57,0,.57,0,.68.58.87,4.57,1.74,9.15,2.61,13.72.06.33.12.66.18,1.01ZM311.02,122.99c.1.07.13.11.16.11,1.28,0,2.56,0,3.84.02.31,0,.34-.14.29-.4-.23-1.23-.45-2.47-.67-3.7-.12-.7-.24-1.41-.36-2.11-.05-.01-.1-.02-.15-.03-.93,2.1-2.07,4.1-3.13,6.12Z"/>
  <path class="cls-4" d="M293.28,114.05c.03.12.04.15.04.17-.08.46-.03,1.03-.33,1.34-.29.3-.85.08-1.3.08-1.58.01-3.16,0-4.74,0-.59,0-.6,0-.71.57-.27,1.33-.54,2.67-.8,4.01-.09.44-.07.47.4.47,1.56,0,3.12,0,4.68,0,.17,0,.34,0,.51,0,.19,0,.27.09.24.28-.01.06-.01.13-.03.19-.12.38-.01.89-.31,1.13-.28.22-.74.07-1.12.08-1.41,0-2.82,0-4.23,0-.54,0-.55,0-.66.53-.31,1.48-.61,2.96-.91,4.44-.08.39-.06.43.37.44.75.01,1.5,0,2.24,0,1.28,0,2.56,0,3.85,0,.54,0,.54.01.45.52-.07.35-.02.79-.26,1.02-.26.24-.69.09-1.05.09-2.33,0-4.66,0-6.99,0-.23,0-.47.04-.73-.08.16-.88.31-1.76.48-2.63.8-3.98,1.6-7.97,2.4-11.95.14-.71.14-.71.84-.71,2.33,0,4.66,0,6.99,0,.23,0,.46,0,.7,0Z"/>
  <path class="cls-4" d="M177.51,129.41c.21-1.16.4-2.22.61-3.28.76-3.79,1.52-7.59,2.29-11.38,0-.04.02-.08.03-.12.12-.58.12-.58.69-.58,1.24,0,2.48,0,3.71.02.95.01,1.87.18,2.71.65,1.24.7,1.81,1.79,1.74,3.18-.13,2.68-1.8,4.33-4.52,4.98-1.22.29-2.45.32-3.69.2-.55-.05-.55-.05-.66.5-.35,1.79-.71,3.59-1.05,5.38-.06.33-.18.48-.53.46-.4-.02-.81,0-1.32,0ZM182.44,121.48s0-.02,0-.03c.3,0,.6.02.9,0,.86-.06,1.68-.26,2.44-.7,1.3-.76,1.92-2.22,1.55-3.6-.14-.53-.45-.9-.95-1.14-.33-.16-.68-.27-1.04-.29-.94-.05-1.87-.12-2.81-.09-.5.02-.51.02-.61.53-.32,1.6-.63,3.21-.97,4.81-.07.33.08.43.35.44.38.02.77.04,1.15.06Z"/>
  <path class="cls-4" d="M141.15,127.64c-.08.42-.17.81-.24,1.21-.04.24-.18.37-.41.43-1.85.51-3.71.63-5.53-.08-1.86-.73-2.9-2.18-3.14-4.1-.35-2.86.23-5.55,1.9-7.95,2.19-3.15,5.8-4.02,9.18-2.97.32.1.4.25.32.56-.07.24-.09.5-.15.75-.08.41-.1.43-.51.3-1.01-.32-2.04-.46-3.09-.37-1.43.12-2.62.74-3.58,1.78-1.52,1.63-2.21,3.61-2.31,5.8-.03.74-.07,1.49.13,2.22.42,1.62,1.59,2.62,3.26,2.78,1.25.12,2.47.02,3.67-.33.12-.03.25-.06.37-.08.02,0,.04.01.12.05Z"/>
  <path class="cls-4" d="M223.34,114.12c-.19.97-.38,1.93-.57,2.89-.8,3.96-1.59,7.92-2.39,11.88-.1.5-.1.53-.6.51-.4-.01-.92.2-1.15-.11-.21-.27.06-.73.14-1.1.88-4.49,1.78-8.97,2.67-13.45.02-.08.06-.16.06-.25.01-.36.21-.47.54-.44.42.04.85-.05,1.31.08Z"/>
  <path class="cls-4" d="M260.58,129.41c.17-.94.31-1.8.48-2.65.8-4,1.61-8,2.41-12.01.01-.06.03-.12.04-.19.12-.5.12-.51.61-.51.4,0,.8,0,1.27,0-.17.87-.33,1.66-.49,2.45-.83,4.13-1.66,8.26-2.48,12.38-.1.51-.1.52-.59.53-.38,0-.76,0-1.25,0Z"/>
  <path class="cls-4" d="M213.49,113.04c-.36,0-.79-.18-1.2-.41-.35-.2-.69-.42-1.06-.58-.54-.24-.99-.08-1.2.46-.15.39-.38.52-.77.48-.13-.01-.26,0-.38,0-.43-.02-.44-.03-.33-.44.01-.04.02-.08.04-.12.51-1.79,1.87-2.36,3.5-1.46.34.18.65.4,1,.56.53.24,1.03.1,1.21-.44.15-.44.42-.45.78-.45.8,0,.86.08.58.83-.37,1-1.1,1.57-2.15,1.57Z"/>
  <path d="M53.04,72.73l.02.05s.03-.04-.03-.02c0,0,.01-.02.01-.02Z"/>
  <path class="cls-1" d="M311.3,59.19c-4.89-1.53-9.78-3.06-14.67-4.59-5.62-1.76-11.25-3.51-16.87-5.27-6.46-2.01-12.92-4.02-19.38-6.04-6.07-1.89-12.14-3.79-18.21-5.69-1.24-.39-2.49-.77-3.73-1.17-.42-.14-.81-.12-1.24.03-5.82,2.03-11.66,4.04-17.48,6.06-5.85,2.02-11.7,4.05-17.55,6.08-5.26,1.82-10.53,3.64-15.79,5.47-5.85,2.02-11.7,4.05-17.55,6.07-5.81,2.01-11.62,4.02-17.43,6.03-1.75.61-3.51,1.22-5.26,1.84-.08.03-.16.03-.25.05.02-.03.02-.06,0-.09,3.47-2.03,6.93-4.05,10.4-6.08,6.27-3.67,12.53-7.34,18.8-11.01,2.4-1.4,4.79-2.81,7.19-4.21.16-.1.33-.2.51-.31-.07-.17-.22-.19-.34-.25-7.01-3.15-14.02-6.31-21.03-9.46-2.75-1.23-5.49-2.46-8.23-3.71-.36-.16-.67-.18-1.03-.03-7.78,3.15-15.55,6.29-23.33,9.43-8.45,3.41-16.91,6.82-25.36,10.23-9.76,3.94-19.52,7.89-29.27,11.83-6.85,2.77-13.7,5.53-20.55,8.3-.04.02-.08.03-.12.04,0-.06-.01-.12-.02-.19,3.28-2,6.57-4,9.85-6,6.77-4.13,13.54-8.25,20.3-12.38,7.43-4.53,14.85-9.05,22.28-13.58,9.05-5.52,18.1-11.03,27.14-16.55,5.76-3.52,11.53-7.03,17.29-10.55.32-.2.57-.34.98-.09,6.44,3.85,12.88,7.68,19.33,11.52,7.84,4.66,15.68,9.32,23.52,14,.37.22.64.19.99-.03,5.74-3.52,11.48-7.03,17.22-10.54,6.8-4.16,13.6-8.31,20.4-12.46,1.31-.8,2.64-1.59,3.93-2.42.38-.25.65-.24,1.03,0,3.93,2.45,7.88,4.89,11.82,7.33,7.96,4.93,15.91,9.85,23.87,14.78,8.3,5.14,16.6,10.28,24.91,15.42,4.31,2.66,8.62,5.32,12.93,7.98,0,.07,0,.14.01.22Z"/>
  <path class="cls-3" d="M196.96,53.33c.75-.28,1.5-.57,2.26-.85,8.5-3.12,17-6.24,25.5-9.36,4.43-1.63,8.86-3.25,13.28-4.89.44-.16.83-.17,1.29,0,3.03,1.1,6.07,2.18,9.1,3.27,4.79,1.71,9.57,3.42,14.36,5.13,3.38,1.21,6.76,2.41,10.14,3.62,2.82,1,5.63,2.01,8.45,3.01.06.02.11.06.17.09-.62.17-79.15.24-84.54,0Z"/>
  <path class="cls-3" d="M113.73,52.9c4.79-2,9.58-4,14.37-5.99,3.96-1.65,7.93-3.31,11.89-4.96,4.48-1.87,8.95-3.73,13.42-5.6.37-.15.68-.22,1.09-.03,5.84,2.7,11.69,5.37,17.53,8.05.8.37,1.59.74,2.38,1.11.08.04.16.08.19.21-.81.44-1.62.88-2.44,1.32-3.36,1.83-6.72,3.66-10.07,5.5-.66.36-1.32.51-2.08.51-13.26-.02-26.52-.01-39.77,0-1.92,0-3.85,0-5.77,0-.25,0-.5,0-.74,0,0-.04,0-.08,0-.12Z"/>
  <path class="cls-4" d="M53.51,72.55c0,.06.01.12.02.19-.18.16-.38.28-.64.2h0c.14-.22.38-.3.62-.39Z"/>
  <path class="cls-4" d="M311.3,59.19c0-.07,0-.14-.01-.22.11,0,.2.07.27.14.04.04.08.13.06.16-.06.08-.14.02-.21-.01-.04-.02-.07-.04-.11-.06Z"/>
  <path class="cls-4" d="M145.91,67.96s0,.06,0,.09c-.06.09-.14.17-.21.05-.03-.05.1-.15.21-.14Z"/>
  <path class="cls-4" d="M52.88,72.94s-.01.05-.02.05c-.05,0-.04-.02.02-.05h0Z"/>
</svg>