<?xml version="1.0" encoding="UTF-8"?>
<svg id="Capa_1" data-name="Capa 1" xmlns="http://www.w3.org/2000/svg" viewBox="0 0 400 150">
  <defs>
    <style>
      .cls-1 {
        fill: #6f6f6e;
      }

      .cls-2 {
        fill: #a8a8a8;
      }

      .cls-3 {
        fill: #c6c6c5;
      }
    </style>
  </defs>
  <path class="cls-3" d="M250.08,53.81v-18.37s-18.63-1.69-36.74,10.31c0,0,9.99,3.93,14.7,10.03,0,0,14.45-6.37,22.04-1.97Z"/>
  <path class="cls-3" d="M150.42,54.26v-18.37s23.99-1.32,35.72,9.7c0,0-10.93,4.97-15.64,11.07,0,0-12.49-6.81-20.08-2.39Z"/>
  <path class="cls-1" d="M250.08,52.83s-13.47-3.42-22.04,2.95c0,0,9.31,9.3,11.52,23.51h10.53v-26.45Z"/>
  <path class="cls-1" d="M150.42,52.87s11.5-3.43,20.08,2.93c0,0-7.83,9.31-10.03,23.52h-10.04v-26.44Z"/>
  <path class="cls-1" d="M214.57,33.9v-10.61s-12.08-3.42-13.55,10.62v6.88h.76s-.45-8.93,12.79-6.88Z"/>
  <path class="cls-1" d="M198.59,40.79s1.71-15.37-2.83-19.96c0,0-3.55-3.98-10.59-2.99v10.41s11.02-1.3,12.06,7.58c0,0,.49,3.86.49,4.96h.86Z"/>
  <path class="cls-1" d="M149.11,99.02v-13.52h2.73v5.32h5.35v-5.32h2.74v13.52h-2.74v-5.91h-5.35v5.91h-2.73Z"/>
  <path class="cls-1" d="M161.5,92.34c0-1.38.21-2.53.62-3.47.31-.69.73-1.31,1.26-1.85.49-.52,1.09-.93,1.74-1.22.93-.37,1.92-.56,2.92-.54,1.99,0,3.59.62,4.78,1.85,1.2,1.24,1.79,2.95,1.79,5.16,0,2.18-.59,3.89-1.78,5.12s-2.77,1.85-4.75,1.85c-2.01,0-3.61-.61-4.79-1.84s-1.78-2.91-1.78-5.07ZM164.31,92.25c0,1.53.35,2.69,1.06,3.48,1.36,1.49,3.67,1.59,5.15.23.08-.07.15-.14.22-.22.7-.78,1.05-1.96,1.05-3.53,0-1.55-.34-2.71-1.02-3.47-.68-.76-1.58-1.14-2.71-1.14-1.13,0-2.03.39-2.72,1.16-.69.77-1.03,1.93-1.03,3.49h0Z"/>
  <path class="cls-1" d="M176.05,99.02v-13.52h5.75c1.44,0,2.49.12,3.15.36.65.24,1.21.7,1.57,1.3.4.64.6,1.38.59,2.13,0,1.01-.3,1.85-.89,2.51s-1.49,1.08-2.68,1.25c.54.3,1.03.69,1.46,1.14.39.41.9,1.14,1.55,2.2l1.65,2.64h-3.26l-1.97-2.95c-.7-1.05-1.18-1.71-1.44-1.99-.22-.25-.51-.44-.82-.56-.29-.1-.75-.15-1.37-.15h-.55v5.65h-2.73ZM178.78,91.22h2.02c1.31,0,2.13-.05,2.45-.16.31-.1.58-.3.77-.57.19-.3.29-.66.28-1.01.02-.4-.11-.79-.36-1.1-.27-.29-.63-.48-1.03-.54-.22-.03-.88-.04-1.99-.05h-2.13v3.44Z"/>
  <path class="cls-1" d="M192.03,99.02v-11.24h-4.01v-2.29h10.74v2.29h-4v11.24h-2.73Z"/>
  <path class="cls-1" d="M199.75,99.02v-13.52h2.73v13.52h-2.73Z"/>
  <path class="cls-1" d="M204.4,99.02v-13.52h9.27v2.29h-6.54v3.2h5.65v2.29h-5.65v5.75h-2.73Z"/>
  <path class="cls-1" d="M215.23,99.02v-13.52h5.75c1.44,0,2.49.12,3.15.36.65.24,1.21.7,1.57,1.3.4.64.6,1.38.59,2.13,0,1.01-.3,1.85-.89,2.51s-1.49,1.08-2.68,1.25c.54.3,1.03.69,1.46,1.14.38.41.9,1.14,1.55,2.2l1.66,2.64h-3.26l-1.97-2.95c-.7-1.05-1.18-1.71-1.44-1.99-.22-.25-.51-.44-.82-.56-.29-.1-.75-.15-1.37-.15h-.55v5.65h-2.73ZM217.96,91.22h2.02c1.31,0,2.13-.05,2.45-.16.31-.1.58-.3.77-.57.19-.3.29-.66.28-1.01.02-.4-.11-.79-.36-1.1-.27-.29-.63-.48-1.03-.54-.22-.03-.89-.05-1.99-.05h-2.13v3.44Z"/>
  <path class="cls-1" d="M228.14,85.5h2.73v7.32c0,1.16.03,1.92.1,2.26.1.53.4,1.01.83,1.33.44.34,1.04.5,1.8.5s1.36-.16,1.75-.48c.38-.29.63-.7.71-1.17.08-.46.12-1.22.12-2.3v-7.48h2.73v7.1c0,1.62-.07,2.77-.22,3.44-.13.63-.41,1.21-.82,1.7-.44.49-.98.87-1.59,1.1-.66.27-1.53.4-2.6.41-1.29,0-2.27-.15-2.94-.45-.61-.26-1.15-.65-1.58-1.16-.37-.43-.63-.95-.77-1.5-.18-.77-.27-1.92-.27-3.43v-7.21Z"/>
  <path class="cls-1" d="M244.15,99.02v-11.24h-4.01v-2.29h10.75v2.29h-4v11.24h-2.73Z"/>
  <rect class="cls-1" x="150.39" y="123.53" width="99.5" height=".72"/>
  <rect class="cls-1" x="150.31" y="131.94" width="99.53" height=".72"/>
  <path class="cls-1" d="M150.42,130.58v-4.71h.59c.21,0,.42.02.63.07.15.04.29.13.4.25.12.13.21.28.27.45.06.18.1.36.1.55,0,.32-.11.62-.32.86.21.09.38.25.48.45.13.22.19.48.18.74.01.34-.1.68-.32.94-.12.15-.27.26-.44.33-.22.06-.44.09-.67.09h-.89ZM151.01,127.9h.18c.18.02.36-.05.49-.18.11-.15.17-.33.15-.52.01-.18-.04-.36-.16-.51-.12-.12-.28-.19-.45-.18h-.21v1.38ZM151.01,129.92h.37c.21.02.43-.05.59-.19.13-.14.2-.33.19-.52,0-.19-.06-.37-.19-.51-.12-.13-.34-.21-.66-.21h-.3v1.43Z"/>
  <path class="cls-1" d="M155.91,126.54h-1.57v1.13h1.53v.67h-1.53v1.57h1.57v.67h-2.17v-4.71h2.17v.67Z"/>
  <path class="cls-1" d="M158.27,128.58l1.22,2.01h-.72l-1.12-1.93h-.11v1.93h-.59v-4.71h.69c.52,0,.89.12,1.12.35.26.28.4.65.38,1.03,0,.3-.07.6-.24.86-.14.23-.37.39-.63.46ZM157.53,128.04h.19c.56,0,.84-.26.84-.77,0-.48-.27-.72-.82-.72h-.21v1.49Z"/>
  <path class="cls-1" d="M161.65,128.58l1.22,2.01h-.72l-1.12-1.93h-.11v1.93h-.59v-4.71h.69c.52,0,.89.12,1.12.35.26.28.4.65.38,1.03,0,.3-.07.6-.24.86-.14.23-.37.39-.63.46ZM160.91,128.04h.19c.56,0,.84-.26.84-.77,0-.48-.27-.72-.82-.72h-.21v1.49Z"/>
  <path class="cls-1" d="M164.3,125.87v4.71h-.59v-4.71h.59Z"/>
  <path class="cls-1" d="M167.65,126.54h-1.57v1.13h1.53v.67h-1.53v1.57h1.57v.67h-2.16v-4.71h2.16v.67Z"/>
  <path class="cls-1" d="M170.9,126.57l-.48.34c-.06-.14-.14-.27-.26-.37-.1-.07-.21-.1-.33-.1-.15,0-.3.06-.4.17-.11.11-.17.26-.16.42,0,.23.14.41.43.56l.39.19c.28.12.52.32.7.57.15.25.23.53.22.82.01.39-.11.77-.36,1.07-.22.27-.55.43-.9.43-.32,0-.63-.12-.84-.36-.24-.29-.38-.65-.4-1.02l.6-.16c0,.2.05.39.14.57.11.2.31.31.54.31.18,0,.35-.08.46-.22.13-.16.19-.36.18-.56,0-.08,0-.17-.03-.25-.02-.08-.05-.15-.1-.21-.05-.07-.11-.13-.17-.18-.08-.06-.16-.12-.25-.16l-.38-.19c-.54-.27-.8-.67-.8-1.19,0-.33.11-.65.34-.89.22-.24.52-.37.84-.36.44,0,.79.27,1.04.79Z"/>
  <path class="cls-1" d="M175.78,126.54h-1.37v1.13h1.32v.67h-1.32v2.24h-.59v-4.71h1.96v.67Z"/>
  <path class="cls-1" d="M176.53,128.21c-.01-.63.2-1.23.61-1.71.35-.45.89-.71,1.45-.71.56,0,1.04.24,1.44.72.4.48.62,1.1.6,1.73.02.63-.2,1.24-.61,1.72-.62.8-1.77.95-2.57.33-.1-.07-.18-.16-.26-.25-.44-.46-.66-1.07-.66-1.83ZM177.12,128.21c-.02.47.14.92.44,1.28.43.56,1.23.67,1.8.24.09-.07.18-.16.25-.25.56-.75.56-1.78,0-2.52-.43-.57-1.25-.68-1.82-.25-.09.07-.18.15-.25.25-.28.35-.43.8-.42,1.25Z"/>
  <path class="cls-1" d="M182.95,128.58l1.22,2.01h-.72l-1.12-1.93h-.11v1.93h-.59v-4.71h.69c.52,0,.89.12,1.12.35.26.28.4.65.38,1.03,0,.3-.08.6-.24.86-.14.23-.37.39-.63.46ZM182.22,128.04h.19c.56,0,.84-.26.84-.77,0-.48-.27-.72-.82-.72h-.21v1.49Z"/>
  <path class="cls-1" d="M187.95,126.54v4.04h-.59v-4.04h-.9v-.67h2.39v.67h-.9Z"/>
  <path class="cls-1" d="M190.22,127.72h1.69v-1.84h.59v4.71h-.59v-2.2h-1.69v2.2h-.59v-4.71h.59v1.84Z"/>
  <path class="cls-1" d="M195.86,126.54h-1.57v1.13h1.53v.67h-1.53v1.57h1.57v.67h-2.16v-4.71h2.16v.67Z"/>
  <path class="cls-1" d="M198.93,125.87l1.02,3.15,1.07-3.38,1.02,3.38,1.08-3.15h.64l-1.75,5.01-1.01-3.34-1.05,3.34-1.67-5.01h.64Z"/>
  <path class="cls-1" d="M204.14,128.21c-.01-.63.2-1.23.61-1.71.35-.45.89-.71,1.45-.71.56,0,1.04.24,1.44.72.4.48.62,1.1.6,1.73.02.63-.2,1.25-.6,1.73-.62.8-1.77.95-2.57.33-.1-.07-.18-.16-.26-.25-.45-.46-.67-1.07-.67-1.83ZM204.74,128.21c-.02.47.14.92.44,1.28.24.31.61.5,1,.5.41,0,.79-.19,1.04-.51.56-.75.56-1.78,0-2.52-.24-.32-.63-.51-1.03-.51-.41,0-.79.19-1.04.51-.28.35-.43.8-.42,1.25Z"/>
  <path class="cls-1" d="M210.56,128.58l1.22,2.01h-.72l-1.12-1.93h-.11v1.93h-.59v-4.71h.69c.52,0,.89.12,1.12.35.26.28.4.65.38,1.03,0,.3-.08.6-.24.86-.14.23-.37.39-.63.46ZM209.83,128.04h.19c.56,0,.84-.26.84-.77,0-.48-.27-.72-.82-.72h-.21v1.49Z"/>
  <path class="cls-1" d="M213.21,125.87v4.04h1.15v.67h-1.74v-4.71h.59Z"/>
  <path class="cls-1" d="M215.18,130.58v-4.71h.82c.32-.01.64.03.94.13.26.1.49.26.67.47.4.45.61,1.03.61,1.74s-.21,1.31-.63,1.76c-.19.2-.41.36-.67.47-.3.1-.61.15-.92.13h-.81ZM215.77,129.91h.27c.23,0,.45-.03.66-.1.18-.08.34-.19.48-.34.3-.34.46-.79.44-1.25.02-.46-.13-.91-.43-1.26-.26-.29-.64-.43-1.15-.43h-.27v3.37Z"/>
  <path class="cls-1" d="M223.23,126.54h-1.57v1.13h1.53v.67h-1.53v1.57h1.57v.67h-2.16v-4.71h2.16v.67Z"/>
  <path class="cls-1" d="M224.45,125.87l1.09,3.26,1.1-3.26h.65l-1.76,5.06-1.72-5.06h.65Z"/>
  <path class="cls-1" d="M230.19,126.54h-1.57v1.13h1.53v.67h-1.53v1.57h1.57v.67h-2.16v-4.71h2.16v.67Z"/>
  <path class="cls-1" d="M232.55,128.58l1.22,2.01h-.72l-1.12-1.93h-.11v1.93h-.59v-4.71h.69c.52,0,.89.12,1.12.35.26.28.4.65.38,1.03,0,.3-.08.6-.24.86-.14.23-.37.4-.64.46ZM231.81,128.04h.19c.56,0,.84-.26.84-.77,0-.48-.27-.72-.82-.72h-.21v1.49Z"/>
  <path class="cls-1" d="M235.22,128.55l-1.28-2.68h.68l.9,1.88.9-1.88h.68l-1.29,2.68v2.04h-.59v-2.04Z"/>
  <path class="cls-1" d="M239.66,130.58v-4.71h.82c.32-.01.64.03.94.13.26.1.49.26.67.47.4.44.61,1.03.61,1.74s-.21,1.31-.63,1.76c-.18.2-.41.36-.67.47-.3.1-.61.15-.92.13h-.81ZM240.25,129.91h.27c.23,0,.45-.03.67-.1.18-.08.34-.19.48-.34.3-.34.46-.79.44-1.25.02-.46-.13-.91-.43-1.26-.26-.29-.64-.43-1.15-.43h-.27v3.37Z"/>
  <path class="cls-1" d="M245.8,129.44h-1.68l-.43,1.14h-.64l1.94-5.01,1.88,5.01h-.65l-.41-1.14ZM245.56,128.77l-.59-1.61-.61,1.61h1.2Z"/>
  <path class="cls-1" d="M248.05,128.55l-1.28-2.68h.68l.9,1.88.9-1.88h.68l-1.29,2.68v2.04h-.59v-2.04Z"/>
  <path class="cls-2" d="M198.64,112.43l-.34-9.17h-16.73c.8,2.26,3.15,7.07,3.15,7.07,2.16,1.88,13.92,2.1,13.92,2.1Z"/>
  <path class="cls-2" d="M213.21,111.13c2.5-1.17,4.19-5.95,4.78-7.88h-17.05s-.67,9.15-.67,9.15c.73.24,12.94-1.27,12.94-1.27Z"/>
  <path class="cls-2" d="M215.38,110.64l6.94-1.47-6.98,2.21-2.61,3.27,1.31-2.74c-1.96.94-13.75,1.56-13.75,1.56l-.94,4.57-.78-4.57c-.86.16-12.82-1.01-12.82-1.01l.78,1.84-2.04-2.57h-.61c-.54-.08-3.8-1.34-5.68-2.08-.6-.16-1.09-.34-1.34-.54,0,0,.55.22,1.34.54,2.1.57,5.6.94,5.6.94-.27-.46-3.07-5.34-4.19-7.3h-12.82c7.31,10.22,19.26,16.89,32.76,16.89s25.44-6.68,32.75-16.91h-12.27c-1.29,2.26-4.64,7.4-4.64,7.4Z"/>
  <path class="cls-2" d="M200.83,75.54v3.75h23.14c-.04-3.5-.77-6.91-.77-6.91-5.14,2.29-22.36,3.16-22.36,3.16Z"/>
  <path class="cls-2" d="M219.07,59.94s-10.15,2.81-18.23,3.07v11.1s18.36-.99,21.99-3.23c0,0-2.5-9.92-3.76-10.94Z"/>
  <path class="cls-2" d="M198.41,63.08c-8.08-.24-17.88-2.72-17.88-2.72-1.14.94-3.32,11.31-3.32,11.31,3.02,1.63,20.8,2.36,20.8,2.36l.4-10.95Z"/>
  <path class="cls-2" d="M176.79,73.06c-.61.9-.94,6.24-.94,6.24h22.17v-3.76c-17.88-.61-21.23-2.48-21.23-2.48Z"/>
  <path class="cls-2" d="M174.42,71.72c-1.3-.17-4.85-1.81-6.9-2.79-.75-.27-1.31-.53-1.51-.74,0,0,.61.31,1.51.74,2.6.94,7.28,2.01,7.28,2.01.82-2.76,4.26-11.22,4.26-11.22-1.96-.54-3.78-1.31-4.45-1.71-.2-.07-.38-.18-.53-.33,0,0,.19.13.53.33,1.43.61,4.94.97,4.94.97,1.88-4.18,5.09-8.17,6.63-9.96.27-.35.56-.68.87-.98,0,0-.34.36-.87.98-2.72,3.43-5.24,10.28-5.24,10.28,3.84,1.55,17.56,1.99,17.56,1.99l1.47-15.5.03.35.78,15.14c7.51.2,18.12-2.09,18.12-2.09-.98-3.06-7.03-11.51-7.03-11.51,3.18,2.37,8.09,11.18,8.09,11.18,1.22.24,5.23-.74,5.23-.74-.32.4-4.57,1.47-4.57,1.47,1.92,2.86,4,10.77,4,10.77,1.47.08,9.06-2.23,9.06-2.23-.49.79-8.49,3.62-8.49,3.62.21.79.84,6.2.99,7.5h13.38c-2.2-20.24-19.3-35.99-40.06-35.98-20.76.01-37.85,15.77-40.03,36.02h13.92c-.41-.58,1.02-7.6,1.02-7.6Z"/>
</svg>