<?xml version="1.0" encoding="UTF-8"?>
<svg id="Capa_1" data-name="Capa 1" xmlns="http://www.w3.org/2000/svg" viewBox="0 0 400 150">
  <defs>
    <style>
      .cls-1 {
        fill: #1c7eb1;
      }

      .cls-2 {
        fill: #5f534c;
      }

      .cls-3 {
        fill: #25aadf;
      }

      .cls-4 {
        fill: #fbd24c;
      }

      .cls-5 {
        fill: #f8b22f;
      }

      .cls-6 {
        fill: #eec4a2;
      }

      .cls-7 {
        fill: #b05d52;
      }

      .cls-8 {
        fill: #f8d04b;
      }

      .cls-9 {
        fill: #eda934;
      }

      .cls-10 {
        fill: #fcfcfc;
      }

      .cls-11 {
        fill: #f27b36;
      }

      .cls-12 {
        fill: #3b7ea7;
      }

      .cls-13 {
        fill: #f17b36;
      }

      .cls-14 {
        fill: #1e648d;
      }

      .cls-15 {
        fill: #52b3e3;
      }

      .cls-16 {
        fill: #ed7136;
      }

      .cls-17 {
        fill: #deb899;
      }

      .cls-18 {
        fill: #3b7ea6;
      }

      .cls-19 {
        fill: #a1d4f0;
      }

      .cls-20 {
        fill: #3b7fa8;
      }

      .cls-21 {
        fill: #f5c9a7;
      }

      .cls-22 {
        fill: #f07636;
      }

      .cls-23 {
        fill: #eb6b37;
      }

      .cls-24 {
        fill: #4f4634;
      }

      .cls-25 {
        fill: #965644;
      }

      .cls-26 {
        fill: #eba834;
      }

      .cls-27 {
        fill: #1791cc;
      }

      .cls-28 {
        fill: #524a45;
      }

      .cls-29 {
        fill: #994136;
      }

      .cls-30 {
        fill: #f6cd29;
      }

      .cls-31 {
        fill: #c9e6f6;
      }

      .cls-32 {
        letter-spacing: -.04em;
      }

      .cls-33 {
        fill: #faf9f9;
      }

      .cls-34 {
        fill: #45403c;
      }

      .cls-35 {
        fill: #49433f;
      }

      .cls-36 {
        font-family: Arial-BoldMT, Arial;
        font-size: 2.82px;
        font-weight: 700;
      }

      .cls-37 {
        fill: #1890c9;
      }

      .cls-38 {
        fill: #b36257;
      }

      .cls-39 {
        fill: #594f49;
      }

      .cls-40 {
        fill: #c07267;
      }

      .cls-41 {
        fill: #f8ae30;
      }

      .cls-42 {
        fill: #ed6b37;
      }

      .cls-43 {
        fill: #efc4a3;
      }

      .cls-44 {
        fill: #83443a;
      }

      .cls-45 {
        fill: #4e4536;
      }

      .cls-46 {
        fill: #eee;
      }

      .cls-47 {
        fill: #ecc2a1;
      }

      .cls-48 {
        fill: #f59834;
      }

      .cls-49 {
        fill: #814b46;
      }

      .cls-50 {
        fill: #1e668f;
      }

      .cls-51 {
        fill: #d15c34;
      }

      .cls-52 {
        fill: #f5f5f5;
      }

      .cls-53 {
        fill: #1d77a7;
      }

      .cls-54 {
        fill: #fbfafa;
      }

      .cls-55 {
        fill: #fcfbfa;
      }

      .cls-56 {
        fill: #d29834;
      }

      .cls-57 {
        fill: #fdfcfc;
      }

      .cls-58 {
        fill: #965642;
      }

      .cls-59 {
        fill: #175e82;
      }

      .cls-60 {
        fill: #80c6ec;
      }

      .cls-61 {
        fill: #f3f3f3;
      }

      .cls-62 {
        fill: #f6ad30;
      }
    </style>
  </defs>
  <path class="cls-20" d="M65.83,50.58c-.4-2.5-.82-5-1.2-7.5-.08-.53-.15-1.02.53-1.41.86-.49,1.58-1.22,2.34-1.86.52-.44.93-.57,1.44.09,1.89,2.44,3.83,4.83,5.79,7.29.89-.52,1.97-.87,2.58-1.61.52-.62.64-1.7.66-2.58.07-3.07.03-6.14.03-9.31,1.45-.46,2.91-.92,4.48-1.41.32.7.62,1.37.93,2.04,1.13,2.42,2.26,4.84,3.4,7.27.03.06.05.16.1.18.37.15.88.5,1.11.37.82-.45,2.24.46,2.54-1.01.7-3.42,1.33-6.86,1.94-10.38,1.64-.08,3.32-.08,5.1-.08.79,3.31,1.52,6.62,2.17,9.94.15.75.41,1.19,1.22,1.25.44.03.87.31,1.29.29.36-.02.9-.23,1.04-.51,1.45-2.89,2.86-5.8,4.21-8.73.26-.57.56-.63,1.04-.47.97.33,1.97.62,2.89,1.06.33.16.67.69.68,1.07.07,1.85,0,3.7.04,5.55.03,1.7.1,3.4.23,5.09.03.32.37.7.67.9.69.47,1.45.85,2.18,1.26,2.14-2.73,4.26-5.43,6.49-8.27,1.27.99,2.62,1.76,3.56,2.88.41.49.09,1.68-.06,2.53-.41,2.39-.89,4.78-1.4,7.3-.78.68-1.46,1.6-2.24,1.7-2.1.25-2.14-1.99-3.19-3.24-.29.43-.51.77-.74,1.1-1.6,2.4-3.01,2.54-5.04.5-.02-.02-.05-.05-.07-.08-.38-.49-.71-.46-1.06.06-.35.52-.71,1.05-1.14,1.49-1.22,1.27-2.44,1.17-3.54-.21-.2-.25-.42-.48-.81-.93-.46,1.86-.7,3.81-3.27,2.57.06,1.04.26,1.92.11,2.74-.15.82-.66,1.57-1.07,2.31-1.27-.91-2.4-1.94-3.7-2.62-5.1-2.68-10.4-2.23-15.8-.74-1.01-.3-1.93-.63-2.88-.85-.77-.18-1.08-.62-1.17-1.37-.12-1.04-.32-2.06-.46-3.1-.09-.64-.36-.86-.99-.59-.74.31-1.52.53-2.24.87-.67.32-1.07.16-1.46-.46-.62-.98-1.34-1.91-2.11-3.01-.88,1.16-1.61,2.18-2.4,3.14-.21.25-.67.57-.89.49-.67-.24-1.27-.65-1.9-.99Z"/>
  <path class="cls-11" d="M360.98,85.07c-67.31.1-134.61.1-201.99.1v-3.56h201.89c.1,1.12.1,2.24.1,3.47Z"/>
  <path class="cls-20" d="M52.87,101.3c-.21.07-.43.2-.64.2-1.98.02-3.96,0-5.96,0,0-1.39.04-2.7-.02-4-.02-.44-.16-1.02-.46-1.28-2.18-1.88-4.42-3.69-6.7-5.47-.06-.51-.06-1.07-.06-1.73.2-.42.49-.72.57-1.07.28-1.16.49-2.35.77-3.71h8.37c.43-1.27.84-2.36,1.16-3.47.08-.29-.05-.72-.22-.99-1.66-2.6-3.38-5.16-5.02-7.78-.24-.38-.32-1.06-.16-1.47.52-1.27,1.17-2.5,1.84-3.7.13-.23.66-.46.91-.38,2.55.76,5.07,1.58,7.62,2.39.56-.78,1.12-1.64,1.76-2.44.41-.51.36-.98.14-1.51-1.03-2.53-2.05-5.07-3.08-7.6-.04-.1-.09-.19-.14-.28-.64-1.28-.68-2.46.45-3.54.67-.63,1.2-1.41,1.9-2.01.2-.17.83-.07,1.11.13,1.73,1.22,3.42,2.49,5.17,3.86-.56.34-1.15.63-1.78.78-.82.19-.98.63-.8,1.37.24,1.02.41,2.05.68,3.06.18.68.08,1.19-.42,1.71-.66.67-1.29,1.38-1.82,2.15-.18.27-.18.87,0,1.14.57.87,1.32,1.63,1.9,2.49.23.35.27.87.28,1.32.04,1.23-.96,1.94-1.5,2.88-4.86,8.53-7.51,17.83-9.47,27.37-.16.78.18,1,.84,1.09.93.14,1.85.31,2.78.46Z"/>
  <path class="cls-34" d="M52.95,101.33c-1-.19-1.92-.36-2.85-.5-.65-.1-1-.32-.84-1.09,1.97-9.54,4.61-18.84,9.47-27.37.54-.94,1.54-1.65,1.5-2.88-.02-.45-.05-.97-.28-1.32-.58-.87-1.33-1.62-1.9-2.49-.18-.27-.18-.87,0-1.14.53-.77,1.17-1.48,1.82-2.15.5-.51.6-1.03.42-1.71-.27-1.01-.44-2.05-.68-3.06-.17-.74-.02-1.19.8-1.37.63-.14,1.22-.44,1.84-.74.79-.07.98-.59,1.09-1.22.17-.98.3-1.98.58-2.93.41-1.35.46-1.33,1.81-.79.7.35,1.31.76,1.97,1,.22.08.68-.24.89-.49.79-.96,1.52-1.98,2.4-3.14.78,1.1,1.49,2.02,2.11,3.01.39.62.79.77,1.46.46.72-.34,1.5-.56,2.24-.87.63-.26.9-.05.99.59.14,1.04.34,2.06.46,3.1.09.74.4,1.19,1.17,1.37.95.22,1.87.55,2.88.93.08.19.08.28.04.44-.14.56-.24,1.06-.39,1.62-.22.68-.47,1.29-.55,1.92-.06.45.1.93.18,1.46.09.15.15.23.21.31.7.91,1.97,1.85,1.93,2.73-.04.95-1.28,1.88-2.06,2.75-.47.53-.58,1.02-.4,1.71.34,1.33.58,2.7.87,4.09-1.1.32-2.06.64-3.04.87-.6.14-.86.42-.97,1.03-.24,1.43-.57,2.84-.89,4.37-.72-.29-1.3-.52-1.87-.75q-2.1-.87-3.25,1.15s-.01.07-.07.14c-.16.14-.26.26-.41.42-.17.23-.3.42-.47.65-.09.18-.13.31-.25.45-.34-.13-.64-.24-.85-.43-.32-.28-.58-.63-.88-1.01-.1-.16-.18-.26-.26-.43q-.9-1.69-2.56-1.05c-.76.29-1.53.57-2.41.91-.24-1.54-.46-2.88-.64-4.22-.09-.64-.35-1.01-1.13-.97-.17,1.66-.33,3.16.8,4.61,4.39,5.65,8.96,11.08,15.23,14.79.21.12.52.25.57.43.35,1.23,1.46,1.23,2.34,1.31,1.52.15,3.06.05,4.59.12,0,.14,0,.23-.09.33-2.39.28-4.67.4-6.8-.65-.11.12-.18.16-.2.22-1.26,4.02-2.53,8.04-3.74,12.07-.09.29.19.89.47,1.06,1.46.87,3,1.63,4.48,2.48.62.36,1,.21,1.42-.28.83-.98,1.65-2,2.59-2.87.43-.4,1.41-.87,1.68-.67,1.13.83,2.54,1.07,3.63,1.84.52.36.79.43,1.34.2,1.37-.58,2.32-.09,2.86,1.31.1.26.41.5.68.63.96.44,1.46,1.09,1.37,2.21-.03.42.25.87.35,1.39-.21.11-.48.09-.53.18-.3.56-.54,1.16-.83,1.8,1.14.58,2.16,1.39,3.49.46.09-.1.15-.15.27-.17.53.34.96.7,1.45.94,1.96.92,3.51-.01,3.75-2.26.1-.1.16-.16.32-.2.68-.09,1.48.01,1.8-.33.49-.53.66-1.36,1-2.17,0,0,.24.14.45.09.62-.14,1.41-.18,1.77-.58.3-.33.16-1.14.06-1.71-.08-.46-.41-.87-.59-1.35.09-.11.15-.16.27-.18.49.97.93,1.89,1.4,2.89.74.07,1.22-.31,1.34-1.21.16-1.2.38-2.4.61-3.58.14.08.23.13.33.27.01.45.02.81-.03,1.23-.39,1.33-.78,2.58-1.07,3.85-.09.39-.08.97.15,1.23,1.06,1.18,4.25.55,4.72-.93.34-1.08.49-2.23.75-3.41.19-2.41.35-4.75.52-7.19-.34-2.12-.68-4.15-.96-6.18.15,0,.24,0,.36.07,1.77,5.63,1.37,11.17-.15,16.69-.13.47-.55.87-.81,1.31-.36.61-.71,1.22-1.06,1.84.11.08.23.15.34.23,2.95-2.86,5.9-5.72,8.91-8.61,2.53-2.35,5-4.66,7.44-7.01.38-.37.67-.9.83-1.4,1.02-3.23,1.13-6.51.5-9.82.15,0,.24,0,.35.08.93,3.62.46,7.11-.54,10.63.7.14,1.23.29,1.78.36,2.49.3,3-.22,2.65-2.69,0-.03-.01-.07-.02-.1-.81-6.52-2.69-12.68-6.18-18.33.09-.11.15-.17.29-.21,1-.92,1.93-1.85,2.93-2.85-1.33-1.95.02-3.43,1.48-4.92-1.14-.8-2.61-1.53-2.02-3.08.46-1.19,1.53-2.14,2.18-3-.77-.6-2-1.12-2.44-2.02-.44-.92-.1-2.22-.1-3.4-2.93-.43-2.53-2.81-2.52-4.68-1.41.16-2.83.6-4.15.4-1.6-.24-1.88-1.93-2.37-3.3-1.02.77-2.01,1.8-3.23,1.06-.94-.57-1.61-1.59-2.42-2.42-.72.94-1.44,2.06-2.87,2.26-1.47.2-2.36-.79-3.3-1.66-2.73,3.24-3.21,3.36-5.79,1.37-.42,1.44-1.12,2.56-2.91,2.1.11,1.71.21,3.26-1.08,4.48-.18-.08-.3-.14-.41-.21.35-.78.86-1.53,1.01-2.34.15-.82-.05-1.71-.11-2.74,2.57,1.23,2.8-.71,3.27-2.57.39.45.62.68.81.93,1.09,1.39,2.31,1.48,3.54.21.43-.45.79-.97,1.14-1.49.35-.52.67-.55,1.06-.06.02.03.04.05.07.08,2.02,2.03,3.44,1.89,5.04-.5.22-.33.45-.67.74-1.1,1.05,1.25,1.09,3.49,3.19,3.24.78-.09,1.46-1.02,2.24-1.61.8-.03.7.6.88,1.05.27.68.48,1.45.95,1.99.34.39,1.04.48,1.72.75,1.3-.28,2.46-.62,3.72-.99-.09.72-.23,1.46-.27,2.21-.1,1.93.63,2.78,2.47,3,.22.03.43.14.68.23-.27.61-.56,1.13-.73,1.69-.25.79-.33,1.59.46,2.18.93.42,1.86.83,2.78,1.26.2.09.49.22.51.37.02.17-.16.42-.33.56-.61.51-1.24.98-1.97,1.54-1.27.88-1.37,2.15-.32,3.01.52.42,1.11.77,1.75,1.21-1.81,1.53-3.41,3.03-1.43,5.39-.73.39-1.37.67-1.93,1.06-1.3.9-1.48,1.83-.74,3.2.51.95,1.03,1.9,1.48,2.88,2.09,4.61,3.25,9.47,3.84,14.48.12,1.06.14,1.93-.87,2.53-.92.06-1.9.35-2.75.13-1.31-.34-2.11.1-2.97.98-1.26,1.29-2.63,2.48-3.93,3.73-1.67,1.6-3.32,3.23-4.99,4.84-.85.82-1.73,1.61-2.59,2.42-1.41,1.33-2.79,2.7-4.24,3.99-.38.34-.97.43-1.46.63-.19-.45-.43-.89-.54-1.35-.17-.71-.3-1.26-1.25-1.37-1.17-.13-1.68-.93-1.63-2.16-1.02.35-2.02.66-3,1.05-.2.08-.32.44-.39.7-.29.98-1.03,1.4-1.93,1.72-.43.15-.82.5-1.14.84-.44.47-.79,1.03-1.17,1.62-.98.07-1.96.07-3.04,0-.6-.63-1.15-.77-1.93-.67-.79.1-1.65-.06-2.42-.29-1.09-.33-2.17-.02-2.87,1.03h-1.17c-.53-.72-1.08-.98-1.99-1.16-1.57-.31-3.08-.42-4.66-.45-.52-.01-1.01-.93-1.54-1.41-.23-.21-.48-.49-.75-.53-1.57-.24-2.31-1.03-2.21-2.69.03-.6-.16-.85-.65-1.11-1.49-.79-2.96-1.63-4.57-2.54-.25,1.07-.51,2.03-.71,3-.49,2.46-1.8,2.47-3.76,1.49-.46-.23-.87-.54-1.49-.94-.08.61-.21,1.04-.19,1.46.05.95-.55,1.3-1.24,1.03-.8-.31-1.61-.82-2.18-1.46-1.97-2.19-3.85-4.47-5.75-6.73-1.34-1.59-2.75-3.14-3.94-4.85-.67-.96-1.57-.86-2.52-1.12M94.79,113.12h.07s-.03-.07-.05-.26c-.37-.28-.73-.56-1.1-.83-.21.36-.42.73-.62,1.1-.05.09-.03.2-.14.39-.01.12-.02.25-.16.45-.61.93-1.25,1.85-1.83,2.8-.2.33-.49.85-.36,1.1.31.62.99.88,1.6.48.78-.51,1.46-1.19,2.18-1.8-.04-.1-.07-.19-.11-.29-1.1.08-1.49-.52-1.5-1.44,0-.31.08-.62.23-.97.04-.11.08-.22.26-.4.5-.12.99-.25,1.51-.32M85.55,111.97c-.85.21-1.56-.02-1.61-.94-.03-.59.21-1.35.61-1.77.37-.4,1.11-.45,1.68-.65-.72-.78-1.25-.83-1.96-.06-1.12,1.19-2.3,2.35-3.24,3.68-.36.5-.31,1.49-.08,2.13.14.38,1.01.7,1.53.68,1.86-.06,2.81-1.31,3.43-3.01-.06-.02-.12-.04-.36-.04M88.94,112.68c.06-.16.21-.33.17-.47-.09-.36-.26-.7-.4-1.04-.34.24-.89.42-.96.73-.12.48.08,1.03-.02,1.57-.84-.36-.71-1.02-.47-1.66.35-.95,1.07-1.3,2.12-.97-.11-1.01-.69-1.41-1.52-1.53-.96-.14-.82.67-.95,1.18-.55,2.07-1.27,4.01-3.43,4.93.28,1.53,1.04,2.03,2.44,1.65,1.91-.51,2.99-1.8,3.53-3.65.17-.58-.15-.55-.5-.74M74.52,107.45c.64-2.17,1.28-4.34,1.98-6.65.59-1.75,1.19-3.5,1.75-5.27.09-.28.08-.79-.09-.92-1.49-1.08-3.03-2.09-4.68-3.21-1.35,2.88-2.35,5.69-3.02,8.76-.42,2.26-.84,4.52-1.35,6.92-.17,1.34-.38,2.68-.49,4.03-.03.36.12.91.38,1.1.81.59,1.68,1.12,2.59,1.55.76.35,1.36.07,1.58-.81.43-1.79.86-3.59,1.36-5.52M61.29,108.37c1.5,1.8,2.99,3.6,4.5,5.38.52.61,1.08,1.2,2.09.95.09-1.19.17-2.36.27-3.54.55-6.58,1.87-12.98,4.51-19.06.35-.8.21-1.22-.39-1.78-3.59-3.33-6.82-7-9.73-10.94-.16-.22-.35-.42-.63-.76-.33.86-.61,1.6-.99,2.46-2.42,6.21-4.39,12.54-5.41,19.14-.07.45-.07,1.06.18,1.37,1.81,2.25,3.69,4.44,5.61,6.78M60.09,73.36c.83.27,1.65.59,2.49.8.79.19,1.16.56,1.24,1.41.1,1.19.37,2.37.58,3.65,1.08-.41,2-.72,2.9-1.1.62-.27,1-.2,1.37.41.58.94,1.25,1.82,1.98,2.86.81-1.08,1.54-2,2.21-2.97.36-.52.7-.66,1.3-.37.87.42,1.79.75,2.78,1.16.3-1.45.51-2.79.87-4.1.11-.4.55-.85.95-1.01.89-.36,1.85-.56,2.88-.85-.3-1.38-.64-2.65-.82-3.95-.07-.51.11-1.16.4-1.59.62-.92,1.95-1.74,1.95-2.59,0-.92-1.16-1.87-1.89-2.74-.51-.61-.61-1.17-.37-1.92.36-1.15.61-2.34.93-3.58-.97-.31-1.82-.64-2.7-.83-.91-.19-1.25-.69-1.33-1.58-.11-1.15-.34-2.3-.53-3.51-1.1.41-2.03.72-2.92,1.11-.62.27-1,.18-1.37-.42-.58-.94-1.25-1.83-1.96-2.85-.73.98-1.42,1.81-2.01,2.71-.48.74-.97.97-1.8.52-.76-.4-1.59-.67-2.49-1.03-.27,1.34-.54,2.56-.74,3.79-.12.78-.41,1.25-1.25,1.41-.91.17-1.78.5-2.71.77.3,1.44.64,2.72.82,4.03.07.47-.1,1.09-.38,1.48-.67.93-1.47,1.75-2.25,2.66.78.97,1.46,1.9,2.22,2.76.47.53.56,1.04.38,1.72-.32,1.2-.56,2.43-.71,3.78M56.83,77.1c-3.38,7.36-5.56,15.08-7.13,23.13,1.79.27,3.45.52,5.1.76.08-.28.13-.37.14-.47,1.07-6.86,3.06-13.46,5.66-19.89.68-1.68,1.12-3.33,1.08-5.15-.02-.85-.18-1.28-1.04-1.44-.72-.13-1.55-.26-1.53-1.43-.74,1.45-1.49,2.89-2.29,4.48M91.03,113.97c-.61-.92-.59-1.93.05-2.68.54-.63,1.14-.62,1.85.09-.35-1.24-.87-1.6-1.78-1.42-.86.18-1.4.56-1.12,1.58.1.35.03.76,0,1.14-.14,1.77-1.1,3.1-2.39,4.22.67.85,1.45.98,2.13.33.87-.85,1.6-1.85,2.49-2.9-.56-.14-.82-.2-1.23-.36M86.07,109.3c-.84-.23-1.56.18-1.66,1.09-.04.38.2.98.49,1.15.49.29,1.3-.51,1.4-1.33.03-.26-.08-.53-.23-.91M91.65,111.39c-.19.59-.44,1.17-.54,1.77-.02.13.45.35.69.53.24-.42.59-.82.69-1.28.1-.46.14-1.1-.84-1.03M94.53,113.61c-.9-.18-1.49.58-1.22,1.6.06.2.24.47.41.52.18.05.57-.1.6-.24.15-.57.2-1.16.2-1.88M114.01,116.99c.16-.48.32-.97.56-1.69-.48.14-.97.25-.97.3.05.5.18.99.4,1.39M89.45,111.02l-.03-.03s0,.04.03.03Z"/>
  <path d="M92.36,119.33c.6-1.05,1.68-1.36,2.77-1.03.77.23,1.64.39,2.42.29.78-.1,1.34.03,1.84.67-2.31.08-4.62.08-7.03.08Z"/>
  <path class="cls-20" d="M136.6,101.49c.92-.61.91-1.49.78-2.55-.59-5.02-1.75-9.87-3.84-14.48-.44-.98-.96-1.93-1.48-2.88-.74-1.36-.55-2.3.74-3.2.56-.39,1.2-.67,1.93-1.06-1.97-2.36-.37-3.86,1.43-5.39-.64-.44-1.23-.78-1.75-1.21-1.06-.86-.95-2.13.28-2.94.18.39.28.79.41,1.27,2.8-1,5.55-1.98,8.5-3.03.5,1.2.83,2.48,1.51,3.55,1.09,1.7.42,2.95-.57,4.34-1.41,1.98-2.67,4.07-4.06,6.07-.39.57-.38,1.04-.14,1.6.12.28.35.54.4.84.27,1.69,1.51,1.91,2.88,1.91,2.11.01,4.23,0,6.38,0,.34,2.15.68,4.04.9,5.93.05.39-.24.95-.56,1.23-2.23,1.99-4.52,3.92-6.78,5.87.18,1.42.36,2.83.57,4.48-2.63-.12-5.05-.22-7.55-.34Z"/>
  <path class="cls-42" d="M308.57,76.99c-2.37.39-4.07-.41-5.51-2.21-1.06-1.31-2.43-2.37-3.69-3.52-.21-.19-.53-.32-.81-.34-.87-.04-1.74-.02-2.72-.02v6.01h-3.97v-16.07h1.07c4.33,0,8.66,0,12.99.01.61,0,1.24.09,1.83.23.92.23,1.63,1.31,1.65,2.49.02,1.61.03,3.21,0,4.82-.03,1.43-1.1,2.47-2.55,2.5-.84.02-1.68,0-2.84,0,2.49,2.06,4.77,3.95,7.06,5.84,0,.08,0,.16,0,.24h-2.5M295.79,67c.02.3.04.6.06.97,2.89,0,5.71.03,8.53-.04.35,0,1.01-.53.99-.76-.1-1.05.59-2.24-.47-3.13-.07-.06-.2-.05-.3-.05-2.91,0-5.81,0-8.81,0v3.01Z"/>
  <path class="cls-42" d="M180.3,75.71v-9.21c-.97,1.32-1.82,2.49-2.68,3.65-1.14,1.54-2.28,3.08-3.43,4.61-.45.6-1.38.48-1.93-.27-.77-1.05-1.47-2.14-2.25-3.18-1.18-1.58-2.41-3.13-3.72-4.81v10.4h-3.33v-16.06c1.02,0,2.02-.02,3.02.02.18,0,.39.19.52.35,1.95,2.48,3.89,4.97,5.84,7.45.38.48.81.92,1.3,1.48.82-1.06,1.65-2.09,2.44-3.15,1.39-1.84,2.74-3.72,4.17-5.54.25-.32.79-.53,1.22-.58.82-.09,1.66-.03,2.53-.03v16.06h-3.72v-1.2Z"/>
  <path class="cls-42" d="M244.48,70.49c-2.62-.29-3.14-.67-3.28-2.52-.12-1.61-.06-3.25.04-4.86.11-1.63.86-2.12,2.8-2.2,3.69-.17,7.4-.13,11.1-.02,2.52.07,3.22,1.15,3.11,3.7,0,.18-.2.48-.35.52-1.01.25-2.04.45-3.16.69v-1.92h-10.02v3.23c.34.02.68.04,1.01.05,3.28,0,6.56,0,9.85,0,1.72,0,2.61.52,2.79,2.16.21,1.82.21,3.7,0,5.53-.17,1.51-1.19,2.13-3.02,2.15-3.98.04-7.96.03-11.94,0-1.85-.01-2.78-.91-2.95-2.73-.05-.58,0-1.18,0-1.8,1.18-.2,2.28-.38,3.51-.59v1.92h10.89v-3.28h-10.37Z"/>
  <path class="cls-42" d="M322.62,73.85h7.9v-3.35c-3.09,0-6.15.01-9.21,0-.75,0-1.5-.12-2.25-.19-1.31-.12-2.09-.73-2.12-2.15-.03-1.59-.27-3.19-.13-4.77.16-1.79,1.06-2.48,3.02-2.51,3.66-.06,7.33-.1,11,.01,2.53.07,3.22,1.17,3.1,3.7,0,.18-.2.47-.35.51-1.01.25-2.04.45-3.16.69v-1.92h-10.02v3.23c.34.02.68.04,1.02.05,3.28,0,6.56,0,9.84,0,1.72,0,2.61.52,2.79,2.16.21,1.82.21,3.7,0,5.53-.17,1.51-1.19,2.13-3.02,2.15-3.98.04-7.96.03-11.94,0-1.85-.01-2.78-.91-2.95-2.73-.05-.58,0-1.17,0-1.8,1.17-.2,2.28-.38,3.51-.59v1.99h2.99Z"/>
  <path class="cls-42" d="M232.97,63.75c2.19,2.79,1.92,8.88-.92,11.27-1.19,1-2.58,1.69-4.08,1.73-4.31.1-8.62.04-13.01.04v-15.93h1.09c3.35,0,6.7-.06,10.05.02,2.6.07,5.04.69,6.87,2.87M218.86,68.92v4.71c2.42,0,4.71.07,6.98-.04.83-.04,1.71-.4,2.44-.83,1.81-1.08,2.03-2.88,1.9-4.77-.09-1.33-.6-2.38-1.74-3.2-.98-.7-2-.81-3.11-.81-2.13,0-4.26,0-6.46,0v4.94Z"/>
  <path class="cls-42" d="M207.3,60.85c.55-.03.93-.03.89.62-.05.72-.01,1.45-.01,2.29h-12.52v3.32h7.21v2.98h-7.21v3.74h12.45v3.13h-16.65v-16.08c5.24,0,10.49,0,15.84,0Z"/>
  <path class="cls-42" d="M283.81,75.41c-.56,1.25-1.62,1.56-2.75,1.57-4.01.04-8.03.04-12.04,0-2.08-.02-2.87-.87-3.2-3.28-.03-.21,0-.42,0-.63,0-4.04,0-8.08,0-12.17h4.14v12.87h10.09v-12.87h4v.97c0,4.08,0,8.17,0,12.25,0,.4-.13.8-.24,1.28Z"/>
  <path class="cls-42" d="M343.16,67.55c1.19-2.12,2.35-4.16,3.55-6.18.14-.24.5-.36.77-.51.08-.04.21.01.31,0,2.28-.46,3.62.42,4.6,2.57,1.18,2.6,2.76,5.02,4.19,7.51,1.07,1.86,2.2,3.68,3.29,5.53.06.11.03.27.06.53-1.39,0-2.74.04-4.08-.03-.27-.02-.67-.41-.76-.71-.71-2.23-2.17-2.91-4.45-2.65-2,.23-4.05.01-6.07.08-.38.01-.87.33-1.09.65-.55.82-.98,1.72-1.47,2.63h-4.16c.65-1.16,1.25-2.21,1.84-3.27,1.03-1.85,2.05-3.71,3.09-5.55.1-.18.26-.33.4-.57M351.04,68.63c-.71-1.29-1.43-2.58-2.28-4.12-1.14,2.13-2.14,3.99-3.17,5.92h6.17c-.23-.6-.44-1.13-.72-1.81Z"/>
  <path class="cls-12" d="M133.75,63.91c-.8-.51-.72-1.31-.47-2.1.17-.55.46-1.07.73-1.69-.26-.09-.46-.21-.68-.23-1.84-.22-2.56-1.07-2.47-3,.04-.75.18-1.49.27-2.21-1.26.37-2.42.71-3.64.99,1.88-1.53,3.84-2.96,5.71-4.51.75-.62,1.12-.24,1.51.28.67.89,1.23,1.87,1.95,2.72.5.59.56,1.11.28,1.79-1.08,2.62-2.12,5.25-3.19,7.95Z"/>
  <path class="cls-44" d="M68.97,80.09c.08.1.16.2.22.43-.13.27-.24.4-.34.54-1.09,1.51-1.08,1.76.09,3.17,2.62,3.14,5.8,5.51,9.61,7.02,6.01,2.37,12.07,2.08,18.16.33,2.51-.72,2.51-.73,2.5-3.29,0-.07,0-.14,0-.21,0-1.24-.02-1.25-1.27-1.02-.02-.14-.03-.19-.06-.31-.41-.37-.85-.62-1.16-.98-.54-.65-1.12-.65-1.86-.39-.92.32-1.88.53-2.81.7,0-.14.01-.19.09-.27,1.2-.35,2.33-.68,3.56-1.04-1.85-2.96-2.13-5.96-.95-9.1.09-.23.06-.57-.04-.81-1.5-3.62-3.17-7.16-5.97-9.97-1.06-1.06-2.36-1.99-3.72-2.6-1-.45-2.27-.28-3.42-.39-.06-.47-.22-.95-.16-1.4.08-.63.33-1.24.63-1.92,7.43,2.34,11.59,7.72,14.08,14.82,1.4-1.44,3.03-2.11,5-1.85-.02-.41,0-.69-.05-.96-.97-6.2-4.09-11.03-9.33-14.47-.35-.23-.87-.35-1.28-.3-2.69.32-5.37.71-8.05,1.07,0-.1,0-.19,0-.36,5.32-1.58,10.62-2.02,15.72.65,1.31.69,2.43,1.71,3.7,2.62.18.1.29.17.47.32.61.85,1.16,1.62,1.72,2.45.13.16.25.26.38.44,1,2.68,1.99,5.28,2.99,7.94.06.21.12.36.16.59,0,.91.23,1.58.85,2.22.46.48.7,1.27.83,1.96.18.91.15,1.86.2,2.83,0,.21.03.37.05.62.07.57.14,1.06.2,1.63-.02.24-.04.4-.1.62-.03.59-.16,1.17.02,1.64.37.99.9,1.93,1.33,2.94-.1.1-.16.16-.28.18-.62-1.09-1.18-2.14-1.79-3.28-.64.87-1.43,1.6-1.8,2.51-1.2,2.98-3.56,4.64-6.3,5.93-.34.16-.73.23-1.1.29-.56.08-1.14.03-1.69.15-2.1.47-4.18,1.17-6.3,1.45-9.24,1.21-17.07-1.52-23.19-8.69-1.34-1.57-1.34-2.03-.11-3.74.18-.25.4-.47.61-.7M108.61,79.41c-.01-.06-.03-.11.02-.33.61-1.81.23-4.3-.83-5.09-.09.39-.17.75-.42,1.1-.06,0-.11,0-.16-.2-.31-2.05-.41-4.16-.97-6.15-1.26-4.45-3.58-8.24-7.64-10.74-1.73-1.06-3.61-1.72-5.69-1.87.05.16.19.2.3.29,4.96,3.65,7.78,8.54,8.5,14.66.04.37.39.83.73,1.02,1.79.99,2.83,2.53,3.43,4.43.1.31.3.58.54.95.05.06.09.11.08.33-.07,1.25-.14,2.51-.13,3.82.05.04.1.09.05.26.15.79.3,1.59.5,2.61.59-.79.99-1.39,1.46-1.94.67-.78.8-1.68.67-2.64-.02-.13-.27-.24-.45-.53M95.3,75.83c-.24,1.3-.47,2.6-.71,4.07.42,1.33.83,2.66,1.29,4.13,1.35,2.21,2.6,2.67,4.48,1.68-.73-.6-1.48-1.21-2.28-1.95-1.1-1.76-1.29-3.72-1.14-5.87.25-.86.51-1.72.89-2.65.13-.12.27-.23.37-.36,1.44-1.85,2.47-2.16,4.7-1.41.1.03.23-.02.6-.05-1.33-1.1-2.59-1.67-4.09-1.36-2.02.43-3.45,1.57-4.12,3.76M105.18,79.76c.12-1.88-.29-3.61-1.54-5.06-1.17-1.36-2.66-1.52-4.21-.47-2.71,2.29-2.81,7.73-.19,10.08,1.28,1.15,2.88,1.15,4.13-.06,1.21-1.18,1.75-2.65,1.81-4.48Z"/>
  <path class="cls-21" d="M95.84,115.13c-.14-.44-.42-.88-.39-1.31.08-1.12-.41-1.77-1.37-2.21-.27-.12-.58-.37-.68-.63-.54-1.4-1.49-1.89-2.86-1.31-.54.23-.82.16-1.34-.2-1.1-.78-2.5-1.01-3.63-1.84-.27-.2-1.25.27-1.68.67-.94.87-1.75,1.89-2.59,2.87-.42.49-.81.64-1.42.28-1.48-.85-3.01-1.61-4.48-2.48-.28-.17-.56-.77-.47-1.06,1.21-4.04,2.48-8.05,3.74-12.07.02-.06.09-.1.2-.22,2.13,1.05,4.41.93,6.9.66,1.01,0,1.83,0,2.65-.03.13,0,.25-.27.41-.44.09-.04.14-.02.09.06-.01.46,0,.78-.38,1.19-.9.95-1.75,1.99-2.45,3.09-.61.97-.84,2.09.02,3.11.82.97,2.28,1.41,3.52.79,1.06-.53,1.97-1.39,2.95-2.08.35-.25.76-.67,1.11-.65,2.12.17,4.27-.76,6.37.16.02-.07.05-.13.12-.16.82.82,1.58,1.6,2.26,2.44.04.23.17.4.33.6.11.11.2.19.33.33,1.72,1.78,3.39,3.51,5.06,5.24.22.43.54.85.63,1.3.1.57.24,1.38-.06,1.71-.36.4-1.15.44-1.77.58-.21.05-.46-.09-.45-.09-.35.8-.51,1.64-1,2.17-.32.35-1.12.24-1.85.28-2.22-1.93-4.31-3.79-6.39-5.65,1.82,2.19,3.61,4.42,6.08,5.95-.2,2.2-1.75,3.14-3.72,2.21-.5-.23-.93-.6-1.49-1-.76-.77-1.43-1.45-2.12-2.17-.08-.07-.15-.1-.21-.12,0,0,0,0,0,0M101.08,109.57c1.58,1.44,3.17,2.86,5.09,3.84-2.31-2-4.61-3.99-6.92-5.99-.08.09-.17.17-.25.26.66.6,1.32,1.19,2.08,1.89Z"/>
  <path class="cls-57" d="M81.61,61.97c1.13.04,2.4-.13,3.4.32,1.36.61,2.67,1.54,3.72,2.6,2.8,2.81,4.47,6.36,5.97,9.97.1.24.13.57.04.81-1.18,3.14-.89,6.14.95,9.1-1.23.36-2.35.68-3.64,1.04-3.98.94-7.79,1.16-11.61-.03-3.29-1.02-5.9-3.07-8.31-5.44,0-.03,0-.07.02-.1q1.14-2.02,3.25-1.15c.57.24,1.15.46,1.87.75.32-1.53.65-2.95.89-4.37.1-.61.36-.89.97-1.03.98-.23,1.94-.55,3.04-.87-.29-1.4-.53-2.76-.87-4.09-.18-.69-.07-1.18.4-1.71.78-.88,2.01-1.8,2.06-2.75.04-.88-1.23-1.82-1.93-2.73-.06-.08-.13-.16-.21-.31Z"/>
  <path class="cls-5" d="M104,62.52c-.55-.77-1.1-1.54-1.64-2.38,1.24-1.3,1.13-2.84,1.03-4.56,1.79.47,2.49-.65,2.91-2.1,2.59,1.98,3.07,1.86,5.79-1.37.94.87,1.83,1.86,3.3,1.66,1.43-.2,2.15-1.32,2.87-2.26.8.83,1.48,1.85,2.42,2.42,1.23.75,2.21-.28,3.23-1.06.49,1.36.77,3.06,2.37,3.3,1.32.2,2.74-.24,4.15-.4-.02,1.87-.41,4.25,2.52,4.68,0,1.19-.35,2.48.1,3.4.44.9,1.67,1.42,2.44,2.02-.65.86-1.72,1.81-2.18,3-.6,1.55.88,2.28,2.02,3.08-1.46,1.49-2.82,2.96-1.48,4.92-1,1-1.93,1.93-2.95,2.78-.45-.53-.8-.99-1.2-1.5-.97.98-1.84,1.87-2.74,2.79-.72-.68-1.19-.42-1.56.3-.13.25-.32.46-.46.7-.42.73-.83.92-1.65.37-2.08-1.39-3.95-.99-5.44,1.04-.2.27-.4.53-.61.81-3.28-3.88-3.49-3.93-6.35-1.78-.4-.55-.81-1.1-1.21-1.65-.07-.49-.13-.98-.11-1.55,5.36.13,10.62.34,15.89.57,1.08.05,1.79-.37,2.19-1.4.97-2.5,2.07-4.97,2.94-7.51.32-.93.38-2.1.14-3.06-.58-2.37-1.4-4.68-2.11-7.01-.24-.77-.82-.96-1.54-.98-6.25-.23-12.49-.5-18.74-.65-.73-.02-1.6.45-2.19.95-.82.69-1.43,1.61-2.13,2.43Z"/>
  <path class="cls-30" d="M60.03,73.3c.21-1.28.44-2.51.77-3.71.18-.68.09-1.19-.38-1.72-.76-.86-1.44-1.79-2.22-2.76.78-.9,1.58-1.73,2.25-2.66.28-.39.45-1.01.38-1.48-.18-1.31-.52-2.59-.82-4.03.92-.27,1.8-.6,2.71-.77.84-.16,1.13-.63,1.25-1.41.19-1.23.47-2.45.74-3.79.91.37,1.74.63,2.49,1.03.83.45,1.32.22,1.8-.52.59-.9,1.28-1.73,2.01-2.71.71,1.02,1.38,1.91,1.96,2.85.37.6.75.69,1.37.42.89-.39,1.82-.7,2.92-1.11.19,1.22.43,2.36.53,3.51.08.89.42,1.39,1.33,1.58.88.19,1.72.52,2.7.83-.32,1.24-.57,2.42-.93,3.58-.24.75-.14,1.31.37,1.92.73.87,1.89,1.82,1.89,2.74,0,.85-1.33,1.68-1.95,2.59-.29.43-.47,1.08-.4,1.59.18,1.3.52,2.58.82,3.95-1.03.29-1.99.49-2.88.85-.4.16-.84.61-.95,1.01-.36,1.3-.58,2.65-.87,4.1-.99-.41-1.91-.74-2.78-1.16-.6-.29-.94-.14-1.3.37-.67.97-1.4,1.89-2.21,2.97-.73-1.04-1.4-1.92-1.98-2.86-.37-.61-.75-.68-1.37-.41-.89.39-1.82.7-2.9,1.1-.21-1.28-.48-2.46-.58-3.65-.07-.85-.45-1.22-1.24-1.41-.85-.2-1.66-.53-2.55-.86M63.05,65.9c.08,2.4.76,4.61,2.19,6.54,2.91,3.92,7.84,3.97,10.86.14,3.09-3.91,3.37-10.19.65-14.37-2.96-4.54-8.41-4.65-11.54-.22-1.64,2.31-2.25,4.92-2.17,7.9Z"/>
  <path class="cls-22" d="M61.02,80.96c.28-.74.56-1.48.89-2.34.28.34.47.54.63.76,2.91,3.95,6.14,7.61,9.73,10.94.6.56.74.97.39,1.78-2.64,6.08-3.95,12.48-4.51,19.06-.1,1.18-.18,2.35-.27,3.54-1.01.26-1.57-.34-2.09-.95-1.51-1.78-3-3.59-4.53-5.55-.03-8.79-.02-17.41-.03-26.04,0-.4-.14-.8-.21-1.21Z"/>
  <path class="cls-21" d="M103.05,104.66c-.08-.08-.16-.16-.15-.32-.06-.26-.21-.44-.36-.62-.77-.78-1.53-1.56-2.38-2.46-.56-.31-1.05-.65-1.54-.65-1.42,0-2.84.2-4.26.18-.99,0-1.67.29-2.33,1.05-.96,1.12-2.14,2.01-3.74,1.97-1.24-.04-2.04-.77-2.03-1.68.69-.16,1.35-.31,2.08-.47,1.11-.69,1.87-1.58,2.35-2.75-.4-.28-.71-.5-1.06-.77-.26-.25-.48-.44-.69-.71,1.19-1.42,2.66-2.09,4.46-2.29,2.31-.26,4.59-.78,6.9-1.14.82-.13,1.72-.35,2.48-.14,3.58.99,6.65,2.64,7.94,6.52.8,2.42,1.06,4.89,1.06,7.42-.19,1.2-.4,2.4-.57,3.6-.12.89-.6,1.28-1.34,1.21-.47-1-.91-1.92-1.41-2.96-1.7-1.8-3.31-3.49-4.94-5.17-.25-.25-.28-.22-.45.17Z"/>
  <path class="cls-13" d="M132.52,89.99c.69,3.31.59,6.59-.44,9.82-.16.51-.45,1.04-.83,1.4-2.44,2.35-4.91,4.66-7.49,6.94-.17-.48-.26-.93-.26-1.37,0-7.55,0-15.11.03-22.72.72-.8,1.5-1.46,2.07-2.28.47-.68.74-.71,1.36-.2,2.74,2.23,4.58,5.03,5.56,8.41Z"/>
  <path class="cls-16" d="M123.49,84.12c0,7.55,0,15.11,0,22.66,0,.44.09.89.2,1.4-2.9,2.93-5.85,5.79-8.8,8.65-.11-.08-.23-.15-.34-.23.35-.61.7-1.23,1.06-1.84.27-.44.68-.83.81-1.31,1.51-5.52,1.92-11.06.14-16.76-.62-1.45-1.23-2.74-1.76-4.06-.12-.29-.09-.85.1-1.03,2.84-2.52,5.71-5,8.58-7.48Z"/>
  <path class="cls-33" d="M89.02,95.85s-.09-.06-.29-.03c-1.08.03-2.03.05-2.97.08-1.53,0-3.07.08-4.59-.06-.89-.09-1.99-.09-2.34-1.31-.05-.18-.37-.31-.57-.43-6.27-3.71-10.84-9.14-15.23-14.79-1.13-1.45-.97-2.95-.8-4.61.78-.03,1.04.33,1.13.97.18,1.34.41,2.68.64,4.22.88-.33,1.65-.61,2.41-.91q1.67-.64,2.56,1.05c-.2.3-.43.52-.61.77-1.22,1.71-1.23,2.17.11,3.74,6.12,7.17,13.95,9.9,23.19,8.69,2.13-.28,4.2-.98,6.3-1.45.55-.12,1.13-.08,1.69-.15.37-.05.76-.13,1.1-.29,2.74-1.29,5.1-2.95,6.3-5.93.36-.9,1.16-1.64,1.8-2.51.61,1.14,1.17,2.19,1.81,3.35.46.41.79.79,1.22.99,1.52.72,1.74,1.26.87,2.7-.34.56-.71,1.15-1.21,1.55-1.5,1.22-3.06,2.37-4.67,3.52-.29-.13-.5-.25-.71-.37-1.87-1.03-3.77-1.68-5.99-1.12-1.98.5-4.03.76-6.06,1.08-1.37.22-2.79.17-3.98,1.09-.26.2-.73.11-1.1.16Z"/>
  <path class="cls-41" d="M56.86,77.03c.77-1.52,1.52-2.96,2.26-4.41-.03,1.17.81,1.3,1.53,1.43.86.16,1.03.59,1.04,1.44.03,1.82-.41,3.47-1.08,5.15-2.6,6.42-4.59,13.02-5.66,19.89-.02.1-.06.19-.14.47-1.65-.25-3.31-.5-5.1-.76,1.57-8.05,3.75-15.77,7.16-23.2Z"/>
  <path class="cls-10" d="M82.37,56.96c2.72-.43,5.4-.81,8.09-1.13.41-.05.93.07,1.28.3,5.24,3.44,8.37,8.26,9.33,14.47.04.27.03.55.05.96-1.97-.26-3.59.41-5,1.85-2.48-7.1-6.64-12.48-14.03-14.88.02-.5.12-1,.27-1.56Z"/>
  <path class="cls-55" d="M97.94,87.14c1.24-.31,1.25-.3,1.26.94,0,.07,0,.14,0,.21,0,2.56,0,2.56-2.5,3.29-6.08,1.75-12.15,2.05-18.16-.33-3.81-1.5-6.99-3.88-9.61-7.02-1.18-1.41-1.18-1.65-.09-3.17.1-.14.22-.27.36-.48.32.25.58.59.9.88.22.19.51.3.88.5.59.48,1.08.91,1.57,1.33,0,0,0,0,0,.08,7.35,6.68,16.87,7.6,25.38,3.78Z"/>
  <path class="cls-23" d="M60.97,81.02c.12.35.26.75.26,1.15.01,8.62,0,17.25,0,25.97-1.86-2.11-3.74-4.3-5.55-6.55-.25-.31-.25-.93-.18-1.37,1.02-6.6,2.99-12.94,5.46-19.2Z"/>
  <path class="cls-62" d="M130.59,79.99c3.53,5.6,5.41,11.75,6.21,18.27,0,.03.01.07.02.1.36,2.47-.15,3-2.65,2.69-.55-.07-1.08-.22-1.78-.36,1-3.52,1.47-7.01.54-10.71-.89-3.62-2.87-6.38-5.57-8.71.8-.86,1.51-1.61,2.25-2.41.38.44.67.78.96,1.12Z"/>
  <path class="cls-35" d="M130.63,79.93c-.33-.29-.62-.63-1-1.07-.74.8-1.45,1.55-2.25,2.41,2.7,2.33,4.68,5.09,5.54,8.64-.09.08-.17.08-.32.08-1.05-3.38-2.89-6.18-5.63-8.41-.63-.51-.89-.48-1.36.2-.57.82-1.35,1.49-2.07,2.28-2.9,2.55-5.77,5.03-8.61,7.55-.19.17-.22.73-.1,1.03.53,1.32,1.14,2.61,1.72,3.99-.08.08-.17.08-.36.02-.69-1.38-1.27-2.71-1.88-4.08-1.81,1.44-3.44,2.74-4.93,3.91.79,1.84,1.6,3.75,2.41,5.75.11,1.99.23,3.89.36,5.8-.09-.05-.18-.1-.32-.18-.05-2.55-.31-5.02-1.11-7.44-1.28-3.87-4.36-5.52-7.94-6.52-.76-.21-1.66,0-2.48.14-2.3.36-4.58.87-6.9,1.14-1.8.21-3.27.87-4.5,2.34-.1.16-.15.21-.28.26-1.22,1.01-2.14,2.15-2.55,3.95.77-.09,1.35-.15,1.98-.19.1.08.15.13.21.17-.66.15-1.32.3-2.01.46,0,.91.79,1.64,2.03,1.68,1.6.05,2.78-.85,3.74-1.97.65-.76,1.34-1.06,2.33-1.05,1.42.01,2.84-.19,4.26-.18.49,0,.97.34,1.49.61,0,.15-.02.21-.05.28-2.1-.92-4.25,0-6.37-.16-.35-.03-.76.39-1.11.65-.98.7-1.89,1.55-2.95,2.08-1.24.62-2.7.18-3.52-.79-.86-1.02-.63-2.14-.02-3.11.7-1.11,1.54-2.14,2.45-3.09.39-.41.37-.72.38-1.19.47-.08.94,0,1.2-.19,1.19-.92,2.61-.87,3.98-1.09,2.03-.32,4.07-.58,6.06-1.08,2.22-.56,4.12.09,5.99,1.12.21.12.43.23.76.41.28.09.45.13.63.24.47.72,1.1.68,1.71.44.54-.22,1.11-.49,1.53-.88,1.13-1.03,2.15-2.19,3.29-3.2,2.84-2.53,5.73-5,8.59-7.5.32-.28.6-.62,1.16-1.21-1.13-.37-1.98-.86-2.85-.89-2.03-.08-2.74,1.72-3.81,3.2-.25-.42-.41-.72-.6-.99-.44-.63-.83-1.3-1.36-1.84-1.17-1.22-2.36-1.19-3.53.01-.26.27-.52.54-.84.88-.45-.71-.83-1.32-1.22-1.93.01-.16.03-.32.05-.56.41.47.82,1.02,1.22,1.57,2.86-2.15,3.07-2.09,6.35,1.78.21-.28.42-.55.61-.81,1.49-2.02,3.36-2.43,5.44-1.04.82.55,1.23.36,1.65-.37.14-.24.33-.45.46-.7.37-.73.84-.99,1.56-.3.9-.92,1.77-1.8,2.74-2.79.39.51.75.96,1.12,1.49-.04.13-.1.18-.19.29Z"/>
  <path class="cls-27" d="M111.79,102.13c-.82-1.91-1.63-3.81-2.42-5.66,1.48-1.18,3.12-2.48,4.93-3.91.61,1.38,1.19,2.7,1.81,4.08.39,2.09.73,4.12.98,6.25-.54.05-.99.04-1.43-.04-1.29-.23-2.58-.48-3.87-.72Z"/>
  <path class="cls-48" d="M92.03,86.16c.94-.26,1.9-.46,2.82-.78.74-.26,1.32-.26,1.86.39.3.37.75.62,1.08,1-.28.17-.5.26-.73.34-8.56,3.28-16.5,2.39-23.71-3.5-.21-.17-.54-.21-.81-.32,0,0,.01-.02.03-.08-.43-.65-.88-1.24-1.33-1.83.13-.18.25-.37.49-.6.54.32.97.66,1.38,1.03,5.47,5.08,11.85,6.2,18.91,4.34Z"/>
  <path class="cls-37" d="M70.53,100.05c.6-2.95,1.6-5.76,2.95-8.64,1.65,1.12,3.19,2.13,4.68,3.21.17.12.18.64.09.92-.56,1.76-1.16,3.51-1.87,5.32-2.03-.23-3.94-.52-5.85-.8Z"/>
  <path class="cls-1" d="M70.49,100.11c1.94.23,3.85.51,5.85.81-.54,2.18-1.18,4.35-1.95,6.6-1.82-.14-3.5-.35-5.19-.56.42-2.26.84-4.52,1.29-6.85Z"/>
  <path class="cls-53" d="M111.78,102.21c1.3.15,2.59.41,3.88.63.44.08.89.09,1.43.13-.07,2.34-.23,4.68-.51,7.08-1.55-.23-2.98-.51-4.41-.79,0-.36,0-.72-.02-1.17-.13-1.99-.26-3.9-.37-5.89Z"/>
  <path class="cls-14" d="M69.15,107.03c1.73.14,3.42.35,5.2.56-.33,1.79-.76,3.58-1.19,5.38-.21.88-.82,1.16-1.58.81-.91-.42-1.78-.96-2.59-1.55-.26-.19-.41-.73-.38-1.1.11-1.35.32-2.69.53-4.1Z"/>
  <path class="cls-50" d="M112.12,109.33c1.47.21,2.9.5,4.42.79-.14,1.13-.29,2.27-.63,3.36-.47,1.48-3.66,2.11-4.72.93-.23-.25-.23-.84-.15-1.23.29-1.27.68-2.52,1.07-3.85Z"/>
  <path class="cls-6" d="M88.92,112.85c.36.02.68,0,.51.57-.54,1.85-1.62,3.14-3.53,3.65-1.39.38-2.15-.12-2.44-1.65,2.16-.92,2.88-2.86,3.43-4.93.14-.51,0-1.32.95-1.18.83.12,1.4.52,1.52,1.53-1.05-.33-1.76.02-2.12.97-.24.63-.37,1.3.62,1.64.45-.21.75-.41,1.05-.6Z"/>
  <path class="cls-43" d="M85.86,112.09c-.57,1.63-1.52,2.87-3.38,2.94-.53.02-1.39-.31-1.53-.68-.23-.63-.28-1.63.08-2.13.94-1.33,2.13-2.48,3.24-3.68.72-.76,1.24-.72,1.96.06-.57.2-1.31.26-1.68.65-.4.42-.64,1.18-.61,1.77.05.92.76,1.16,1.73.97.12.03.19.09.19.09Z"/>
  <path class="cls-47" d="M91.1,114.01c.33.11.6.17,1.16.31-.89,1.05-1.61,2.06-2.49,2.9-.68.66-1.46.53-2.13-.33,1.29-1.12,2.25-2.45,2.39-4.22.03-.38.09-.78,0-1.14-.28-1.02.27-1.41,1.12-1.58.91-.19,1.43.18,1.78,1.42-.71-.71-1.3-.72-1.85-.09-.64.74-.66,1.76.02,2.72Z"/>
  <path class="cls-25" d="M92.04,86.08c-7.07,1.95-13.45.82-18.92-4.25-.4-.37-.84-.71-1.33-1.08.03-.12.14-.23.29-.37,2.45,2.34,5.07,4.38,8.35,5.4,3.81,1.19,7.63.97,11.53.06.08.06.08.11.07.25Z"/>
  <path class="cls-47" d="M92.91,113.87c-.04.31-.12.62-.12.93.01.92.4,1.52,1.5,1.44.04.1.07.19.11.29-.72.61-1.4,1.28-2.18,1.8-.61.4-1.29.14-1.6-.48-.12-.25.16-.76.36-1.1.58-.95,1.21-1.87,1.89-2.84.06-.04.05-.05.05-.05Z"/>
  <path class="cls-47" d="M97.89,117.7c-1.29.89-2.31.08-3.45-.5.29-.64.53-1.24.83-1.8.05-.09.33-.07.53-.18.04-.08.03-.08-.05-.03.04.19.15.34.29.54.63.7,1.24,1.34,1.85,1.97Z"/>
  <path class="cls-46" d="M86.12,109.36c.1.33.21.6.18.86-.1.81-.91,1.61-1.4,1.33-.3-.18-.54-.78-.49-1.15.1-.91.83-1.32,1.71-1.03Z"/>
  <path class="cls-39" d="M103.4,116.16c-2.51-1.48-4.3-3.71-6.12-5.9,2.08,1.86,4.17,3.72,6.3,5.64-.01.11-.08.16-.18.26Z"/>
  <path class="cls-28" d="M103.1,104.72c.12-.44.16-.48.4-.23,1.63,1.68,3.25,3.37,4.89,5.13-.04.13-.1.18-.19.29-1.71-1.68-3.38-3.4-5.1-5.19Z"/>
  <path class="cls-61" d="M91.73,111.36c.9-.04.85.6.75,1.06-.1.45-.45.85-.69,1.28-.24-.18-.71-.4-.69-.53.1-.6.35-1.18.62-1.8Z"/>
  <path class="cls-61" d="M94.57,113.68c-.04.65-.1,1.25-.25,1.81-.04.13-.43.28-.6.24-.18-.05-.36-.32-.41-.52-.28-1.02.31-1.77,1.26-1.53Z"/>
  <path class="cls-61" d="M88.93,112.76c-.31.28-.61.47-.98.68-.13-.51-.33-1.07-.21-1.54.08-.3.63-.49.96-.73.14.35.31.68.4,1.04.03.13-.11.31-.18.55Z"/>
  <path class="cls-17" d="M93.06,113.42c.01-.1,0-.22.04-.31.2-.37.41-.73.62-1.1.37.28.73.56,1.09.92-.01.09-.04.12-.04.12-.5.12-.99.25-1.58.39-.09.01-.13-.02-.13-.02Z"/>
  <path class="cls-51" d="M113.96,117.04c-.16-.45-.3-.94-.35-1.44,0-.05.49-.15.97-.3-.24.72-.4,1.21-.62,1.74Z"/>
  <path class="cls-2" d="M97.92,117.66c-.64-.59-1.25-1.23-1.87-2.02,0-.22,0-.28,0-.34.67.68,1.33,1.35,2.03,2.09-.02.11-.08.17-.17.27Z"/>
  <path class="cls-35" d="M85.77,95.95c.94-.08,1.89-.1,2.93-.12-.02.15-.14.42-.27.43-.82.04-1.64.03-2.56.01-.1-.1-.1-.18-.1-.33Z"/>
  <path class="cls-58" d="M71.21,81.44c.5.54.95,1.12,1.37,1.78-.51-.36-1-.79-1.51-1.28.01-.19.05-.32.14-.5Z"/>
  <path class="cls-17" d="M93.12,113.48c-.02.13-.06.24-.15.37-.06.02-.04.02-.04.03.01-.12.02-.24.08-.41.05-.04.09,0,.11.01Z"/>
  <path class="cls-6" d="M89.43,111.03s-.01-.04-.01-.04c0,0,.03.03.01.04Z"/>
  <path class="cls-43" d="M85.76,111.99s.09,0,.13.06c-.02.04-.09-.03-.13-.06Z"/>
  <path class="cls-17" d="M94.81,113.02s.04.07.06.11c-.02,0-.05,0-.09-.04-.01-.03.01-.06.03-.07Z"/>
  <path class="cls-4" d="M109.43,78.52c-.06-.93-.04-1.88-.21-2.79-.13-.69-.37-1.48-.83-1.96-.62-.64-.85-1.31-.75-2.22,4.05.13,7.98.39,11.92.58,1.74.08,3.49.01,5.36.01.51,1.69,1.09,3.59,1.66,5.49.38,1.27.16,1.61-1.15,1.56-5.34-.21-10.67-.45-16-.68Z"/>
  <path class="cls-54" d="M106.34,77.42c-.16-.29-.36-.57-.46-.87-.6-1.9-1.64-3.44-3.43-4.43-.34-.19-.68-.65-.73-1.02-.72-6.12-3.53-11.01-8.5-14.66-.11-.08-.25-.13-.3-.29,2.08.15,3.96.81,5.69,1.87,4.06,2.49,6.38,6.29,7.64,10.74.56,1.98.66,4.09.94,6.3-.3.89-.57,1.63-.84,2.36Z"/>
  <path class="cls-18" d="M109.57,81.43c.43.56.82,1.17,1.26,1.88.33-.34.58-.62.84-.88,1.17-1.2,2.36-1.23,3.53-.01.52.55.92,1.22,1.36,1.84.19.27.35.57.6.99,1.06-1.48,1.77-3.28,3.81-3.2.87.03,1.72.52,2.85.89-.56.59-.84.93-1.16,1.21-2.86,2.5-5.75,4.98-8.59,7.5-1.14,1.02-2.16,2.17-3.29,3.2-.43.39-.99.66-1.53.88-.6.25-1.24.29-1.64-.47.95-.74,1.98-1.26,2.76-2.03,1.12-1.11,2.2-2.31,3.05-3.63.75-1.18.27-2.06-.99-2.67-.52-.25-.98-.64-1.46-.97-.47-.96-.99-1.9-1.37-2.89-.18-.47-.06-1.05-.02-1.64Z"/>
  <path class="cls-45" d="M109.42,78.57c5.35.18,10.69.42,16.02.63,1.31.05,1.53-.29,1.15-1.56-.57-1.9-1.14-3.8-1.66-5.49-1.87,0-3.62.07-5.36-.01-3.94-.19-7.88-.44-11.91-.67-.15-.14-.21-.29-.27-.5,4.73.2,9.46.46,14.2.72.49.03.98.04,1.46.06.91.03,1.57-.39,1.87-1.22,1.05-2.95,2.08-5.92,3.09-8.89.3-.88,0-1.24-1.05-1.3-2.37-.12-4.74-.19-7.11-.28-3.66-.14-7.32-.25-10.97-.43-1.16-.06-2.03.28-2.72,1.2-.52.69-1.11,1.35-1.71,2.07-.17-.05-.29-.15-.42-.31.69-.88,1.3-1.81,2.12-2.49.59-.5,1.46-.96,2.19-.95,6.25.15,12.49.42,18.74.65.72.03,1.3.21,1.54.98.72,2.33,1.54,4.64,2.11,7.01.23.96.18,2.12-.14,3.06-.87,2.54-1.96,5-2.94,7.51-.4,1.03-1.11,1.45-2.19,1.4-5.27-.23-10.53-.44-15.89-.65-.11-.16-.14-.32-.14-.53M125.19,71.44c.63,2.14,1.25,4.28,1.88,6.42,1.25-2.6,2.27-5.19,3.25-7.8.13-.34.19-.78.1-1.13-.56-2.21-1.18-4.42-1.78-6.62-.1,0-.2.02-.3.03-1.05,2.98-2.09,5.96-3.15,9.1Z"/>
  <path class="cls-3" d="M105.12,79.9c0,1.68-.54,3.16-1.75,4.33-1.25,1.22-2.85,1.22-4.13.06-2.62-2.35-2.52-7.79.25-10.02-.02.36-.11.66-.19.96-.47,1.81-.25,3.54.84,5.07,1.24,1.74,3.08,1.74,4.45.08.15-.18.35-.33.52-.5Z"/>
  <path class="cls-15" d="M105.15,79.83c-.2.24-.4.38-.55.57-1.37,1.66-3.21,1.66-4.45-.08-1.09-1.53-1.31-3.26-.84-5.07.08-.3.17-.6.26-.99,1.42-1.08,2.91-.91,4.08.44,1.25,1.45,1.66,3.18,1.51,5.13M103.85,78.1c.04-.69.29-1.46.06-2.05-.25-.62-.87-1.3-1.48-1.51-.83-.29-1.32.49-1.53,1.22-.16.55-.35,1.23-.17,1.72.25.66.72,1.41,1.31,1.72.77.41,1.32-.32,1.81-1.11Z"/>
  <path class="cls-40" d="M95.84,83.9c-.42-1.33-.83-2.66-1.18-4.11.72-.75,1.06-1.79,2.22-1.75-.08,2.01.11,3.97,1.16,5.83-.77.08-1.48.05-2.2.03Z"/>
  <path class="cls-48" d="M107.54,75.11c.08-.36.16-.73.25-1.12,1.06.79,1.44,3.28.74,5.21-.81.87-1.53,1.63-2.25,2.38.07-1.25.14-2.51.29-3.89.37-.95.66-1.77.96-2.58Z"/>
  <path class="cls-58" d="M72.56,83.36c.26.03.58.07.79.25,7.21,5.89,15.15,6.79,23.71,3.5.23-.09.45-.17.76-.28.08.04.09.09.11.23-8.5,3.91-18.02,2.99-25.37-3.7Z"/>
  <path class="cls-29" d="M95.4,75.72c.56-2.07,2-3.22,4.02-3.64,1.49-.32,2.75.25,4.09,1.36-.38.04-.5.09-.6.05-2.23-.75-3.26-.44-4.7,1.41-.11.14-.25.24-.52.4-.86.17-1.57.3-2.28.43Z"/>
  <path class="cls-7" d="M95.35,75.78c.76-.19,1.47-.32,2.27-.45-.16.86-.42,1.72-.71,2.65-1.19.04-1.54,1.07-2.25,1.74.17-1.27.41-2.57.69-3.93Z"/>
  <path class="cls-49" d="M110.92,86.01c.52.28.98.67,1.5.92,1.26.61,1.74,1.49.99,2.67-.84,1.32-1.92,2.53-3.05,3.63-.78.77-1.8,1.29-2.78,1.95-.23,0-.39-.04-.6-.11,1.49-1.21,3.05-2.36,4.55-3.58.5-.41.87-.99,1.21-1.55.87-1.44.66-1.99-.87-2.7-.42-.2-.76-.58-1.16-.95.04-.12.1-.18.2-.28Z"/>
  <path class="cls-33" d="M108.64,79.58c.14.12.39.22.41.35.13.96,0,1.86-.67,2.64-.47.55-.87,1.15-1.46,1.94-.2-1.02-.35-1.82-.39-2.7.78-.8,1.44-1.51,2.11-2.23Z"/>
  <path class="cls-38" d="M95.86,83.97c.69-.04,1.41-.02,2.21-.03.82.58,1.57,1.18,2.3,1.78-1.89.99-3.14.53-4.51-1.75Z"/>
  <path class="cls-25" d="M108.62,79.5c-.65.8-1.32,1.51-2.05,2.25-.1-.02-.15-.07-.24-.14.68-.78,1.4-1.53,2.18-2.33.07.02.08.07.11.22Z"/>
  <path class="cls-25" d="M107.46,75.1c-.21.82-.5,1.64-.85,2.51-.1,0-.14-.06-.23-.15.23-.77.5-1.51.8-2.31.08-.06.14-.06.28-.05Z"/>
  <path class="cls-2" d="M101.03,109.52c-.71-.65-1.37-1.24-2.03-1.84.08-.09.17-.17.25-.26,2.31,2,4.61,3.99,6.92,5.99-1.92-.98-3.51-2.4-5.14-3.89Z"/>
  <path class="cls-28" d="M102.45,103.79c.24.12.39.3.42.53-.25-.12-.38-.29-.42-.53Z"/>
  <path class="cls-34" d="M96.04,115.25c.01.11,0,.17-.01.33-.12-.05-.24-.19-.27-.39.14-.03.2,0,.29.07Z"/>
  <path class="cls-24" d="M63.05,65.81c-.08-2.89.53-5.49,2.17-7.81,3.13-4.43,8.58-4.32,11.54.22,2.72,4.18,2.44,10.46-.65,14.37-3.02,3.83-7.94,3.77-10.86-.14-1.44-1.93-2.11-4.15-2.2-6.64M76.06,71.78c2.59-4.22,2.76-8.54.45-12.92-.91-1.74-2.36-2.94-4.29-3.43-2.49-.64-5.2.61-6.81,3.22-2.37,3.86-2.5,7.91-.67,12.01.81,1.81,2.16,3.17,4.03,3.91,2.49.98,5.17-.04,7.28-2.78Z"/>
  <path class="cls-2" d="M88.34,101.67c-.12-.03-.18-.08-.23-.22.73-.78,1.46-1.47,2.21-2.19-.4-.39-.62-.6-.79-.87.08-.1.11-.15.15-.19.31.22.62.44,1.02.72-.48,1.17-1.24,2.06-2.35,2.75Z"/>
  <path class="cls-2" d="M88.7,97.75c.05-.05.11-.1.19-.19.25.15.47.35.73.6,0,.09-.02.13-.17.21-.33-.18-.55-.4-.76-.62Z"/>
  <path class="cls-52" d="M88.63,97.75c.29.21.51.43.79.67.28.24.5.45.9.84-.75.72-1.48,1.41-2.26,2.16-.63.12-1.21.19-1.98.27.4-1.8,1.33-2.94,2.55-3.95Z"/>
  <path class="cls-56" d="M119.38,66.29c-.05-.56-.06-1.13-.06-1.79.08-.08.16-.08.31-.09.31.46.56.91.8,1.35-.19.05-.46.13-.72.27-.09.13-.18.18-.32.26Z"/>
  <path class="cls-8" d="M125.2,71.36c1.05-3.06,2.1-6.04,3.14-9.02.1,0,.2-.02.3-.03.6,2.21,1.21,4.41,1.78,6.62.09.35.03.79-.1,1.13-.98,2.61-1.99,5.2-3.25,7.8-.63-2.14-1.25-4.28-1.87-6.5Z"/>
  <path class="cls-60" d="M103.81,78.18c-.46.71-1.01,1.44-1.77,1.03-.59-.31-1.06-1.06-1.31-1.72-.18-.49,0-1.17.17-1.72.21-.73.7-1.51,1.53-1.22.61.21,1.23.89,1.48,1.51.23.58-.02,1.36-.1,2.12M102.43,75.12c-1.41.47-1.82,2.24-.74,3.21.53.48,1.07.46,1.53-.1.73-.88.39-2.52-.79-3.12Z"/>
  <path class="cls-9" d="M76.02,71.84c-2.06,2.68-4.75,3.7-7.24,2.72-1.88-.74-3.23-2.1-4.03-3.91-1.82-4.1-1.7-8.15.67-12.01,1.6-2.61,4.31-3.86,6.81-3.22,1.93.49,3.37,1.7,4.29,3.43,2.3,4.37,2.14,8.7-.5,12.98Z"/>
  <path class="cls-26" d="M115.15,65.55c-.04.12-.14.2-.24.28-.06-.1-.11-.19-.17-.29.12-.01.23-.02.41,0Z"/>
  <path class="cls-26" d="M114.99,64.64c.05.05.05.11.05.16-.03,0-.09,0-.1,0,0-.05,0-.1.05-.15Z"/>
  <path class="cls-56" d="M112.91,65.6c.05-.39.12-.7.19-1.01.15.04.42.07.43.13.06.32.04.65.06.98-.22,0-.44-.01-.67-.1Z"/>
  <path class="cls-19" d="M102.51,75.13c1.1.59,1.44,2.23.71,3.11-.46.56-1,.57-1.53.1-1.08-.97-.67-2.74.82-3.21M102.57,77.97c.76-.41.7-1.08.45-1.72-.08-.21-.63-.48-.71-.42-.32.27-.71.62-.77,1-.09.56.11,1.13,1.02,1.14Z"/>
  <path class="cls-31" d="M102.49,77.99c-.83-.03-1.04-.6-.94-1.15.06-.37.45-.73.77-1,.08-.07.62.2.71.42.25.64.31,1.31-.53,1.74Z"/>
  <g>
    <path class="cls-59" d="M164.67,93.89c.28.26.52-.1.69-.26.8-.73,3.24-3.8,4.42-3.47,1.79.51-1.33,4.43-1.44,5.39,1.08-1.05,2.13-2.23,3.25-3.23.45-.4,2.38-2.06,2.79-1.95.29.07.74.61.79.93.12.82-1.64,2.28-2.19,3.02-.67.89-3.01,4.45-2.34,5.41.45.64,2.89-.95,3.26-1.37.5-.57.78-1.83,1.58-2.6.42-.4,2.14-1.31,2-.31-.16,1.18-3.22,3.57-1.57,3.87,2.36.43,2.85-4.16,4.72-3.86,1.24.2-.85,1.97-1.1,2.46-.09.18-.32.66-.06.78,1.24-1.42,2.43-2.95,4.21-3.75,1.79,1.3-1.09,2.54-1.17,4.06-.04.8,1.59-.45,1.81-.71.79-.95,1-2,2.3-2.93,1.17-.83,3.4-1.57,2.78.68-.44,1.59-3.21,2.05-3.5,2.46-.17.23.21,1.09.55,1.2.81.26,2.58-.92,3.14-1.5.77-.8.14-.75.08-1.29-.13-1.06.95-1.69,1.58-2.38h.3c.37,1.59,2.43-.54,2.66,1.24.11.89-1.92,2.16-1.81,3.33.29.25,1.67-.32,1.95-.61s.22-.72.47-1.05c.79-1.02,3.77-3.18,5.04-3.12.29.01.88.53.91.75.03.25-.31.44-.36.65-.07.32.19.62.13.94-.08.43-1.79,2.07-.99,2.63.53.38,1.73-.74,2.19-1.02.83-.26-1.18,1.84-1.36,1.98-1.54,1.21-2.58,1.63-2.31-.94-.41-.48-1.54,2.2-2.85,1.26-.51-.37-.31-1.34-.83-1.27-.77.11-1.2,1.64-2.5,1.47-1.9-.26.06-3.02.41-3.75.21-.44-1.26,0-1.32.05-.12.08-.23.63-.46.89-1.58,1.76-5.2,5.51-6.09,1.14-1.05.73-1.81,2.21-3.33,1.85-.63-1.19.34-1.91.6-2.79.08-.27-.05-.41-.31-.31-.6.25-1.75,2.52-2.35,2.68-.8.16-.76-.76-1.01-1.22-.8.82-2.44,2.52-3.47,1.15-.3-.4-.32-1.53-.73-1.35-.99.9-3.31,3.28-4.63,2.08-1.89-1.71,1.24-5.7,2.63-6.98.08-.26-.05-.42-.31-.31-.24.1-2.77,2.69-3.16,3.12-.74.8-2.43,3.35-3.14,3.76-.98.57-1.29-.69-1.08-1.47.34-1.23,2.76-3.84,3.52-5.27.27-.51.8-1.23.49-1.8-2.01,1.43-3.49,3.57-4.9,5.55-.42.59-1.68,2.99-2.25,2.99-.59-.13-1.03-1.21-.91-1.73.16-.66,2.96-3.99,3.57-5.22.37-.75.76-1.31.59-2.22-.44-.46-4.9,3.04-5.46,2.5-.29-1.01.54-2.86,1.47-3.23.31-.12.6.13.89.07.92-.19,2.48-1.5,3.57-1.17.94.59.89,1.84.58,2.79-.1.31-.77,1.22-.64,1.34ZM188.19,95.76c-.81-.35-2.45,1.71-2.1,2.08.57.04,2.52-1.65,2.1-2.08ZM199.32,96.18c-1.39.26-4.14,1.67-3.57,3.33.68.49,3.32-2.62,3.57-3.33ZM198.16,98.88v.21c.14-.07.14-.14,0-.21Z"/>
    <path class="cls-59" d="M253.49,90.76c.15,1.9-.9,3.56-1.92,5.07-.51.74-2.78,2.69-1.44,3.58,1.48.99,2.93-2.88,3.71-3.63s2.35-1.5,1.88.19c-.37,1.32-2.61,2.04-1.65,3.34,1.23.45,3.92-2.37,4.27-3.24.23-.6-1.12-.18-1.26-.31,0-.77.75-1.72,1.5-1.94.45-.13,1.17-.06,1.39-.18.27-.15.94-1.75,1.93-1.41.31.71-.65,1.15-.63,1.56,1.35-.18-.12,1.74-.42,1.88-.43.2-1.01-.05-1.37.31-.4.39-1.91,3.63-.66,3.51,1.56-.4,1.88-1.66,2.74-2.6.72-.79,3.8-2.78,4.82-2.54s.25,1.09.21,1.35.18.59.12.96c-.13.74-1.32,1.33-.99,2.31.24.74.99.08,1.38-.03,1.32-.39-.64,1.45-.88,1.62-1.73,1.24-2.24.37-1.79-1.46l-1.77,1.47-.86.22c-.47-.03-.98-1.27-.95-1.69-1.85,1.68-5.1,3.98-3.88-.62-1.29,1.74-3.5,4.13-4.62.83-1.5,1.87-3.77,2.96-3.89-.42-.5.66-1.13.49-1.67.74-.83.39-1.76,2.1-3.09.86-.4-.37-.28-1.15-.8-1.19-.82.11-2.02,2.69-3.22,1.33-.42-1.24.76-2.07.92-3.19-.4.43-.88.8-1.26,1.24-1.13,1.28-1.83,3.39-2.73.42-1.35,1.64-4.13,3.7-3.26-.21-1.4,1.19-2.95,3.49-3.57.21-.2-.19-2.29,1.7-2.88,1.83-1.19.26-1.9-.58-3.07-.38-.32.08-1.3,3.6-1.93,3.75-1.06.26-.26-2.06-.04-2.54.54-1.21,2.36-3.15,2.63-4.28.13-.53-.33-.91-.07-1.5s2.96-3.82,3.67-3.13c.34.8-2.54,3.09-2.1,3.54,1.16-.25,1.8-1.52,3.15-1.25.35,1.89-1.31,3.04-2.31,4.37,1.98.23,2.56-1.53,3.56-2.61.73-.79,4.3-3.22,5.21-2.33.54.53-.09.88-.13,1.29-.02.27.23.53.11.95-.19.67-1.42,1.31-.97,2.49,2.01.61,3.28-4.24,4.72-3.96s-1.63,2.48-1.05,3.12c.61-.6,3.72-4.06,4.51-3.53.91,1.69-1.45,2.5-1.67,4.05-.13.87,1.68-.37,1.83-.58.19-.28.26-.94.56-1.43,2.2-3.66,6-2.75,3.92,1.69.78.78,1.91-3.38,2.12-3.82.32-.66,2.99-5.06,3.96-4.08ZM250.35,96.18c1.09-.83,1.98-2.41,2.1-3.75-1.18.78-1.87,2.4-2.1,3.75ZM230.82,99.51c.57.6,3.51-2.85,3.77-3.44-1.53.44-4.12,1.52-3.77,3.44ZM246.56,96.18c-1.14.04-3.41,2.84-2.09,3.44,1.74.2,1.29-1.03,1.51-2.04.11-.5.6-.87.58-1.4ZM265.46,96.18c-.95.2-4.3,1.86-3.47,3.13.31.48.92-.13,1.16-.31.32-.25,2.57-2.56,2.3-2.81ZM225.98,96.59c-.29-.15-.56.13-.42.2.29.15.56-.13.42-.2ZM227.66,96.59c-.62-.6-3.1,2.38-2.94,2.49,1.58.4,2.74-1.11,2.94-2.49Z"/>
    <path class="cls-59" d="M290.03,90.76c.21,1.93-.74,3.47-1.81,4.97-.88,1.24-2.55,2.16-1.42,3.78,1.1.26,1.56-1.13,2.59-1.26-.97,2.16-3.61,4.54-4.51.83-1.09,1.14-2.54,2.73-4.21,1.67l-.83-1.46c-1.57,2.01-4.1,3.19-3.26-.63-.85.45-2.35,2.99-3.33,1.75-2.08-2.62,2.03-6.13,4.59-5.29.28-.79,1.7-3.75,2.32-4.06.19-.09.77-.18.84-.1.85.84-4.34,6.8-3.36,8.53.36.02.7.04,1.05-.11,1.28-.57,1.94-2.87,3.38-3.93,2.7-1.98,4.54-.28,1.85,1.84-.5.39-2.2,1.08-2.26,1.19-.63,1,.79,1.39,1.84.89,2.04-.96,1.66-2.31,2.51-4.18.33-.74.9-1.74,1.37-2.39.32-.44,2.08-2.61,2.65-2.06ZM289.19,92.43c-.52-.53-2.61,3.29-2.31,3.95.63-.29,2.59-3.67,2.31-3.95ZM283.94,95.55c-.31-.32-2.47,1.62-2.31,2.29.25.25,2.73-1.42,2.31-2.29ZM273.86,99.3c.29.04.53-.03.78-.16.45-.21,2.9-2.54,2.57-2.96-1.39.82-3.51,1.11-3.36,3.12Z"/>
    <path class="cls-59" d="M215.8,94.3c.1.03.38.32.29.49-.51,1.46-2.2,1.18-3.45,1.58-.96.31-3.89,1.73-3.9,2.82,0,1.72,3.68.73,4.72.28,1.12-.48,1.97-1.35,3.07-1.84.2,1.51-.77,2.61-2.03,3.29-1.52.82-6.38,2.01-7.26-.02-1.35-3.1,3.61-5.12,5.93-5.46-1.45-.24-4.48.02-4.62-2.09-.2-3.11,6.66-5.07,9.02-3.94,1,1.74-.86,2.67-2.31,2.71l.63-.73c-1.47-.1-3.1.26-4.42.93-.45.23-1.64.86-1.46,1.46.07.22,1.59.52,1.78.52.9,0,3.34-.18,3.99,0Z"/>
    <path class="cls-59" d="M300.22,99.51c.51-.07,2.69-.73,2.32-1.46-.75-1.47-5.81-1.02-6.01-3.01-.08-.8.31-2.11.85-2.71,1.34-1.5,5.96-2.04,7.82-1.5,1.08.31.96,1.44.28,2.04-.11.09-2.36,1.18-2.54,1.23-.26.08-.44-.06-.31-.31.2-.39,1.12-.51,1.26-.94-1.3-.04-2.53-.04-3.78.31-.72.2-3.13,1.14-1.75,1.95.65.38,2.44.61,3.36,1.04.66.3,1.85,1,2.07,1.69,1.17,3.72-5.42,4.23-7.78,3.97-4.01-.44-.65-3.54.1-2.91.47.39-.54.36-.42.62,1.42-.13,3.14.18,4.51,0Z"/>
    <path class="cls-59" d="M328.14,99.51c.41-.06,2.52-.86,2.41-1.35-.29-1.35-5.88-1.15-6.1-3.12-.48-4.34,6.22-4.96,9.22-4.04.39,2.04-.74,2.02-2.22,2.64-.12.05-1.22.9-.9.15.22-.52,1.07-.51,1.26-.94-1.31-.05-2.51-.03-3.78.31-.82.22-2.27.67-2.31,1.66.08.44,5.92,1.04,6.11,3.55.24,3.21-5.41,3.63-7.68,3.44-3.13-.27-2.76-2.51-.1-2.92l-.63.62c1.47-.15,3.3.2,4.72,0Z"/>
    <path class="cls-59" d="M347.04,97.42c-.37.11-3.24,3.4-3.99,3.95-1.49,1.1-1.24-.25-.42-1.25.97-1.18,2.35-1.34,3.25-2.6-.36-.48-.95-.29-1.47-.31-.12-.82,1.03-2.02,1.8-2.09.29-.03.38.84,1.55.32,2.4-2.09,4.68-4.42,7.66-5.73.81,1.76-1.6,3.81-2.19,5.52l1.26.1c.22.22-.85,1.64-1.05,1.76-.38.22-1.08.06-1.41.37-.17.16-1.03,2.09-.89,2.24.27.28,2.03-1.14,1.68-.31-.22.52-2.62,2.34-3.27,1.58-.96-.76.61-2.65.75-3.56-.88.16-2.5-.21-3.25,0ZM353.66,91.81c-.32-.33-4.17,2.93-4.41,3.54.64-.11,2.02.21,2.52-.1.17-.1,2.04-3.27,1.89-3.44Z"/>
    <path class="cls-59" d="M309.98,99.09c.39.39,2.25-1.06,2.43-1.46.1-.22-.3-.43-.33-.74-.09-.82,1.65-2.84,2.1-2.38l.11.64c.75.19,1.71-.56,2.18.11.89,1.27-1.85,2.33-1.45,3.83.8.12,1.39-.42,2-.83.61-.2-1.29,2.69-2.72,2.5-.94-.13-.82-1.21-.65-1.88.2-.76.97-1.34,1.16-1.77.28-.64-1.11-.1-1.37.1s-.43.67-.72.95c-1.27,1.2-5.02,5.19-4.21.72-1.37,1.73-3.66,2.73-3.37-.52.11-1.19,2.14-4.04,3.58-3.22,0,1.59-2.21,2.1-2.5,3.46-.2.94,1.62-.62,1.77-.75.8-.69,2.41-2.94,3.04-3.23.29-.14.53-.21.74.1.68.98-2.25,3.15-1.79,4.38Z"/>
    <path class="cls-59" d="M219.9,99.3c0,.45.79.13.99.05.79-.33,1.55-1.28,2.05-1.5.26-.11.39.04.31.31-.19.68-2.68,2.46-3.44,2.65-1.5.37-3.26-1.19-2.54-2.74.17-.38,2.32-2.38,2.83-3.02.35-.43.85-2.09,1.47-.62.85,2.03.42,3.93-1.68,4.89ZM220.32,96.18c-.26-.29-1.83,1.57-2.1,1.77l.86,1.12c1.56-.15,1.23-1.74,1.24-2.9Z"/>
    <path class="cls-59" d="M244.67,90.97c-.18,3.3-2.41,1.15-3.67,1.23-.68.04-.94.64-1.57.64-.23-1.11,1.42-2.13,2.36-2.04.52.05,1.06.55,1.54.58.57.04.82-.43,1.35-.41Z"/>
    <path class="cls-59" d="M256.16,92.67c1.7-.52,1.14,1.52-.04,1.84l-.73-.73c0-.35.42-1.01.77-1.11Z"/>
    <path class="cls-59" d="M178.74,92.64c.05.66-.02,1.4-.68,1.72-1.67.8-1.13-2.28.68-1.72Z"/>
    <path class="cls-59" d="M335.39,98.88c.43.44-.66,2.44-1.68,1.87-.23-.65,1.1-2.46,1.68-1.87Z"/>
    <path class="cls-59" d="M355.13,100.75c-.1-.81.44-1.84,1.36-1.87.83.21-.42,2.36-1.36,1.87Z"/>
  </g>
  <g>
    <path class="cls-26" d="M107.38,70.9c-.99-2.6-1.99-5.2-2.94-7.93.6-.8,1.18-1.45,1.71-2.15.69-.92,1.57-1.26,2.72-1.2,3.66.18,7.32.29,10.97.43,2.37.09,4.74.16,7.11.28,1.06.05,1.35.42,1.05,1.3-1,2.97-2.03,5.93-3.09,8.89-.3.84-.96,1.26-1.87,1.22-.49-.02-.98-.03-1.46-.06-4.73-.26-9.47-.52-14.2-.78M119.43,66.27c.09-.05.18-.11.4-.07.99-.05,1.98-.09,3.1-.14-.2-.58-.43-1.25-.65-1.92-.11,0-.21,0-.32.01-.23.49-.46.98-.7,1.51-.24-.29-.53-.49-.57-.72-.15-.97-.12-.98-1.12-.52-.08,0-.16,0-.38-.11-.42-.05-.84-.11-1.27-.16v2.07l.16.03c.11-.23.22-.45.32-.65.36.28.65.5,1.03.68M108.72,64.84v1.38c.67-.05,1.2-.1,1.7-.14v-1.87c-.07-.03-.14-.06-.21-.09-.21.25-.41.51-.56.68-.22-.21-.45-.42-.68-.63-.08.17-.16.35-.25.68M110.83,65.34c.03.3.06.6.1.98.45-.02.82-.04,1.18-.06,0-.08,0-.15.01-.23-.25-.11-.5-.21-.84-.35.34-.21.57-.35.88-.54-.31-.15-.52-.25-.78-.37.29-.17.52-.3.82-.47-1.24-.39-1.35-.31-1.37,1.04M115.54,64.66c-.25-.18-.5-.35-.75-.53-.14.27-.32.53-.41.82-.05.16.06.37.1.56.05.25.04.67.16.72.25.09.67.08.85-.08.17-.15.14-.54.14-.83,0-.17-.11-.34-.1-.65M117.48,65.64v-1.39c-.1,0-.2-.02-.31-.02-.09.53-.18,1.07-.28,1.6-.09,0-.17.02-.26.03-.12-.53-.24-1.07-.36-1.6-.09,0-.18.02-.27.03,0,.43-.07.87.02,1.27.07.28.35.71.56.72.28.02.58-.29.9-.63M112.61,64.3v1.93c.95.24,1.44-.07,1.45-.98.01-.89-.44-1.27-1.45-.95Z"/>
    <g>
      <rect class="cls-26" x="108.5" y="62.77" width="15.47" height="5.64"/>
      <text class="cls-36" transform="translate(108.59 66.22) scale(.88 1)"><tspan x="0" y="0">MEDSURS</tspan><tspan class="cls-32" x="14.09" y="0">A</tspan></text>
    </g>
  </g>
</svg>