<?xml version="1.0" encoding="UTF-8"?>
<svg id="Capa_1" data-name="Capa 1" xmlns="http://www.w3.org/2000/svg" viewBox="0 0 400 150">
  <defs>
    <style>
      .cls-1 {
        fill: #2a3f69;
      }

      .cls-2 {
        fill: #e42a2b;
      }

      .cls-3 {
        fill: #efe30c;
      }

      .cls-4 {
        fill: #203461;
      }
    </style>
  </defs>
  <g>
    <path class="cls-4" d="M176.88,104.51c.1-2.75.27-5.4.28-8.05,0-2.62-.14-5.24-.23-7.97,1.09,0,2.21,0,3.34,0,1.25,0,2.5,0,3.75-.03,3.18-.1,5.75,1.63,6.57,4.94.72,2.91.46,5.73-1.39,8.23-1.33,1.79-3.18,2.78-5.44,2.86-2.27.08-4.54.02-6.87.02ZM180.16,103.21c.7,0,1.36,0,2.01,0,2.32-.01,4-1.16,4.76-3.31.68-1.92.75-3.91.39-5.87-.61-3.33-3.43-4.99-7.17-4.03v13.2Z"/>
    <path class="cls-4" d="M158.65,96.62c-.06-2.77.8-5.17,3.07-6.94,2.51-1.96,6.7-2.26,9.48-.68,1.63.93,2.64,2.33,3.21,4.09.86,2.62.82,5.18-.48,7.64-1.4,2.66-3.7,4-6.71,4.22-1.56.11-3.09-.05-4.5-.76-2.61-1.3-3.72-3.55-4.06-6.27-.05-.43,0-.86,0-1.3ZM161.97,96.86c0,.32-.02.65,0,.97.1,1.34.37,2.63,1.1,3.8,1.5,2.42,4.57,2.77,6.54.7.51-.54.87-1.23,1.21-1.9.59-1.18.71-2.48.78-3.78.1-1.75-.16-3.44-1.02-5-.56-1.01-1.35-1.78-2.53-2.11-2.04-.57-4.24.38-5.18,2.58-.65,1.52-.85,3.11-.88,4.74Z"/>
    <path class="cls-4" d="M211.84,104.41v-16.21h8.72v1.65h-5.44v5.26h5.11v1.61h-5.11v6.29c1.89-.06,3.74-.12,5.64-.18v1.58h-8.92Z"/>
    <path class="cls-4" d="M193.09,88.29h8.96v1.7c-1.85-.07-3.75-.15-5.72-.22v5.37h5.41v1.59h-5.36v7.88h-3.28v-16.32Z"/>
    <path class="cls-4" d="M223.25,88.28h3.23v14.56c2.04.28,3.97-.18,5.95-.07v1.69h-9.18v-16.18Z"/>
    <path class="cls-4" d="M242.85,102.74v1.75h-9.21v-16.17h3.32c-.1,4.83-.33,9.67.02,14.64,1.96-.08,3.86-.15,5.86-.23Z"/>
    <path class="cls-4" d="M200.1,104.28v-3.01c.34.33.52.53.73.69.63.48,1.22,1.08,1.93,1.4,1.13.51,2.16,0,2.5-1.17.19-.65.27-1.35.26-2.02-.05-3.79-.14-7.57-.21-11.36,0-.17,0-.34,0-.55h3.29c.02.24.05.49.04.73-.02,2.78-.04,5.56-.08,8.33-.01,1.08-.06,2.16-.12,3.24-.11,2.28-1.55,3.78-3.84,4.19-1.57.28-3.07.17-4.51-.46Z"/>
  </g>
  <g>
    <path class="cls-4" d="M192.92,116.74c-1.45,3.29-2.91,6.58-4.39,9.92h-.88c-1.47-3.33-2.96-6.7-4.46-10.07l-.23.03c-.29,3.4-.58,6.81-.87,10.18h-1.9c.71-5.32,1.42-10.68,2.14-16.09h1.81c1.57,3.55,3.17,7.15,4.86,10.97,1.71-3.78,3.32-7.36,4.96-10.98h1.81c.6,5.33,1.21,10.68,1.82,16.1h-3.42c-.3-3.34-.61-6.7-.91-10.06,0-.17,0-.34,0-.7-.16.34-.25.52-.33.7Z"/>
    <path class="cls-4" d="M168.11,110.68c2.22,0,4.41-.09,6.59.03,2.28.13,3.68,2.36,3.14,4.78-.38,1.7-1.42,2.8-3.25,3.31,1.52,2.66,3.01,5.28,4.57,8.01h-3.92c-1.23-2.37-2.48-4.79-3.73-7.21-.07.02-.13.03-.2.05v7.17h-3.2v-16.13ZM171.37,111.99v6.18c1.83.15,2.85-.61,3.05-2.3.08-.74.06-1.5-.03-2.24-.12-.97-.75-1.53-1.73-1.63-.39-.04-.79,0-1.28,0Z"/>
    <path class="cls-4" d="M220.18,126.84h-1.82c-3.05-3.7-6-7.53-9.43-11.32v11.26h-1.72v-16.08h2.23c2.94,3.5,5.91,7.05,9.06,10.8v-10.8h1.68v16.13Z"/>
    <path class="cls-4" d="M227.89,110.46h1.74c1.96,5.42,3.92,10.85,5.91,16.35h-3.72c-.48-1.56-.97-3.16-1.47-4.81h-4.94c-.49,1.55-1,3.15-1.52,4.78h-2.06c2.03-5.46,4.03-10.87,6.06-16.32ZM229.78,120.38c-.61-1.77-1.18-3.41-1.83-5.27-.69,1.89-1.29,3.55-1.92,5.27h3.74Z"/>
    <path class="cls-4" d="M257.75,111.27c-.3.88-.55,1.66-.88,2.65-.27-.32-.46-.5-.59-.71-.81-1.3-1.84-1.75-3.34-1.44-.76.16-1.37.57-1.59,1.33-.23.79-.26,1.63.48,2.19.71.55,1.51.99,2.29,1.45.78.46,1.62.84,2.36,1.35,2.9,1.97,2.52,6.09-.12,7.91-2.3,1.59-6.39,1.49-8.13.13.24-.97.48-1.97.72-2.95.54-.16.54.23.67.52.73,1.55,2.02,2.22,3.74,1.93,1.03-.17,1.76-.72,2.02-1.73.25-.95-.02-1.82-.81-2.42-.63-.47-1.37-.81-2.06-1.2-.82-.46-1.68-.86-2.46-1.38-2.49-1.67-2.45-6.61.99-8.11,2.24-.98,4.46-.77,6.71.5Z"/>
    <path class="cls-4" d="M156.29,110.69h8.65v1.66c-1.77-.07-3.54-.14-5.4-.21v5.45h5.07v1.61h-5.08v6.12h5.59v1.56h-8.83v-16.19Z"/>
    <path class="cls-4" d="M149.16,112.34v14.47h-2.98v-14.47c-1.63.1-3.13.19-4.68.28v-1.93h12.2v1.94c-1.45-.1-2.92-.19-4.54-.3Z"/>
    <path class="cls-4" d="M237.61,110.62h3.33c-.06,2.45-.17,4.89-.18,7.33-.02,2.4.05,4.8.09,7.32,2.09-.07,4-.13,5.92-.19v1.75h-9.15v-16.21Z"/>
    <path class="cls-4" d="M203.49,126.81h-3.12v-16.14h3.12v16.14Z"/>
  </g>
  <g>
    <path class="cls-1" d="M234.77,64.99c-.27.52-.44.83-.63,1.2-2.39-.34-4.53.32-6.66,1.27-3.08,1.38-6.21,1.22-9.14-.38-7.51-4.09-15.36-5.29-23.75-3.4-3.65.82-7.42.72-11.31.33,1.18,5.03-.91,10.32,2.05,15.15-.69.23-1.14.39-1.7.58-3.14-9.06-6.26-18.06-9.39-27.06l-.14.04c2.47,8.95,4.94,17.89,7.43,26.95-.49.16-.94.3-1.53.5-4.96-17.95-9.89-35.82-14.84-53.71-.99-.57-2.13-1.15-1.38-2.56.61-1.14,1.75-1.24,2.84-.82,1.15.45,1.53,1.35.82,2.66,4.87,1.01,9.67,1.48,14.54,1.5,5.13.03,10.06-1.22,15.09-1.87,3.42-.44,6.7-.03,9.94,1.13,5.72,2.06,11.53,2.33,17.4.71,4.96-1.37,10.74.55,13.04,4.4-3.18.77-4.96,2.91-6.27,5.82-1.34,2.96-3.76,5.08-6.82,6.28-2.42.95-4.08,2.63-5.45,4.99,2.08,1.02,4.04,2.15,5.62,3.81.93.98,1.69,2.02,2.11,3.33,1.33,4.18,4.02,7.22,8.13,9.17ZM167.3,27.18c-.04-.05-.08-.11-.02-.03-.09,0-.02,0,.04,0,.02.27-.02.57.06.82,4.03,11.95,8.07,23.89,12.13,35.83.95,2.78,1.99,5.54,2.98,8.3.33-9.59-1.05-18.8-4.86-27.56-2.71-6.23-5.74-12.26-10.33-17.36ZM183.25,63.05c3.97.64,7.75.43,11.47-.28,7.61-1.46,14.96-1.28,21.92,2.61,1.51.84,3.17,1.4,4.86,1.86,4.14,1.13,7.36-2.15,11.69-1.96-3.43-2.2-5.7-4.84-6.9-8.21-.86-2.41-2.44-4.13-4.42-5.55-1.27-.91-2.68-1.64-4.1-2.5,1.15-2.6,2.87-4.7,5.59-5.83,3.06-1.27,5.64-3.12,7.02-6.2,1.18-2.64,2.81-4.76,5.66-5.94-3.26-3.23-7.03-4.15-11.22-3.05-5.8,1.52-11.5,1.4-17.19-.48-4.42-1.47-8.93-1.92-13.53-.88-5.68,1.28-11.44,1.68-17.24,1.27-2.77-.2-5.52-.63-8.56-.99,8.24,10.79,13.46,22.66,14.93,36.14ZM166.79,24.96c.1-.9-.39-1.12-1.03-1.12-.63,0-1.27.04-1.25.98.69.81,1.43.73,2.27.14Z"/>
    <path class="cls-2" d="M199.11,53.73c-4.16,2.08-8.37,1.33-10.86-1.92-2.34-3.04-2.2-7.03.34-9.94.63-.72,1.34-1.35,2.26-1.69.13.67.27,1.34.4,2.01-3.49,1.82-4.69,5.4-2.82,8.43,1.91,3.1,5.9,3.86,8.91,1.71.81-.42,1.29-1.14,1.7-1.92.51-.84.77-1.75.76-2.73,1-.3,2.01-.61,3.01-.91.15,2.17-.74,3.97-2.01,5.64-.56.44-1.12.89-1.67,1.33Z"/>
    <path class="cls-1" d="M199.11,53.73c.56-.44,1.12-.89,1.67-1.33,2.12,1.46,4.36,1.58,6.58.35,2.15-1.19,3.24-3.1,3.03-5.57-.2-2.39-1.44-4.1-3.73-4.97-.79-.45-1.64-.59-2.54-.47-1.01-.07-1.91.28-2.77.74-.77-.72-1.54-1.43-2.31-2.15,1.88-1.07,3.89-1.38,6.01-1.01.66.21,1.32.42,1.97.64,4.42,2.99,5.65,7.4,3.16,11.3-2.35,3.67-7.28,4.77-11.08,2.48Z"/>
    <path class="cls-3" d="M207.03,39.95c-.66-.21-1.32-.42-1.97-.64.23-2.64-.84-4.63-3.15-5.88-2.26-1.22-4.53-1.04-6.58.48-1.77,1.32-2.71,3.11-2.31,5.41.02.89.22,1.73.86,2.4.36.97,1.23,1.43,2,2-.23,1.01-.46,2.02-.69,3.03-1.93-.99-3.18-2.57-3.95-4.57-.13-.67-.27-1.34-.4-2.01.53-5,3.35-8.04,7.67-8.25,4.13-.2,7.66,2.47,8.43,6.42.1.52.06,1.07.08,1.6Z"/>
    <path class="cls-1" d="M197.33,52.33c-1.52-1.55-2.08-3.46-2.14-5.57.23-1.01.46-2.02.69-3.03.25-.42.5-.84.74-1.26,1.19.3,1.82,1.22,2.44,2.16-.54.94-.89,1.92-.76,3.02-.08,1,.14,1.93.72,2.76-.4.78-.88,1.5-1.7,1.92Z"/>
    <path class="cls-3" d="M198.31,47.65c-.13-1.1.23-2.09.76-3.02,1.02-.23,2.15-.15,2.99-.95.94-.38,1.61-1.05,2.07-1.95.9-.11,1.75.02,2.54.47-.61,2.1-1.97,3.56-3.87,4.56-1,.3-2.01.61-3.01.91-.49,0-.98-.02-1.47-.03Z"/>
    <path class="cls-2" d="M193.03,39.33c2.13-.43,4.13-.03,6.02,1,.77.72,1.54,1.43,2.31,2.15.24.4.47.8.71,1.21-.84.8-1.97.72-2.99.95-.62-.94-1.25-1.87-2.44-2.16-.85-.47-1.75-.8-2.74-.74-.64-.67-.83-1.51-.86-2.4Z"/>
  </g>
</svg>