<?xml version="1.0" encoding="UTF-8"?>
<svg id="Capa_1" data-name="Capa 1" xmlns="http://www.w3.org/2000/svg" viewBox="0 0 400 150">
  <defs>
    <style>
      .cls-1 {
        fill: #76777a;
      }
    </style>
  </defs>
  <g>
    <path id="SVGID" class="cls-1" d="M68.76,86.51c-2.22,0-4.8-.5-5.66-2.81-.27-.68-.45-1.59-.45-2.54h-9.38l-5.8-5.75,5.17-5.17c1.5,5.44,7.43,6.89,12.69,8.38,6.62,1.9,8.29,2.45,8.29,4.44.05,2.81-2.9,3.44-4.85,3.44ZM74.69,70.65c2.99.82,5.98,1.95,8.02,3.99v-7.39h-10.01c.23-1.45-.45-2.45-1.4-3.08-.95-.72-2.31-.95-3.49-.95-1.63,0-4.26.45-4.26,2.58.18,2.76,5.71,3.35,11.15,4.85ZM82.53,40.34l-14.36,14.36c6.39.05,12.14,2.04,14.54,7.2v-6.3h11.87v28.64h12.55l9.65-9.65-34.26-34.26ZM82.76,89.77c-3.4,3.85-9.33,5.26-15,5.26h-.63l14.64,14.64,15.54-15.54h-14.54v-4.35Z"/>
    <path id="SVGID-2" data-name="SVGID" class="cls-1" d="M158.61,66.35h-5.85l-7.97,17.31h5.03l1.31-3.04h9.15l1.4,3.04h5.03l-8.11-17.31ZM152.81,76.86l2.85-6.48,2.95,6.48h-5.8ZM346.06,66.16h-7.2c-4.08,0-6.48,1.18-6.48,6.25v5.17c0,5.07,2.4,6.25,6.48,6.25h7.2c4.08,0,6.48-1.18,6.48-6.25v-5.17c0-5.07-2.4-6.25-6.48-6.25ZM346.88,79.4h-8.79v-8.79h8.79v8.79ZM209.22,66.35h-4.49v17.31h14.64v-4.44h-10.15v-12.87ZM228.52,66.16h7.25c4.08,0,6.48,1.18,6.48,6.25v5.17c0,5.07-2.4,6.25-6.48,6.25h-7.25c-4.08,0-6.48-1.18-6.48-6.25v-5.17c0-5.07,2.4-6.25,6.48-6.25ZM227.71,79.4h8.79v-8.79h-8.79v8.79ZM184.89,78.9h0l-8.52-12.55h-6.98v17.31h4.49v-12.55h.05l8.47,12.55h6.98v-17.31h-4.49v12.55h0ZM133.69,72.92c-4.85.05-5.39-.05-5.39-1.54,0-.95.68-1.36,1.72-1.36h4.98c2.08,0,2.17.54,2.17,1.81h4.49v-.54c0-3.04-.5-5.12-5.66-5.12h-6.3c-5.66,0-5.94,2.4-5.94,5.53,0,4.26.77,5.21,7.57,5.21,5.8,0,6.34.09,6.34,1.59,0,1.36-.95,1.45-1.95,1.45h-5.48c-1.31,0-1.95-.14-1.95-1.99h-4.49v1.18c0,3.76,1.63,4.67,5.75,4.67h5.48c5.98,0,7.34-.77,7.34-5.44-.05-4.98-1.68-5.48-8.7-5.44ZM318.51,79.44l10.51-8.93v-4.17h-16.9v4.17h10.24v.05l-10.51,8.93v4.17h17.44v-4.17h-10.74l-.05-.05h0ZM303.88,78.9h0l-8.52-12.55h-6.98v17.31h4.49v-12.55h.05l8.47,12.55h6.98v-17.31h-4.49v12.55ZM259.65,66.35c3.49,0,4.4,2.04,4.4,5.12v1.09c0,2.31-.45,3.67-2.54,4.26v.05c1.36.27,2.45,1,2.45,3.81v2.95h-4.49v-2.08c0-1.81-.45-2.4-1.86-2.4h-7.07v4.49h-4.49v-17.26h13.59ZM259.65,72.46c0-1.54-.63-1.81-2.08-1.81h-7.02v4.21h7.43c1.22,0,1.68-.59,1.68-1.81v-.59ZM272.7,76.72h10.97v-3.58h-10.97v-2.76h11.55v-4.03h-16.09v17.31h16.36v-4.17h-11.83v-2.76h0Z"/>
  </g>
  <g>
    <path class="cls-1" d="M129.47,60.68c0,1.95-.63,2.36-2.45,2.36-1.99,0-2.4-.63-2.4-3.04,0-2.08.32-3.08,2.4-3.08,1.59,0,2.45.27,2.45,2.17h-1.27c0-.91-.27-1.09-1.18-1.09-1.09,0-1.13.45-1.13,1.95s0,1.95,1.13,1.95c1.04,0,1.18-.23,1.18-1.27h1.27v.05Z"/>
    <path class="cls-1" d="M161.24,61.04c0,1.86-.95,1.95-2.49,1.95-2.04,0-2.49-.72-2.49-3.04,0-2.13.32-3.08,2.49-3.08s2.49.72,2.49,3.31h-3.72c0,1.27.05,1.68,1.18,1.68.72,0,1.22,0,1.22-.86h1.31v.05ZM159.92,59.32c0-1.22-.18-1.31-1.22-1.31-1.13,0-1.18.27-1.18,1.31h2.4Z"/>
    <path class="cls-1" d="M189.51,57.01l-.05.77h.05c.27-.68.82-.86,1.45-.86,1.13,0,1.4.77,1.4,1.86v.5h-1.22v-.32c0-.59-.05-.95-.63-.95-.77,0-1,.5-.95,1.27v3.67h-1.31v-5.94h1.27Z"/>
    <path class="cls-1" d="M222.9,55.43l-1.99,1-.27-.59,1.81-1.31.45.91ZM220.28,61.13c0,.86.32.91,1.18.91.68,0,1.18-.09,1.18-.91s-.54-.86-1.18-.86c-.68,0-1.18,0-1.18.86ZM222.68,62.22h0c-.27.82-1.09.82-1.72.82-1.22,0-1.99-.27-1.99-1.9,0-1.45.68-1.81,1.99-1.81.63,0,1.31,0,1.63.68h.05v-.77c0-.95-.09-1.31-1.13-1.31-.54,0-1,.05-1,.82h-1.31c0-1.72,1.09-1.81,2.31-1.81,1.72,0,2.45.32,2.45,2.31v3.76h-1.27v-.77Z"/>
    <path class="cls-1" d="M252.49,57.01v.86h.05c.27-.77,1-.95,1.68-.95s1.45.18,1.59,1.04h.05c.23-.82,1-1.04,1.72-1.04,1.4,0,1.86.54,1.86,1.99v4.03h-1.27v-3.9c-.05-.77-.18-1.04-.91-1.04-1.04,0-1.27.54-1.27,1.59v3.35h-1.31v-3.9c-.05-.77-.18-1.04-.91-1.04-1.04,0-1.27.54-1.27,1.59v3.35h-1.27v-5.94h1.27Z"/>
    <path class="cls-1" d="M287.97,62.95h-1.27v-5.94h1.27v5.94ZM287.97,55.65h-1.27v-1.22h1.27v1.22Z"/>
    <path class="cls-1" d="M319.87,60.68c0,1.95-.63,2.36-2.45,2.36-1.99,0-2.4-.63-2.4-3.04,0-2.08.32-3.08,2.4-3.08,1.59,0,2.45.27,2.45,2.17h-1.27c0-.91-.27-1.09-1.18-1.09-1.09,0-1.13.45-1.13,1.95s0,1.95,1.13,1.95c1.04,0,1.18-.23,1.18-1.27h1.27v.05Z"/>
    <path class="cls-1" d="M350.36,62.22h0c-.27.82-1.09.82-1.72.82-1.22,0-1.99-.27-1.99-1.9,0-1.45.68-1.81,1.99-1.81.63,0,1.31,0,1.59.68h.05v-.77c0-.95-.09-1.31-1.13-1.31-.54,0-1,.05-1,.82h-1.27c0-1.72,1.09-1.81,2.31-1.81,1.72,0,2.45.32,2.45,2.31v3.76h-1.27v-.77ZM347.96,61.13c0,.86.32.91,1.18.91.68,0,1.18-.09,1.18-.91s-.54-.86-1.18-.86c-.68,0-1.18,0-1.18.86Z"/>
  </g>
</svg>