<?xml version="1.0" encoding="UTF-8"?>
<svg id="Capa_1" data-name="Capa 1" xmlns="http://www.w3.org/2000/svg" viewBox="0 0 400 150">
  <defs>
    <style>
      .cls-1 {
        fill: #9ea1a2;
      }
    </style>
  </defs>
  <path class="cls-1" d="M312.51,67.19c-.58-.18-1.09-.34-1.6-.5-6.54-2.12-13.15-4-19.82-5.65-8.59-2.13-17.26-3.85-25.99-5.24-4.66-.74-9.33-1.37-14.01-1.91-3.83-.45-7.67-.83-11.52-1.17-2.69-.23-5.38-.39-8.07-.6-3.76-.28-7.52-.43-11.28-.62-1.83-.09-3.66-.15-5.49-.19-2.57-.06-5.15-.06-7.72-.13-4.08-.12-8.16-.07-12.24-.05-3.15.02-6.3.1-9.44.18-2.48.07-4.96.15-7.44.27-3.53.17-7.06.37-10.58.61-2.97.21-5.94.43-8.9.7-3.13.28-6.26.61-9.39.98-3.97.46-7.94.99-11.89,1.58-4.33.65-8.63,1.39-12.93,2.21-8.57,1.64-17.05,3.66-25.43,6.05-3.63,1.03-7.23,2.14-10.81,3.33-.14.05-.29.08-.46.13.05-.22.22-.26.33-.33,4.9-3.23,9.95-6.2,15.15-8.93,8.96-4.7,18.25-8.63,27.84-11.87,10.74-3.63,21.7-6.33,32.88-8.17,4.19-.69,8.4-1.27,12.63-1.71,3.16-.33,6.33-.6,9.5-.79,3.03-.18,6.07-.3,9.11-.38,3.03-.08,6.05-.09,9.07-.04,3.38.06,6.76.2,10.13.42,3.99.25,7.98.6,11.95,1.06,4.98.58,9.93,1.34,14.85,2.26,9.62,1.8,19.07,4.25,28.35,7.39,6.72,2.27,13.3,4.9,19.74,7.89,7.97,3.71,15.65,7.95,23,12.79.16.11.36.18.51.43Z"/>
  <path class="cls-1" d="M232.6,91.86c2.11,0,4.22-.02,6.33,0,1.15.01,2.26.26,3.22.93,1.38.97,1.83,2.42,1.92,4,.22,4.19-1.41,7.68-4.22,10.67-2.81,3-6.32,4.86-10.21,6.06-3.4,1.05-6.9,1.48-10.46,1.52-4.59.05-9.11-.4-13.51-1.72-3.27-.98-6.32-2.39-8.96-4.61-3.38-2.85-5.34-6.46-5.73-10.89-.53-6.11,1.82-10.94,6.57-14.68,3.72-2.93,8.03-4.52,12.62-5.43,2.48-.49,5-.7,7.53-.79,5.15-.16,10.22.38,15.21,1.62,1.08.27,2.13.6,2.94,1.41,1.27,1.26.92,3.41-.69,4.2-1.04.51-2.13.47-3.24.31-4.11-.59-8.24-.88-12.38-.69-3.59.16-7.13.7-10.48,2.13-2.21.94-4.2,2.22-5.68,4.16-2.93,3.83-2.62,8.77.74,12.26,2.14,2.21,4.77,3.58,7.67,4.49,2.48.77,5.02,1.14,7.62,1.03,4.05-.17,7.94-.96,11.45-3.12,1-.61,1.88-1.37,2.58-2.32,1.2-1.63.72-2.93-1.25-3.4-.85-.2-1.73-.19-2.59-.24-2.26-.13-4.52-.18-6.78-.32-1.98-.12-3.97-.14-5.94-.36-.56-.06-1.09-.23-1.59-.51-1.1-.61-1.61-1.55-1.5-2.81.11-1.18.73-1.99,1.81-2.44.65-.27,1.34-.38,2.05-.38,2.33,0,4.66.03,6.98-.03,2.65-.06,5.3-.04,7.96-.07Z"/>
  <path class="cls-1" d="M299.66,98.26c-2.09,0-4.19.05-6.28-.01-2.5-.07-4.99-.01-7.49-.07-1.07-.02-2.06-.29-2.84-1.08-1.24-1.25-1.04-3.39.42-4.39.74-.51,1.58-.72,2.46-.76,2.8-.11,5.61-.18,8.41-.31,1.52-.07,3.04-.07,4.55-.25.39-.05.76-.15,1.12-.31,1.11-.52,1.48-1.56.96-2.67-.38-.8-1.03-1.35-1.72-1.85-1.57-1.13-3.35-1.76-5.23-2.1-3.74-.68-7.47-.62-11.15.43-2.42.7-4.62,1.83-6.38,3.67-1.77,1.84-2.68,4.05-2.82,6.61-.21,3.72,1.44,6.47,4.4,8.55,2.25,1.58,4.78,2.48,7.42,3.11,3.52.84,7.11,1.12,10.71,1.02,3.2-.09,6.37-.46,9.5-1.13.73-.16,1.47-.24,2.21-.04,1.87.49,2.59,2.88,1.32,4.34-.56.64-1.26,1.06-2.04,1.34-2.75.99-5.58,1.67-8.47,2.12-2.32.36-4.65.54-6.99.59-5.08.1-10.06-.52-14.88-2.19-3.53-1.22-6.76-2.97-9.38-5.69-2.78-2.89-4.25-6.35-4.32-10.39-.07-4.27,1.12-8.11,3.83-11.43,2.11-2.59,4.81-4.41,7.84-5.75,3.09-1.37,6.35-2.13,9.7-2.44,4.12-.39,8.21-.31,12.25.66,3.89.94,7.4,2.61,10.17,5.58,2.42,2.6,3.82,5.66,3.86,9.26,0,.71-.08,1.42-.25,2.12-.54,2.22-2.08,3.46-4.37,3.5-1.09.02-2.17,0-3.26,0-1.09,0-2.17,0-3.26,0v-.02Z"/>
  <path class="cls-1" d="M125.79,98.26c-2.08,0-4.16.05-6.24-.01-2.54-.07-5.09-.02-7.63-.06-.66-.01-1.3-.14-1.9-.41-1.11-.52-1.76-1.39-1.76-2.62,0-1.3.66-2.23,1.85-2.77.54-.25,1.12-.38,1.71-.41,1.72-.08,3.44-.13,5.16-.2,2.45-.1,4.9-.19,7.34-.3.54-.02,1.08-.11,1.59-.32,1.27-.52,1.69-1.76.99-2.94-.42-.71-1.03-1.23-1.69-1.7-1.88-1.32-4.01-1.94-6.25-2.24-3.27-.43-6.53-.36-9.74.53-2.7.74-5.11,1.98-7.02,4.1-2.91,3.22-3.62,8.88-.58,12.55,1.51,1.83,3.45,3.06,5.6,3.98,2.78,1.19,5.7,1.81,8.69,2.15,1.77.2,3.55.3,5.34.28,3.55-.04,7.05-.42,10.52-1.15.61-.13,1.22-.2,1.85-.1,1.06.17,1.78.76,2.11,1.79.34,1.03.16,1.96-.59,2.76-.54.58-1.22.96-1.96,1.22-3.16,1.12-6.4,1.84-9.72,2.29-2.06.28-4.14.43-6.21.43-6.3-.02-12.43-.94-18.13-3.83-2.9-1.47-5.43-3.43-7.29-6.14-1.58-2.29-2.43-4.82-2.61-7.6-.18-2.82.25-5.53,1.35-8.13,1.49-3.5,3.98-6.14,7.17-8.14,3.42-2.15,7.2-3.29,11.16-3.9,1.94-.3,3.89-.42,5.84-.42,4.14.01,8.2.52,12.04,2.19,3.88,1.69,6.98,4.25,8.82,8.15,1.13,2.39,1.56,4.9.97,7.51-.51,2.24-2.07,3.47-4.37,3.49-2.14.02-4.28,0-6.42,0v-.02Z"/>
  <path class="cls-1" d="M141.74,97.32c0-4.56,0-9.12,0-13.67,0-1.38.33-2.69,1.2-3.79,1.32-1.68,3.13-2.19,5.18-2,1.39.13,2.5.85,3.53,1.73,5.14,4.39,10.29,8.77,15.43,13.16,1.59,1.36,3.18,2.72,4.8,4.05.78.64,1.62,1.23,2.68,1.3,1.18.08,1.95-.49,2.27-1.63.26-.94.33-1.92.47-2.89.6-4.06,1.18-8.13,1.78-12.19.08-.57.28-1.11.54-1.63.73-1.44,2.03-2.15,3.54-1.93,1.54.23,2.63,1.34,2.88,2.93.06.41.1.83.1,1.25,0,8.81,0,17.61,0,26.42,0,.95-.09,1.89-.35,2.8-.72,2.55-2.74,3.44-5.05,3.29-1.51-.1-2.71-.79-3.79-1.78-3.42-3.1-6.86-6.19-10.29-9.28-2.58-2.32-5.16-4.65-7.75-6.96-.96-.86-1.9-1.75-3-2.43-.75-.46-1.53-.84-2.45-.68-1.15.2-1.89.88-2.21,2-.46,1.63-.64,3.32-.92,4.98-.62,3.65-1.2,7.31-1.8,10.96-.31,1.85-1.3,2.89-2.99,3.16-1.99.32-3.76-1.14-3.79-3.18-.03-2.34-.01-4.68-.01-7.02,0-2.33,0-4.65,0-6.98h0Z"/>
  <path class="cls-1" d="M247.98,91.3c-.02-1.6-.02-1.61,1.28-1.82,2.89-.47,5.78-.94,8.68-1.4.72-.12.96.07.92.8-.13,2.41-.28,4.82-.44,7.23-.12,1.81-.25,3.61-.4,5.42-.16,1.98-.33,3.95-.51,5.92-.1,1.09-.19,2.19-.33,3.28-.12.95-.41,1.85-1.05,2.6-1.73,1.99-5.02,1.5-6.13-.9-.52-1.12-.6-2.33-.72-3.53-.22-2.28-.44-4.56-.63-6.85-.15-1.76-.28-3.52-.39-5.28-.12-1.92-.2-3.83-.29-5.48Z"/>
  <path class="cls-1" d="M247.7,83.13c-.07-1.03.03-2.05.46-3.03.68-1.53,1.79-2.56,3.43-2.95,1.81-.44,3.59-.35,5.19.71,1.5.99,2.22,2.47,2.37,4.23.04.49.01.99,0,1.49-.02.56-.18.74-.73.83-2.71.44-5.42.88-8.13,1.32-.55.09-1.1.19-1.65.26-.58.08-.81-.12-.84-.7-.04-.71-.12-1.42-.08-2.15Z"/>
</svg>