<?xml version="1.0" encoding="UTF-8"?>
<svg id="Capa_1" data-name="Capa 1" xmlns="http://www.w3.org/2000/svg" viewBox="0 0 400 150">
  <defs>
    <style>
      .cls-1 {
        fill: #6f6f6e;
      }

      .cls-2 {
        fill: #c6c6c5;
      }
    </style>
  </defs>
  <path class="cls-2" d="M150.43,47.87h18.08v18.08h18.08v18.08h-18c-.38.22-.09.35-.09.41v17.59s-.23.25-.25.25h-17.59c-.06,0-.19-.29-.41.09v18s-18.08,0-18.08,0v-18.08h-17.84s-.25-.23-.25-.25v-17.84h-17.84c-.11,0-.41-.8-.41-.9v-17.34h18.25v-18.08h18.08v-18.25h18s.25.23.25.25v18ZM139.87,66.33c-10.43,1.25-9.48,17.98,1.76,17.54,11.84-.46,10.93-19.06-1.76-17.54Z"/>
  <path class="cls-1" d="M196.36,92.54c-.4-.4-.7-1.26-.72-1.83v-30.92c.15-1.68,1.06-2.54,2.72-2.7,2.99-.3,9.15-.27,12.17,0,1.82.16,2.87,1,3.04,2.88v30.43c-.22,2.54-1.6,2.9-3.86,3.04-2.17.14-10.6.3-12.25-.25-.26-.09-.91-.45-1.1-.63ZM208.14,61.85h-7.23v26.8h7.23v-26.8Z"/>
  <path class="cls-1" d="M242.42,57.08c1.42.24,2.21,1.56,2.37,2.89.51,4.37-.33,9.64,0,14.1-.37,3.2-2.31,2.52-4.67,2.9-.22.04-.29-.11-.25.24l5.76,16.19h-5.59l-5.92-16.85v-3.37h5.26v-11.34h-6.58v31.4l-5.43.16v-36.33h15.04Z"/>
  <path class="cls-1" d="M290.91,57.08l3.62,11.67,3.53-11.67h5.75l-6.24,17.66,6.57,18.67h-5.75l-3.86-12.66-3.94,12.5c-.12.18-.31.15-.49.17-.59.07-5.01.02-5.19-.17l6.55-18.49-6.23-17.67h5.67Z"/>
  <path class="cls-1" d="M273.08,57.08v4.93h-9.21v10.36h7.32c.09,0,.37.25.58.16v4.6h-7.89v11.34h9.37v4.69s-.23.25-.25.25h-14.14c-.05,0-.25-.22-.41-.16v-36.17h14.63Z"/>
  <path class="cls-1" d="M201.56,46.39l2.59-6.2.37-.21.97,7.87-.72.19-.82-5.59-2.47,5.59c-.32.08-.23-.13-.33-.32-.71-1.39-1.24-3.49-2.01-4.73-.11-.17,0-.29-.37-.21l-.49,5.1h-.99c.42-.63.83-7.91,1.23-7.89.35.02,2.32,5.79,3.04,6.41Z"/>
  <path class="cls-1" d="M287.87,103.44l.74.49,4.52,5.59v-5.92c0-.06,1.12-.25.99.25l-.17,7.48-.58-.33-4.68-5.76v5.92h-.99c-.08-.06.16-.21.16-.25v-7.48Z"/>
  <polygon class="cls-1" points="218.5 46.23 218.5 40.15 219.32 40.15 219.32 48.04 218.82 47.93 213.97 41.96 214.06 47.87 213.07 47.87 213.32 39.99 218.5 46.23"/>
  <path class="cls-1" d="M232.55,40.15c2.45.41,2.72,3.52.41,4.35l2.13,3.37c-.29-.06-.66.2-.91.02-.5-.37-1.71-2.99-1.91-3.11-.23-.14-1.11.04-1.45-.03v3.12h-.99s.03-7.36.03-7.36c-.06-.13.16-.37.22-.37.71,0,1.83-.11,2.47,0ZM230.83,40.97v2.96c3.78.74,3.88-3.71,0-2.96Z"/>
  <path class="cls-1" d="M263.21,103.69c.17-.54,2.82-.18,3.38.07,1.76.79,1.6,3.49-.25,3.96-.25.35,1.86,2.93,2.13,3.44-.31-.04-.68.28-.98.09-.38-.24-1.69-2.99-2.01-3.18-.27-.16-1.08.04-1.45-.03v3.12h-.82v-7.48ZM264.03,107.22c3.94.73,3.94-3.63,0-2.96v2.96Z"/>
  <path class="cls-1" d="M219.81,103.69c.11-.35,1.37-.27,1.73-.25,3.2.18,3.87,2.86,1.23,4.53l2.13,3.21c-.36,0-.6.25-.91.02-.5-.38-1.72-2.99-1.91-3.11-.23-.14-1.11.04-1.45-.03v3.12h-.82v-7.48ZM220.63,107.22c3.87.73,3.81-3.64,0-2.96v2.96Z"/>
  <path class="cls-1" d="M239.19,108.89h-3.33c-.44.21-.8,2.14-.94,2.26-.12.1-.74-.02-.97.02l3.29-7.73.58.48,3.17,7.02c-.87,1.38-1.55-1.35-1.8-2.07ZM238.72,108.04l-1.15-2.96c-.74.76-.9,2.05-1.48,2.96h2.63Z"/>
  <path class="cls-1" d="M297.23,111.15s-1.13.18-.96-.22l3.53-7.48,3.54,7.64c-1.26,1.13-1.35-1.94-2.08-2.19-.35-.12-3.08-.08-3.26.14-.23.28-.67,2.04-.76,2.12ZM301.03,108.04l-1.15-2.96c-.74.76-.9,2.05-1.48,2.96h2.63Z"/>
  <path class="cls-1" d="M282.27,103.45l3.3,7.88c-.23-.03-.62.08-.79-.03-.2-.12-.76-2.04-1-2.34-.19-.25-2.9-.04-3.45-.08-.5.95-.42,2.68-1.83,2.28l3.29-7.72h.48ZM283.27,108.04l-1.23-2.96-1.23,2.96h2.47Z"/>
  <path class="cls-1" d="M204.85,103.44v5.67c0,.09.43.9.55,1.01.95.96,2.91.67,3.48-.6.43-.96.29-4.13.25-5.35,0-.21-.19-.55-.17-.57.04-.03.8-.07.99-.17v5.51c0,.21-.43,1.16-.59,1.39-.93,1.34-3.46,1.47-4.6.35-1.39-1.37-.46-5.1-.74-6.97l.83-.27Z"/>
  <path class="cls-1" d="M271.43,103.44v5.51c0,.65.94,1.57,1.6,1.69,3.88.7,2.41-4.74,2.66-6.93l.83-.27v5.67c0,.19-.55,1.19-.74,1.4-1.04,1.21-3.49,1.24-4.53.08-1.24-1.4-.4-5.09-.67-6.89l.83-.27Z"/>
  <path class="cls-1" d="M226.88,40.15v.82h-3.12v2.47h2.55c.22,0,.3.61.25.82h-2.79v2.96h3.45c.07.19-.07.66-.25.66h-4.19v-7.73h4.11Z"/>
  <path class="cls-1" d="M250.55,108.21v2.96h-.99v-7.48c0-.33,1.41-.27,1.73-.25,4.58.26,3.21,5.37-.75,4.77ZM250.55,104.26v3.29c3.55.28,3.7-3.81,0-3.29Z"/>
  <path class="cls-1" d="M243.98,47.87c-1.4.78-1.33-2-1.97-2.39-.27-.16-3.21-.13-3.31.02-.17.31-.73,2.27-.82,2.35-.12.1-.74-.02-.97.02l3.53-7.89,3.53,7.89ZM241.68,44.75l-1.15-2.96c-.25-.2-1.25,2.74-1.48,2.96h2.63Z"/>
  <path class="cls-1" d="M227.87,110.51h4.44c.1,1.27-.64.67-1.39.65-.87-.03-1.78-.02-2.65,0-.39.01-1.63.39-1.72-.08-.08-.4,4.29-5.85,4.6-6.82h-4.27c.05-.18.11-.79.27-.83.69-.19,1.78.19,2.45.19.42,0,3.04-.5,3.04.07l-4.76,6.82Z"/>
  <path class="cls-1" d="M256.47,103.44c1.39.09,2.72.06,4.11,0v.82h-3.29v2.63l2.8-.17v.82h-2.8v2.96h3.45v.82c-1.41-.24-2.86-.24-4.27,0v-7.89Z"/>
  <path class="cls-1" d="M213.07,103.44c1.39.09,2.72.06,4.11,0v.82h-3.29v2.63c.95.23,2.97-.91,2.79.66h-2.79v2.96h3.45c.02.28.05.72-.27.81-1.32-.27-2.69-.19-4.01.01v-7.89Z"/>
  <path class="cls-1" d="M197.62,103.44c1.39.09,2.72.06,4.11,0v.82h-3.29v2.63h2.55c.27,0,.13.82.08.82h-2.63v3.45h-.82v-7.73Z"/>
  <rect class="cls-1" x="208.63" y="40.15" width=".99" height="7.73"/>
</svg>