<?xml version="1.0" encoding="UTF-8"?>
<svg id="Capa_1" data-name="Capa 1" xmlns="http://www.w3.org/2000/svg" viewBox="0 0 400 150">
  <defs>
    <style>
      .cls-1 {
        fill: #76777a;
      }
    </style>
  </defs>
  <path class="cls-1" d="M148.7,66.84v1.52h-6.4v-.93c0-.76-.36-1.29-1.05-1.29h-7.92c-.68,0-1.05.52-1.05,1.28v4.26s9.97,0,9.97,0c3.62,0,6.55,2.17,6.55,6.32v4.18c0,4.14-2.94,6.31-6.56,6.31h-9.49c-3.62,0-6.55-2.18-6.55-6.32v-1.89s6.4,0,6.4,0v1.2c0,.85.36,1.37,1.04,1.37h7.72c.68,0,1.04-.51,1.04-1.36v-4.18s-9.97,0-9.97,0c-3.62,0-6.55-2.17-6.55-6.32v-4.18c0-4.15,2.94-6.32,6.56-6.31h9.69c3.63,0,6.56,2.18,6.56,6.33"/>
  <rect class="cls-1" x="154.91" y="60.53" width="6.23" height="27.99"/>
  <path class="cls-1" d="M167.55,60.54h16.33c3.62.01,6.55,2.19,6.55,6.33v15.37c-.01,4.14-2.95,6.31-6.57,6.31h-16.33s.02-28,.02-28ZM173.77,82.9h9.21c.68,0,1.05-.51,1.05-1.36v-14.08c0-.76-.36-1.29-1.04-1.29h-9.21s0,16.73,0,16.73Z"/>
  <polygon class="cls-1" points="196.2 60.55 216.14 60.57 216.14 66.19 202.43 66.19 202.43 71.22 216.14 71.23 216.13 76.86 202.42 76.85 202.42 82.92 216.13 82.93 216.12 88.56 196.18 88.55 196.2 60.55"/>
  <path class="cls-1" d="M239.08,78.64h.16c3.29-.04,6.27-2.17,6.28-6.31v-5.43c0-4.14-2.93-6.32-6.55-6.32h-16.52s-.02,27.98-.02,27.98h6.23s0-9.93,0-9.93h2.93s7.6,9.94,7.6,9.94h7.56s-7.68-9.93-7.68-9.93ZM238.05,73.2h-9.39s0-6.99,0-6.99h9.38c.7,0,1.06.54,1.06,1.32v4.29c0,.86-.37,1.39-1.07,1.39"/>
  <polygon class="cls-1" points="279.91 60.61 299.86 60.62 299.85 66.25 286.14 66.24 286.14 71.27 299.85 71.28 299.85 76.91 286.13 76.9 286.13 82.98 299.84 82.98 299.84 88.62 279.89 88.6 279.91 60.61"/>
  <path class="cls-1" d="M268.03,60.6h-16.53s-.02,27.98-.02,27.98h6.23s0-9.73,0-9.73h10.3c3.62,0,6.55-2.16,6.56-6.31v-5.63c0-4.14-2.92-6.32-6.54-6.32M268.16,71.83c0,.86-.37,1.39-1.07,1.39h-9.38s0-6.99,0-6.99h9.38c.7,0,1.06.54,1.06,1.32v4.28Z"/>
  <path class="cls-1" d="M322.79,78.7h.17c3.29-.04,6.27-2.17,6.27-6.31v-5.43c0-4.14-2.92-6.32-6.55-6.32h-16.53s-.02,27.98-.02,27.98h6.23s0-9.92,0-9.92h2.94l7.59,9.94h7.56s-7.68-9.93-7.68-9.93ZM321.76,73.26h-9.39s0-6.99,0-6.99h9.38c.7,0,1.07.54,1.06,1.31v4.29c0,.86-.37,1.39-1.07,1.39"/>
  <path class="cls-1" d="M352.17,81.66v-21s6.25,0,6.25,0l-.02,21.69c0,4.14-2.93,6.31-6.56,6.31h-10.13c-3.62,0-6.56-2.18-6.55-6.33v-21.69s6.25,0,6.25,0l-.02,21c0,.85.36,1.37,1.04,1.37h8.69c.68,0,1.05-.51,1.05-1.36"/>
  <polygon class="cls-1" points="125.87 102.57 134.13 102.57 134.13 104.54 128.25 104.54 128.25 108.46 134.06 108.47 134.06 110.43 128.25 110.43 128.24 114.61 134.12 114.62 134.12 116.58 125.86 116.58 125.87 102.57"/>
  <rect class="cls-1" x="136.44" y="102.58" width="2.22" height="14.01"/>
  <path class="cls-1" d="M153.37,110.86v5.73s-2.24,0-2.24,0v-1.21c-.63.91-1.69,1.45-3.22,1.45-2.34,0-3.47-1.21-3.47-2.98,0-2.32,1.81-3.08,4.84-3.08h1.84s0-.28,0-.28c0-1.43-.41-2.26-2.02-2.26-1.45,0-2,.65-2,1.67h-2.3c0-2.08,1.49-3.31,4.29-3.31,3.31,0,4.28,1.61,4.28,4.27M151.13,112.29v-.04h-1.69c-1.69,0-2.62.29-2.62,1.4,0,.93.62,1.47,1.85,1.47,1.94,0,2.46-1.25,2.46-2.83"/>
  <path class="cls-1" d="M155.33,111.72c0-2.82,1.49-5.12,4.77-5.12,2.56,0,4.38,1.41,4.48,3.87h-2.44c-.08-1.25-.83-1.97-2.04-1.97-1.83,0-2.38,1.51-2.38,3.21,0,1.78.57,3.22,2.38,3.22,1.27,0,2.01-.83,2.03-1.93h2.44c-.08,2.44-1.95,3.83-4.47,3.83-3.35,0-4.76-2.34-4.76-5.12"/>
  <path class="cls-1" d="M173.19,113.58h2.3c-.34,2.12-2.19,3.27-4.53,3.27-3.47,0-4.92-2.25-4.92-5.14,0-2.82,1.47-5.1,4.79-5.09,2.11,0,3.59.93,4.27,2.48.41.95.47,1.83.49,3.14h-7.25c.08,1.66.65,2.85,2.58,2.85,1.23,0,2.03-.53,2.27-1.51M168.39,110.72h4.86c-.14-1.47-.79-2.4-2.4-2.4-1.61,0-2.28.97-2.46,2.4"/>
  <path class="cls-1" d="M183.25,106.86v1.98c-.24-.06-.61-.1-.91-.1-1.65,0-2.48,1.07-2.48,2.95v4.92h-2.23v-9.74s2.21,0,2.21,0v1.29c.48-.88,1.29-1.43,2.46-1.43.36,0,.68.04.95.12"/>
  <path class="cls-1" d="M184.23,111.74c0-2.78,1.49-5.12,4.81-5.12,3.43,0,4.82,2.44,4.82,5.12,0,2.74-1.43,5.12-4.82,5.12-3.35,0-4.8-2.42-4.8-5.12M191.49,111.74c0-1.75-.51-3.22-2.46-3.22-1.95,0-2.44,1.53-2.45,3.22,0,1.78.55,3.21,2.44,3.21,2,0,2.46-1.57,2.46-3.21"/>
  <path class="cls-1" d="M208.49,102.63v14.01h-2.2v-1.39c-.67,1.09-1.73,1.63-3.09,1.62-2.96,0-4.17-2.4-4.16-5.12,0-2.68,1.17-5.12,4.17-5.12,1.35,0,2.38.52,3.05,1.57v-5.58s2.23,0,2.23,0ZM206.28,111.45c0-1.86-.87-2.92-2.4-2.92-1.91,0-2.48,1.47-2.48,3.22,0,1.71.53,3.22,2.48,3.22,1.53,0,2.4-1.03,2.4-2.91v-.6Z"/>
  <path class="cls-1" d="M217.66,113.61h2.3c-.34,2.12-2.19,3.27-4.53,3.27-3.47,0-4.92-2.25-4.91-5.14,0-2.82,1.47-5.1,4.78-5.1,2.11,0,3.59.93,4.26,2.48.42.95.48,1.82.5,3.13h-7.24c.08,1.66.65,2.85,2.58,2.85,1.23,0,2.02-.53,2.26-1.51M212.86,110.75h4.86c-.14-1.47-.79-2.4-2.4-2.4-1.61,0-2.28.97-2.46,2.4"/>
  <rect class="cls-1" x="216.22" y="108.53" width="14.01" height="2.22" transform="translate(113.31 332.73) rotate(-89.93)"/>
  <path class="cls-1" d="M231.08,102.64h5.04c3.23,0,4.48,1.54,4.48,3.98,0,2.54-1.37,4.09-4.49,4.08h-2.65s0,5.95,0,5.95h-2.38s0-14.01,0-14.01ZM235.5,108.86c1.85,0,2.66-.71,2.66-2.2,0-1.47-.81-2.17-2.66-2.17h-2.04s0,4.37,0,4.37h2.04Z"/>
  <path class="cls-1" d="M248.67,113.63h2.3c-.34,2.12-2.18,3.27-4.52,3.27-3.48,0-4.92-2.25-4.92-5.14,0-2.82,1.47-5.1,4.79-5.1,2.1,0,3.59.93,4.26,2.48.42.95.48,1.83.49,3.14h-7.24c.08,1.66.65,2.85,2.58,2.85,1.23,0,2.02-.53,2.26-1.5M243.87,110.77h4.86c-.14-1.47-.79-2.4-2.4-2.4-1.61,0-2.28.97-2.46,2.4"/>
  <path class="cls-1" d="M258.73,106.91v1.98c-.24-.06-.61-.1-.91-.1-1.65,0-2.48,1.07-2.48,2.95v4.92h-2.23v-9.74s2.21,0,2.21,0v1.29c.48-.88,1.29-1.43,2.46-1.43.35,0,.67.04.95.12"/>
  <path class="cls-1" d="M268.85,106.93v9.74s-2.23,0-2.23,0v-1.29c-.63,1.03-1.65,1.54-2.99,1.54-2.2,0-3.37-1.33-3.37-3.85v-6.15h2.23v5.69c0,1.69.63,2.4,1.98,2.4,1.37,0,2.16-.81,2.17-2.42v-5.67s2.22,0,2.22,0ZM265.12,105.34h-2.02l1.81-3.09h2.26s-2.04,3.09-2.04,3.09Z"/>
  <polygon class="cls-1" points="85.42 27.78 61.11 41.78 61.09 69.8 85.4 55.8 101.59 65.15 101.58 74.49 85.4 65.14 61.08 79.14 61.08 88.47 85.39 74.49 109.67 88.5 109.69 60.49 109.69 60.48 85.41 46.47 69.2 55.79 69.19 55.79 69.2 46.46 69.21 46.46 85.42 37.12 109.7 51.14 109.7 41.81 109.7 41.8 85.42 27.78"/>
</svg>