<?xml version="1.0" encoding="UTF-8"?>
<svg id="Capa_1" data-name="Capa 1" xmlns="http://www.w3.org/2000/svg" viewBox="0 0 400 150">
  <defs>
    <style>
      .cls-1 {
        fill: #6f6f6e;
      }

      .cls-2 {
        fill: #9c9b9b;
      }

      .cls-3 {
        fill: #c6c6c5;
      }
    </style>
  </defs>
  <g>
    <path class="cls-1" d="M176.35,105.2c.1-2.81.28-5.52.29-8.23,0-2.68-.15-5.37-.23-8.16,1.11,0,2.26,0,3.41,0,1.28,0,2.56,0,3.84-.03,3.26-.1,5.88,1.67,6.72,5.06.74,2.98.47,5.86-1.43,8.43-1.36,1.83-3.26,2.84-5.57,2.92-2.32.08-4.65.02-7.03.02ZM179.69,103.87c.72,0,1.39,0,2.06,0,2.38-.01,4.09-1.19,4.87-3.38.7-1.96.77-4,.4-6-.63-3.41-3.51-5.11-7.33-4.12v13.51Z"/>
    <path class="cls-1" d="M157.68,97.12c-.06-2.83.82-5.29,3.14-7.11,2.57-2.01,6.86-2.31,9.7-.7,1.67.95,2.7,2.39,3.29,4.18.88,2.68.83,5.3-.49,7.82-1.43,2.72-3.78,4.1-6.86,4.32-1.6.12-3.16-.05-4.61-.77-2.67-1.33-3.81-3.64-4.15-6.42-.05-.44,0-.88,0-1.33ZM161.08,97.37c0,.33-.02.66,0,.99.1,1.37.38,2.69,1.12,3.88,1.54,2.48,4.68,2.84,6.69.72.52-.55.89-1.26,1.23-1.95.6-1.21.72-2.54.8-3.86.1-1.79-.17-3.52-1.05-5.11-.57-1.03-1.38-1.82-2.59-2.16-2.09-.58-4.34.39-5.3,2.64-.66,1.55-.87,3.18-.9,4.85Z"/>
    <path class="cls-1" d="M212.11,105.1v-16.59h8.92v1.69h-5.57v5.38h5.23v1.64h-5.23v6.43c1.93-.06,3.83-.12,5.77-.18v1.62h-9.13Z"/>
    <path class="cls-1" d="M192.93,88.6h9.17v1.74c-1.89-.07-3.83-.15-5.86-.23v5.5h5.53v1.62h-5.49v8.06h-3.36v-16.7Z"/>
    <path class="cls-1" d="M223.79,88.59h3.31v14.9c2.09.28,4.06-.19,6.09-.07v1.73h-9.39v-16.56Z"/>
    <path class="cls-1" d="M243.85,103.38v1.79h-9.42v-16.54h3.4c-.1,4.95-.34,9.9.02,14.98,2.01-.08,3.95-.15,5.99-.23Z"/>
    <path class="cls-1" d="M200.1,104.96v-3.08c.35.34.53.54.75.7.65.49,1.24,1.1,1.97,1.43,1.16.52,2.21,0,2.56-1.2.2-.66.28-1.38.27-2.07-.05-3.87-.14-7.75-.22-11.62,0-.17,0-.35,0-.56h3.36c.02.25.05.5.05.75-.02,2.84-.04,5.69-.08,8.53-.02,1.11-.07,2.21-.12,3.31-.11,2.33-1.58,3.87-3.93,4.28-1.61.28-3.14.18-4.61-.47Z"/>
  </g>
  <g>
    <path class="cls-1" d="M192.75,117.71c-1.49,3.37-2.98,6.73-4.49,10.16h-.9c-1.51-3.4-3.03-6.86-4.56-10.31l-.23.03c-.3,3.48-.6,6.97-.89,10.42h-1.95c.72-5.44,1.45-10.93,2.19-16.47h1.85c1.61,3.63,3.24,7.32,4.97,11.22,1.75-3.87,3.4-7.53,5.07-11.23h1.86c.62,5.46,1.23,10.93,1.86,16.48h-3.5c-.31-3.42-.62-6.86-.93-10.3,0-.17,0-.35,0-.71-.17.35-.25.53-.34.72Z"/>
    <path class="cls-1" d="M167.37,111.51c2.27,0,4.51-.1,6.74.03,2.33.13,3.76,2.41,3.22,4.89-.38,1.74-1.45,2.87-3.32,3.38,1.55,2.72,3.08,5.4,4.68,8.2h-4.01c-1.26-2.43-2.54-4.9-3.82-7.38-.07.02-.14.03-.21.05v7.33h-3.27v-16.5ZM170.7,112.85v6.32c1.87.15,2.92-.62,3.12-2.36.09-.75.06-1.54-.03-2.29-.12-.99-.77-1.56-1.77-1.67-.4-.04-.81,0-1.31,0Z"/>
    <path class="cls-1" d="M220.65,128.05h-1.86c-3.12-3.78-6.14-7.71-9.65-11.58v11.52h-1.76v-16.46h2.28c3.01,3.59,6.05,7.21,9.27,11.05v-11.05h1.72v16.51Z"/>
    <path class="cls-1" d="M228.54,111.29h1.78c2.01,5.54,4.01,11.1,6.05,16.73h-3.81c-.49-1.59-.99-3.24-1.51-4.93h-5.05c-.5,1.59-1.02,3.22-1.55,4.9h-2.11c2.07-5.59,4.13-11.12,6.2-16.7ZM230.47,121.43c-.63-1.81-1.21-3.49-1.87-5.4-.7,1.94-1.32,3.63-1.96,5.4h3.83Z"/>
    <path class="cls-1" d="M259.09,112.12c-.3.91-.57,1.7-.9,2.71-.28-.33-.47-.51-.6-.73-.83-1.33-1.88-1.8-3.42-1.47-.78.16-1.4.59-1.62,1.36-.23.8-.26,1.67.49,2.24.73.56,1.55,1.01,2.34,1.48.8.47,1.65.86,2.42,1.38,2.97,2.02,2.58,6.24-.12,8.1-2.35,1.63-6.54,1.52-8.32.13.24-1,.49-2.02.73-3.02.55-.16.55.24.69.53.74,1.59,2.07,2.27,3.83,1.97,1.05-.18,1.8-.74,2.07-1.77.26-.98-.02-1.86-.83-2.47-.65-.48-1.4-.83-2.11-1.23-.84-.47-1.72-.88-2.52-1.41-2.55-1.71-2.5-6.76,1.01-8.3,2.29-1,4.57-.78,6.87.52Z"/>
    <path class="cls-1" d="M155.27,111.52h8.85v1.7c-1.81-.07-3.62-.14-5.52-.21v5.57h5.18v1.64h-5.2v6.27h5.72v1.6h-9.03v-16.57Z"/>
    <path class="cls-1" d="M147.97,113.21v14.81h-3.05v-14.8c-1.66.1-3.21.19-4.79.28v-1.97h12.49v1.99c-1.49-.1-2.99-.2-4.65-.31Z"/>
    <path class="cls-1" d="M238.49,111.45h3.41c-.07,2.51-.17,5.01-.19,7.5-.02,2.46.05,4.92.09,7.49,2.13-.07,4.1-.13,6.06-.19v1.79h-9.37v-16.58Z"/>
    <path class="cls-1" d="M203.57,128.02h-3.2v-16.52h3.2v16.52Z"/>
  </g>
  <g>
    <path class="cls-1" d="M235.58,64.76c-.28.53-.45.85-.64,1.23-2.45-.35-4.64.33-6.81,1.3-3.15,1.41-6.35,1.24-9.35-.39-7.69-4.19-15.72-5.41-24.31-3.48-3.73.84-7.6.74-11.57.34,1.21,5.14-.93,10.56,2.1,15.5-.71.24-1.17.4-1.74.59-3.22-9.27-6.41-18.48-9.6-27.69l-.15.04c2.53,9.15,5.05,18.31,7.61,27.57-.5.16-.96.31-1.57.51-5.07-18.37-10.13-36.65-15.18-54.96-1.02-.58-2.18-1.18-1.41-2.62.63-1.17,1.79-1.27,2.9-.83,1.17.46,1.57,1.38.84,2.72,4.98,1.03,9.89,1.51,14.88,1.54,5.25.03,10.3-1.25,15.44-1.91,3.5-.45,6.86-.03,10.17,1.16,5.85,2.11,11.79,2.38,17.81.72,5.08-1.4,10.99.56,13.34,4.5-3.26.79-5.07,2.98-6.42,5.95-1.37,3.03-3.85,5.2-6.98,6.43-2.48.97-4.17,2.69-5.58,5.11,2.13,1.04,4.14,2.2,5.75,3.9.95,1,1.73,2.06,2.16,3.41,1.37,4.27,4.11,7.39,8.32,9.38ZM166.54,26.06c-.04-.05-.08-.11-.02-.03-.09,0-.02,0,.04,0,.02.28-.02.58.07.84,4.13,12.22,8.25,24.45,12.41,36.66.97,2.85,2.03,5.66,3.05,8.5.34-9.81-1.07-19.24-4.98-28.2-2.77-6.37-5.87-12.54-10.57-17.76ZM182.86,62.77c4.06.66,7.93.44,11.74-.29,7.78-1.49,15.31-1.31,22.43,2.67,1.55.86,3.24,1.43,4.98,1.91,4.23,1.16,7.53-2.2,11.96-2.01-3.5-2.26-5.83-4.95-7.06-8.4-.88-2.47-2.5-4.23-4.53-5.68-1.3-.93-2.74-1.68-4.19-2.55,1.18-2.66,2.94-4.81,5.72-5.96,3.13-1.3,5.78-3.19,7.19-6.35,1.21-2.71,2.88-4.87,5.8-6.08-3.33-3.3-7.19-4.24-11.49-3.12-5.94,1.55-11.77,1.44-17.59-.5-4.52-1.5-9.14-1.96-13.84-.9-5.81,1.31-11.7,1.72-17.64,1.3-2.83-.2-5.65-.65-8.76-1.01,8.44,11.05,13.78,23.19,15.28,36.98ZM166.01,23.8c.1-.92-.39-1.14-1.05-1.15-.64,0-1.3.04-1.28,1,.7.83,1.46.75,2.33.14Z"/>
    <path class="cls-2" d="M199.09,53.24c-4.25,2.12-8.56,1.36-11.12-1.97-2.39-3.11-2.26-7.2.35-10.17.64-.74,1.37-1.38,2.31-1.73.14.69.27,1.37.41,2.06-3.57,1.87-4.8,5.53-2.89,8.62,1.96,3.17,6.03,3.95,9.11,1.75.83-.43,1.32-1.16,1.74-1.96.52-.86.78-1.79.77-2.79,1.03-.31,2.05-.62,3.08-.94.16,2.22-.76,4.07-2.06,5.77-.57.45-1.14.91-1.71,1.36Z"/>
    <path class="cls-1" d="M199.09,53.24c.57-.45,1.14-.91,1.71-1.36,2.17,1.49,4.46,1.61,6.74.36,2.2-1.21,3.32-3.17,3.1-5.7-.21-2.45-1.48-4.19-3.82-5.09-.81-.46-1.68-.6-2.6-.48-1.03-.08-1.95.29-2.84.76-.79-.73-1.57-1.47-2.36-2.2,1.92-1.1,3.98-1.42,6.15-1.04.67.22,1.35.43,2.02.65,4.52,3.06,5.79,7.57,3.23,11.57-2.4,3.75-7.45,4.88-11.34,2.54Z"/>
    <path class="cls-3" d="M207.2,39.13c-.67-.22-1.35-.43-2.02-.65.23-2.71-.86-4.74-3.22-6.02-2.31-1.25-4.64-1.06-6.73.49-1.81,1.35-2.77,3.18-2.36,5.54.02.91.23,1.77.88,2.46.37.99,1.26,1.47,2.05,2.05-.23,1.03-.47,2.07-.7,3.1-1.98-1.01-3.25-2.63-4.04-4.67-.14-.69-.27-1.37-.41-2.06.54-5.11,3.43-8.23,7.85-8.44,4.23-.21,7.84,2.53,8.62,6.57.1.53.06,1.09.09,1.64Z"/>
    <path class="cls-1" d="M197.27,51.8c-1.56-1.58-2.13-3.54-2.18-5.7.23-1.03.47-2.07.7-3.1.25-.43.51-.86.76-1.29,1.22.3,1.87,1.25,2.5,2.21-.55.96-.91,1.96-.78,3.09-.09,1.03.15,1.97.74,2.82-.41.8-.9,1.53-1.74,1.96Z"/>
    <path class="cls-3" d="M198.27,47.02c-.13-1.13.23-2.13.78-3.09,1.05-.24,2.19-.16,3.06-.97.96-.39,1.65-1.07,2.11-1.99.92-.12,1.79.02,2.6.48-.62,2.15-2.02,3.64-3.96,4.67-1.03.31-2.05.62-3.08.93-.5,0-1.01-.02-1.51-.03Z"/>
    <path class="cls-2" d="M192.87,38.5c2.18-.44,4.22-.03,6.16,1.02.79.73,1.57,1.47,2.36,2.2.24.41.48.82.72,1.24-.86.82-2.01.73-3.06.97-.63-.96-1.28-1.91-2.5-2.21-.87-.48-1.79-.82-2.81-.76-.65-.69-.85-1.54-.88-2.46Z"/>
  </g>
</svg>