<?xml version="1.0" encoding="UTF-8"?>
<svg id="Capa_1" data-name="Capa 1" xmlns="http://www.w3.org/2000/svg" viewBox="0 0 400 150">
  <defs>
    <style>
      .cls-1 {
        fill: #f9ae4a;
      }

      .cls-1, .cls-2, .cls-3, .cls-4, .cls-5 {
        fill-rule: evenodd;
      }

      .cls-2 {
        fill: #ec1b23;
      }

      .cls-3 {
        fill: #eb1a23;
      }

      .cls-4 {
        fill: #4c4c4c;
      }

      .cls-5 {
        fill: #f16e30;
      }
    </style>
  </defs>
  <path class="cls-5" d="M34.46,110.01l15.22-8.65,14.09-8.14c.65-.37,1.42-.77,1.99-1.16-.26-.4-9.21-6.75-9.5-6.95-.94-.65-4.19-2.86-4.65-3.63-1.19-1.98.42-4.22,1.98-5.47.71-.54,1.76-1.08,2.58-1.56,1.64-.96,17.94-10.18,18.09-10.55-1.05-.85-3.01-2.13-4.22-3.03l-14.8-10.69c-.74-.54-1.42-1.02-2.66-.59-.91.28-1.7.96-2.13,1.56-1.02,1.39-2.44,6.15-3.01,7.91-2.98,8.99-6.24,18.03-9.24,27.04-1.25,3.69-5.96,17.6-7.21,21.29-.72,3.36,2.49,3.1,3.47,2.61h0Z"/>
  <path class="cls-1" d="M74.26,63.92c.48.4,2.04,1.47,2.47,1.79l7,5.05c1.47,1.08,3.71,2.38,4.25,3.74.93,2.27-.85,4.65-1.96,5.64-1.02.93-3.6,2.32-4.93,3.09l-12.7,7.34c-.4.23-1.84,1.02-2.64,1.5.79.68,2.01,1.36,2.89,2.01,4.39,3.2,9.3,6.58,13.58,9.81,2.01,1.5,3.88,3.26,6.29,1.42,1.79-1.3,2.07-4.05,2.69-6.69.6-2.55,1.22-5.05,1.78-7.54,3.01-12.56,6.07-25.12,9.02-37.67.28-1.22.74-2.92-.37-3.66-1.1-.74-2.64.03-3.51.51-3.94,2.24-7.85,4.59-11.85,6.86-1.96,1.1-3.91,2.3-5.92,3.4-1.99,1.11-4.11,2.41-6.1,3.4h0Z"/>
  <path class="cls-3" d="M65.76,92.06c.54-.23,2.04-1.13,2.64-1.5l12.7-7.34c1.33-.77,3.91-2.16,4.93-3.09,1.11-.99,2.89-3.37,1.96-5.64-.54-1.36-2.78-2.67-4.25-3.74l-7-5.05c-.28-.23-2.35-1.73-2.47-1.79-.14.37-16.44,9.58-18.08,10.54-.82.48-1.87,1.02-2.58,1.56-1.56,1.25-3.18,3.49-1.98,5.47.45.77,3.71,2.98,4.65,3.63.28.2,9.24,6.55,9.5,6.94h0Z"/>
  <path class="cls-4" d="M284.4,60.41c1.94-1.94,3.91-3.27,5.85-3.99,1.94-.72,3.82-1.09,5.63-1.09,3.65,0,6.37,1.11,8.19,3.32,1.83,2.2,2.75,5.48,2.75,9.78,0,3.6-.46,7.05-1.4,10.37-.92,3.3-2.27,6.22-4.04,8.77-1.77,2.53-3.99,4.56-6.64,6.07-2.64,1.51-5.65,2.27-9.04,2.27-2.05,0-3.99-.2-5.85-.61-1.86-.41-3.3-.85-4.32-1.31-.72-.31-1.2-.57-1.46-.81-.24-.24-.37-.61-.37-1.11,0-.2.07-.59.17-1.18.13-.59.28-1.27.44-1.99l10.02-49.2h2.68c.87,0,1.31.33,1.31,1,0,.15-.04.39-.13.72-.07.33-.15.81-.26,1.44l-3.54,17.55h0ZM295.09,59.1c-1.29,0-2.53.24-3.73.74-1.2.48-2.34,1.09-3.38,1.81-1.05.72-1.99,1.46-2.82,2.27-.81.79-1.46,1.51-1.92,2.18l-5,24.55c.57.26,1.48.61,2.77,1.03,1.29.41,2.92.61,4.93.61,2.55,0,4.85-.61,6.88-1.81s3.75-2.88,5.13-5c1.38-2.14,2.44-4.65,3.19-7.55.76-2.9,1.13-6.09,1.13-9.52,0-6.22-2.4-9.32-7.18-9.32h0ZM331.85,90.51c-1.4,1.24-3.19,2.44-5.37,3.62-2.16,1.18-4.8,1.77-7.88,1.77s-5.57-.76-7.44-2.27c-1.86-1.51-2.79-3.89-2.79-7.12,0-.68.07-1.66.22-2.97.15-1.31.41-2.86.79-4.65l4.61-22.63h2.77c.87,0,1.31.33,1.31.98,0,.15-.04.41-.11.74-.07.33-.15.81-.26,1.42l-4.02,19.8c-.2,1.07-.37,1.99-.5,2.71-.13.72-.22,1.33-.28,1.83-.04.5-.09.98-.11,1.42-.02.44-.02.89-.02,1.35,0,1.86.55,3.27,1.64,4.28,1.11,1,2.86,1.51,5.28,1.51,1.4,0,2.71-.2,3.93-.57,1.24-.39,2.38-.89,3.43-1.48,1.05-.59,2.01-1.24,2.88-1.92.87-.7,1.62-1.33,2.25-1.9l6.07-30.16h2.77c.87,0,1.31.33,1.31.98,0,.15-.04.41-.11.74s-.15.81-.26,1.42l-3.93,19.71c-.68,3.38-1.18,6.53-1.55,9.41-.35,2.86-.55,5.02-.61,6.46h-2.47c-.87,0-1.33-.48-1.38-1.46l-.15-3.01h0ZM350.01,95.9c-2.86,0-5.17-.22-6.9-.65-1.72-.44-2.86-.79-3.4-1.03-.72-.31-1.09-.79-1.09-1.46,0-.2.02-.44.07-.7.07-.26.13-.52.24-.76l.39-1.16c.2.11.65.26,1.33.46.7.2,1.53.41,2.51.65.98.24,2.05.44,3.23.61,1.2.17,2.38.26,3.56.26,1.38,0,2.77-.13,4.19-.37,1.42-.26,2.66-.7,3.78-1.31,1.11-.61,2.01-1.44,2.73-2.49.72-1.07,1.09-2.36,1.09-3.91,0-1.75-.59-3.14-1.79-4.19-1.18-1.07-3.34-2.14-6.46-3.21-1.33-.46-2.62-.94-3.82-1.44-1.2-.52-2.25-1.13-3.19-1.81-.92-.7-1.66-1.53-2.2-2.51s-.81-2.16-.81-3.54c0-2.01.39-3.75,1.2-5.24.81-1.51,1.9-2.75,3.27-3.73,1.37-1,3.01-1.77,4.89-2.27,1.88-.52,3.86-.79,5.96-.79,2.42,0,4.41.22,6,.65,1.59.44,2.68.79,3.25,1.05.72.31,1.07.81,1.07,1.53,0,.2-.02.41-.09.65-.04.24-.11.48-.22.74l-.39,1.07c-.2-.11-.61-.26-1.2-.46-.59-.2-1.29-.41-2.14-.65-.85-.24-1.81-.44-2.92-.61-1.11-.17-2.29-.26-3.58-.26s-2.51.11-3.82.35c-1.31.22-2.49.61-3.54,1.18-1.05.57-1.9,1.38-2.58,2.4-.68,1.03-1,2.29-1,3.84,0,.87.17,1.62.5,2.2s.85,1.11,1.57,1.62c.72.48,1.66.94,2.77,1.38,1.14.44,2.49.94,4.08,1.51,1.33.46,2.58.96,3.69,1.53,1.14.57,2.12,1.24,2.97,2.01.85.76,1.53,1.7,2.01,2.77.5,1.07.74,2.34.74,3.78,0,2.12-.44,3.93-1.29,5.48-.85,1.53-2.01,2.79-3.47,3.8s-3.14,1.77-5.09,2.27c-1.92.5-3.95.76-6.11.76h0Z"/>
  <path class="cls-2" d="M115.73,59.79c.79-.24,1.65-.5,2.54-.79.91-.3,1.94-.58,3.08-.83,1.15-.26,2.44-.48,3.85-.63,1.43-.18,3.08-.26,4.96-.26,2.24,0,4.09.28,5.56.85,1.47.56,2.82,1.39,4.03,2.5,1.73-.97,3.43-1.79,5.14-2.4,1.71-.63,3.71-.95,5.99-.95s4.07.3,5.64.87c1.57.58,2.86,1.43,3.87,2.52,1.03,1.09,1.79,2.4,2.24,3.93.48,1.51.71,3.17.71,5,0,.83-.06,1.73-.18,2.66-.12.93-.3,1.87-.54,2.8l-4.74,19.88h-10.44l4.62-19.47c.14-.65.28-1.39.44-2.2.18-.81.26-1.63.26-2.42,0-1.29-.3-2.42-.91-3.37-.62-.97-1.81-1.45-3.57-1.45-.97,0-1.9.18-2.8.54-.89.34-1.69.69-2.38,1.07.1.38.14.71.14,1.05v.91c0,.83-.06,1.73-.18,2.66-.1.93-.28,1.87-.52,2.8l-4.76,19.88h-10.44l4.62-19.47c.14-.65.3-1.39.46-2.2.18-.81.26-1.63.26-2.42,0-1.29-.3-2.42-.91-3.37-.62-.97-1.81-1.45-3.57-1.45-.75,0-1.39.04-1.9.12-.5.06-1.11.16-1.81.3l-6.79,28.49h-10.44l8.47-35.14h0ZM179.65,95.9c-2.48,0-4.62-.38-6.45-1.11-1.83-.75-3.33-1.81-4.52-3.15-1.17-1.35-2.06-2.94-2.68-4.78-.62-1.85-.91-3.89-.91-6.13,0-2.8.46-5.6,1.35-8.39.91-2.8,2.26-5.32,4.03-7.56,1.77-2.24,3.95-4.09,6.51-5.5,2.58-1.43,5.52-2.14,8.83-2.14,2.42,0,4.54.38,6.39,1.13,1.85.73,3.37,1.79,4.56,3.14,1.19,1.35,2.08,2.96,2.7,4.8.62,1.85.91,3.89.91,6.13,0,2.8-.44,5.6-1.33,8.39s-2.2,5.32-3.93,7.56c-1.73,2.24-3.87,4.07-6.47,5.5-2.6,1.41-5.6,2.12-8.99,2.12h0ZM184.83,65.94c-1.55,0-2.9.46-4.07,1.35-1.17.89-2.14,2-2.94,3.35-.79,1.35-1.39,2.84-1.79,4.44-.4,1.61-.6,3.14-.6,4.58,0,2.38.38,4.21,1.11,5.5.75,1.29,2.1,1.92,4.07,1.92,1.53,0,2.88-.44,4.05-1.33s2.16-2,2.96-3.35c.79-1.37,1.39-2.84,1.79-4.44.4-1.61.6-3.15.6-4.6,0-2.36-.38-4.19-1.13-5.48-.73-1.29-2.08-1.94-4.05-1.94h0ZM208.14,94.93c-1.21-4.66-2.32-10.12-3.29-16.35-.97-6.23-1.65-13.06-2.02-20.48h10.77c.06,1.83.12,3.83.22,5.99.1,2.16.2,4.35.34,6.55.14,2.2.32,4.33.5,6.41s.4,3.95.63,5.64c1.03-1.41,2.18-3.14,3.47-5.18,1.29-2.06,2.52-4.21,3.73-6.45,1.21-2.24,2.34-4.48,3.35-6.75,1.03-2.28,1.83-4.35,2.4-6.21h11.05c-1.21,3.31-2.72,6.73-4.52,10.24-1.79,3.49-3.71,6.87-5.77,10.14-2.04,3.27-4.15,6.33-6.27,9.17-2.12,2.84-4.09,5.28-5.89,7.28h-8.69ZM244.04,94.93h-10.36l8.75-36.83h10.44l-8.83,36.83h0ZM249.08,53.64c-1.45,0-2.76-.44-3.93-1.29-1.17-.87-1.75-2.2-1.75-3.97,0-.97.2-1.9.6-2.76.4-.87.91-1.63,1.57-2.24.65-.63,1.43-1.13,2.28-1.51.87-.38,1.81-.56,2.78-.56,1.45,0,2.74.44,3.91,1.29,1.17.85,1.75,2.18,1.75,3.95,0,.97-.2,1.9-.6,2.78-.4.85-.91,1.61-1.57,2.24-.65.62-1.41,1.13-2.28,1.51-.85.38-1.79.56-2.76.56h0ZM265.25,95.62c-3.31,0-5.91-.44-7.8-1.29-1.89-.85-3.25-2.04-4.07-3.53-.81-1.49-1.21-3.21-1.19-5.14.02-1.94.3-4.01.81-6.21l8.89-37.16,10.83-1.69-9.72,40.32c-.18.85-.3,1.63-.32,2.32s.1,1.33.38,1.87c.3.54.77.95,1.45,1.29.67.32,1.63.52,2.84.62l-2.1,8.61h0Z"/>
</svg>