<?xml version="1.0" encoding="UTF-8"?>
<svg id="Capa_1" data-name="Capa 1" xmlns="http://www.w3.org/2000/svg" viewBox="0 0 400 150">
  <defs>
    <style>
      .cls-1 {
        fill: #ffdb03;
      }

      .cls-2 {
        fill: #455ba6;
      }

      .cls-3 {
        fill: #562583;
      }
    </style>
  </defs>
  <path class="cls-3" d="M150.06,93.36h13.89v5.34h-20.34v-34.76h6.45v29.43Z"/>
  <path class="cls-3" d="M174.39,62.98h-5.93v35.72h5.93v-35.72Z"/>
  <path class="cls-3" d="M188.86,94.99c.6,0,1.17-.06,1.68-.17.51-.11.99-.28,1.45-.5s.89-.49,1.31-.81c.42-.32.85-.7,1.28-1.15v-4.13c-1.73,0-3.17.11-4.33.32-1.16.22-2.09.5-2.8.84-.7.33-1.2.74-1.5,1.18-.3.46-.45.95-.45,1.47,0,1.05.31,1.8.92,2.25.61.45,1.41.68,2.42.68M200.38,98.7h-2.66c-.56,0-1-.08-1.31-.26-.32-.17-.56-.51-.72-1.03l-.52-1.75c-.62.56-1.24,1.05-1.84,1.47-.6.42-1.23.78-1.86,1.07-.63.29-1.31.5-2.04.65-.72.15-1.53.21-2.4.21-1.04,0-2.01-.15-2.87-.42-.88-.28-1.64-.7-2.27-1.27-.63-.56-1.13-1.26-1.47-2.1-.36-.84-.53-1.81-.53-2.92,0-.93.25-1.85.74-2.76.49-.9,1.3-1.73,2.44-2.46,1.14-.73,2.65-1.34,4.53-1.82,1.88-.48,4.23-.73,7.03-.73v-1.45c0-1.66-.35-2.89-1.05-3.7-.69-.8-1.7-1.19-3.04-1.19-.96,0-1.76.11-2.4.33-.65.22-1.2.48-1.67.76s-.91.54-1.3.76c-.4.22-.84.33-1.33.33-.4,0-.75-.1-1.02-.31-.29-.21-.52-.47-.69-.77l-1.08-1.9c2.83-2.6,6.25-3.9,10.25-3.9,1.44,0,2.73.23,3.85.71,1.13.47,2.08,1.13,2.86,1.98.78.84,1.38,1.84,1.78,3.01.41,1.17.61,2.46.61,3.85v15.58h-.01Z"/>
  <path class="cls-3" d="M254.39,94.99c.6,0,1.17-.06,1.68-.17.51-.11.99-.28,1.45-.5.46-.22.89-.49,1.31-.81.42-.32.85-.7,1.28-1.15v-4.13c-1.73,0-3.17.11-4.33.32-1.16.22-2.09.5-2.8.84-.7.33-1.2.74-1.5,1.18-.3.46-.45.95-.45,1.47,0,1.05.31,1.8.93,2.25.61.45,1.41.68,2.41.68M265.89,98.7h-2.66c-.56,0-1-.08-1.32-.26-.32-.17-.56-.51-.72-1.03l-.52-1.75c-.62.56-1.24,1.05-1.84,1.47-.6.42-1.22.78-1.86,1.07-.63.29-1.31.5-2.04.65-.72.15-1.52.21-2.4.21-1.04,0-2-.15-2.87-.42-.88-.28-1.64-.7-2.27-1.27-.63-.56-1.13-1.26-1.48-2.1-.36-.84-.52-1.81-.52-2.92,0-.93.25-1.85.73-2.76.49-.9,1.3-1.73,2.44-2.46,1.14-.73,2.65-1.34,4.53-1.82,1.88-.48,4.23-.73,7.03-.73v-1.45c0-1.66-.35-2.89-1.05-3.7-.69-.8-1.7-1.19-3.04-1.19-.96,0-1.76.11-2.4.33-.64.22-1.19.48-1.67.76-.47.28-.91.54-1.3.76-.4.22-.84.33-1.32.33-.4,0-.75-.1-1.04-.31-.29-.21-.52-.47-.69-.77l-1.08-1.9c2.83-2.6,6.25-3.9,10.25-3.9,1.44,0,2.73.23,3.85.71,1.13.47,2.08,1.13,2.86,1.98.78.84,1.38,1.84,1.78,3.01.41,1.17.61,2.46.61,3.85v15.58h-.01Z"/>
  <path class="cls-3" d="M280.24,85.76c.73,0,1.37-.1,1.92-.3.54-.2.99-.48,1.36-.83.36-.36.64-.78.81-1.27.18-.49.28-1.04.28-1.63,0-1.22-.37-2.19-1.09-2.9-.72-.71-1.82-1.07-3.27-1.07s-2.55.36-3.27,1.07c-.72.71-1.09,1.69-1.09,2.9,0,.58.09,1.12.28,1.61.19.5.46.93.81,1.28.36.36.81.65,1.37.85.55.2,1.19.3,1.91.3M286.75,99.74c0-.49-.14-.89-.43-1.21-.29-.31-.68-.55-1.17-.73-.5-.17-1.08-.3-1.74-.38-.67-.08-1.37-.12-2.12-.12h-2.31c-.79,0-1.56-.09-2.29-.27-.67.37-1.21.8-1.62,1.31-.41.5-.61,1.08-.61,1.74,0,.44.11.84.32,1.22.21.38.56.7,1.04.97.47.27,1.08.48,1.84.64.75.16,1.67.22,2.76.22s2.06-.09,2.85-.26c.8-.17,1.46-.41,1.98-.71.52-.3.9-.66,1.14-1.08.25-.42.36-.87.36-1.36M280.24,73.6c1.06,0,2.05.11,2.97.32.93.21,1.77.54,2.54.95h7.07v2.21c0,.37-.1.66-.29.86-.19.21-.52.36-.98.44l-2.21.41c.16.41.28.86.37,1.32.09.47.13.95.13,1.46,0,1.22-.25,2.32-.73,3.3-.49.98-1.16,1.82-2.02,2.51-.86.69-1.87,1.23-3.04,1.6-1.18.38-2.45.57-3.82.57-.93,0-1.84-.09-2.71-.27-.77.47-1.15.99-1.15,1.57,0,.5.23.87.68,1.11.46.23,1.06.4,1.8.49.75.1,1.58.15,2.53.15s1.92.04,2.91.12c.99.08,1.96.22,2.91.42.95.2,1.78.51,2.53.95.75.44,1.35,1.03,1.79,1.77.46.75.68,1.71.68,2.88,0,1.09-.27,2.15-.8,3.18-.54,1.03-1.31,1.94-2.33,2.75-1.01.8-2.26,1.45-3.73,1.94-1.47.49-3.15.74-5.03.74s-3.5-.18-4.87-.54c-1.37-.36-2.52-.84-3.42-1.44-.9-.6-1.58-1.29-2.03-2.08-.45-.78-.67-1.61-.67-2.46,0-1.15.34-2.12,1.06-2.91.7-.78,1.68-1.41,2.93-1.88-.6-.33-1.09-.78-1.46-1.35-.37-.56-.56-1.29-.56-2.19,0-.37.07-.75.19-1.14.12-.39.32-.78.59-1.16.27-.39.6-.75.99-1.09.4-.35.87-.65,1.41-.93-1.25-.67-2.23-1.57-2.94-2.69-.71-1.12-1.07-2.43-1.07-3.94,0-1.22.25-2.32.73-3.3.49-.98,1.17-1.83,2.04-2.52.87-.69,1.9-1.23,3.1-1.6,1.19-.37,2.5-.56,3.9-.56"/>
  <path class="cls-3" d="M304.33,94.99c.6,0,1.17-.06,1.68-.17.51-.11.99-.28,1.45-.5.46-.22.89-.49,1.31-.81.42-.32.85-.7,1.28-1.15v-4.13c-1.73,0-3.18.11-4.33.32-1.16.22-2.09.5-2.8.84-.7.33-1.2.74-1.5,1.18-.3.46-.45.95-.45,1.47,0,1.05.31,1.8.92,2.25.61.45,1.41.68,2.41.68M315.85,98.7h-2.66c-.56,0-1-.08-1.31-.26-.32-.17-.56-.51-.72-1.03l-.52-1.75c-.62.56-1.24,1.05-1.84,1.47-.6.42-1.23.78-1.86,1.07-.64.29-1.32.5-2.04.65-.72.15-1.51.21-2.4.21-1.04,0-2-.15-2.87-.42-.88-.28-1.64-.7-2.27-1.27-.64-.56-1.13-1.26-1.48-2.1-.36-.84-.52-1.81-.52-2.92,0-.93.25-1.85.73-2.76.49-.9,1.3-1.73,2.44-2.46,1.14-.73,2.65-1.34,4.53-1.82,1.88-.48,4.23-.73,7.03-.73v-1.45c0-1.66-.34-2.89-1.05-3.7-.69-.8-1.7-1.19-3.04-1.19-.96,0-1.76.11-2.4.33-.63.22-1.19.48-1.67.76-.47.28-.91.54-1.3.76-.4.22-.84.33-1.31.33-.4,0-.75-.1-1.04-.31-.29-.21-.52-.47-.69-.77l-1.08-1.9c2.83-2.6,6.25-3.9,10.25-3.9,1.44,0,2.73.23,3.85.71,1.13.47,2.08,1.13,2.86,1.98.78.84,1.38,1.84,1.78,3.01.41,1.17.61,2.46.61,3.85v15.58h-.01Z"/>
  <path class="cls-3" d="M336.29,78.84c-.16.26-.32.44-.5.55-.18.11-.4.16-.67.16-.29,0-.59-.08-.92-.23-.32-.16-.71-.33-1.14-.54-.43-.2-.93-.38-1.48-.54-.55-.16-1.2-.25-1.95-.25-1.17,0-2.09.25-2.76.75-.67.49-1.01,1.15-1.01,1.94,0,.52.17.97.51,1.33.35.36.8.68,1.37.95.57.27,1.21.51,1.93.74s1.46.46,2.2.7c.75.26,1.49.55,2.21.88.72.32,1.36.75,1.93,1.25s1.02,1.11,1.37,1.82c.35.7.51,1.55.51,2.55,0,1.18-.21,2.28-.65,3.28-.43,1-1.07,1.86-1.89,2.59-.84.73-1.86,1.29-3.09,1.71-1.23.4-2.63.61-4.21.61-.85,0-1.68-.08-2.48-.22-.81-.16-1.58-.37-2.33-.64-.75-.27-1.44-.59-2.06-.96-.64-.37-1.19-.77-1.67-1.21l1.37-2.25c.18-.27.38-.48.62-.63.25-.15.55-.21.91-.21s.71.1,1.05.31c.32.21.71.44,1.14.67.43.25.93.47,1.53.67.59.21,1.33.31,2.22.31.7,0,1.3-.09,1.82-.26.5-.17.93-.39,1.25-.66.32-.27.57-.59.71-.95.16-.36.23-.74.23-1.12,0-.58-.18-1.05-.51-1.42-.34-.37-.8-.69-1.37-.96-.57-.27-1.21-.51-1.94-.74-.72-.22-1.47-.46-2.23-.71-.76-.26-1.5-.56-2.23-.9s-1.37-.78-1.94-1.32c-.57-.52-1.02-1.17-1.37-1.94-.35-.77-.51-1.7-.51-2.79,0-1,.2-1.98.6-2.88.4-.92.99-1.71,1.76-2.39.78-.68,1.74-1.23,2.91-1.64,1.16-.41,2.5-.61,4.02-.61,1.69,0,3.24.28,4.63.84s2.55,1.29,3.47,2.21l-1.35,2.14h-.01Z"/>
  <path class="cls-1" d="M132.02,83.41c0,19.35-15.65,35.03-34.96,35.03s-34.96-15.68-34.96-35.03,15.65-35.02,34.96-35.02,34.96,15.68,34.96,35.03"/>
  <path class="cls-3" d="M96.96,31.56s13.42,15.49,3.21,34.8c-10.22,19.3-21.88,34.2-2.34,44.15-11.37,3.22-37.05-16.08-23.05-40.05,14.01-23.98,22.18-38.89,22.18-38.89Z"/>
  <path class="cls-2" d="M114.34,61.97s-2.92,13.45-12.83,24.85c-9.91,11.4-5.25,29.82,11.08,18.42,16.34-11.4,12.25-30.41,1.75-43.27Z"/>
  <path class="cls-3" d="M240.22,79.04c-1.89-6.99-12.96-7.16-15.8-.78-1.66-5.94-9.4-5.72-12.69-1.32-.18-3.93-2.75-2.76-5.53-2.91v24.67h5.94v-18.05c11.94-10.17,7.67,12.78,8.39,18.05h5.95v-15.7c-.12-2.57,1.71-4.82,4.32-4.74,2.88.02,4.06,1.86,4.06,4.74,0,0,0,15.7,0,15.7h5.93c-.18-2.98.51-17.09-.57-19.66Z"/>
</svg>