<?xml version="1.0" encoding="UTF-8"?>
<svg id="Capa_1" data-name="Capa 1" xmlns="http://www.w3.org/2000/svg" viewBox="0 0 400 150">
  <defs>
    <style>
      .cls-1 {
        fill: #76777a;
      }

      .cls-2 {
        fill: #bfbfbf;
      }

      .cls-2, .cls-3 {
        fill-rule: evenodd;
      }

      .cls-3 {
        fill: #9ea1a2;
      }
    </style>
  </defs>
  <g>
    <path class="cls-3" d="M330.49,56.8l8.72,1.91c.12-.41,1.66-3.2,1.97-3.78l1.97-3.75h-12.67s0,5.61,0,5.61Z"/>
    <path class="cls-3" d="M328.6,56.8l-3.95,1.03c-.12-.41-3.4-6.65-3.4-6.65h7.35s0,5.61,0,5.61Z"/>
    <path class="cls-3" d="M346.07,67.38c.7-.29,8.37-5.47,9.84-6.34l.02-9.8h-10.4c-.32.48-4.36,8.11-4.37,8.17-.02.18,1.72,3.8,1.95,4.25.33.65,1.93,3.88,2.04,4.32l.92-.6Z"/>
    <path class="cls-3" d="M340.35,97.31c.42.77.81,1.53,1.2,2.29.36.69.9,1.54,1.18,2.24.42.54.74,1.55,1.2,2.17h12.03s-.01-6.58-.01-6.58l-3-1.95c-.57-.25-4.73-3.01-5.71-3.61-.6-.37-1.24-.83-1.84-1.17-.16.95-.49,5.18-.7,5.66l-4.35.95Z"/>
    <path class="cls-3" d="M354.51,93.96c.25.02.11-.02.38.15.1.07.23.16.37.25.22.14.45.3.69.42l-.02-14.43-8.69.02-1.56,7.82c.28.25.8.53,1.13.75.38.25.73.48,1.09.71l4.47,2.86c.4.25,1.96,1.17,2.15,1.46"/>
    <path class="cls-3" d="M347.21,77.95h8.62s.09,0,.09,0v-13.63c0-.57.03-.1-.14-.28l-8.82,5.51c-.32.19-1.06.61-1.29.84l1.54,7.57Z"/>
    <path class="cls-3" d="M330.66,97.93l.02,6.07h10.66c-.09-.42-.75-1.32-.96-1.83-.39-.53-.91-1.57-1.28-2.25-.38-.69-.88-1.66-1.28-2.26h-7.12s-.04.27-.04.27Z"/>
    <path class="cls-3" d="M313.03,67.38c-.71-.29-8.37-5.47-9.84-6.34l-.02-9.8h7.3c.32.48,5.98,10.91,5.99,10.98.02.18-.24,1-.47,1.45-.33.65-1.93,3.88-2.04,4.32l-.92-.6Z"/>
    <path class="cls-3" d="M318.74,97.31c-.42.77-.81,1.53-1.2,2.29-.36.69-.9,1.54-1.18,2.24-.42.54-.74,1.55-1.2,2.17h-12.03s0-6.58,0-6.58l3-1.95c.57-.25,4.73-3.01,5.71-3.61.6-.37,1.24-.83,1.84-1.17.16.95.49,5.18.7,5.66l4.34.95Z"/>
    <path class="cls-3" d="M304.58,93.96c-.25.02-.11-.02-.38.15-.1.07-.23.16-.37.25-.22.14-.45.3-.69.42l.02-14.43,8.69.02,1.57,7.82c-.28.25-.8.53-1.13.75-.38.25-.73.48-1.09.71l-4.47,2.86c-.4.25-1.96,1.17-2.15,1.46"/>
    <path class="cls-3" d="M311.89,77.95h-8.62s-.09,0-.09,0v-13.63c0-.57-.03-.1.14-.28l8.82,5.51c.32.19,1.06.61,1.29.84l-1.54,7.57Z"/>
    <path class="cls-3" d="M328.43,97.93l-.02,6.07h-10.66c.08-.42.75-1.32.96-1.83.39-.53.91-1.57,1.28-2.25.38-.69.88-1.66,1.28-2.26h7.12s.04.27.04.27Z"/>
  </g>
  <g>
    <path class="cls-2" d="M313.08,47.98l.67-.36c.33.46.63,1.14.91,1.68.27.52.62,1.28.89,1.71-.22.14-.42.3-.69.43l-1.78-3.46ZM314.48,51.98s.03.02.04.05l2.04,4.2,1.72-.84c-.35-.94-1.94-3.72-2.19-4.5l-1.68-3.31.61-.74-.16-.39-3.13,1.77s-.04.03-.09.07c-.11.1-.04.03-.13.14.73.28.52.5,1.33.14.2.22,1.63,3.13,1.63,3.4"/>
    <path class="cls-2" d="M313.21,47.52l.67-.36c.33.46.63,1.15.91,1.68.27.52.62,1.28.89,1.71-.22.14-.42.3-.69.43l-1.78-3.46ZM314.62,51.52s.04.02.04.05l2.04,4.2,1.72-.84c-.35-.94-1.94-3.72-2.2-4.5l-1.68-3.31.61-.74-.16-.39-3.13,1.77s-.04.03-.09.07c-.12.1-.04.03-.13.14.73.28.53.5,1.33.14.2.22,1.63,3.13,1.63,3.4"/>
    <path class="cls-2" d="M324.04,62.45c.05.27.71,1.81.86,2.09.2-.09.56-.3.71-.43l-.93-2.01-.64.35Z"/>
    <path class="cls-2" d="M332.44,78.78l-1.92-4.15,3.15.03.05,1.45h.53s.01-1.28.01-1.28h1.05s0,9.7,0,9.7c-.02-.02-.03-.04-.05-.05-.36-.47-1-1.84-1.01-2.32-.02-1.01.09-2.4-.02-3.37h-1.79ZM330.33,74.01c.96-1.02,1.38-.8,2.28-.8h9.06v.83l-11.34-.02ZM342.17,70.47h.82v1.87h-.82v-1.87ZM334.6,70.9c.17-.19.07-.35.12-.74.27-.09.33-.09.6,0l.02,1h.33c.08-.25.01-.31.03-.58.03-.42-.05-.2.13-.33.29.07.19-.03.21.4,0,.25-.03.24.03.5.73,0,1.47,0,2.2,0,1.77,0,1.47.15,1.47-.65l1.09.03v1.48l-1.31.05v.38c.46.12,1.38-.09,1.73.1-.01.33.02.27-.4.27h-4.5c0-1.54.22-1.21-1.32-1.21l-.03,1.07c-1.14,0,.13-.42-.91-.4h-3.31s0-2.32,0-2.32h3.16c.23.2.53.73.63.96M329.74,72.86s-.03-.04-.03-.05l-.71-1.37c-.22-.41-.58-1.05-.68-1.49h2.23s-.02,2.43-.02,2.43c-.3.16-.49.31-.78.48M325.36,68.1c.27.81,7.63,16.14,8.73,18.44l.62,1.2,1.22-.83c.26.28.75,1.39.97,1.82.28.54,2.6,5.17,2.84,5.37.28-.64-.08-1.78.17-2.45l.34-.11c0,.68,0,1.35,0,2.03,0,1.45-.18,1.64.3,1.65v-3.82s1.24-.5,1.24-.5v-11.68c-.39-.16-.29.1-.35-1.17h-.75s-.01,1.1-.01,1.1l-2.48.04-.03,1.81h-1.69v-6.37s5.71,0,5.71,0v-1.81l1.14-.02v-2.82s-1.14,0-1.14,0v-1.69h-14.69v-1.22c-.41-.14-2.08-.06-2.63-.05l.52,1.09Z"/>
    <path class="cls-2" d="M317.09,87.12v-.11h2.45v3.53s-2.45-.03-2.45-.03v-3.39ZM317.44,83.06v-2.34h1.81c0,3.49.08,1.51.28,2.34v1.38s-2.53,0-2.53,0c0-.25-.03-.74,0-.95.07-.7.22.02.44-.44M324.08,83.64l-.02-2.31h1.47l-.02-1.48.83-.02c0,.81.16,3.18-.12,3.45-.53.51-1.16.36-2.14.36M324.24,75.77h-1.6s0-.88,0-.88l1.61-.02-.02.89ZM315.8,74.73l2.94.05c.18.3.07,4.14.05,4.34-.33.12-1.67.02-2.13.02v.6s0,11.13,0,11.13c.45.45.64.57,1.44.57,1.02,0,.38-.4,1.58-.4l.03,3.48,2.57.04v-4.95l3.32-.03v4.94l2.62.04c0-.86-.1-3.4.04-4.05-.45-.15-1.21-.67-1.67-.92-1.51-.8-.93-.66-3.1-.65-.54,0-.64-.07-1.06-.26-.65-.28-1.65-.07-2.44-.15v-2.09h-2.59v-1.41c3.18,0,6.89-.07,10-.02v1.29h-4.93s0,1.53,0,1.53h1.99c.07-.14.14-.35.18-.56h2.83s0,1.52,0,1.52l3.33.04c.02-.58.07-1.94,0-2.47l-2.36-5.18c-.26.11-.49.46-.8.65.08.5.33.74.43,1.2h-.99c-.03-2.88-.29-2.8.69-3.12-.08-.4-.32-.82-.49-1.2-.36.11-.76.32-1.13.35-.49.03-1.11,0-1.62,0v-.69h1.19v-.29c-.35-.19-1.15-.07-1.62-.07v-2c.66,0,.72.17.76-.48.03-.38.1-.8.08-1.2h-2.81v10.14h-2.2c0-.85-.1-2.01.12-2.78.39-1.42.25-3.82.25-5.42,0-1.78.2-1.12.68-2.27h-4.72l-.03-.74c.73,0,1.45,0,2.17,0,.81,0,1.2.32,1.87.39,1.33.15,3.03-.11,4.39.03-.11-.34-.22-.55-.39-.84l-4-.02-.06-3.06,2.69-.06c-.12-.33-.71-1.36-.9-1.6h-6.2s.02,6.62.02,6.62Z"/>
    <path class="cls-2" d="M317.18,50.35c.31.45,3.55,7.18,4.18,8.32-.17.13-.21.18-.43.26l-1.45-2.58c-.05-.08-.07-.12-.11-.18,0-.01-.02-.03-.03-.04,0-.01-.02-.03-.03-.04l-2.8,1.29c.1.48.67,1.46.91,1.97.31.65.62,1.26.95,1.93.35.7.6,1.32.93,1.97.24.47.79,1.47.93,1.94-.18.2-.21.23-.42.36.06.21.19.43.36.57l.86-.55c.18.17,1.47,2.28,1.55,2.53.5-.19.97-.61,1.47-.84l.3-.18c-.08-.43-.53-1.23-.74-1.66-.42-.86,0-1.21.36-1.58l-.19-.6-.37.2-.27-.52c.27-.1.39-.19.64-.34l.51-.36s.02-.02.03-.04l-7.6-15.12-.93.47c.36.95,1.01,1.9,1.38,2.84"/>
    <path class="cls-2" d="M332.59,89.67c-.09-.21-.21-.32-.33-.52l-1.71,1.21c-.45.33-.48.21-.48.74v3.42l2.34.03c.26-.06.62-1.16.62-1.65,0-.78-.02-1.57,0-2.35.33-.13.85-.55,1.19-.79.64-.46.56-.54,1.53-.54.13.32.38.67.38,1.05v4.28h2.32c0-1.85.08-1.06-.52-2.39l-1.78-3.63c-.46.24-.21.38-.94.38-.25,0-.44-.47-.5-.68-.6.2-1.57,1.25-2.11,1.43"/>
    <path class="cls-2" d="M324.9,77.48h1.69c-.04-.26-.75-2.02-.9-2.22-.05-.06-.39-.39-.53-.46l-.26,2.68Z"/>
    <path class="cls-2" d="M323.91,62.91c.05.27.71,1.81.86,2.09.2-.09.56-.3.71-.43l-.93-2.01-.64.36Z"/>
    <path class="cls-2" d="M316.66,79.14c.47,0,1.8.1,2.13-.02.02-.2.12-4.04-.05-4.34v4.33s-1.87-.04-1.87-.04c-.36.04-.09,0-.21.08"/>
    <polygon class="cls-2" points="320.25 72.84 320.25 69.83 322.95 69.82 322.89 69.71 320.2 69.77 320.25 72.84"/>
    <path class="cls-2" d="M334.6,70.9c.08.12-.11.06.15.12l.02-.85h.48l.09.99-.02-1c-.27-.09-.34-.09-.6,0-.04.39.05.55-.12.74"/>
    <path class="cls-2" d="M332.57,78.32l-1.92-4.15,3.15.03.05,1.45h.53s0-1.28,0-1.28h1.05s0,9.7,0,9.7c-.02-.02-.03-.04-.05-.05-.36-.47-1-1.84-1.01-2.32-.02-1.01.09-2.4-.02-3.37h-1.79ZM330.47,73.55c.96-1.02,1.38-.8,2.28-.8h9.06v.83l-11.34-.02ZM342.3,70.01h.82v1.87s-.82,0-.82,0v-1.87ZM334.74,70.44c.17-.19.07-.35.12-.74.26-.09.33-.09.6,0l.02,1h.33c.08-.25.01-.31.03-.58.03-.42-.05-.2.13-.33.29.07.19-.03.21.4,0,.25-.03.24.03.5.73,0,1.47,0,2.2,0,1.77,0,1.47.15,1.47-.65l1.09.03v1.48l-1.31.05v.38c.46.12,1.38-.09,1.73.1-.01.33.02.27-.4.27h-4.5c0-1.54.22-1.21-1.32-1.21l-.03,1.07c-1.14,0,.13-.42-.91-.41h-3.31s0-2.32,0-2.32h3.16c.23.2.53.73.63.96M329.87,72.4s-.03-.04-.03-.05l-.71-1.37c-.22-.41-.58-1.05-.68-1.49h2.23s-.02,2.43-.02,2.43c-.3.16-.49.31-.78.48M325.49,67.64c.27.81,7.63,16.14,8.73,18.44l.62,1.2,1.22-.83c.26.28.75,1.39.97,1.82.28.54,2.6,5.17,2.84,5.37.27-.64-.09-1.78.17-2.45l.34-.11c0,.68,0,1.35,0,2.03,0,1.45-.18,1.64.3,1.65v-3.82s1.24-.5,1.24-.5v-11.68c-.39-.16-.29.1-.35-1.17h-.75s0,1.1,0,1.1l-2.48.04-.03,1.81h-1.69v-6.37s5.71,0,5.71,0v-1.81l1.14-.02v-2.82s-1.14,0-1.14,0v-1.69h-14.69v-1.22c-.41-.14-2.08-.06-2.63-.05l.52,1.09Z"/>
    <path class="cls-2" d="M317.22,86.66v-.11h2.45v3.53s-2.45-.03-2.45-.03v-3.39ZM317.57,82.6v-2.34h1.81c0,3.49.08,1.51.28,2.34v1.38s-2.53,0-2.53,0c0-.25-.03-.74-.01-.95.07-.7.22.02.44-.44M324.21,83.18l-.02-2.31h1.47l-.02-1.48.83-.02c0,.81.16,3.18-.12,3.45-.53.51-1.16.36-2.14.36M324.37,75.32h-1.6s0-.88,0-.88l1.61-.02-.02.89ZM315.93,74.27l2.94.05c.18.3.07,4.14.05,4.34-.33.12-1.67.02-2.13.02v.6s0,11.13,0,11.13c.45.45.64.57,1.44.57,1.02,0,.38-.4,1.58-.4l.03,3.48,2.57.04v-4.95s3.32-.03,3.32-.03v4.94l2.62.04c0-.86-.1-3.4.04-4.05-.45-.15-1.21-.67-1.67-.92-1.51-.8-.93-.66-3.1-.65-.54,0-.64-.07-1.06-.26-.65-.28-1.65-.07-2.44-.15v-2.09s-2.59,0-2.59,0v-1.41c3.18,0,6.89-.07,10-.02v1.29h-4.93s0,1.53,0,1.53h1.99c.07-.15.14-.35.18-.56h2.83s0,1.52,0,1.52l3.33.04c.02-.58.07-1.94,0-2.47l-2.36-5.18c-.26.11-.49.46-.8.65.08.5.33.74.43,1.2h-.99c-.03-2.88-.29-2.8.69-3.12-.08-.4-.32-.82-.49-1.2-.36.11-.76.32-1.13.35-.49.03-1.11,0-1.62,0v-.69h1.19v-.29c-.35-.19-1.15-.07-1.62-.07v-2c.66,0,.72.17.76-.48.03-.38.1-.8.08-1.2h-2.81v10.14h-2.2c0-.85-.1-2.01.12-2.78.39-1.42.25-3.82.25-5.42,0-1.78.2-1.12.68-2.27h-4.72l-.03-.74c.73,0,1.45,0,2.17,0,.81,0,1.2.32,1.87.39,1.33.15,3.03-.11,4.39.03-.11-.34-.22-.55-.39-.84l-4-.02-.06-3.06,2.69-.06c-.12-.33-.71-1.36-.9-1.6h-6.2s.02,6.62.02,6.62Z"/>
    <path class="cls-2" d="M317.32,49.89c.31.45,3.55,7.18,4.18,8.32-.17.13-.21.18-.43.26l-1.45-2.58c-.05-.08-.07-.12-.11-.18,0-.01-.02-.03-.03-.04,0-.01-.02-.03-.03-.04l-2.8,1.29c.1.48.67,1.46.91,1.97.31.65.62,1.26.95,1.93.35.7.6,1.32.93,1.97.24.47.79,1.47.93,1.94-.18.2-.21.23-.42.36.06.21.19.43.36.57l.86-.55c.18.17,1.47,2.28,1.55,2.53.5-.19.97-.61,1.47-.84l.3-.18c-.08-.43-.53-1.23-.74-1.66-.42-.86,0-1.21.36-1.58l-.19-.6-.37.2-.27-.52c.27-.1.39-.19.64-.34l.51-.36s.02-.02.03-.04l-7.6-15.12-.93.47c.36.95,1.01,1.9,1.38,2.84"/>
    <path class="cls-2" d="M332.72,89.21c-.09-.21-.21-.32-.33-.52l-1.72,1.21c-.45.33-.48.21-.48.74v3.42l2.34.04c.26-.06.62-1.16.62-1.65,0-.78-.02-1.57,0-2.35.33-.13.85-.55,1.19-.79.64-.46.56-.54,1.53-.54.13.32.38.67.38,1.05v4.28s2.32,0,2.32,0c0-1.85.08-1.06-.52-2.39l-1.77-3.63c-.46.24-.21.38-.94.38-.25,0-.44-.46-.5-.68-.6.2-1.57,1.25-2.11,1.43"/>
    <path class="cls-2" d="M325.03,77.02h1.69c-.04-.26-.75-2.02-.9-2.22-.05-.06-.39-.39-.53-.46l-.26,2.68Z"/>
    <path class="cls-2" d="M316.79,78.69c.47,0,1.8.1,2.13-.02.02-.2.12-4.04-.05-4.34v4.33s-1.87-.04-1.87-.04c-.36.04-.09,0-.21.08"/>
    <polygon class="cls-2" points="320.39 72.38 320.38 69.37 323.08 69.36 323.02 69.26 320.33 69.31 320.39 72.38"/>
    <path class="cls-2" d="M334.74,70.44c.08.12-.11.06.15.12l.02-.85h.48l.09.99-.02-1c-.27-.09-.34-.09-.6,0-.04.39.05.55-.12.74"/>
  </g>
  <path class="cls-1" d="M79.54,97.63h-13.57l-5.83-15.23h-3.86v15.23h-12.24v-39.83h20.83c4.6,0,8.17,1.07,10.71,3.22,2.54,2.15,3.81,4.99,3.81,8.51,0,2.3-.47,4.32-1.4,6.09-.94,1.76-2.83,3.31-5.67,4.65l7.22,17.36ZM56.28,73.88h5.23c1.54,0,2.78-.32,3.71-.96.93-.64,1.4-1.58,1.4-2.83,0-2.55-1.57-3.82-4.7-3.82h-5.64v7.62Z"/>
  <polygon class="cls-1" points="115.33 88.12 115.33 97.63 85.32 97.63 85.32 57.8 115.33 57.8 115.33 66.99 97.33 66.99 97.33 72.77 111.88 72.77 111.88 81.61 97.33 81.61 97.33 88.12 115.33 88.12"/>
  <path class="cls-1" d="M116.06,86.1l11.37-2.04c.95,3.21,3.41,4.81,7.36,4.81,3.08,0,4.62-.82,4.62-2.45,0-.86-.36-1.52-1.07-2-.71-.48-1.98-.9-3.81-1.27-6.99-1.34-11.48-3.09-13.47-5.25-1.99-2.16-2.98-4.7-2.98-7.62,0-3.76,1.43-6.88,4.28-9.37,2.85-2.49,6.96-3.74,12.31-3.74,8.12,0,13.49,3.26,16.1,9.78l-10.14,3.06c-1.05-2.66-3.18-4-6.4-4-2.67,0-4,.83-4,2.48,0,.74.3,1.31.91,1.72.6.41,1.77.8,3.51,1.17,4.77,1.01,8.16,1.9,10.17,2.68,2.01.77,3.68,2.1,5.02,3.98,1.34,1.88,2.01,4.09,2.01,6.64,0,4.03-1.64,7.3-4.91,9.8-3.27,2.5-7.57,3.75-12.88,3.75-9.72,0-15.72-4.05-18-12.14"/>
  <polygon class="cls-1" points="186.52 88.12 186.52 97.63 156.52 97.63 156.52 57.8 186.52 57.8 186.52 66.99 168.53 66.99 168.53 72.77 183.08 72.77 183.08 81.61 168.53 81.61 168.53 88.12 186.52 88.12"/>
  <polygon class="cls-1" points="234.73 57.8 234.73 97.63 223.36 97.63 223.36 69.15 215.99 97.63 208.22 97.63 200.55 69.15 200.55 97.63 191.37 97.63 191.37 57.8 207.37 57.8 213.15 78.95 218.67 57.8 234.73 57.8"/>
  <rect class="cls-1" x="241.68" y="57.8" width="12.24" height="39.83"/>
  <path class="cls-1" d="M294.97,97.63h-9.96l-10.92-17.6c-1.4-2.26-2.82-5-4.24-8.22.64,2.57.96,4.75.96,6.54v19.29h-9.93v-39.83h11.57l9.29,14.59c1.85,2.9,3.25,5.45,4.21,7.65-.62-3.4-.94-6.89-.94-10.45v-11.79h9.96v39.83Z"/>
</svg>