<?xml version="1.0" encoding="UTF-8"?>
<svg id="Capa_1" data-name="Capa 1" xmlns="http://www.w3.org/2000/svg" viewBox="0 0 400 150">
  <defs>
    <style>
      .cls-1 {
        opacity: .73;
      }

      .cls-1, .cls-2 {
        fill: #afafaf;
      }

      .cls-3 {
        fill: #868686;
      }
    </style>
  </defs>
  <path class="cls-2" d="M97.83,116.39c.06-2.19.4-4.72.82-7.24.99-5.95,2.26-11.84,3.8-17.68,2.48-9.41,5.68-18.58,9.54-27.51,2.3-5.33,4.86-10.53,7.28-15.81.58-1.27,1.19-2.52,1.77-3.78.24-.53.58-.96.99-1.36,1.49-1.46,3.01-2.9,4.31-4.55.88-1.12,1.67-2.3,2.24-3.61.39-.9.69-1.84.71-2.83,0-.3.09-.54.3-.77,2.06-2.27,4.3-4.31,7.09-5.66.91-.44,1.86-.76,2.86-.92,3.33-.56,5.73,1.38,5.89,4.76.1,2.16-.45,4.2-1.32,6.14-.69,1.53-1.48,3.01-2.22,4.51-4.23,8.55-8.29,17.19-12.39,25.8-4.47,9.41-8.94,18.82-13.63,28.12-3.16,6.26-6.37,12.5-10,18.51-1.17,1.94-2.39,3.86-3.82,5.63-.5.63-1.04,1.22-1.66,1.73-1.27,1.04-2.14.71-2.42-.89-.13-.74-.16-1.49-.14-2.6Z"/>
  <path class="cls-3" d="M209.89,67.56c.23-.59.44-1.14.65-1.69,4.93-12.28,9.86-24.55,14.79-36.83.23-.57.47-1.14.69-1.72.11-.3.28-.44.63-.44,2.45.01,4.91.02,7.36,0,.46,0,.54.28.67.6,1.29,3.26,2.59,6.52,3.88,9.78,3.34,8.41,6.69,16.82,10.04,25.23.58,1.46,1.16,2.92,1.74,4.39.06.14.12.29.15.44.04.18-.03.3-.23.31-.15,0-.31.01-.46.01-3.25,0-6.51,0-9.76,0-.72,0-.72,0-.96-.71-.52-1.54-1.05-3.08-1.54-4.62-.13-.41-.31-.57-.76-.57-4.34.02-8.67.02-13.01,0-.45,0-.62.18-.76.57-.56,1.61-1.17,3.2-1.74,4.8-.13.37-.3.53-.71.53-3.46-.02-6.92-.01-10.38-.02-.05,0-.1-.02-.27-.06ZM230.31,39.5c-.12.32-.19.49-.24.66-.94,3.14-1.89,6.27-2.83,9.41-.34,1.14-.69,2.27-1.02,3.41-.13.45-.09.5.36.52.36.02.72,0,1.08,0,2.12,0,4.24,0,6.35,0,.51,0,.54-.05.41-.53-.03-.1-.06-.2-.09-.3-1.16-3.85-2.32-7.7-3.48-11.55-.15-.49-.25-.99-.55-1.61Z"/>
  <path class="cls-1" d="M163.08,36.95c-.01.88-.38,2.03-.86,3.15-.74,1.71-1.71,3.29-2.75,4.83-2.35,3.46-5.03,6.68-7.68,9.9-4.27,5.18-8.55,10.34-12.53,15.75-2.31,3.14-4.37,6.45-6.6,9.64-4.7,6.72-9.43,13.43-13.89,20.31-1.24,1.9-2.42,3.84-3.57,5.8-.85,1.45-1.78,2.85-2.88,4.12-.39.45-.81.87-1.27,1.24-.31.24-.64.45-1.02.54-.57.14-.92-.05-1.03-.62-.18-.9-.13-1.8.33-2.63,3.37-6,6.48-12.15,9.54-18.31,5.36-10.81,10.51-21.72,15.69-32.61.9-1.89,1.79-3.77,2.69-5.66.21-.44.46-.86.74-1.27,2.93-4.16,6-8.21,9.55-11.87,1.69-1.74,3.48-3.38,5.52-4.72,1.45-.96,2.98-1.74,4.73-2.01.81-.12,1.6-.07,2.37.15,1.83.53,2.92,1.99,2.93,4.25Z"/>
  <path class="cls-3" d="M253.6,47.25v-19.13c0-.13,0-.26,0-.39,0-.89-.07-.84.84-.84,4.88,0,9.76,0,14.64.02,1.78,0,3.55.21,5.3.58,4.24.88,7.18,3.39,8.76,7.33,2.12,5.29,1.5,10.4-1.8,15.06-1.7,2.41-4.22,3.74-7.07,4.44-1.94.48-3.93.54-5.92.58-1.29.03-2.58,0-3.87,0-.9,0-.85-.05-.85.83,0,3.61,0,7.23,0,10.84,0,.15,0,.31,0,.46-.02.58-.02.6-.62.6-2.94,0-5.89,0-8.83,0-.57,0-.58-.02-.58-.63,0-.62,0-1.24,0-1.86v-17.89ZM263.63,40.81c0,1.42,0,2.84,0,4.25,0,.6.01.61.6.61,1.6,0,3.2-.02,4.8-.03.73,0,1.44-.14,2.13-.34,1.48-.44,2.55-1.32,2.97-2.87.19-.7.25-1.42.19-2.15-.15-1.94-1.14-3.2-3-3.8-.51-.17-1.05-.26-1.58-.33-1.82-.24-3.66-.09-5.49-.12-.61-.01-.62.01-.62.67,0,1.37,0,2.73,0,4.1Z"/>
  <path class="cls-3" d="M121.92,27.34c1.15-.04,2.28.09,3.35.51,1.32.51,2.32,1.36,2.69,2.78.21.79.17,1.58-.03,2.37-.44,1.77-1.42,3.25-2.52,4.66-1.36,1.73-2.96,3.23-4.52,4.78-1.6,1.58-3.23,3.12-4.84,4.69-6,5.86-12,11.73-17.92,17.68-3.06,3.07-6.09,6.18-9.03,9.36-1.14,1.23-2.28,2.46-3.5,3.62-.51.48-1.05.92-1.63,1.31-.3.2-.61.38-.96.5-.71.25-1.17,0-1.31-.73-.18-.96.03-1.9.26-2.82.54-2.27,1.4-4.43,2.32-6.56,3.73-8.6,8.34-16.71,13.68-24.4,2.81-4.06,5.84-7.95,9.49-11.31,3.15-2.9,6.75-5,10.94-6.01,1.16-.28,2.33-.46,3.51-.42Z"/>
  <path class="cls-3" d="M177.99,47.22c0-6.4,0-12.8,0-19.2,0-.18,0-.36,0-.54.02-.57.02-.58.55-.58,3.12,0,6.25,0,9.37,0,.39,0,.59.1.55.52-.02.2,0,.41,0,.62,0,9.83,0,19.67,0,29.5,0,1.05-.08.95.96.95,5.47,0,10.95,0,16.42,0,.21,0,.41,0,.62,0,.3-.01.43.12.42.41,0,.1,0,.21,0,.31,0,2.58,0,5.16,0,7.74,0,.68,0,.68-.69.68-9.17,0-18.33,0-27.5,0-.7,0-.71,0-.71-.74,0-6.56,0-13.11,0-19.67Z"/>
  <path class="cls-3" d="M208.23,81.28c-.29.98-.56,1.88-.81,2.79-.75,2.63-1.49,5.26-2.23,7.89-.18.62-.18.62-.84.63-.49,0-.98-.03-1.47,0-.44.03-.64-.12-.75-.56-.54-1.99-1.12-3.97-1.68-5.95-.42-1.49-.84-2.98-1.26-4.46-.04-.14-.06-.3-.24-.37,0,1.59-.04,3.18,0,4.76.06,2.04.05,4.08.08,6.11,0,.33-.12.46-.45.46-.96-.01-1.91,0-2.87,0-.29,0-.43-.11-.42-.41,0-.15,0-.31,0-.46,0-4.72,0-9.45,0-14.17,0-.83-.13-.86.82-.86,1.24,0,2.48,0,3.72,0,.65,0,.66,0,.85.64.94,3.11,1.88,6.22,2.82,9.32.03.09.01.2.13.24.19-.06.17-.24.21-.38.9-3.01,1.8-6.03,2.69-9.04q.23-.78,1.05-.78c1.26,0,2.53,0,3.79,0,.64,0,.65.02.65.66,0,4.88,0,9.76,0,14.63,0,.59-.01.6-.61.6-.83,0-1.65,0-2.48,0-.63,0-.64-.01-.64-.64,0-2.27.02-4.54.03-6.81,0-1.14.01-2.27.02-3.41,0-.12.03-.24-.13-.44Z"/>
  <path class="cls-3" d="M234.06,108.17c0,1.28-.01,2.56,0,3.84.02,1.62.06,3.25.08,4.87,0,.59,0,.6-.59.61-.93,0-1.86,0-2.79,0-.54,0-.55-.02-.56-.57,0-.62,0-1.24,0-1.86,0-4.15,0-8.31,0-12.46,0-.21,0-.41,0-.62-.01-.3.14-.4.43-.4.9,0,1.81.02,2.71,0,.39-.01.54.23.7.5,1.27,2.07,2.54,4.13,3.81,6.2.61.98,1.21,1.97,1.84,2.98.23-.15.16-.34.16-.5-.02-2.53-.05-5.06-.09-7.59,0-.36-.04-.72-.06-1.08-.02-.34.11-.52.49-.51.98.02,1.96.02,2.94,0,.35,0,.54.1.51.48-.01.15,0,.31,0,.46,0,4.67,0,9.34,0,14.01,0,.15-.01.31,0,.46.03.36-.11.51-.48.5-.88-.02-1.76-.03-2.63,0-.42.02-.58-.24-.77-.53-1.5-2.41-3.01-4.81-4.52-7.21-.34-.54-.69-1.09-1.03-1.63-.05.01-.1.03-.15.04Z"/>
  <path class="cls-3" d="M294.94,76.44c3.35-.13,7.06,2.07,8.1,6.05,1.26,4.83-1.73,9.36-6.43,10.24-3.66.68-7.16-.86-8.97-3.91-2.53-4.26-.63-10.77,5.23-12.19.68-.17,1.38-.2,2.07-.19ZM295.01,80c-1.59,0-2.8.68-3.64,2-1.03,1.63-.96,3.9.14,5.48,1.84,2.64,5.67,2.4,7.16-.45.92-1.78.8-3.54-.29-5.2-.79-1.21-1.95-1.8-3.37-1.83Z"/>
  <path class="cls-3" d="M267.19,87.22c1.4,1.77,2.77,3.5,4.24,5.36-.82,0-1.48,0-2.14,0-.64,0-1.29-.03-1.93,0-.45.03-.71-.15-.96-.5-.87-1.25-1.76-2.48-2.65-3.72-.14-.2-.24-.45-.54-.57-.12.2-.08.4-.08.59,0,1.21-.01,2.42,0,3.64,0,.38-.1.56-.52.55-.98-.02-1.96-.02-2.94,0-.35,0-.55-.1-.5-.48.01-.1,0-.21,0-.31,0-4.77,0-9.54,0-14.31,0-.15,0-.31,0-.46,0-.18.1-.29.27-.31.1-.02.21-.02.31-.02,2.14.02,4.28-.07,6.42.1,2.21.18,3.83,1.25,4.54,3.38.74,2.19.45,4.22-1.27,5.92-.61.6-1.38.87-2.27,1.14ZM263.14,82.46c0,.59,0,1.19,0,1.78,0,.22.03.43.31.43.77,0,1.55.09,2.3-.17.99-.34,1.39-1.04,1.43-2.07.04-.92-.48-1.62-1.37-1.94-.78-.28-1.58-.16-2.37-.17-.29,0-.3.23-.3.44,0,.57,0,1.13,0,1.7Z"/>
  <path class="cls-3" d="M214.11,112.18c1.39,1.74,2.75,3.45,4.1,5.15-.18.23-.38.16-.54.16-1.16,0-2.32,0-3.48.01-.38,0-.61-.12-.83-.43-.9-1.29-1.82-2.56-2.75-3.84-.15-.2-.25-.45-.49-.59-.23.11-.13.31-.13.47,0,1.24,0,2.48,0,3.71,0,.66-.01.66-.62.67-.95,0-1.91,0-2.86,0-.32,0-.49-.11-.46-.45,0-.13,0-.26,0-.39,0-4.75,0-9.49,0-14.24,0-.9-.04-.84.84-.84,1.55,0,3.1,0,4.65,0,.83,0,1.64.08,2.46.24,2.44.48,3.73,2.51,3.94,4.59.16,1.63-.19,3.13-1.37,4.36-.55.57-1.19.98-1.96,1.18-.15.04-.3.07-.46.24ZM209.93,107.35c0,.59,0,1.18,0,1.77,0,.31.13.47.46.47.69,0,1.39.04,2.07-.15,1.04-.29,1.61-1.07,1.59-2.18-.02-1.01-.6-1.71-1.62-1.98-.66-.17-1.33-.12-1.99-.14-.37,0-.51.15-.5.51,0,.57,0,1.13,0,1.7Z"/>
  <path class="cls-3" d="M261.74,112.68c0,1.28,0,2.57,0,3.85,0,1.09.06.95-.96.96-.8,0-1.6,0-2.4,0-.59,0-.6-.01-.6-.61,0-1.88,0-3.77,0-5.65,0-2.94,0-5.89,0-8.83,0-.82,0-.82.78-.82,1.58,0,3.15,0,4.73,0,.83,0,1.65.07,2.46.25,1.93.42,3.11,1.65,3.68,3.48.43,1.38.35,2.76-.22,4.08-.51,1.16-1.36,1.99-2.56,2.44-.24.09-.51.1-.8.34,1.36,1.72,2.73,3.44,4.09,5.15-.13.26-.34.16-.5.16-1.14,0-2.27-.01-3.41.01-.46.01-.75-.14-1.02-.53-.86-1.26-1.76-2.49-2.65-3.72-.15-.21-.31-.4-.47-.6-.05.01-.11.02-.16.03ZM261.69,107.42h0c0,.59,0,1.19,0,1.78,0,.24.09.39.36.39.72,0,1.45.05,2.16-.15,1.01-.28,1.6-1.06,1.59-2.11,0-1.05-.6-1.78-1.66-2.05-.64-.16-1.28-.11-1.93-.13-.42-.02-.54.19-.53.57.01.57,0,1.14,0,1.7Z"/>
  <path class="cls-3" d="M309.37,87.73c0,.51,0,1.01,0,1.52,0,.96,0,1.91,0,2.87,0,.31-.08.48-.43.48-1.01-.01-2.01-.01-3.02,0-.35,0-.45-.16-.43-.47,0-.15,0-.31,0-.46,0-4.65,0-9.29,0-13.94,0-.15.01-.31,0-.46-.03-.35.1-.52.48-.51,2.19.03,4.39-.09,6.58.06,3.14.22,5.23,2.97,4.77,6.11-.32,2.15-1.41,3.61-3.53,4.23-.07.02-.13.06-.27.13,1.37,1.73,2.73,3.44,4.07,5.12-.15.28-.36.19-.52.19-1.14,0-2.27-.02-3.41.02-.45.01-.7-.16-.95-.51-.95-1.35-1.92-2.69-2.88-4.03-.09-.12-.19-.24-.28-.36l-.17.03ZM309.38,82.48h0c0,.59,0,1.18,0,1.77,0,.22.03.42.32.42.82,0,1.65.11,2.44-.21.89-.35,1.36-1.08,1.34-2.05-.03-.99-.51-1.64-1.45-1.95-.78-.26-1.58-.13-2.37-.14-.24,0-.28.18-.28.38,0,.59,0,1.18,0,1.77Z"/>
  <path class="cls-3" d="M204.38,117.49c-1.34,0-2.63,0-3.92,0-.31,0-.46-.12-.55-.41-.15-.49-.34-.97-.49-1.47-.1-.33-.27-.44-.61-.44-1.52.02-3.05.02-4.57,0-.34,0-.52.13-.62.44-.16.49-.35.97-.52,1.46-.09.27-.24.42-.56.42-1.21-.02-2.43,0-3.64-.02-.07,0-.14-.04-.22-.07-.04-.31.12-.56.23-.81,1.9-4.74,3.8-9.48,5.7-14.21.05-.12.12-.23.15-.36.09-.37.32-.47.68-.46.7.02,1.4.03,2.09,0,.46-.02.68.13.85.57.85,2.19,1.73,4.36,2.6,6.54,1.05,2.64,2.09,5.27,3.14,7.91.1.26.24.51.26.91ZM196.59,106.58c-.5,1.22-1.51,4.7-1.55,5.35.95,0,1.89,0,2.84,0,.21,0,.26-.15.22-.32-.09-.35-.19-.69-.3-1.04-.38-1.28-.77-2.55-1.2-4Z"/>
  <path class="cls-3" d="M250.56,92.58c-1.32,0-2.63,0-3.94,0-.28,0-.42-.11-.5-.38-.14-.47-.32-.93-.46-1.4-.11-.37-.3-.54-.72-.54-1.47.02-2.94.02-4.41,0-.41,0-.61.17-.72.53-.15.46-.33.92-.5,1.38-.07.2-.15.39-.41.39-1.33,0-2.66,0-4.03,0,.06-.5.26-.86.42-1.24,1.86-4.64,3.72-9.28,5.59-13.92.3-.74.3-.74,1.11-.74.54,0,1.08,0,1.63,0,.74,0,.75,0,1.02.67,1.19,2.99,2.38,5.99,3.57,8.98.71,1.8,1.43,3.59,2.14,5.39.1.26.26.5.22.86ZM242.82,81.82c-.09.07-.15.09-.17.13-.48,1.58-.96,3.16-1.44,4.73-.1.32.07.41.36.41.75,0,1.5.01,2.25,0,.49,0,.56-.09.43-.55-.26-.92-.54-1.83-.82-2.74-.2-.65-.4-1.31-.6-1.98Z"/>
  <path class="cls-3" d="M227.25,92.58c-.52,0-1.04-.03-1.55.01-.49.04-.69-.17-.81-.61-.11-.42-.3-.82-.41-1.25-.09-.33-.26-.46-.6-.46-1.52.01-3.04.01-4.57,0-.34,0-.52.14-.62.45-.15.46-.34.92-.49,1.38-.11.34-.29.49-.67.48-1.08-.02-2.17,0-3.25-.01-.6,0-.63-.06-.41-.62.84-2.11,1.69-4.21,2.54-6.31,1.12-2.77,2.25-5.54,3.33-8.33.2-.5.46-.67.97-.65.62.04,1.24.04,1.86,0,.5-.03.72.17.9.62,1.34,3.43,2.71,6.85,4.07,10.28.58,1.46,1.16,2.92,1.73,4.39.23.59.21.61-.4.62-.54,0-1.08,0-1.63,0ZM221.69,81.86s-.1-.03-.15-.04c-.32,1.05-.64,2.11-.96,3.16-.16.54-.32,1.08-.48,1.62-.09.32,0,.49.36.49.8,0,1.59,0,2.39,0,.27,0,.38-.12.3-.38-.49-1.62-.98-3.23-1.47-4.85Z"/>
  <path class="cls-3" d="M177.99,109.51c0-2.37,0-4.74,0-7.12,0-.81,0-.82.78-.82,1.63,0,3.25,0,4.88,0,.8,0,1.59.08,2.38.24,2.08.41,3.27,1.75,3.79,3.74.39,1.51.17,2.98-.56,4.35-.79,1.47-2.08,2.23-3.7,2.5-.97.16-1.95.12-2.93.13-.67,0-.68.01-.68.7,0,1.24,0,2.48,0,3.71,0,.54-.02.55-.58.56-.93,0-1.86,0-2.79,0-.57,0-.58-.02-.58-.63,0-2.11,0-4.23,0-6.34,0-.34,0-.67,0-1.01ZM181.89,107.04h0c0,.49,0,.98,0,1.46,0,.32.15.46.47.46.77,0,1.54.03,2.3-.14.94-.21,1.38-.76,1.39-1.75,0-1.01-.4-1.54-1.35-1.78-.78-.19-1.58-.13-2.38-.14-.29,0-.43.14-.43.42,0,.49,0,.98,0,1.46Z"/>
  <path class="cls-3" d="M273.22,84.63c0-2.32,0-4.65,0-6.97,0-.18,0-.36,0-.54,0-.25.11-.38.37-.38.1,0,.21,0,.31,0,1.88,0,3.77,0,5.65.02.52,0,1.02.07,1.54.15,2.08.34,3.47,1.92,3.91,3.81.28,1.19.17,2.35-.23,3.5-.64,1.83-1.95,2.85-3.81,3.24-.71.15-1.43.16-2.16.15-.34,0-.67,0-1.01,0-.69,0-.69,0-.7.67,0,1.06,0,2.12,0,3.18-.01,1.28.16,1.11-1.1,1.12-.7,0-1.39,0-2.09,0-.69,0-.69,0-.7-.67,0-1.11,0-2.22,0-3.33,0-1.32,0-2.63,0-3.95ZM277.11,82.17c0,.49,0,.98,0,1.47,0,.18,0,.4.26.4.97,0,1.96.16,2.9-.24.45-.19.76-.52.89-1,.37-1.29-.26-2.28-1.6-2.43-.66-.07-1.34-.02-2.01-.05-.34-.01-.45.14-.44.46.01.46,0,.93,0,1.39Z"/>
  <path class="cls-3" d="M279.96,106.22c-.46,0-.93-.02-1.39,0-.4.02-.57-.11-.69-.52-.27-.92-1.12-1.25-1.96-.85-.83.39-.96,1.47-.25,2.04.55.44,1.18.73,1.82,1.01.92.4,1.84.81,2.69,1.36,1.51.99,2.14,2.38,1.98,4.16-.18,1.97-1.18,3.32-3.07,3.96-1.81.61-3.6.55-5.37-.17-1.83-.75-2.95-2.6-2.82-4.56.02-.35.17-.43.48-.43,1.03,0,2.06,0,3.1,0,.3,0,.47.08.5.42.03.33.14.66.32.95.34.56.89.84,1.49.74.63-.1,1.14-.54,1.27-1.09.16-.67-.04-1.2-.65-1.6-.63-.42-1.34-.65-2.03-.94-.78-.34-1.55-.69-2.27-1.15-2.57-1.66-2.65-5.14-.22-7.02,2.01-1.55,5.19-1.64,7.27-.2,1.21.84,1.76,2.05,1.9,3.48.03.28-.07.44-.38.43-.57-.01-1.14,0-1.7,0h0Z"/>
  <path class="cls-3" d="M246.47,109.53c0-2.43,0-4.85,0-7.28,0-.67,0-.67.69-.68,2.48,0,4.96,0,7.43,0,.7,0,.7,0,.71.74,0,.75,0,1.5,0,2.24,0,.58-.02.59-.62.59-1.19,0-2.37,0-3.56,0-.7,0-.7.01-.71.68,0,.41.01.83,0,1.24-.02.39.13.55.54.54,1.03-.02,2.06-.01,3.1,0,1.26.01,1.09-.16,1.11,1.11,0,.64-.02,1.29,0,1.93.02.4-.14.54-.54.53-1.16-.02-2.32,0-3.48,0-.71,0-.71,0-.72.74,0,.44,0,.88,0,1.32.01.59.03.61.61.62,1.11.01,2.22,0,3.33,0,.18,0,.36,0,.54,0,.3,0,.41.14.41.43,0,.93,0,1.86,0,2.79,0,.29-.11.42-.41.42-.57,0-1.14,0-1.7,0-2.04,0-4.08,0-6.12,0-.59,0-.6-.01-.6-.61,0-2.45,0-4.9,0-7.35Z"/>
  <path class="cls-3" d="M221.41,111.32c0-1.81,0-3.61,0-5.42,0-.73,0-.74-.72-.74-.62,0-1.24-.02-1.86,0-.38.01-.57-.09-.56-.52.02-.85.02-1.7,0-2.55-.01-.42.17-.52.55-.52,1.44.01,2.89,0,4.34,0,1.63,0,3.25,0,4.88,0,.56,0,.57.02.58.55.01.83-.01,1.65,0,2.48,0,.39-.11.56-.53.55-.62-.02-1.24-.01-1.86,0-.71,0-.72.01-.72.75,0,3.51,0,7.02,0,10.53,0,1.22.14,1.06-1.08,1.07-.75,0-1.5,0-2.25,0-.77,0-.78,0-.78-.76,0-1.81,0-3.61,0-5.42Z"/>
  <path class="cls-3" d="M320.85,86.38c0-1.81,0-3.61,0-5.42,0-.63-.01-.63-.65-.64-.67,0-1.34-.01-2.01,0-.33,0-.47-.12-.46-.45.01-.9,0-1.81,0-2.71,0-.29.12-.43.41-.42.1,0,.21,0,.31,0,2.97,0,5.94,0,8.91,0,.69,0,.7,0,.7.67,0,.8,0,1.6,0,2.4,0,.35-.14.51-.51.5-.67-.02-1.34-.01-2.01,0-.56,0-.57.02-.58.56-.01.88,0,1.76,0,2.63,0,2.71,0,5.42,0,8.13,0,.18,0,.36,0,.54.01.31-.15.4-.43.4-1.08,0-2.17-.01-3.25,0-.43,0-.43-.25-.43-.56,0-1.88,0-3.77,0-5.65Z"/>
  <path class="cls-3" d="M177.99,84.59c0-2.37,0-4.75,0-7.12,0-.78,0-.78.76-.79.88,0,1.76,0,2.63,0,.72,0,.73.01.73.74,0,3.43,0,6.86,0,10.3q0,1.29,1.33,1.29c.9,0,1.81,0,2.71,0,.62,0,.63.01.63.66,0,.77,0,1.55,0,2.32,0,.58-.02.59-.62.59-2.01,0-4.03,0-6.04,0-.54,0-1.08-.01-1.63,0-.35.01-.53-.1-.51-.48.02-.52,0-1.03,0-1.55,0-1.99,0-3.97,0-5.96Z"/>
  <path class="cls-3" d="M252.3,84.6c0-2.37,0-4.75,0-7.12,0-.73,0-.73.71-.74.88,0,1.76,0,2.63,0,.7,0,.7,0,.7.75,0,4.47,0,8.93,0,13.4,0,.39-.02.78,0,1.16.02.39-.11.56-.52.55-.98-.02-1.96,0-2.94,0-.57,0-.59-.02-.59-.62,0-1.83,0-3.67,0-5.5,0-.62,0-1.24,0-1.86Z"/>
  <path class="cls-3" d="M192.39,84.69c0,2.32,0,4.65,0,6.97,0,.18,0,.36,0,.54,0,.25-.1.38-.36.38-1.11,0-2.22,0-3.33,0-.27,0-.36-.15-.35-.39,0-.15,0-.31,0-.46,0-4.7,0-9.4,0-14.1,0-.13,0-.26,0-.39-.03-.36.11-.51.49-.51,1.03.01,2.07.01,3.1,0,.32,0,.49.1.47.44-.01.18,0,.36,0,.54,0,2.32,0,4.65,0,6.97Z"/>
</svg>